<svg width="530" height="215" viewBox="0 0 530 215" fill="none" xmlns="http://www.w3.org/2000/svg">
<path fill-rule="evenodd" clip-rule="evenodd" d="M45.5287 9.20132C44.8094 9.72066 42.5849 12.8113 41.0336 15.4462C39.0801 18.7648 37.7466 21.8548 36.7731 25.3195C35.7039 29.125 35.3483 31.4813 35.2437 35.4551C35.1113 40.4828 35.6802 45.2899 37.0314 50.5609L37.5006 52.3915L37.0397 53.3327C35.7589 55.9478 34.7006 59.5251 34.2792 62.6645C33.7334 66.7311 34.1079 72.3866 35.2417 77.1999L35.8114 79.618L35.0998 81.1524C33.5037 84.5949 32.3425 88.9874 31.7927 93.6638C31.5451 95.7692 31.442 96.1225 30.5753 97.8363C25.0274 108.806 22.0297 116.566 22.0003 120.032C21.9854 121.782 22.5019 122.984 23.2683 122.984C24.168 122.984 26.0779 121.005 29.5217 116.505C32.0527 113.197 32.2028 113.051 32.2028 113.896C32.2028 115.194 33.4147 122.706 34.1325 125.858L34.8902 129.185L34.3733 131.155C32.4493 138.487 31.8225 146.234 32.6853 152.015C33.1565 155.172 34.4293 159.686 35.6466 162.518C37.4453 166.703 41.6612 173.208 43.1333 174.07C44.2335 174.714 44.9569 173.592 45.1089 171.005C45.2376 168.814 44.7106 166.808 43.6283 165.369C41.786 162.92 39.9867 157.965 39.4113 153.757C38.9682 150.517 39.1007 143.114 39.6297 141.563C39.6747 141.431 40.283 142.297 40.9816 143.486C45.8068 151.704 53.2113 157.526 58.861 157.545C61.175 157.553 62.7453 157.047 65.6293 155.363C70.305 152.633 74.4604 148.036 77.8221 141.875L79.1773 139.392L79.4 141.327C79.5226 142.391 79.6228 144.969 79.6228 147.055C79.6228 150.448 79.5723 151.119 79.1434 153.417C78.5968 156.346 77.7125 158.944 76.5419 161.06C75.5933 162.774 75.2213 164.177 75.2213 166.039C75.2213 168.521 75.939 170.034 76.9761 169.738C77.4328 169.608 79.6045 166.229 80.8666 163.685C85.3517 154.645 86.5411 145.212 84.5775 134.254C84.3438 132.95 83.9361 131.041 83.6713 130.012L83.19 128.14L83.8784 125.052C85.0085 119.983 86.1835 110.619 86.1835 106.683C86.1835 106.039 86.243 105.448 86.3157 105.369C86.557 105.107 90.3938 109.181 91.9574 111.359C94.2979 114.619 95.4046 115.356 96.4868 114.372C97.0758 113.837 97.4065 112.788 97.5628 110.956C97.6578 109.844 97.608 109.322 97.2989 108.188C96.5405 105.406 92.3747 98.8794 87.3668 92.6263C86.1262 91.0773 85.5942 90.226 85.4681 89.5882C85.1339 87.898 83.8379 83.5942 83.2679 82.2824L82.6948 80.9636L83.1973 79.3998C84.3085 75.9409 85.1718 70.5223 85.1783 66.9657C85.1851 63.2179 84.2709 58.7324 82.8033 55.3129L81.9969 53.4342L82.5123 49.7694C82.7958 47.7536 83.1127 44.6746 83.2167 42.9269C83.8658 32.0091 80.8304 21.3107 74.8652 13.4903C74.1931 12.6094 73.4851 11.8047 73.2916 11.702C72.2407 11.1451 71.4524 13.1238 71.6355 15.8594C71.7736 17.9257 71.9014 18.3146 73.2313 20.721C75.3071 24.4769 76.415 28.014 76.9513 32.5982C77.3546 36.0459 77.272 42.1823 76.7827 45.1344C76.7145 45.5455 76.3794 45.3276 74.6741 43.7622L72.6468 41.9011L72.4571 39.7724C71.9876 34.5014 71.1137 31.4218 69.0798 27.8693C67.1695 24.5329 65.4938 22.8562 62.7441 21.5304C61.0831 20.7292 57.2779 20.8089 55.5595 21.6807C51.8772 23.5485 49.0122 27.48 47.3958 32.8832C46.7364 35.0875 46.1548 38.7065 46.1548 40.6048V41.8681L44.6365 43.2076C42.9144 44.7268 43.0129 44.7857 42.5017 41.9259C40.8568 32.7248 42.1723 23.828 46.0652 17.8244C46.9577 16.4479 47.1897 15.8964 47.4011 14.6471C47.9835 11.2063 46.9429 8.17985 45.5287 9.20132ZM136.676 19.3112C128.534 20.3248 121.129 20.5652 115.961 19.9835C114.205 19.7856 112.39 19.6879 111.927 19.7658C109.833 20.1194 109.682 23.5512 111.714 24.591C112.06 24.7681 113.202 25.1308 114.251 25.3974C117.118 26.1254 118.639 27.3202 119.902 29.834C120.8 31.6228 121.499 34.0675 121.915 36.8719C122.498 40.8134 122.577 48.3692 122.512 93.808C122.448 138.71 122.452 138.483 121.719 143.958C120.812 150.729 118.81 154.241 114.871 155.972C114.069 156.325 113.228 156.868 113.003 157.18C112.465 157.923 112.442 159.477 112.956 160.319C113.41 161.063 114.661 161.098 118.489 160.474C121.542 159.976 135.924 159.884 139.168 160.341C140.218 160.489 142.126 160.698 143.407 160.804C145.402 160.97 145.812 160.928 146.272 160.51C146.737 160.088 146.808 159.873 146.808 158.885C146.808 156.905 146.352 156.546 142.497 155.496C139.161 154.586 136.747 152.758 135.104 149.894C134.015 147.995 133.473 146.294 133.062 143.483C132.804 141.718 132.774 139.643 132.774 123.648L132.773 105.784L133.233 104.975L133.694 104.166L139.248 104.082C144.467 104.002 144.841 104.032 145.432 104.562C146.58 105.593 148.255 108.644 152.153 116.803C168.77 151.591 186.336 185.344 191.017 191.484C197.819 200.405 205.788 204.979 212.52 203.824C214.432 203.496 216.183 202.719 216.117 202.226C216.098 202.081 215.401 201.66 214.568 201.29C209.659 199.11 202.918 190.678 195.135 176.982C191.776 171.07 186.733 161.291 186.896 161.004C186.952 160.906 188.933 160.998 191.298 161.209C195.454 161.58 195.617 161.575 196.146 161.032C196.878 160.281 197.094 159.109 196.742 157.81C196.429 156.658 196.002 156.282 193.813 155.227C190.989 153.867 190.395 152.653 190.529 148.517C190.579 146.956 190.777 145.287 191.124 143.493C191.783 140.079 195.81 124.227 196.43 122.604C197.269 120.408 196.708 120.514 207.931 120.419C213.457 120.372 218.278 120.443 218.643 120.578C219.234 120.795 219.355 120.995 219.752 122.414C220.254 124.206 223.121 137.341 223.985 141.803C224.84 146.219 225.204 148.994 225.204 151.093C225.204 153.843 224.819 154.57 223 155.254C221.9 155.668 221.528 155.951 221.094 156.707C220.497 157.744 220.428 158.473 220.805 159.752C221.277 161.357 221.635 161.46 224.852 160.919C226.501 160.641 228.79 160.599 233.738 160.753C241.536 160.997 241.824 161.021 242.473 161.494C242.995 161.873 243.418 161.85 248.013 161.197C250.131 160.896 251.276 160.895 253.91 161.188C255.707 161.388 258.089 161.622 259.203 161.709L261.228 161.867L261.736 160.975C262.454 159.714 262.453 158.066 261.734 157.003C261.247 156.284 260.877 156.054 258.423 154.947C257.071 154.337 256.168 153.27 255.477 151.466C254.27 148.315 254.027 144.795 254.169 132.467C254.254 124.979 254.969 94.6013 255.143 91.0709C255.173 90.4565 257.171 97.724 262.564 118.059C271.156 150.464 272.965 156.97 273.781 158.403C274.815 160.22 276.012 160.037 276.917 157.923C277.372 156.861 279.058 151.021 280.31 146.169C283.2 134.97 293.752 96.117 294.923 92.3605C296.888 86.0625 296.74 86.3044 296.858 89.1882C297.174 96.9135 297.846 130.449 297.857 139.031C297.869 147.848 297.835 149.303 297.579 150.751C297.199 152.912 296.285 154.35 294.599 155.442C293.919 155.883 293.195 156.557 292.99 156.94C292.361 158.115 292.54 160.197 293.335 160.944C293.75 161.334 296.185 161.324 299.947 160.916C303.661 160.514 306.046 160.559 308.853 161.086C312.907 161.846 314.436 161.411 314.741 159.406C314.9 158.358 314.512 156.948 313.913 156.405C313.634 156.15 312.639 155.673 311.703 155.343C308.153 154.093 307.132 152.445 306.841 147.493C306.622 143.789 305.574 87.5683 305.545 78.0527C305.511 66.5878 305.633 64.5904 306.54 61.6605C307.136 59.7384 307.809 58.9877 309.747 58.0858C310.997 57.5035 311.419 57.167 311.781 56.4645C312.378 55.3062 312.414 53.536 311.862 52.5653L311.486 51.9045L305.858 51.9453L300.229 51.9859L299.714 52.984C299.373 53.6428 295.445 68.0294 288.157 95.3152C282.084 118.049 277.072 136.601 277.018 136.543C276.965 136.485 272.107 118.44 266.223 96.4408C260.06 73.3982 255.274 55.8599 254.933 55.0669C254.14 53.2239 253.132 52.2637 252.039 52.3098C251.577 52.3296 248.744 52.3856 245.744 52.4343L240.29 52.5233L239.89 53.342C239.432 54.2765 239.373 55.516 239.73 56.7274C240.005 57.6619 240.386 57.9819 242.17 58.7753C247.602 61.1914 249.786 68.8236 249.786 85.385C249.786 93.085 248.603 138.8 248.284 143.408C247.894 149.042 247.105 152.235 245.672 153.966C244.708 155.13 242.828 156.273 242.451 155.924C242.299 155.784 241.514 155.401 240.707 155.074C236.63 153.422 235.867 152.367 234.253 146.145C233.94 144.94 229.002 123.054 223.279 97.5093C217.556 71.9647 212.694 50.6432 212.475 50.1285C211.773 48.4789 210.466 48.5772 209.732 50.3351C209.564 50.7363 204.081 71.8089 197.546 97.1632C191.012 122.518 185.367 144.337 185.002 145.651C184.372 147.923 182.735 152.149 182.483 152.157C182.224 152.165 156.431 98.7522 156.448 98.2428C156.452 98.1304 157.293 97.2137 158.317 96.2057C161.175 93.3928 163.136 90.8028 165.434 86.8085C170.18 78.5607 172.22 69.9644 172.219 58.2127C172.217 34.6516 163.92 21.7653 147.241 19.4177C145.309 19.1458 138.552 19.0778 136.676 19.3112ZM136.676 27.2922C134.425 27.8427 133.271 29.1714 132.676 31.8985L132.314 33.5587L132.345 62.2974C132.365 81.0599 132.435 91.4415 132.548 92.2032C132.76 93.6317 133.093 94.3305 133.853 94.9339C134.332 95.3152 135.336 95.415 139.583 95.504C145.225 95.6221 147.396 95.3601 149.858 94.2631C155.611 91.6997 159.639 84.6518 161.208 74.4056C161.628 71.659 161.655 71.1035 161.664 64.9233C161.673 58.6119 161.655 58.2349 161.198 55.1492C160.262 48.8375 158.7 43.8658 156.237 39.3592C151.988 31.5808 146.678 27.6192 139.901 27.1702C138.721 27.092 137.27 27.1469 136.676 27.2922ZM58.0117 29.6096C56.0076 30.1488 54.3286 31.5802 53.0229 33.863C52.229 35.2509 51.1753 38.2444 51.3638 38.5758C51.4091 38.6555 51.9561 38.5172 52.5793 38.2683C56.8441 36.5656 61.1428 36.5046 65.5803 38.0836C66.444 38.3909 67.1896 38.5738 67.2373 38.4904C67.2848 38.4066 67.1137 37.6331 66.8568 36.7713C66.2824 34.8439 64.7819 32.2813 63.6247 31.2514C62.0563 29.8553 59.6811 29.1606 58.0117 29.6096ZM56.2035 45.8679C49.7382 47.3398 43.1003 53.2154 40.4039 59.8527C39.1142 63.028 38.7038 65.7577 39.0102 69.1262C39.5522 75.0854 41.4745 80.6754 45.0702 86.7475C50.3191 95.6113 56.9452 100.394 61.5755 98.6612C66.6244 96.7711 73.4844 88.5615 77.142 80.0326C79.8181 73.7921 80.8088 67.7569 79.8722 63.4026C78.2777 55.9892 70.8593 48.188 63.4286 46.1104C61.9804 45.7054 57.5671 45.5572 56.2035 45.8679ZM387.887 50.9431C382.297 51.8211 377.191 56.2311 374.198 62.7672C371.941 67.6954 370.842 73.4189 370.842 80.2409C370.843 92.5974 374.037 100.456 381.748 107.075C384.254 109.226 385.812 110.318 390.385 113.126C397.227 117.328 399.55 119.212 401.008 121.739C402.738 124.738 403.575 127.567 403.922 131.593C404.783 141.572 400.708 150.617 394.039 153.528C392.202 154.33 388.181 154.24 386.233 153.354C383.123 151.938 380.115 149.026 377.797 145.184C375.682 141.679 374.36 138.058 373.366 133.05C372.577 129.072 372.027 127.944 370.876 127.944C370.262 127.944 369.547 129.382 369.524 130.666C369.469 133.649 369.626 135.101 370.877 143.262C371.419 146.792 372.023 150.784 372.221 152.132C372.517 154.151 372.692 154.778 373.215 155.697C375.316 159.389 382.145 162.506 388.06 162.473C394.875 162.435 400.441 158.774 404.548 151.627C406.914 147.51 408.5 142.724 409.35 137.135C409.75 134.504 409.795 133.702 409.804 128.966C409.813 124.716 409.756 123.329 409.505 121.696C408.736 116.681 407.252 112.191 405.182 108.614C402.14 103.356 398.585 100.042 391.216 95.5927C382.686 90.4425 381.868 89.7831 380.078 86.6116C378.778 84.3099 377.846 81.5428 377.435 78.7669C377.067 76.2884 377.104 72.131 377.515 69.7972C378.706 63.0242 382.754 58.4911 387.596 58.5103C394.864 58.5389 401.696 65.8365 403.845 75.865C404.736 80.0236 405.296 81.2621 406.286 81.2621C407.09 81.2621 407.672 80.3179 407.841 78.7418C407.924 77.9584 407.724 74.859 407.184 68.5704C406.756 63.5958 406.408 59.0915 406.41 58.5608C406.425 54.3606 404.885 52.3999 403.334 54.645C402.976 55.1629 402.543 55.5869 402.372 55.5869C402.2 55.5869 401.152 54.9152 400.043 54.0945C397.506 52.2173 395.508 51.3201 393.01 50.935C390.827 50.5986 390.072 50.5997 387.887 50.9431ZM485.981 50.9437C480.895 51.8041 476.851 54.8668 473.568 60.3441C470.685 65.155 469.121 71.3089 468.914 78.6604C468.65 88.0094 470.534 95.8068 474.346 101.142C477.492 105.544 481.29 108.773 488.381 113.071C494.366 116.699 497.43 119.097 498.808 121.234C499.942 122.992 501.057 125.878 501.546 128.319C502.103 131.1 502.233 135.392 501.848 138.269C500.93 145.133 497.23 151.131 492.533 153.368C491.427 153.895 490.747 154.002 488.464 154.009C486.019 154.016 485.548 153.934 484.1 153.249C478.043 150.389 473.369 142.929 471.443 133.05C471.193 131.766 470.885 130.367 470.76 129.939C470.058 127.543 468.421 127.245 467.787 129.397C467.278 131.125 467.541 134.356 468.868 142.698C469.326 145.576 469.894 149.353 470.131 151.093C470.603 154.556 470.993 155.651 472.255 157.05C473.858 158.828 477.153 160.644 480.907 161.818C483.271 162.558 487.913 162.709 490.042 162.115C494.268 160.938 497.675 158.535 500.597 154.671C504.889 148.995 507.319 141.501 507.891 132.175C508.319 125.199 507.476 118.607 505.481 113.335C503.898 109.152 501.851 105.872 498.848 102.704C496.499 100.225 494.384 98.6574 489.188 95.5448C482.929 91.7954 480.675 90.205 479.541 88.7388C474.493 82.2083 473.679 70.5366 477.796 63.7131C479.821 60.3575 481.82 58.8791 484.721 58.5906C489.926 58.073 495.269 61.5202 498.84 67.6986C500.384 70.37 501.15 72.5194 502.268 77.3233C502.939 80.21 503.489 81.2621 504.326 81.2621C504.775 81.2621 505.059 81.0406 505.418 80.4093C505.849 79.6527 505.904 79.3551 505.904 77.7732C505.904 76.7923 505.609 72.6136 505.248 68.4872C504.887 64.3608 504.54 59.9341 504.478 58.6504C504.335 55.7219 503.952 54.2932 503.191 53.8523C502.533 53.4707 501.964 53.7627 501.217 54.8656C500.949 55.2624 500.609 55.5869 500.461 55.5869C500.314 55.5869 499.179 54.8691 497.941 53.9915C493.839 51.0855 490.37 50.2015 485.981 50.9437ZM319.297 51.6454C319.206 51.6991 318.937 51.8173 318.7 51.9083C317.971 52.1884 317.387 53.4616 317.387 54.7705C317.387 57.1134 317.764 57.5592 320.04 57.9064C322.688 58.3108 323.88 59.582 324.567 62.7351C325.27 65.9637 325.276 66.3915 325.276 108.542C325.276 146.86 325.262 148.883 324.971 150.41C324.388 153.471 323.883 154.207 321.539 155.414C319.643 156.39 318.946 158.062 319.573 160.131C320.05 161.702 320.932 162.002 323.24 161.38C328.639 159.923 337.104 159.928 346.619 161.391C350.974 162.061 353.841 162.017 355.452 161.258C358.98 159.594 361.916 155.441 364.236 148.83C365.288 145.835 365.788 143.236 365.797 140.716C365.803 138.98 365.753 138.666 365.368 137.988C365.049 137.428 364.761 137.222 364.295 137.222C363.75 137.222 363.565 137.407 363.024 138.492C361.111 142.329 360.409 143.603 359.658 144.598C357.856 146.987 354.814 149.198 351.682 150.396C346.615 152.334 337.448 152.715 335.127 151.083C334.595 150.709 334.378 150.327 334.1 149.27C333.754 147.956 333.746 147.577 333.699 129.637L333.65 111.343L334.106 110.818C334.52 110.341 335.118 110.284 340.549 110.198C351.17 110.029 351.903 110.5 352.938 118.152C353.127 119.55 353.363 121.005 353.462 121.387C353.857 122.913 355.505 123.399 356.135 122.176C356.665 121.148 356.749 120.175 356.577 117.076C356.348 112.947 356.362 103.122 356.606 97.1271C356.833 91.5269 356.746 90.6187 355.906 89.8554C355.31 89.3148 354.865 89.3195 354.256 89.8721C353.63 90.4413 353.502 90.8947 353.013 94.2847C352.789 95.8334 352.492 97.4074 352.352 97.7824C351.988 98.758 351.26 99.334 349.54 100.009C348.19 100.538 347.285 100.614 340.954 100.732L333.877 100.863L333.773 100.18C333.715 99.8046 333.672 91.4884 333.676 81.6997C333.681 68.7046 333.736 63.6267 333.881 62.881C334.205 61.2103 334.423 61.1645 342.052 61.1543C351.94 61.1415 353.979 61.6092 355.489 64.2374C356.227 65.5205 356.463 66.83 356.593 70.3417C356.714 73.6421 356.986 75.1867 357.506 75.5374C357.962 75.8449 358.739 75.7387 359.219 75.3028C360.052 74.5457 360.231 73.128 360.661 63.9021C361.176 52.8554 361.182 54.0668 360.607 52.9356C360.1 51.9404 360.099 51.9398 358.633 51.9631C357.826 51.976 354.849 52.2068 352.018 52.4761C340.947 53.529 331.807 53.4004 323.892 52.0804C320.575 51.5272 319.648 51.4397 319.297 51.6454ZM416.825 51.9249C415.963 52.4647 415.575 53.1442 415.448 54.3363C415.202 56.6448 415.895 57.5545 418.165 57.9008C421.505 58.4105 422.411 59.9409 423.146 66.3147C423.371 68.2666 423.415 73.2826 423.473 103.582C423.543 139.909 423.446 148.558 422.942 151.054C422.524 153.122 421.666 154.313 419.919 155.249C418.195 156.173 417.809 156.571 417.543 157.699C417.126 159.469 417.775 161.274 418.971 161.668C419.288 161.773 420.608 161.566 421.985 161.195C426.513 159.977 436.481 160.065 444.698 161.395C448.847 162.066 451.846 162.014 453.501 161.242C456.997 159.611 459.539 156.136 462.061 149.54C463.17 146.64 463.757 143.944 463.846 141.338C463.935 138.743 463.766 137.993 462.957 137.4C462.097 136.768 461.53 137.326 460.405 139.911C458.04 145.348 454.563 148.662 449.266 150.527C446.027 151.667 443.861 151.991 439.466 151.993C434.088 151.995 432.842 151.575 432.248 149.559C431.78 147.968 431.662 143.585 431.661 127.635C431.66 114.823 431.703 111.613 431.881 111.185C432.011 110.874 432.443 110.554 432.919 110.417C434.113 110.073 444.61 110.1 446.358 110.452C449.341 111.052 450.274 112.527 450.944 117.697C451.385 121.107 451.617 121.967 452.25 122.542C452.861 123.096 453.306 123.101 453.901 122.56C454.739 121.8 454.816 120.953 454.578 115.179C454.36 109.914 454.43 101.643 454.743 95.7044C454.977 91.2579 454.639 89.8379 453.27 89.5152C452.669 89.374 452.537 89.4627 452.037 90.3424C451.583 91.1395 451.42 91.7741 451.182 93.6621C450.72 97.3263 450.395 98.3043 449.386 99.0661C447.561 100.446 446.366 100.626 438.886 100.646L431.911 100.664L431.781 98.9138C431.709 97.951 431.672 89.6138 431.697 80.3868C431.748 61.5482 431.708 62.1731 432.908 61.4735C433.902 60.8937 448.653 61.1698 450.473 61.8023C452.768 62.6 453.939 64.0714 454.42 66.7632C454.541 67.4363 454.685 69.4138 454.741 71.158C454.837 74.1582 454.867 74.3668 455.302 75.0239C455.971 76.0343 456.949 75.9797 457.565 74.8978C458.165 73.844 458.329 72.4036 458.65 65.3609C458.788 62.312 458.987 58.6329 459.091 57.1848C459.31 54.1131 459.115 53.0316 458.191 52.1913C457.704 51.7493 457.373 51.7359 454.664 52.0483C441.645 53.5495 430.763 53.5606 421.896 52.0819C417.865 51.4097 417.658 51.4032 416.825 51.9249ZM204.22 91.6781C200.765 105.094 199.645 109.713 199.786 109.961C200.037 110.402 216.469 110.436 216.72 109.995C216.836 109.793 216.818 109.232 216.666 108.244C216.466 106.949 209.275 75.0621 208.968 74.1118C208.892 73.8752 207.071 80.6123 204.22 91.6781ZM38.0708 88.3356C36.6542 92.2523 36.2745 95.4859 36.4019 102.547C36.7638 122.577 41.5789 136.908 50.6172 144.855C51.5797 145.701 54.8787 147.751 55.9958 148.197L56.4526 148.379V131.476V114.572L55.5831 112.287C55.1048 111.029 54.0398 108.808 53.2163 107.351C51.9192 105.055 51.5078 104.525 50.141 103.39C46.2621 100.168 42.3842 94.9528 39.4892 89.065L38.5199 87.0936L38.0708 88.3356ZM78.6262 90.2476C77.3174 92.7395 74.6212 96.6696 72.5114 99.1604C70.9286 101.029 66.4327 105.187 65.9951 105.187C65.7036 105.187 63.4161 109.489 62.6478 111.482C61.3335 114.892 61.4354 113.19 61.4354 131.728V148.379L61.8922 148.196C62.1433 148.095 63.1226 147.567 64.0684 147.022C73.4613 141.605 79.4764 128.543 81.1158 110.001C81.5478 105.114 81.6318 98.1929 81.2945 95.2714C81.0269 92.954 80.0951 88.8147 79.7688 88.4935C79.6885 88.4144 79.1743 89.2036 78.6262 90.2476Z" fill="#F5F9FA"/>
</svg>
