<svg width="200" height="44" viewBox="0 0 200 44" fill="none" xmlns="http://www.w3.org/2000/svg">
<g clip-path="url(#clip0_33_2)">
<g clip-path="url(#clip1_33_2)">
<path d="M35.4657 3.90592C35.5934 3.96875 35.7211 4.03159 35.8526 4.09633C37.4509 4.96549 38.4856 6.24749 39.0591 7.96807C39.198 10.62 38.8179 12.7444 37.0281 14.8425C36.9249 14.8425 36.8218 14.8425 36.7156 14.8425C36.6624 14.973 36.6624 14.973 36.6082 15.1061C35.5655 16.9433 33.0744 18.1496 31.1257 18.715C30.8409 18.7935 30.555 18.8678 30.269 18.9419C29.858 19.0184 29.858 19.0184 29.6849 19.2171C29.6735 19.6384 29.6705 20.0556 29.6752 20.4768C29.6759 20.5953 29.6766 20.7138 29.6773 20.8359C29.6792 21.1296 29.682 21.4232 29.6849 21.7169C29.8378 21.7114 29.9907 21.706 30.1482 21.7004C32.0043 21.6621 33.384 21.8983 34.8408 23.123C36.0446 24.3395 36.5777 25.4971 36.5886 27.2047C36.5813 27.4587 36.5724 27.7126 36.5594 27.9663C36.7624 27.9567 36.9654 27.947 37.1745 27.9371C38.3948 27.9318 39.5848 28.2026 40.7777 28.4351C40.8114 28.2802 40.845 28.1253 40.8797 27.9657C41.0896 27.2354 41.4989 26.6962 41.9593 26.1013C42.0434 25.9912 42.1276 25.8812 42.2143 25.7678C42.859 24.9417 43.533 24.2256 44.3712 23.5917C44.4836 23.5035 44.5959 23.4153 44.7117 23.3244C46.5462 21.9594 48.553 20.983 50.7769 20.467C50.8921 20.4321 51.0073 20.3973 51.126 20.3614C53.6843 19.6326 56.6461 20.2128 58.9408 21.452C60.9536 22.6946 62.4469 24.3553 63.1797 26.6202C63.3619 27.395 63.343 28.1704 63.3344 28.9624C63.3362 29.1279 63.338 29.2935 63.3399 29.464C63.334 31.0699 63.019 32.4555 62.1724 33.8252C62.0901 33.9642 62.0901 33.9642 62.0061 34.106C61.7626 34.5147 61.5086 34.9136 61.2447 35.3095C61.1416 35.3095 61.0385 35.3095 60.9323 35.3095C60.9323 35.4641 60.9323 35.6188 60.9323 35.7782C60.6812 36.0616 60.431 36.3062 60.1511 36.5594C60.0488 36.655 59.9464 36.7507 59.841 36.8492C57.2406 39.233 54.0331 40.874 50.4644 40.934C50.3168 40.9382 50.1692 40.9424 50.0171 40.9468C49.5923 40.9534 49.1704 40.9476 48.7458 40.934C48.6062 40.9295 48.4667 40.9251 48.3229 40.9206C45.8735 40.7734 43.7041 39.6871 42.0087 37.9356C40.934 36.7223 40.934 36.7223 40.934 36.0906C40.8309 36.0906 40.7277 36.0906 40.6215 36.0906C40.4938 35.7687 40.367 35.4464 40.2407 35.1239C40.17 34.9445 40.0993 34.765 40.0265 34.5802C39.5493 33.2456 39.5776 31.9565 39.9282 30.5931C40.0088 30.3078 40.0088 30.3078 39.9966 29.9974C38.7592 29.8427 37.5218 29.6881 36.2469 29.5287C36.0922 30.0443 35.9375 30.5599 35.7782 31.0911C35.5383 31.5512 35.5383 31.5512 35.2997 31.8918C35.2205 32.0082 35.1414 32.1246 35.0598 32.2445C34.9875 32.3279 34.9152 32.4113 34.8408 32.4972C34.7376 32.4972 34.6345 32.4972 34.5283 32.4972C34.4676 32.6335 34.4676 32.6335 34.4056 32.7725C33.5307 34.3844 31.5239 35.5052 29.8412 36.0906C28.2733 36.5449 26.3954 36.6532 24.8416 36.0906C23.849 35.5399 22.754 34.8076 22.3711 33.6885C22.3615 33.6047 22.3518 33.5209 22.3418 33.4346C22.2387 33.4346 22.1356 33.4346 22.0294 33.4346C21.7346 32.71 21.5275 32.1925 21.5606 31.4035C21.3951 31.4487 21.2295 31.4938 21.059 31.5403C20.8421 31.5989 20.6253 31.6575 20.4084 31.716C20.2992 31.7458 20.1901 31.7756 20.0776 31.8063C19.2525 32.0285 19.2525 32.0285 18.9046 32.0285C18.8893 32.2021 18.874 32.3757 18.8582 32.5546C18.73 33.8785 18.5697 35.0439 17.9672 36.2469C17.902 36.3852 17.8367 36.5236 17.7695 36.6662C17.1722 37.9057 17.1722 37.9057 16.7173 38.4342C16.6142 38.4342 16.5111 38.4342 16.4048 38.4342C16.369 38.5204 16.3331 38.6066 16.2962 38.6954C15.2494 40.5633 12.9356 42.0538 10.9366 42.6526C8.73174 43.2347 6.47124 43.4188 4.40819 42.2498C4.06055 41.985 3.74891 41.7086 3.4372 41.4027C3.32925 41.3046 3.22131 41.2065 3.11008 41.1055C2.55726 40.5867 2.55726 40.5867 2.34355 40.309C2.34355 40.1544 2.34355 39.9997 2.34355 39.8403C2.24043 39.8403 2.13732 39.8403 2.03108 39.8403C1.2104 38.4228 1.18694 37.0521 1.40613 35.4657C1.41841 35.3523 1.4307 35.2389 1.44336 35.1221C1.90603 32.1956 4.11991 29.656 6.4057 27.9663C8.60123 26.476 11.1441 25.5438 13.8172 26.0427C15.648 26.4996 17.1523 27.5997 18.1234 29.2162C18.2688 29.5842 18.3548 29.9207 18.4359 30.3099C18.5418 30.2891 18.6478 30.2684 18.7569 30.247C19.7417 30.0602 20.718 29.9235 21.7169 29.8412C21.77 29.5415 21.77 29.5415 21.8243 29.2358C22.1214 27.9291 22.7976 26.8552 23.5429 25.7595C23.6042 25.6687 23.6656 25.5779 23.7288 25.4844C23.8829 25.264 24.0489 25.0519 24.2167 24.8416C24.3198 24.8416 24.4229 24.8416 24.5291 24.8416C24.5807 24.6869 24.6323 24.5323 24.6854 24.3729C25.0032 24.1219 25.3164 23.8941 25.6521 23.6698C25.7404 23.6088 25.8287 23.5478 25.9197 23.4849C27.3701 22.4981 27.3701 22.4981 27.9663 22.4981C27.9663 21.3122 27.9663 20.1264 27.9663 18.9046C27.6892 18.9175 27.4121 18.9304 27.1266 18.9437C25.4771 18.934 24.502 18.3474 23.3146 17.2355C22.0466 15.9163 21.6304 14.8094 21.6651 13.0047C21.7214 11.4773 22.0125 10.3038 22.9668 9.06172C23.0699 9.06172 23.173 9.06172 23.2792 9.06172C23.2277 8.90705 23.1761 8.75237 23.123 8.59301C23.748 7.96807 24.3729 7.34312 24.9978 6.71817C25.101 6.60217 25.2041 6.48616 25.3103 6.36664C27.6404 4.05736 32.3243 2.31715 35.4657 3.90592ZM31.4035 3.59344C31.4035 3.645 31.4035 3.69656 31.4035 3.74968C31.6613 3.74968 31.9191 3.74968 32.1847 3.74968C32.1847 3.69812 32.1847 3.64656 32.1847 3.59344C31.9269 3.59344 31.6691 3.59344 31.4035 3.59344ZM33.4346 3.59344C34.0596 3.74968 34.0596 3.74968 34.0596 3.74968L33.4346 3.59344ZM52.4955 20.3108C52.4955 20.3623 52.4955 20.4139 52.4955 20.467C53.3204 20.467 54.1453 20.467 54.9953 20.467C54.9953 20.4154 54.9953 20.3639 54.9953 20.3108C54.1703 20.3108 53.3454 20.3108 52.4955 20.3108ZM37.3405 28.1226C37.3405 28.1741 37.3405 28.2257 37.3405 28.2788C37.5983 28.2788 37.8561 28.2788 38.1217 28.2788C38.1217 28.2273 38.1217 28.1757 38.1217 28.1226C37.8639 28.1226 37.6061 28.1226 37.3405 28.1226ZM21.7169 31.4035C21.7169 31.6613 21.7169 31.9191 21.7169 32.1847C21.7684 32.1847 21.82 32.1847 21.8731 32.1847C21.8731 31.9269 21.8731 31.6692 21.8731 31.4035C21.8216 31.4035 21.77 31.4035 21.7169 31.4035ZM39.8403 31.716C39.8403 32.18 39.8403 32.6441 39.8403 33.1222C39.8919 33.1222 39.9434 33.1222 39.9966 33.1222C39.9966 32.6581 39.9966 32.1941 39.9966 31.716C39.945 31.716 39.8934 31.716 39.8403 31.716ZM1.7186 34.372C1.87484 34.8408 1.87484 34.8408 1.87484 34.8408L1.7186 34.372Z" fill="#00669D"/>
<path d="M88.8986 9.99914C88.8986 10.1023 88.8986 10.2054 88.8986 10.3116C88.9896 10.3511 89.0807 10.3906 89.1745 10.4312C90.6596 11.2517 91.7155 13.3478 92.3163 14.8815C92.9993 17.2587 92.8139 19.6391 92.3358 22.0294C86.716 22.0809 81.0962 22.1325 75.306 22.1856C75.5951 23.7754 75.953 25.5585 77.2785 26.6481C78.8963 27.6087 80.4105 27.9344 82.2781 27.898C82.5669 27.9006 82.5669 27.9006 82.8615 27.9032C84.5267 27.8899 85.8715 27.5297 87.2185 26.5376C87.4925 26.404 87.4925 26.404 87.7926 26.4226C88.271 26.6253 88.3623 26.9184 88.5886 27.3792C88.6712 27.5458 88.7537 27.7124 88.8388 27.884C88.923 28.0594 89.0072 28.2348 89.0939 28.4155C89.1805 28.5897 89.2671 28.7639 89.3563 28.9434C89.9923 30.2419 89.9923 30.2419 89.9923 30.7786C87.0926 33.1959 82.9754 33.1903 79.4146 32.9165C76.5424 32.6389 74.7103 31.6336 72.65 29.6849C72.4981 29.5427 72.4981 29.5427 72.343 29.3975C72.1256 29.1882 71.9178 28.9689 71.7126 28.7475C71.7126 28.6444 71.7126 28.5413 71.7126 28.4351C71.6095 28.4351 71.5064 28.4351 71.4001 28.4351C69.9456 25.6194 69.9456 25.6194 69.6815 24.5291C69.6499 24.4073 69.6183 24.2854 69.5857 24.1599C68.8036 20.4834 69.2941 16.2662 71.2673 13.0454C72.7379 10.7943 74.9758 9.06008 77.4933 8.1243C77.6065 8.07979 77.7197 8.03528 77.8363 7.98943C81.4243 6.67049 85.9865 7.57242 88.8986 9.99914ZM78.8995 7.81183C79.5244 7.96807 79.5244 7.96807 79.5244 7.96807L78.8995 7.81183ZM78.4308 13.1239C78.264 13.2233 78.264 13.2233 78.0939 13.3247C76.7543 14.2219 76.0012 15.642 75.6185 17.186C75.6701 17.2891 75.7216 17.3923 75.7747 17.4985C79.4869 17.4985 83.1991 17.4985 87.0238 17.4985C86.5781 15.0479 86.5781 15.0479 85.0122 13.2899C83.88 12.6453 82.8613 12.4152 81.575 12.4306C81.437 12.4318 81.299 12.4329 81.1568 12.4342C80.1425 12.4598 79.3076 12.5826 78.4308 13.1239ZM86.8675 16.2486C87.0238 16.5611 87.0238 16.5611 87.0238 16.5611L86.8675 16.2486ZM69.6815 17.3423C69.8378 17.811 69.8378 17.811 69.8378 17.811L69.6815 17.3423ZM69.6815 23.5917C69.8378 24.0604 69.8378 24.0604 69.8378 24.0604L69.6815 23.5917ZM80.7743 28.1226C80.7743 28.1741 80.7743 28.2257 80.7743 28.2788C81.7539 28.2788 82.7335 28.2788 83.7428 28.2788C83.7428 28.2273 83.7428 28.1757 83.7428 28.1226C82.7632 28.1226 81.7836 28.1226 80.7743 28.1226Z" fill="#00679E"/>
<path d="M147.487 8.28046C147.592 8.32557 147.697 8.37068 147.805 8.41716C149.434 9.15956 150.99 10.4632 151.813 12.079C152.271 13.3649 152.587 14.6057 152.746 15.9629C152.766 16.1301 152.786 16.2973 152.806 16.4696C153.051 18.7471 153.025 21.0361 153.024 23.3241C153.024 23.8506 153.025 24.3772 153.029 24.9037C153.032 25.2927 153.032 25.6818 153.029 26.0708C153.044 27.7317 153.374 29.293 154.339 30.6717C154.533 30.9563 154.682 31.2491 154.83 31.5597C154.666 31.7369 154.5 31.9123 154.332 32.087C154.24 32.1849 154.148 32.2828 154.052 32.3836C153.196 33.1154 152.144 33.0664 151.075 33.0342C150.026 32.9183 149.44 32.4858 148.768 31.6989C148.606 31.4866 148.449 31.2704 148.298 31.0495C148.109 30.7566 148.109 30.7566 147.8 30.466C147.743 30.5341 147.685 30.6022 147.626 30.6723C146.361 32.0638 144.516 32.8205 142.658 33.0129C142.194 33.0339 141.732 33.039 141.267 33.0342C141.103 33.0329 140.939 33.0316 140.77 33.0303C138.467 32.9803 136.599 32.32 134.871 30.7492C133.244 29.0041 132.862 27.1753 132.919 24.8757C133.019 22.659 133.969 20.6164 135.585 19.1084C137.931 17.1231 140.874 16.33 143.894 16.2485C144.037 16.2441 144.18 16.2397 144.328 16.2351C146.457 16.2023 146.457 16.2023 147.175 16.561C147 15.2899 146.845 14.2573 145.818 13.3972C144.499 12.7005 143.317 12.5742 141.834 12.5867C141.647 12.5873 141.46 12.588 141.268 12.5886C139.898 12.6109 138.774 12.7995 137.488 13.28C137.229 13.3372 136.969 13.3911 136.707 13.4363C136.595 13.1013 136.484 12.7663 136.373 12.4311C136.288 12.1779 136.202 11.9252 136.114 11.6731C135.907 11.0752 135.716 10.4742 135.555 9.86235C135.525 9.74997 135.494 9.63759 135.463 9.5218C135.457 9.21788 135.457 9.21788 135.642 8.96277C138.374 6.90615 144.505 6.78908 147.487 8.28046ZM139.363 7.81175C139.988 7.96798 139.988 7.96798 139.988 7.96798L139.363 7.81175ZM135.77 9.84282C135.926 10.1553 135.926 10.1553 135.926 10.1553L135.77 9.84282ZM136.082 11.0927C136.238 11.4052 136.238 11.4052 136.238 11.4052L136.082 11.0927ZM141.707 16.561C142.332 16.7172 142.332 16.7172 142.332 16.7172L141.707 16.561ZM139.48 22.537C138.781 23.6362 138.379 24.6155 138.582 25.9352C138.793 26.6931 139.048 27.2036 139.646 27.7221C141.208 28.4875 143.191 28.564 144.851 28.0444C145.898 27.5924 146.472 26.8783 146.968 25.8742C147.303 24.9349 147.224 23.9502 147.204 22.9667C147.202 22.7711 147.2 22.5756 147.198 22.3741C147.192 21.8945 147.185 21.4151 147.175 20.9356C144.668 20.2149 141.364 20.6536 139.48 22.537ZM147.331 21.2481C147.331 22.2277 147.331 23.2073 147.331 24.2166C147.383 24.2166 147.434 24.2166 147.487 24.2166C147.487 23.237 147.487 22.2574 147.487 21.2481C147.436 21.2481 147.384 21.2481 147.331 21.2481Z" fill="#90B140"/>
<path d="M170.403 7.47983C172.929 7.42004 175.853 7.91375 177.797 9.68667C177.997 9.95864 177.997 9.95864 178.11 10.3116C177.944 10.7268 177.944 10.7268 177.662 11.1929C177.562 11.3601 177.462 11.5272 177.36 11.6994C177.253 11.873 177.146 12.0467 177.036 12.2255C176.93 12.4015 176.824 12.5776 176.715 12.7589C176.453 13.1944 176.189 13.6284 175.922 14.0613C175.223 13.7844 174.544 13.4759 173.863 13.1581C172.159 12.421 170.091 12.3749 168.283 12.7974C167.83 12.9784 167.431 13.1785 167.017 13.4364C166.9 13.506 166.782 13.5757 166.661 13.6475C165.34 14.5284 164.715 15.8846 164.205 17.3423C164.152 17.4836 164.099 17.625 164.044 17.7707C163.411 19.8937 163.626 22.9931 164.553 24.9942C165.236 26.1607 165.92 26.8383 167.173 27.3414C167.319 27.4037 167.319 27.4037 167.467 27.4673C168.553 27.8857 169.604 27.8852 170.757 27.8785C170.946 27.8816 171.135 27.8847 171.33 27.8879C172.97 27.887 174.154 27.4941 175.487 26.5529C175.766 26.404 175.766 26.404 176.391 26.404C176.656 26.9226 176.915 27.4441 177.172 27.9664C177.221 28.0634 177.269 28.1604 177.319 28.2603C177.474 28.5715 177.626 28.884 177.778 29.1967C177.828 29.297 177.878 29.3973 177.93 29.5007C178.275 30.2204 178.275 30.2204 178.233 30.6328C178.078 31.0127 177.938 31.0952 177.579 31.287C177.47 31.3461 177.36 31.4052 177.247 31.4661C177.129 31.526 177.011 31.5859 176.889 31.6477C176.768 31.7098 176.648 31.7719 176.523 31.836C174.857 32.6674 173.241 32.9104 171.392 32.9659C171.253 32.971 171.114 32.9761 170.971 32.9813C167.856 33.0839 165.167 32.7909 162.486 31.0911C162.435 30.9364 162.383 30.7817 162.33 30.6224C162.125 30.5107 161.916 30.4075 161.705 30.3099C160.835 29.67 160.143 28.9472 159.674 27.9664C159.674 27.8632 159.674 27.7601 159.674 27.6539C159.571 27.6539 159.468 27.6539 159.361 27.6539C159.086 27.1714 159.049 26.9925 159.049 26.404C158.946 26.404 158.843 26.404 158.736 26.404C158.604 26.0368 158.474 25.6691 158.346 25.3006C158.309 25.198 158.271 25.0953 158.233 24.9896C157.992 24.2908 157.933 23.7137 157.955 22.9668C157.904 22.8121 157.852 22.6574 157.799 22.4981C157.571 18.8316 157.939 15.185 160.33 12.2298C160.675 11.8409 161.03 11.4658 161.392 11.0928C161.479 10.9951 161.565 10.8974 161.654 10.7968C162.865 9.46808 164.529 8.62524 166.236 8.12431C166.387 8.0796 166.538 8.03489 166.693 7.98882C167.929 7.65195 169.128 7.53945 170.403 7.47983ZM169.36 28.1226C169.36 28.1741 169.36 28.2257 169.36 28.2788C170.289 28.2788 171.217 28.2788 172.173 28.2788C172.173 28.2273 172.173 28.1757 172.173 28.1226C171.245 28.1226 170.317 28.1226 169.36 28.1226Z" fill="#90B140"/>
<path d="M196.858 9.21789C196.805 10.2748 196.549 11.0821 196.117 12.0466C195.908 12.5023 195.908 12.5023 195.769 13.0146C195.689 13.2233 195.689 13.2233 195.608 13.4363C195.139 13.5925 195.139 13.5925 194.738 13.4137C194.584 13.3277 194.43 13.2417 194.27 13.1531C192.678 12.3312 190.858 12.0244 189.085 12.4445C188.472 12.6798 188.066 12.9375 187.708 13.4949C187.479 14.0744 187.38 14.387 187.484 14.9986C188.149 16.3574 189.627 16.8689 190.921 17.4984C191.089 17.5854 191.256 17.6724 191.429 17.7621C191.852 17.9757 191.852 17.9757 192.293 18.1063C193.762 18.6126 194.977 19.4213 196.088 20.495C196.37 20.7885 196.37 20.7885 196.702 20.9356C196.702 21.0388 196.702 21.1419 196.702 21.2481C196.934 21.3254 196.934 21.3254 197.171 21.4043C197.416 21.7913 197.416 21.7913 197.659 22.2832C197.78 22.523 197.78 22.523 197.904 22.7678C198.523 24.3216 198.598 27.0178 197.952 28.5912C197.675 29.1369 197.388 29.6675 197.014 30.1536C196.911 30.1536 196.808 30.1536 196.702 30.1536C196.65 30.3083 196.599 30.4629 196.546 30.6223C196.442 30.6223 196.339 30.6223 196.233 30.6223C196.182 30.777 196.13 30.9316 196.077 31.091C194.079 32.7376 191.651 33.0536 189.144 33.0342C189.037 33.0337 188.931 33.0333 188.821 33.0328C187.252 33.0224 185.828 32.9448 184.359 32.3409C184.172 32.2656 183.985 32.1903 183.792 32.1127C182.968 31.7561 182.311 31.4522 181.703 30.7785C181.973 29.8994 182.336 29.0691 182.709 28.2299C182.771 28.0864 182.832 27.9429 182.896 27.7951C182.956 27.6588 183.017 27.5226 183.079 27.3822C183.161 27.196 183.161 27.196 183.244 27.0061C183.422 26.7164 183.422 26.7164 183.89 26.5602C184.205 26.6993 184.205 26.6993 184.554 26.9117C186.115 27.8191 187.523 28.1461 189.31 28.1713C189.477 28.1755 189.477 28.1755 189.647 28.1797C190.566 28.1785 191.22 27.9629 192.001 27.4622C192.282 27.0029 192.233 26.5627 192.23 26.0329C192.231 25.8286 192.232 25.6244 192.233 25.414C192.143 24.5812 191.884 24.2316 191.281 23.6631C190.738 23.2347 190.149 22.919 189.534 22.6054C189.419 22.5453 189.304 22.4852 189.185 22.4233C188.605 22.1223 188.022 21.829 187.434 21.5429C185.063 20.3876 183.116 19.1238 181.859 16.7172C181.751 16.2742 181.751 16.2742 181.703 15.9361C181.652 15.9361 181.6 15.9361 181.547 15.9361C181.35 12.3484 181.35 12.3484 182.484 10.7803C182.569 10.6624 182.653 10.5446 182.741 10.4232C183.912 8.95927 185.436 8.37158 187.171 7.81176C187.326 7.7602 187.481 7.70865 187.64 7.65553C190.736 7.23822 194.185 7.43616 196.858 9.21789ZM192.171 7.81176C192.796 7.968 192.796 7.968 192.796 7.968L192.171 7.81176ZM181.703 12.6551C181.859 13.1238 181.859 13.1238 181.859 13.1238L181.703 12.6551ZM192.483 25.3103C192.483 25.8258 192.483 26.3414 192.483 26.8726C192.535 26.8726 192.587 26.8726 192.64 26.8726C192.64 26.357 192.64 25.8415 192.64 25.3103C192.588 25.3103 192.537 25.3103 192.483 25.3103Z" fill="#90B140"/>
<path d="M104.054 1.25C104.105 3.467 104.157 5.68399 104.21 7.96817C106.201 7.96199 106.201 7.96199 108.192 7.9541C108.441 7.95364 108.69 7.95324 108.94 7.95291C109.07 7.95212 109.2 7.95132 109.333 7.95049C110.267 7.95035 110.267 7.95035 110.615 8.12441C110.615 9.61959 110.615 11.1148 110.615 12.6553C108.45 12.7068 106.285 12.7584 104.054 12.8115C104.072 14.8206 104.072 14.8206 104.094 16.8297C104.103 17.6505 104.112 18.4712 104.119 19.292C104.125 19.9545 104.133 20.617 104.141 21.2795C104.144 21.5309 104.146 21.7823 104.148 22.0336C104.088 24.8387 104.088 24.8387 105.147 27.3415C105.989 27.9065 106.786 27.8858 107.764 27.8786C107.911 27.8817 108.057 27.8848 108.208 27.888C109.168 27.8874 109.9 27.719 110.774 27.3196C111.084 27.1853 111.084 27.1853 111.397 27.1853C111.397 28.8867 111.397 30.5881 111.397 32.3411C108.926 33.3292 104.757 33.4716 102.265 32.4082C101.508 31.9843 100.909 31.3939 100.304 30.7787C100.183 30.6576 100.183 30.6576 100.06 30.534C98.8038 29.1564 98.3765 27.4089 98.396 25.5988C98.3962 25.4618 98.3964 25.3247 98.3967 25.1834C98.3977 24.7345 98.4009 24.2855 98.404 23.8366C98.405 23.5235 98.4058 23.2104 98.4065 22.8973C98.4085 22.0762 98.4124 21.2551 98.4167 20.434C98.4234 19.116 98.4281 17.798 98.4317 16.4799C98.4333 16.019 98.436 15.5581 98.4387 15.0972C98.4398 14.817 98.4408 14.5367 98.4418 14.2564C98.4429 14.1275 98.4439 13.9985 98.445 13.8656C98.4456 13.5663 98.4382 13.2669 98.429 12.9677C98.0805 12.6193 97.1621 12.7481 96.6677 12.7306C96.3688 12.7163 96.0706 12.6869 95.773 12.6553C95.4333 11.9759 95.5879 11.058 95.5875 10.3117C95.5856 10.122 95.5837 9.93229 95.5817 9.73682C95.5814 9.55596 95.5811 9.37511 95.5808 9.18877C95.5801 9.02221 95.5795 8.85566 95.5788 8.68405C95.6168 8.28065 95.6168 8.28065 95.9292 7.96817C96.3594 7.94544 96.7694 7.93908 97.1987 7.94864C97.6047 7.95509 98.0107 7.96153 98.429 7.96817C98.429 6.36987 98.429 4.77157 98.429 3.12484C102.914 1.25 102.914 1.25 104.054 1.25ZM106.71 28.1227C106.71 28.1742 106.71 28.2258 106.71 28.2789C107.431 28.2789 108.153 28.2789 108.897 28.2789C108.897 28.2274 108.897 28.1758 108.897 28.1227C108.175 28.1227 107.453 28.1227 106.71 28.1227Z" fill="#90B140"/>
<path d="M127.708 7.47992C129.294 7.43878 130.797 7.62553 132.176 8.43687C132.1 9.31798 131.862 9.92109 131.424 10.6828C131.311 10.8874 131.197 11.0923 131.084 11.2973C131.003 11.4447 131.003 11.4447 130.92 11.5951C130.626 12.142 130.386 12.7085 130.145 13.2802C129.658 13.204 129.288 13.089 128.837 12.8798C127.739 12.4621 126.411 12.4462 125.299 12.809C124.257 13.3146 123.454 13.912 122.861 14.9207C122.772 15.0673 122.683 15.2139 122.591 15.365C121.69 17.2039 121.791 19.2129 121.785 21.2068C121.782 21.5334 121.779 21.8599 121.776 22.1865C121.769 23.0403 121.764 23.894 121.76 24.7478C121.755 25.6213 121.748 26.4948 121.741 27.3683C121.728 29.078 121.717 30.7876 121.708 32.4973C119.904 32.4973 118.099 32.4973 116.24 32.4973C116.216 29.3222 116.193 26.147 116.171 22.9719C116.161 21.4977 116.15 20.0236 116.139 18.5494C116.129 17.265 116.12 15.9806 116.111 14.6962C116.107 14.0157 116.102 13.3352 116.096 12.6547C116.091 12.0149 116.087 11.3751 116.083 10.7354C116.081 10.4999 116.079 10.2644 116.077 10.0289C116.074 9.70875 116.073 9.38861 116.071 9.06847C116.07 8.88888 116.068 8.70929 116.067 8.52426C116.084 8.12439 116.084 8.12439 116.24 7.96816C116.619 7.9524 116.993 7.94633 117.372 7.94741C117.486 7.94726 117.599 7.94711 117.716 7.94695C117.956 7.94685 118.197 7.94714 118.437 7.94779C118.806 7.94862 119.175 7.9478 119.543 7.9468C119.777 7.9469 120.01 7.9471 120.243 7.94741C120.409 7.94693 120.409 7.94693 120.578 7.94645C121.36 7.9502 121.36 7.9502 121.708 8.12439C121.773 8.51559 121.773 8.51559 121.806 8.99346C121.818 9.15156 121.829 9.30965 121.841 9.47254C121.849 9.59479 121.857 9.71704 121.865 9.84299C121.938 9.78439 122.012 9.72578 122.089 9.6654C123.863 8.29228 125.473 7.59621 127.708 7.47992Z" fill="#90B140"/>
<path d="M115.927 8.28052C115.979 8.28052 116.031 8.28052 116.084 8.28052C116.084 16.1689 116.084 24.0573 116.084 32.1847C116.032 32.1847 115.981 32.1847 115.927 32.1847C115.927 24.2963 115.927 16.4079 115.927 8.28052Z" fill="#91B240"/>
<path d="M98.2728 13.1238C98.3244 13.1238 98.3759 13.1238 98.4291 13.1238C98.4291 17.3515 98.4291 21.5793 98.4291 25.9352C98.3775 25.9352 98.3259 25.9352 98.2728 25.9352C98.2728 21.7074 98.2728 17.4797 98.2728 13.1238Z" fill="#91B240"/>
<path d="M98.2728 3.43726C98.3244 3.43726 98.3759 3.43726 98.4291 3.43726C98.4291 4.88088 98.4291 6.32451 98.4291 7.81188C98.3775 7.81188 98.3259 7.81188 98.2728 7.81188C98.2728 6.36825 98.2728 4.92463 98.2728 3.43726Z" fill="#91B240"/>
<path d="M21.5607 12.6553C21.6122 12.6553 21.6638 12.6553 21.7169 12.6553C21.7169 13.1709 21.7169 13.6864 21.7169 14.2176C21.6653 14.2176 21.6138 14.2176 21.5607 14.2176C21.5607 13.7021 21.5607 13.1865 21.5607 12.6553Z" fill="#00679E"/>
</g>
</g>
<defs>
<clipPath id="clip0_33_2">
<rect width="200" height="43.59" fill="white"/>
</clipPath>
<clipPath id="clip1_33_2">
<rect width="199.983" height="43.59" fill="white"/>
</clipPath>
</defs>
</svg>
