<svg xmlns="http://www.w3.org/2000/svg" width="3180" height="888" viewBox="0 0 3180 888" version="1.1"><path d="M 282.231 112.017 C 277.900 113.797, 264.507 124.390, 255.167 133.421 C 243.406 144.795, 235.377 155.386, 229.516 167.261 C 223.079 180.304, 220.938 188.380, 220.308 202 C 219.511 219.232, 222.936 235.708, 231.071 253.774 L 233.896 260.048 231.121 263.274 C 223.410 272.237, 217.038 284.498, 214.501 295.258 C 211.215 309.196, 213.470 328.580, 220.296 345.077 L 223.726 353.365 219.442 358.624 C 209.832 370.423, 202.841 385.478, 199.531 401.506 C 198.040 408.722, 197.419 409.933, 192.201 415.807 C 158.799 453.405, 140.751 480, 140.574 491.882 C 140.484 497.878, 143.594 502, 148.208 502 C 153.625 502, 165.124 495.217, 185.858 479.792 C 201.096 468.456, 202 467.955, 202 470.850 C 202 475.299, 209.296 501.046, 213.618 511.849 L 218.180 523.251 215.068 530.003 C 203.484 555.135, 199.710 581.687, 204.905 601.500 C 207.742 612.321, 215.405 627.793, 222.734 637.500 C 233.563 651.842, 258.946 674.138, 267.809 677.091 C 274.433 679.299, 278.788 675.454, 279.703 666.588 C 280.478 659.077, 277.305 652.202, 270.789 647.270 C 259.697 638.877, 248.864 621.895, 245.400 607.472 C 242.732 596.365, 243.530 570.993, 246.715 565.678 C 246.986 565.225, 250.648 568.191, 254.854 572.268 C 283.905 600.434, 328.485 620.390, 362.500 620.455 C 376.432 620.482, 385.886 618.747, 403.250 612.974 C 431.401 603.617, 456.419 587.863, 476.659 566.748 L 484.818 558.236 486.159 564.868 C 486.897 568.516, 487.500 577.350, 487.500 584.500 C 487.500 596.130, 487.196 598.428, 484.614 606.306 C 481.323 616.346, 475.999 625.250, 468.951 632.500 C 463.240 638.375, 461 643.183, 461 649.567 C 461 658.072, 465.321 663.258, 471.565 662.244 C 474.315 661.798, 487.390 650.219, 494.989 641.500 C 521.992 610.516, 529.153 578.183, 517.331 540.626 C 515.924 536.157, 513.469 529.614, 511.875 526.086 L 508.977 519.672 513.122 509.086 C 519.926 491.712, 527 459.618, 527 446.127 C 527 443.922, 527.358 441.897, 527.796 441.626 C 529.249 440.728, 552.349 454.690, 561.763 462.155 C 575.854 473.329, 582.517 475.853, 589.033 472.483 C 592.579 470.649, 594.570 467.052, 595.511 460.775 C 596.083 456.963, 595.783 455.174, 593.922 451.288 C 589.356 441.753, 564.275 419.382, 534.124 397.950 C 526.655 392.641, 523.452 389.723, 522.693 387.537 C 520.681 381.744, 512.878 366.993, 509.446 362.497 L 505.996 357.977 509.021 352.617 C 515.711 340.762, 520.909 322.190, 520.948 310 C 520.989 297.155, 515.485 281.781, 506.649 270.061 L 501.794 263.622 504.897 251.061 C 506.604 244.152, 508.512 233.599, 509.138 227.609 C 513.046 190.189, 494.771 153.521, 458.856 126.717 C 454.810 123.698, 450.547 120.940, 449.382 120.588 C 443.055 118.679, 438.309 125.461, 439.411 134.837 C 440.243 141.919, 441.012 143.252, 449.019 151.500 C 461.517 164.373, 468.187 176.496, 471.416 192.208 C 473.844 204.025, 473.347 225.057, 470.401 235.175 C 469.990 236.584, 467.973 235.837, 457.706 230.472 L 445.500 224.093 444.358 216.797 C 441.531 198.731, 436.270 188.176, 424.024 176 C 412.523 164.565, 402.434 158.818, 385.879 154.274 C 375.879 151.528, 352.969 151.801, 342.623 154.789 C 320.453 161.191, 303.204 174.666, 293.472 193.185 C 289.502 200.740, 286 213.144, 286 219.650 L 286 223.980 276.859 228.571 C 266.491 233.778, 267.084 233.980, 264.006 224.178 C 254.103 192.642, 262.023 162.149, 285.461 141.572 C 290.834 136.854, 292.231 134.964, 293.504 130.682 C 297.010 118.889, 290.745 108.516, 282.231 112.017 M 831 146.668 C 781.979 150.142, 737.393 150.966, 706.278 148.972 C 695.706 148.294, 684.779 147.959, 681.996 148.226 C 669.386 149.438, 668.474 161.200, 680.713 164.764 C 682.796 165.371, 689.670 166.614, 695.988 167.528 C 713.245 170.023, 722.406 174.118, 730.006 182.734 C 735.415 188.865, 739.624 197.244, 742.125 206.856 C 745.638 220.365, 746.116 246.262, 745.725 402 C 745.338 555.897, 745.360 555.121, 740.946 573.885 C 735.486 597.094, 723.436 609.130, 699.719 615.064 C 694.889 616.272, 689.827 618.135, 688.469 619.203 C 685.231 621.750, 685.092 627.076, 688.189 629.961 C 690.924 632.510, 698.454 632.630, 721.500 630.492 C 739.879 628.787, 826.470 628.471, 846 630.038 C 852.325 630.545, 863.810 631.259, 871.522 631.624 C 883.538 632.192, 886.006 632.048, 888.772 630.618 C 891.573 629.170, 892 628.432, 892 625.047 C 892 618.260, 889.252 617.030, 866.044 613.430 C 845.959 610.314, 831.428 604.046, 821.533 594.230 C 814.975 587.723, 811.713 581.893, 809.241 572.259 C 807.689 566.207, 807.507 559.095, 807.504 504.274 L 807.500 443.047 810.272 440.274 L 813.043 437.500 846.486 437.212 C 877.908 436.941, 880.159 437.041, 883.715 438.859 C 890.628 442.394, 900.714 452.851, 924.178 480.814 C 1024.228 600.047, 1129.984 715.734, 1158.169 736.778 C 1199.121 767.355, 1247.101 783.029, 1287.632 779.072 C 1299.145 777.947, 1309.682 775.283, 1309.289 773.595 C 1309.173 773.098, 1304.977 771.654, 1299.964 770.387 C 1270.406 762.915, 1229.823 734.016, 1182.961 687.072 C 1162.736 666.810, 1132.374 633.292, 1133.357 632.310 C 1133.695 631.972, 1145.622 632.288, 1159.862 633.012 C 1184.885 634.285, 1185.862 634.265, 1189.046 632.405 C 1193.453 629.831, 1194.759 625.815, 1192.636 621.363 C 1190.753 617.415, 1188.184 616.125, 1175 612.510 C 1157.999 607.848, 1154.424 603.688, 1155.230 589.512 C 1155.534 584.162, 1156.724 578.440, 1158.810 572.291 C 1162.779 560.591, 1187.023 506.258, 1190.757 500.695 C 1195.807 493.169, 1192.432 493.534, 1260 493.207 C 1293.275 493.046, 1322.297 493.290, 1324.494 493.751 C 1328.053 494.496, 1328.781 495.182, 1331.172 500.044 C 1334.193 506.188, 1351.459 551.207, 1356.660 566.500 C 1361.807 581.634, 1364 591.147, 1364 598.340 C 1364 607.765, 1361.679 610.259, 1350.728 612.603 C 1344.107 614.020, 1341.865 614.992, 1339.250 617.582 C 1335.659 621.137, 1335.243 623.636, 1337.510 628.020 C 1340.355 633.520, 1342.509 633.874, 1361.877 632.018 C 1371.808 631.066, 1385.590 630.920, 1415.377 631.450 C 1462.324 632.285, 1464.063 632.369, 1467.971 633.988 C 1471.109 635.288, 1473.657 635.210, 1501.325 632.972 C 1514.075 631.941, 1520.971 631.935, 1536.825 632.939 C 1547.646 633.624, 1561.987 634.428, 1568.694 634.725 L 1580.888 635.266 1583.944 632.210 C 1588.267 627.887, 1588.262 622.240, 1583.933 618.597 C 1581.003 616.132, 1578.772 615.343, 1564 611.550 C 1555.856 609.459, 1550.420 605.803, 1546.259 599.619 C 1538.993 588.819, 1537.534 576.756, 1538.384 534.500 C 1538.900 508.835, 1543.205 404.719, 1544.251 392.619 C 1544.433 390.513, 1556.463 415.422, 1588.927 485.119 C 1640.659 596.185, 1651.549 618.483, 1656.461 623.395 C 1662.689 629.622, 1669.893 628.995, 1675.343 621.751 C 1678.083 618.108, 1688.232 598.092, 1695.770 581.464 C 1713.170 543.079, 1776.700 409.914, 1783.754 397.039 C 1795.583 375.453, 1794.695 376.282, 1795.405 386.166 C 1797.305 412.644, 1801.353 527.584, 1801.420 557 C 1801.490 587.217, 1801.282 592.204, 1799.746 597.169 C 1797.453 604.576, 1791.955 609.503, 1781.803 613.247 C 1777.706 614.758, 1773.346 617.067, 1772.114 618.379 C 1768.328 622.409, 1769.408 629.542, 1774.192 632.103 C 1776.693 633.441, 1791.350 633.407, 1814 632.009 C 1836.361 630.629, 1850.721 630.784, 1867.621 632.589 C 1892.031 635.197, 1901.232 633.703, 1903.069 626.833 C 1904.030 623.241, 1901.690 618.408, 1898.088 616.546 C 1896.404 615.674, 1890.414 614.037, 1884.777 612.907 C 1863.408 608.623, 1857.261 602.973, 1855.504 586 C 1854.190 573.305, 1847.877 380.614, 1847.706 348 C 1847.501 308.705, 1848.231 301.859, 1853.696 291.817 C 1857.282 285.229, 1861.336 282.656, 1873 279.565 C 1880.529 277.569, 1883.071 276.416, 1885.250 274.008 C 1888.842 270.038, 1889.062 263.971, 1885.735 260.644 L 1883.470 258.379 1849.586 258.519 L 1815.701 258.658 1812.595 262.079 C 1810.545 264.337, 1786.898 313.646, 1743.014 407.166 C 1706.452 485.083, 1676.276 548.670, 1675.955 548.472 C 1675.635 548.274, 1646.387 486.423, 1610.960 411.024 C 1573.852 332.047, 1545.037 271.936, 1542.984 269.218 C 1538.211 262.901, 1532.145 259.610, 1525.565 259.768 C 1522.779 259.836, 1505.724 260.028, 1487.664 260.195 L 1454.827 260.500 1452.414 263.306 C 1449.658 266.509, 1449.306 270.757, 1451.453 274.909 C 1453.109 278.112, 1455.406 279.209, 1466.144 281.928 C 1498.847 290.209, 1512 316.368, 1512 373.131 C 1512 399.522, 1504.873 556.207, 1502.954 572 C 1500.608 591.312, 1495.853 602.253, 1487.230 608.186 C 1481.427 612.178, 1470.108 616.096, 1467.837 614.899 C 1466.922 614.417, 1462.197 613.105, 1457.337 611.985 C 1432.787 606.323, 1428.197 602.708, 1418.477 581.380 C 1416.595 577.250, 1386.864 502.238, 1352.408 414.686 C 1317.952 327.134, 1288.681 254.056, 1287.361 252.292 C 1283.133 246.638, 1275.267 246.975, 1270.845 253 C 1269.836 254.375, 1236.821 326.600, 1197.479 413.500 C 1158.137 500.400, 1124.151 575.184, 1121.956 579.687 C 1118.160 587.476, 1108.306 601.961, 1106.786 601.988 C 1105.228 602.015, 949.940 418.946, 950.040 417.200 C 950.062 416.815, 955.125 413.673, 961.290 410.218 C 978.497 400.577, 990.308 391.700, 1004.144 378.010 C 1032.716 349.741, 1044.995 320.278, 1044.990 280 C 1044.980 199.246, 995.027 155.079, 894.605 147.033 C 882.973 146.101, 842.294 145.868, 831 146.668 M 831 174.022 C 817.449 175.909, 810.501 180.463, 806.917 189.810 L 804.735 195.500 804.921 294 C 805.043 358.307, 805.468 393.889, 806.147 396.500 C 807.419 401.396, 809.428 403.791, 814 405.859 C 816.887 407.166, 822.930 407.508, 848.500 407.813 C 882.472 408.218, 895.540 407.320, 910.363 403.560 C 944.998 394.774, 969.252 370.618, 978.697 335.500 C 981.229 326.086, 981.390 324.182, 981.444 303 C 981.498 281.368, 981.390 280.076, 978.635 269.500 C 973 247.867, 963.598 230.827, 948.772 215.381 C 923.185 188.721, 891.217 175.143, 850.417 173.604 C 843.313 173.336, 834.575 173.524, 831 174.022 M 357.387 181.965 C 345.321 183.813, 335.212 188.719, 327.351 196.543 C 322.571 201.300, 316.227 211.560, 317.362 212.696 C 317.635 212.969, 320.928 212.495, 324.680 211.642 C 350.357 205.806, 376.238 205.597, 402.955 211.009 C 408.155 212.062, 412.644 212.689, 412.931 212.403 C 413.217 212.116, 412.187 209.465, 410.640 206.511 C 407.182 199.905, 398.148 191.122, 391.181 187.592 C 381.738 182.807, 367.438 180.426, 357.387 181.965 M 346.500 237.689 C 307.575 242.734, 267.610 262.872, 251.376 285.621 C 243.611 296.504, 241.140 305.860, 242.985 317.405 C 246.248 337.830, 257.822 356.989, 279.470 377.801 C 311.072 408.181, 350.966 424.574, 378.843 418.634 C 409.241 412.156, 450.543 384.018, 472.564 354.786 C 488.676 333.397, 494.641 312.712, 489.002 297.788 C 479.402 272.379, 434.738 245.641, 390 238.520 C 381.281 237.132, 354.710 236.624, 346.500 237.689 M 2343.458 255.084 C 2309.801 258.093, 2279.062 273.208, 2261.040 295.610 C 2247.452 312.501, 2240.835 332.118, 2240.837 355.500 C 2240.842 397.851, 2260.072 424.786, 2306.500 447.472 C 2321.584 454.843, 2330.968 458.586, 2358.500 468.211 C 2399.694 482.613, 2413.680 489.069, 2422.458 497.732 C 2432.872 508.010, 2437.909 517.708, 2440.001 531.507 C 2445.185 565.708, 2420.649 596.709, 2380.500 606.686 C 2369.438 609.435, 2345.227 609.128, 2333.500 606.089 C 2314.773 601.237, 2296.668 591.255, 2282.708 578.086 C 2269.976 566.075, 2262.015 553.664, 2256.032 536.500 C 2251.280 522.866, 2247.968 519, 2241.042 519 C 2237.342 519, 2233.039 523.928, 2232.899 528.327 C 2232.572 538.551, 2233.512 543.530, 2241.048 571.500 C 2244.308 583.600, 2247.948 597.280, 2249.138 601.900 C 2250.920 608.823, 2251.972 610.972, 2255.121 614.121 C 2267.775 626.775, 2308.886 637.457, 2344.500 637.345 C 2385.531 637.215, 2419.040 624.666, 2443.768 600.169 C 2458.012 586.059, 2467.561 569.655, 2472.681 550.500 C 2475.091 541.481, 2475.360 538.734, 2475.416 522.500 C 2475.466 507.934, 2475.122 503.180, 2473.614 497.584 C 2468.981 480.396, 2460.048 465.006, 2447.587 452.745 C 2429.273 434.726, 2407.869 423.366, 2363.500 408.117 C 2312.144 390.465, 2307.219 388.205, 2296.441 377.335 C 2288.619 369.446, 2283.007 359.962, 2280.528 350.448 C 2278.316 341.953, 2278.539 327.704, 2281.009 319.705 C 2288.180 296.491, 2312.557 280.954, 2341.708 281.020 C 2385.463 281.118, 2426.600 306.130, 2439.537 340.502 C 2444.902 354.755, 2448.274 359, 2454.233 359 C 2459.071 359, 2462.578 355.764, 2463.593 350.362 C 2464.097 347.677, 2462.892 337.054, 2459.638 315.500 C 2457.065 298.450, 2454.968 283.012, 2454.979 281.193 C 2455.069 266.797, 2445.796 260.077, 2436.461 267.772 C 2434.307 269.547, 2431.700 271, 2430.667 271 C 2429.635 271, 2423.325 268.698, 2416.645 265.885 C 2401.369 259.451, 2389.343 256.376, 2374.302 255.056 C 2361.158 253.903, 2356.616 253.907, 2343.458 255.084 M 2934.050 255.086 C 2903.427 258.035, 2879.079 268.532, 2859.316 287.305 C 2841.957 303.794, 2832.543 324.886, 2831.295 350.083 C 2829.708 382.126, 2841.051 408.851, 2864 427.137 C 2882.938 442.226, 2905.805 453.290, 2948.500 468.023 C 2984.532 480.457, 3002.978 488.678, 3011.277 496.002 C 3018.105 502.027, 3024.820 511.919, 3027.762 520.284 C 3031.114 529.815, 3031.900 544.525, 3029.583 554.387 C 3024.056 577.914, 3001.778 598.471, 2973.500 606.137 C 2966.837 607.943, 2962.743 608.310, 2949 608.333 C 2934.278 608.357, 2931.446 608.077, 2922.723 605.731 C 2886.261 595.926, 2858.119 570.358, 2846.521 536.500 C 2845.014 532.100, 2843.164 527.302, 2842.411 525.838 C 2838.182 517.625, 2828.326 516.602, 2824.510 523.980 C 2821.448 529.902, 2823.029 540.977, 2831.020 569.567 C 2833.776 579.430, 2837.198 592.377, 2838.624 598.339 C 2841.464 610.209, 2843.815 613.964, 2851.409 618.758 C 2861.064 624.853, 2880.900 631.076, 2903.500 635.099 C 2917.737 637.634, 2945.683 638.152, 2958.500 636.119 C 2983.946 632.082, 3004.457 623.847, 3022.051 610.603 C 3047.890 591.151, 3062.520 565.465, 3065.965 533.500 C 3068.543 509.589, 3063.465 486.998, 3051.451 468.926 C 3041.921 454.591, 3029.599 443.347, 3011.520 432.489 C 2997.374 423.993, 2984.640 418.621, 2953.359 407.953 C 2915.677 395.102, 2902.104 389.651, 2895.280 384.626 C 2864.882 362.243, 2859.982 322.239, 2884.774 298.852 C 2896.965 287.351, 2908.997 282.284, 2926.463 281.295 C 2957.799 279.521, 2989.973 291.336, 3011.473 312.512 C 3020.769 321.668, 3025.377 329.035, 3032.107 345.500 C 3036.151 355.394, 3039.461 359, 3044.500 359 C 3047.205 359, 3048.913 358.241, 3051.077 356.077 C 3053.670 353.484, 3054 352.464, 3054 347.042 C 3054 343.680, 3052.222 329.358, 3050.049 315.215 C 3047.876 301.072, 3045.789 285.900, 3045.412 281.500 C 3044.552 271.463, 3042.245 266.566, 3037.667 265.055 C 3033.703 263.747, 3030.276 264.748, 3025.784 268.528 C 3024.168 269.888, 3022.120 271, 3021.231 271 C 3020.342 271, 3013.514 268.540, 3006.058 265.532 C 2981.359 255.572, 2960.473 252.542, 2934.050 255.086 M 1930.500 257.491 C 1929.950 257.675, 1928.333 258.080, 1926.907 258.392 C 1922.517 259.352, 1919 263.716, 1919 268.202 C 1919 276.232, 1921.271 277.760, 1934.972 278.950 C 1950.919 280.336, 1958.095 284.693, 1962.228 295.500 C 1966.460 306.566, 1966.500 308.032, 1966.500 452.500 C 1966.500 583.832, 1966.411 590.766, 1964.660 596 C 1961.152 606.489, 1958.109 609.015, 1944 613.149 C 1932.585 616.494, 1928.387 622.226, 1932.163 629.316 C 1935.032 634.701, 1940.343 635.731, 1954.241 633.597 C 1986.748 628.606, 2037.708 628.620, 2095 633.636 C 2121.216 635.931, 2138.478 635.783, 2148.175 633.180 C 2169.419 627.478, 2187.096 613.242, 2201.066 590.585 C 2207.397 580.318, 2210.406 571.410, 2210.459 562.775 C 2210.495 556.823, 2210.199 555.749, 2207.877 553.425 C 2205.957 551.503, 2204.227 550.800, 2201.416 550.800 C 2198.136 550.800, 2197.022 551.434, 2193.767 555.150 C 2182.246 568.303, 2178.020 572.668, 2173.500 576.079 C 2162.653 584.267, 2144.337 591.847, 2125.478 595.953 C 2094.975 602.595, 2039.783 603.898, 2025.808 598.306 C 2022.603 597.024, 2021.299 595.714, 2019.623 592.091 C 2017.541 587.588, 2017.494 586.291, 2017.208 524.801 L 2016.916 462.101 2019.662 460.301 C 2022.153 458.667, 2025.753 458.470, 2058.454 458.175 C 2122.398 457.597, 2126.813 459.211, 2133.041 485.437 C 2134.179 490.228, 2135.598 495.217, 2136.194 496.525 C 2138.576 501.755, 2148.499 503.421, 2152.293 499.229 C 2155.482 495.705, 2155.989 492.371, 2154.953 481.748 C 2153.574 467.597, 2153.658 433.924, 2155.125 413.376 C 2156.495 394.182, 2155.968 391.069, 2150.909 388.453 C 2147.326 386.600, 2144.644 386.616, 2140.980 388.510 C 2137.208 390.461, 2136.439 392.015, 2133.491 403.634 C 2132.145 408.942, 2130.354 414.337, 2129.512 415.622 C 2127.321 418.966, 2122.942 420.940, 2112.582 423.252 C 2104.458 425.066, 2099.007 425.327, 2060.890 425.730 L 2018.280 426.180 2017.654 423.840 C 2017.309 422.553, 2017.047 394.050, 2017.070 360.500 C 2017.101 315.960, 2017.435 298.556, 2018.306 296 C 2020.259 290.274, 2021.571 290.117, 2067.500 290.082 C 2127.036 290.038, 2139.311 291.641, 2148.403 300.649 C 2152.841 305.047, 2154.266 309.535, 2155.046 321.571 C 2155.779 332.883, 2157.414 338.177, 2160.545 339.379 C 2163.292 340.433, 2167.967 340.069, 2170.855 338.575 C 2175.872 335.980, 2176.953 331.121, 2179.542 299.500 C 2182.642 261.638, 2182.678 265.790, 2179.212 261.913 C 2176.161 258.502, 2176.155 258.500, 2167.330 258.580 C 2162.473 258.624, 2144.550 259.415, 2127.500 260.338 C 2060.848 263.947, 2005.820 263.506, 1958.166 258.982 C 1938.196 257.086, 1932.616 256.786, 1930.500 257.491 M 2517.684 258.449 C 2512.497 260.299, 2510.160 262.628, 2509.394 266.714 C 2507.910 274.626, 2512.084 277.744, 2525.752 278.931 C 2545.860 280.678, 2551.314 285.923, 2555.739 307.769 C 2557.094 314.459, 2557.360 331.651, 2557.710 435.500 C 2558.129 560.008, 2557.547 589.651, 2554.512 598.205 C 2551.997 605.294, 2546.828 609.378, 2536.311 612.586 C 2525.935 615.751, 2523.609 617.116, 2522.007 620.983 C 2519.495 627.048, 2523.405 633.235, 2530.603 634.585 C 2532.515 634.944, 2540.463 634.234, 2548.752 632.965 C 2576.011 628.791, 2636.025 629.092, 2685.500 633.650 C 2710.476 635.951, 2728.536 635.772, 2738.500 633.126 C 2759.547 627.536, 2774.853 615.625, 2790.036 593.019 C 2796.713 583.077, 2800.246 573.836, 2800.782 564.907 C 2801.317 556.010, 2800.299 553.441, 2795.432 551.407 C 2790.251 549.242, 2786.837 551.154, 2780.067 560.015 C 2765.827 578.650, 2744.893 590.007, 2713 596.399 C 2693.498 600.308, 2680.457 601.419, 2654 601.426 C 2621.620 601.433, 2614.116 599.992, 2610.542 593.081 C 2607.723 587.630, 2607.016 572.607, 2607.008 517.941 C 2607.002 474.028, 2607.260 463.026, 2608.334 461.558 C 2609.112 460.494, 2611.718 459.397, 2614.584 458.926 C 2621.769 457.747, 2684.967 457.841, 2695.494 459.047 C 2713.455 461.104, 2719.073 466.157, 2723.104 483.879 C 2725.762 495.566, 2727.157 498.513, 2730.967 500.483 C 2734.644 502.384, 2737.323 502.401, 2740.909 500.547 C 2745.951 497.940, 2746.419 495.037, 2744.982 475.248 C 2743.671 457.203, 2744.093 428.855, 2745.974 408.500 C 2747.383 393.260, 2745.348 388.393, 2737.106 387.287 C 2733.491 386.803, 2732.693 387.107, 2729.682 390.122 C 2726.953 392.854, 2725.969 395.029, 2724.535 401.500 C 2721.753 414.059, 2719.797 417.411, 2713.726 420.022 C 2702.733 424.751, 2695.540 425.367, 2650.506 425.436 L 2608.511 425.500 2607.729 419.500 C 2607.298 416.200, 2607.071 387.625, 2607.223 356 C 2607.534 291.432, 2607.293 293.574, 2614.513 291.176 C 2620.499 289.189, 2709.311 290.135, 2720.269 292.303 C 2734.088 295.037, 2741.137 300.080, 2744.034 309.306 C 2744.758 311.613, 2745.626 318.391, 2745.963 324.369 C 2746.543 334.652, 2746.725 335.367, 2749.344 337.619 C 2753.369 341.082, 2759.259 340.895, 2762.967 337.187 C 2766.579 333.575, 2767.565 328.638, 2769.497 304.500 C 2770.333 294.050, 2771.528 281.440, 2772.152 276.477 C 2773.475 265.949, 2772.302 262.242, 2766.734 259.362 C 2763.804 257.847, 2761.813 257.801, 2745.500 258.872 C 2667.116 264.017, 2601.598 264.055, 2548.214 258.987 C 2523.947 256.683, 2522.697 256.661, 2517.684 258.449 M 1237.662 394.700 C 1216.856 440.683, 1210.112 456.512, 1210.962 457.362 C 1212.476 458.876, 1311.409 458.990, 1312.920 457.480 C 1313.614 456.786, 1313.509 454.866, 1312.592 451.480 C 1311.389 447.040, 1268.093 337.750, 1266.246 334.493 C 1265.786 333.682, 1254.823 356.773, 1237.662 394.700 M 237.329 383.244 C 228.800 396.668, 226.514 407.751, 227.281 431.951 C 229.460 500.604, 258.450 549.723, 312.867 576.960 C 318.662 579.861, 338.524 586.886, 345.250 588.413 L 348 589.038 348 531.103 L 348 473.168 342.765 465.334 C 339.885 461.025, 333.473 453.413, 328.515 448.417 C 320.706 440.549, 318.229 438.732, 310 434.841 C 286.646 423.797, 263.299 405.924, 245.869 385.744 L 240.033 378.987 237.329 383.244 M 481.500 389.797 C 473.620 398.338, 457.387 411.808, 444.685 420.345 C 435.155 426.749, 408.087 441, 405.452 441 C 403.697 441, 389.925 455.745, 385.299 462.577 C 377.386 474.264, 378 468.430, 378 531.969 L 378 589.038 380.750 588.411 C 382.262 588.066, 388.158 586.254, 393.852 584.386 C 450.404 565.822, 486.619 521.051, 496.489 457.500 C 499.090 440.751, 499.596 417.029, 497.565 407.016 C 495.954 399.073, 490.344 384.886, 488.379 383.785 C 487.896 383.514, 484.800 386.219, 481.500 389.797" stroke="none" fill="#fffcfc" fill-rule="evenodd"/><path d="" stroke="none" fill="#fcfcfc" fill-rule="evenodd"/></svg>