<svg width="609" height="160" viewBox="0 0 609 160" fill="none" xmlns="http://www.w3.org/2000/svg">
<g clip-path="url(#clip0_1_53)">
<path d="M0 0C200.97 0 401.94 0 609 0C609 52.8 609 105.6 609 160C408.03 160 207.06 160 0 160C0 107.2 0 54.4 0 0Z" fill="#FAFCFC"/>
<path d="M179.238 34.3006C184.156 38.5558 187.43 43.8931 187.934 50.4762C188.074 53.7419 187.793 56.7731 187.131 59.9702C187.046 60.3853 186.962 60.8004 186.875 61.2281C186.295 63.9238 185.533 66.3642 184.244 68.817C183.743 69.8176 183.369 70.7654 182.999 71.8173C182.252 73.8562 181.229 75.6328 180.083 77.4702C179.897 77.7738 179.712 78.0773 179.52 78.3901C179.161 78.9767 178.8 79.5626 178.438 80.1476C177.787 81.2036 177.15 82.2677 176.515 83.3333C176.672 83.4905 176.829 83.6476 176.991 83.8095C178.702 83.8052 180.408 83.7459 182.118 83.6867C182.624 83.7273 183.13 83.7678 183.652 83.8095C184.741 85.4453 184.688 86.1835 184.603 88.0952C185.045 87.6631 185.486 87.2309 185.941 86.7857C189.567 83.7231 193.626 82.9883 198.286 83.1566C200.923 83.4588 202.524 84.1188 204.391 86.0007C206.054 88.3157 206.197 90.7476 206.192 93.5193C206.191 93.9113 206.19 94.3034 206.189 94.7072C206.093 99.7645 205.084 104.666 204.11 109.613C203.926 110.581 203.743 111.549 203.56 112.518C203.119 114.855 202.663 117.189 202.207 119.524C199.224 119.524 196.241 119.524 193.167 119.524C193.474 114.476 194.245 109.635 195.199 104.674C196.575 98.0646 196.575 98.0646 195.16 91.7262C192.831 90.538 190.895 90.7423 188.409 91.4286C185.464 92.8363 184.439 95.4113 183.273 98.3069C182.236 101.373 181.722 104.526 181.183 107.708C181.007 108.713 180.829 109.717 180.65 110.722C180.489 111.628 180.333 112.536 180.178 113.443C179.8 115.48 179.343 117.502 178.894 119.524C175.911 119.524 172.927 119.524 169.854 119.524C169.854 115.774 169.854 115.774 170.129 114.237C170.19 113.891 170.251 113.545 170.313 113.189C170.38 112.824 170.447 112.459 170.516 112.083C170.584 111.694 170.653 111.305 170.724 110.905C170.947 109.65 171.174 108.397 171.4 107.143C171.554 106.283 171.707 105.423 171.859 104.563C172.161 102.867 172.464 101.172 172.767 99.4773C173.304 96.4789 173.826 93.4778 174.344 90.4762C174.492 89.623 174.64 88.7698 174.788 87.9167C174.887 87.347 174.986 86.7774 175.088 86.1905C174.773 86.1905 174.459 86.1905 174.136 86.1905C173.366 87.1174 172.646 88.0465 171.935 89.0178C171.545 89.5494 171.152 90.0795 170.757 90.6082C170.557 90.8777 170.356 91.1471 170.15 91.4247C169.378 92.3809 169.378 92.3809 168.453 93.3053C165.753 96.0284 164.885 98.2058 164.384 101.964C164.306 102.454 164.228 102.943 164.148 103.448C163.905 104.995 163.682 106.545 163.461 108.095C163.223 109.658 162.981 111.221 162.738 112.783C162.588 113.752 162.443 114.721 162.302 115.691C162.206 116.343 162.206 116.343 162.109 117.007C162.054 117.391 161.998 117.774 161.942 118.17C161.766 119.048 161.766 119.048 161.29 119.524C160.651 119.565 160.01 119.575 159.37 119.57C158.985 119.569 158.6 119.567 158.204 119.566C157.799 119.562 157.395 119.558 156.978 119.554C156.572 119.551 156.165 119.549 155.747 119.547C154.74 119.541 153.733 119.533 152.726 119.524C152 117.162 152.495 115.076 152.934 112.708C153.004 112.31 153.074 111.912 153.147 111.502C153.32 110.524 153.498 109.548 153.677 108.571C153.265 108.778 153.265 108.778 152.845 108.988C151.774 109.524 151.774 109.524 150.752 109.874C149.392 110.804 149.397 111.87 149.098 113.452C148.689 115.543 148.204 117.514 147.492 119.524C147.212 119.526 146.932 119.528 146.643 119.53C145.35 119.546 144.057 119.579 142.764 119.613C142.323 119.616 141.883 119.619 141.429 119.621C138.145 119.725 135.938 120.546 133.219 122.381C134.018 123.181 134.999 122.913 136.065 122.914C136.409 122.912 136.752 122.91 137.106 122.908C137.47 122.908 137.833 122.908 138.208 122.908C139.444 122.906 140.68 122.901 141.916 122.896C142.807 122.895 143.698 122.893 144.59 122.892C147.06 122.887 149.53 122.88 152.001 122.872C154.676 122.864 157.351 122.859 160.027 122.854C164.714 122.844 169.401 122.832 174.089 122.819C181.029 122.8 187.969 122.785 194.909 122.769C198.2 122.762 201.491 122.755 204.783 122.748C205.114 122.747 205.445 122.746 205.787 122.745C210.938 122.734 216.088 122.722 221.239 122.71C221.587 122.709 221.935 122.708 222.293 122.707C223.705 122.704 225.116 122.7 226.528 122.697C255.381 122.628 284.234 122.57 313.087 122.514C315.305 122.51 317.524 122.505 319.742 122.501C355.391 122.431 391.041 122.369 499.187 122.296C508.159 122.293 517.132 122.288 526.105 122.282C536.249 122.275 546.394 122.271 556.538 122.272C561.682 122.272 566.825 122.271 571.969 122.266C576.209 122.261 580.449 122.26 584.689 122.264C586.82 122.265 588.951 122.265 591.082 122.261C593.015 122.257 594.948 122.258 596.881 122.262C597.578 122.263 598.275 122.262 598.972 122.259C599.914 122.256 600.855 122.259 601.796 122.262C602.319 122.262 602.841 122.262 603.379 122.262C604.707 122.38 605.493 122.645 606.621 123.333C606.304 123.45 605.987 123.567 605.661 123.687C604.693 124.044 603.725 124.403 602.758 124.761C601.604 125.187 600.449 125.607 599.292 126.024C596.334 127.095 593.458 128.213 590.619 129.578C583.695 132.793 577.984 133.663 570.449 133.506C569.501 133.496 568.553 133.486 567.605 133.477C564.994 133.449 562.383 133.407 559.771 133.361C556.853 133.313 553.935 133.279 551.016 133.243C544.326 133.156 537.635 133.049 530.945 132.936C528.65 132.898 526.356 132.86 524.061 132.824C511.579 132.625 499.097 132.421 486.617 132.105C480.049 131.94 473.482 131.818 466.912 131.717C466.408 131.709 465.904 131.701 465.385 131.693C462.68 131.652 459.975 131.611 457.27 131.571C450.884 131.474 444.498 131.374 438.113 131.272C437.757 131.267 437.401 131.261 437.035 131.255C422.174 131.018 407.313 130.753 392.453 130.484C391.877 130.473 391.301 130.463 390.707 130.452C378.999 130.24 367.291 130.027 355.583 129.812C350.025 129.71 344.466 129.608 338.908 129.507C337.827 129.487 336.746 129.467 335.665 129.448C321.622 129.191 307.578 128.958 293.534 128.768C285.69 128.662 277.848 128.536 270.007 128.299C263.537 128.105 257.067 127.99 250.595 127.891C250.049 127.882 249.503 127.874 248.94 127.865C244.821 127.802 240.702 127.74 236.582 127.679C231.342 127.6 226.101 127.521 220.861 127.439C220.518 127.433 220.175 127.428 219.822 127.422C208.646 127.248 197.472 127.033 186.298 126.797C183.194 126.732 180.091 126.668 176.988 126.604C176.552 126.595 176.116 126.586 175.666 126.577C173.91 126.541 172.154 126.505 170.397 126.469C165.184 126.363 159.971 126.252 154.758 126.133C151.467 126.059 148.176 125.99 144.884 125.925C142.968 125.887 141.051 125.846 139.135 125.799C137.369 125.755 135.603 125.719 133.837 125.687C132.89 125.669 131.942 125.643 130.995 125.617C130.434 125.608 129.873 125.599 129.295 125.59C128.809 125.58 128.323 125.569 127.822 125.558C126.34 125.741 125.771 126.179 124.655 127.143C109.507 135.435 88.2037 142.228 70.9806 137.738C69.9906 137.406 69.0072 137.052 68.0367 136.667C67.6393 136.524 67.2419 136.381 66.8324 136.233C61.5012 134.123 56.8873 130.347 54.2391 125.238C54.2391 124.924 54.2391 124.61 54.2391 124.286C45.1326 124.286 36.0262 124.286 26.6438 124.286C26.9578 124.129 27.2718 123.971 27.5953 123.81C27.5953 123.495 27.5953 123.181 27.5953 122.857C36.2307 122.857 44.8662 122.857 53.7633 122.857C53.2923 121.443 52.8212 120.029 52.3359 118.571C50.7094 106.707 58.1132 92.6718 64.7063 83.3333C66.8229 80.55 69.081 77.8825 71.3672 75.2381C71.6526 74.9072 71.9381 74.5762 72.2322 74.2353C73.7546 72.481 75.2929 70.7582 76.9279 69.1071C77.2732 68.7548 77.6185 68.4024 77.9742 68.0394C78.9797 67.1428 78.9797 67.1428 79.8941 66.7094C81.3674 65.9361 82.3941 64.7336 83.5294 63.5417C86.1341 60.8713 88.8833 58.4869 91.8258 56.1905C92.2477 55.859 92.6697 55.5275 93.1044 55.186C94.1025 54.4056 95.1033 53.6292 96.1078 52.8571C96.4218 53.0143 96.7358 53.1714 97.0594 53.3333C96.138 54.1176 95.2162 54.9013 94.2939 55.6845C94.0134 55.923 93.7329 56.1614 93.444 56.4071C91.7062 57.8801 89.9471 59.3207 88.1682 60.744C75.6188 71.0321 65.8308 86.5684 63.8423 102.842C63.2187 109.733 65.2024 116.472 69.4641 121.905C71.0274 122.948 71.4729 122.975 73.2847 122.972C74.0263 122.974 74.0263 122.974 74.7828 122.976C75.596 122.97 75.596 122.97 76.4255 122.965C76.9965 122.965 77.5675 122.966 78.1558 122.966C79.7217 122.965 81.2874 122.96 82.8532 122.954C84.4896 122.948 86.126 122.947 87.7623 122.946C90.8611 122.943 93.9598 122.935 97.0585 122.926C100.586 122.915 104.114 122.91 107.642 122.905C114.899 122.895 122.156 122.878 129.413 122.857C129.413 122.543 129.413 122.229 129.413 121.905C130.355 121.433 131.297 120.962 132.267 120.476C131.474 119.683 130.513 119.92 129.423 119.902C128.918 119.893 128.413 119.883 127.893 119.873C127.344 119.865 126.795 119.858 126.229 119.849C125.39 119.834 125.39 119.834 124.535 119.819C122.741 119.788 120.947 119.76 119.153 119.732C117.941 119.712 116.728 119.691 115.515 119.67C112.535 119.619 109.555 119.57 106.575 119.524C105.97 117.707 106.329 116.324 106.681 114.496C106.781 113.951 106.781 113.951 106.883 113.395C107.028 112.607 107.175 111.819 107.323 111.032C107.721 108.915 108.107 106.796 108.495 104.676C108.574 104.243 108.654 103.809 108.736 103.363C109.492 99.2239 110.18 95.075 110.857 90.9226C111.953 84.2276 113.153 77.556 114.404 70.8884C115.081 67.2719 115.73 63.6548 116.304 60.0205C116.385 59.5172 116.385 59.5172 116.466 59.0037C116.716 57.4315 116.959 55.859 117.192 54.2841C117.32 53.4645 117.32 53.4645 117.451 52.6283C117.522 52.1525 117.593 51.6767 117.666 51.1864C118.036 49.8484 118.262 49.3315 119.421 48.5714C120.704 48.3941 120.704 48.3941 122.233 48.3984C122.782 48.3987 123.331 48.399 123.897 48.3994C124.471 48.407 125.045 48.4147 125.636 48.4226C126.499 48.4203 126.499 48.4203 127.38 48.418C131.664 48.4443 131.664 48.4443 132.743 49.5238C132.696 50.6974 132.696 50.6974 132.447 52.2452C132.351 52.8497 132.255 53.4543 132.156 54.0771C132.036 54.7818 131.914 55.4862 131.791 56.1905C131.725 56.5718 131.659 56.9531 131.59 57.346C131.117 60.0429 130.627 62.7366 130.134 65.43C128.196 76.0265 126.361 86.6389 124.575 97.262C124.444 98.0378 124.444 98.0378 124.311 98.8292C124.148 99.7955 123.986 100.762 123.825 101.728C123.753 102.158 123.681 102.587 123.606 103.029C123.544 103.4 123.482 103.771 123.418 104.154C123.214 105.313 122.986 106.466 122.752 107.619C123.074 107.624 123.397 107.629 123.729 107.634C127.086 107.685 130.444 107.74 133.801 107.796C135.054 107.817 136.307 107.837 137.56 107.856C139.361 107.883 141.162 107.914 142.963 107.945C143.523 107.953 144.083 107.96 144.66 107.969C145.184 107.978 145.708 107.988 146.247 107.997C146.707 108.005 147.167 108.012 147.64 108.02C148.9 108.094 150.069 108.292 151.298 108.571C154.637 105.566 155.006 102.009 155.67 97.7678C155.891 96.436 156.117 95.1051 156.344 93.7742C156.426 93.2923 156.426 93.2923 156.508 92.8008C157.518 86.9071 157.518 86.9071 158.435 84.2857C159.879 83.5633 161.373 83.7217 162.955 83.7202C163.283 83.7144 163.611 83.7086 163.949 83.7026C164.808 83.7 165.667 83.7515 166.523 83.8095C167.475 84.7619 167.475 84.7619 167.481 85.7254C167.43 86.095 167.379 86.4645 167.326 86.8452C167.255 87.3958 167.255 87.3958 167.183 87.9576C166.999 89.0476 166.999 89.0476 166.711 90.0781C166.42 90.9926 166.42 90.9926 166.999 91.9048C170.313 87.4938 173.109 83.0363 175.563 78.0952C175.9 77.4535 175.9 77.4535 176.243 76.7987C180.783 67.6702 181.778 57.8373 178.572 48.1287C177.478 45.5903 175.911 43.5288 174.136 41.4286C173.877 41.11 173.617 40.7914 173.35 40.4632C168.567 35.115 160.463 33.2474 153.59 32.7876C147.465 32.4823 141.774 33.3048 135.788 34.544C134.145 34.8575 132.502 35.0543 130.84 35.2381C130.997 34.9238 131.154 34.6095 131.316 34.2857C131.787 34.5214 131.787 34.5214 132.267 34.7619C132.424 34.4476 132.581 34.1333 132.743 33.8095C133.214 34.0452 133.214 34.0452 133.695 34.2857C133.695 33.9714 133.695 33.6571 133.695 33.3333C147.288 29.0734 166.856 24.8205 179.238 34.3006Z" fill="#FBC44C"/>
<path d="M170.508 37.5595C171.093 38.0441 171.668 38.54 172.233 39.0476C172.655 39.4132 172.655 39.4132 173.086 39.7861C177.585 43.951 179.622 48.819 180.797 54.7619C180.939 55.4506 180.939 55.4506 181.083 56.1533C182.665 67.1447 176.359 79.6279 170.151 88.3036C169.037 89.7812 167.853 91.0944 166.523 92.381C165.935 90.544 166.252 89.4561 166.821 87.6656C167.104 86.4341 167.104 86.4341 166.523 84.2857C163.854 84.2857 161.185 84.2857 158.435 84.2857C158.28 85.1997 158.125 86.1137 157.965 87.0554C157.539 89.5585 157.106 92.0601 156.668 94.561C156.324 96.5278 155.99 98.4935 155.698 100.469C155.093 104.199 154.21 106.548 151.298 109.048C150.961 108.971 150.624 108.895 150.276 108.816C148.907 108.569 147.637 108.496 146.247 108.474C145.724 108.464 145.2 108.455 144.66 108.445C144.1 108.437 143.54 108.429 142.963 108.421C142.097 108.406 142.097 108.406 141.213 108.391C139.371 108.36 137.529 108.332 135.687 108.304C134.437 108.283 133.187 108.262 131.937 108.241C128.875 108.19 125.814 108.142 122.752 108.095C122.168 106.926 122.311 106.518 122.547 105.25C122.619 104.854 122.691 104.457 122.765 104.049C122.889 103.396 122.889 103.396 123.015 102.729C123.1 102.27 123.184 101.811 123.27 101.338C123.454 100.337 123.639 99.3363 123.826 98.3357C124.327 95.6415 124.818 92.9454 125.309 90.2493C125.463 89.4056 125.463 89.4056 125.62 88.5448C126.953 81.2057 128.18 73.8485 129.409 66.4912C129.577 65.4863 129.746 64.4814 129.914 63.4766C129.994 63.0025 130.073 62.5284 130.154 62.04C130.707 58.7706 131.345 55.5291 132.07 52.2939C132.369 50.8479 132.369 50.8479 131.791 49.0476C127.395 49.0476 122.999 49.0476 118.47 49.0476C118.276 50.4699 118.082 51.8922 117.882 53.3575C117.163 58.4775 116.253 63.5524 115.295 68.6322C113.674 77.2319 112.153 85.8431 110.739 94.479C109.93 99.4189 109.115 104.353 108.117 109.259C107.465 112.501 107.024 115.772 106.575 119.048C107.044 119.053 107.044 119.053 107.523 119.059C110.772 119.1 114.021 119.148 117.27 119.199C118.483 119.217 119.697 119.234 120.91 119.249C122.652 119.27 124.394 119.298 126.136 119.327C126.68 119.332 127.224 119.338 127.785 119.343C128.29 119.353 128.795 119.362 129.315 119.372C129.982 119.382 129.982 119.382 130.662 119.391C131.791 119.524 131.791 119.524 133.219 120.476C130.483 121.905 130.483 121.905 129.413 121.905C129.413 122.219 129.413 122.533 129.413 122.857C121.824 122.975 114.235 123.079 106.645 123.167C103.121 123.208 99.5975 123.253 96.0738 123.31C93.0024 123.358 89.931 123.399 86.8593 123.429C85.233 123.446 83.607 123.466 81.9808 123.497C80.165 123.529 78.3496 123.546 76.5335 123.56C75.9949 123.573 75.4562 123.586 74.9012 123.599C71.2452 123.605 71.2452 123.605 69.3987 122.188C69.1063 121.78 68.8138 121.373 68.5125 120.952C68.2518 120.638 67.9912 120.324 67.7226 120C63.5483 114.041 62.6112 106.855 63.8142 99.7917C67.7714 79.0832 82.8299 62.6695 99.7646 51.1257C103.681 48.4975 107.668 46.0715 111.809 43.8095C112.369 43.4948 112.929 43.1798 113.489 42.8646C129.123 34.1681 154.188 25.8254 170.508 37.5595Z" fill="#FAFCFC"/>
<path d="M277.465 48.4482C277.98 48.4452 278.495 48.4422 279.025 48.4391C279.865 48.442 279.865 48.442 280.722 48.4449C281.299 48.444 281.875 48.4431 282.469 48.4422C283.694 48.4415 284.918 48.4433 286.143 48.4473C288.002 48.4523 289.86 48.4473 291.719 48.4412C292.91 48.4419 294.102 48.4431 295.293 48.4449C295.843 48.443 296.394 48.4411 296.961 48.4391C302.871 48.4726 308.731 49.1983 313.926 52.2024C318.297 56.952 318.61 61.292 318.381 67.4454C318.215 69.6932 317.584 71.4392 316.395 73.3333C316.163 73.7016 315.932 74.0699 315.694 74.4494C312.515 78.9617 308.258 81.2685 303.073 82.8571C304.409 83.3262 304.409 83.3262 305.442 83.5584C309.27 84.5824 311.732 86.9893 313.748 90.3571C315.907 94.8515 315.234 99.6399 313.661 104.237C311.142 110.473 307.149 114.389 301.177 117.377C296.158 119.433 291.069 119.726 285.712 119.663C285.028 119.661 284.343 119.659 283.659 119.657C281.879 119.652 280.1 119.638 278.321 119.622C276.496 119.607 274.671 119.601 272.847 119.594C269.283 119.578 265.719 119.554 262.155 119.524C262.101 116.973 262.262 114.67 262.733 112.15C262.796 111.811 262.858 111.472 262.922 111.122C263.058 110.383 263.195 109.645 263.334 108.906C263.72 106.848 264.095 104.788 264.471 102.729C264.552 102.286 264.633 101.844 264.717 101.387C265.644 96.3172 266.511 91.2369 267.382 86.1568C268.948 77.022 270.548 67.8966 272.31 58.7974C272.544 57.559 272.768 56.3207 272.984 55.0791C273.045 54.7306 273.107 54.3821 273.171 54.023C273.291 53.3436 273.408 52.6636 273.522 51.9831C274.033 49.1261 274.576 48.453 277.465 48.4482Z" fill="#FCC54D"/>
<path d="M388.031 48.4914C388.444 48.4899 388.856 48.4883 389.281 48.4866C390.16 48.4842 391.039 48.4831 391.917 48.4832C393.233 48.4822 394.548 48.4736 395.864 48.4645C415.155 48.4012 415.155 48.4012 421.711 53.9342C425.946 58.4145 426.567 62.5708 426.447 68.4933C426.204 73.9996 424.317 78.4299 421.066 82.8571C420.703 83.3679 420.34 83.8786 419.966 84.4048C411.71 92.8599 400.23 93.0828 389.189 93.3333C389.14 93.7364 389.091 94.1395 389.04 94.5547C388.429 99.3723 387.632 104.145 386.769 108.923C386.539 110.2 386.312 111.476 386.086 112.753C385.941 113.565 385.795 114.378 385.649 115.19C385.547 115.762 385.547 115.762 385.444 116.345C384.962 118.993 384.962 118.993 384.431 119.524C383.451 119.571 382.469 119.586 381.487 119.587C380.89 119.588 380.293 119.588 379.677 119.589C379.365 119.588 379.052 119.587 378.73 119.586C377.774 119.583 376.819 119.586 375.863 119.589C375.266 119.588 374.669 119.588 374.053 119.587C373.501 119.587 372.948 119.586 372.379 119.585C371.109 119.524 371.109 119.524 370.634 119.048C370.682 114.771 371.655 110.526 372.447 106.339C373.281 101.901 374.079 97.4586 374.813 93.0022C376.031 85.6204 377.314 78.2499 378.601 70.88C378.883 69.2655 379.163 67.6507 379.442 66.0357C379.785 64.0554 380.13 62.0755 380.476 60.0959C380.607 59.3497 380.736 58.6034 380.864 57.8569C381.043 56.8216 381.224 55.7869 381.407 54.7523C381.509 54.166 381.611 53.5798 381.716 52.9758C382.023 51.5644 382.37 50.3438 383.004 49.0476C384.57 48.2639 386.31 48.4937 388.031 48.4914Z" fill="#FCC54D"/>
<path d="M179.238 34.3006C184.156 38.5558 187.43 43.8931 187.934 50.4762C188.074 53.7419 187.793 56.7731 187.131 59.9702C187.046 60.3853 186.962 60.8004 186.875 61.2281C186.295 63.9238 185.533 66.3642 184.244 68.817C183.743 69.8176 183.369 70.7654 182.999 71.8173C182.252 73.8562 181.229 75.6328 180.083 77.4702C179.897 77.7738 179.712 78.0773 179.52 78.3901C179.161 78.9767 178.8 79.5626 178.438 80.1476C177.787 81.2036 177.15 82.2677 176.515 83.3333C176.672 83.4905 176.829 83.6476 176.991 83.8095C178.702 83.8052 180.408 83.7459 182.118 83.6867C182.624 83.7273 183.13 83.7678 183.652 83.8095C184.741 85.4453 184.688 86.1835 184.603 88.0952C185.045 87.6631 185.486 87.2309 185.941 86.7857C189.567 83.7231 193.626 82.9883 198.286 83.1566C200.923 83.4588 202.524 84.1188 204.391 86.0007C206.054 88.3157 206.197 90.7476 206.192 93.5193C206.191 93.9113 206.19 94.3034 206.189 94.7072C206.093 99.7645 205.084 104.666 204.11 109.613C203.926 110.581 203.743 111.549 203.56 112.518C203.119 114.855 202.663 117.189 202.207 119.524C199.224 119.524 196.241 119.524 193.167 119.524C193.474 114.476 194.245 109.635 195.199 104.674C196.575 98.0646 196.575 98.0646 195.16 91.7262C192.831 90.538 190.895 90.7423 188.409 91.4286C185.464 92.8363 184.439 95.4113 183.273 98.3069C182.236 101.373 181.722 104.526 181.183 107.708C181.007 108.713 180.829 109.717 180.65 110.722C180.489 111.628 180.333 112.536 180.178 113.443C179.8 115.48 179.343 117.502 178.894 119.524C175.911 119.524 172.927 119.524 169.854 119.524C169.854 115.774 169.854 115.774 170.129 114.237C170.19 113.891 170.251 113.545 170.313 113.189C170.38 112.824 170.447 112.459 170.516 112.083C170.584 111.694 170.653 111.305 170.724 110.905C170.947 109.65 171.174 108.397 171.4 107.143C171.554 106.283 171.707 105.423 171.859 104.563C172.161 102.867 172.464 101.172 172.767 99.4773C173.304 96.4789 173.826 93.4778 174.344 90.4762C174.492 89.623 174.64 88.7698 174.788 87.9167C174.887 87.347 174.986 86.7774 175.088 86.1905C174.773 86.1905 174.459 86.1905 174.136 86.1905C173.366 87.1174 172.646 88.0465 171.935 89.0178C171.545 89.5494 171.152 90.0795 170.757 90.6082C170.557 90.8777 170.356 91.1471 170.15 91.4247C169.378 92.3809 169.378 92.3809 168.453 93.3053C165.753 96.0284 164.885 98.2058 164.384 101.964C164.306 102.454 164.228 102.943 164.148 103.448C163.905 104.995 163.682 106.545 163.461 108.095C163.223 109.658 162.981 111.221 162.738 112.783C162.588 113.752 162.443 114.721 162.302 115.691C162.238 116.125 162.174 116.56 162.109 117.007C162.054 117.391 161.998 117.774 161.942 118.17C161.766 119.048 161.766 119.048 161.29 119.524C160.651 119.565 160.01 119.575 159.37 119.57C158.985 119.569 158.6 119.567 158.204 119.566C157.799 119.562 157.395 119.558 156.978 119.554C156.572 119.551 156.165 119.549 155.747 119.547C154.74 119.541 153.733 119.533 152.726 119.524C152 117.162 152.495 115.076 152.934 112.708C153.004 112.31 153.074 111.912 153.147 111.502C153.32 110.524 153.498 109.548 153.677 108.571C153.385 108.718 153.093 108.864 152.793 109.014C151.819 109.501 150.845 109.989 149.871 110.476C149.871 110.005 149.871 109.533 149.871 109.048C150.66 108.565 151.454 108.09 152.25 107.619C153.993 105.801 154.493 104.337 154.913 101.873C154.971 101.552 155.028 101.231 155.087 100.899C155.268 99.8765 155.44 98.8522 155.61 97.8274C155.841 96.4869 156.075 95.1471 156.311 93.8077C156.368 93.4835 156.425 93.1593 156.484 92.8253C157.569 86.7717 157.569 86.7717 158.435 84.2857C159.879 83.5633 161.373 83.7217 162.955 83.7202C163.283 83.7144 163.611 83.7086 163.949 83.7026C164.808 83.7 165.667 83.7515 166.523 83.8095C167.475 84.7619 167.475 84.7619 167.481 85.7254C167.43 86.095 167.379 86.4645 167.326 86.8452C167.279 87.2123 167.232 87.5794 167.183 87.9576C166.999 89.0476 166.999 89.0476 166.711 90.0781C166.42 90.9926 166.42 90.9926 166.999 91.9048C170.313 87.4938 173.109 83.0363 175.563 78.0952C175.788 77.6674 176.012 77.2395 176.244 76.7987C180.783 67.6702 181.778 57.8373 178.572 48.1287C177.478 45.5903 175.911 43.5288 174.136 41.4286C173.747 40.9507 173.747 40.9507 173.35 40.4632C168.567 35.115 160.463 33.2474 153.59 32.7876C147.465 32.4823 141.774 33.3048 135.788 34.544C134.145 34.8575 132.502 35.0543 130.84 35.2381C130.997 34.9238 131.154 34.6095 131.316 34.2857C131.63 34.4429 131.944 34.6 132.267 34.7619C132.424 34.4476 132.581 34.1333 132.743 33.8095C133.057 33.9667 133.371 34.1238 133.695 34.2857C133.695 33.9714 133.695 33.6571 133.695 33.3333C147.288 29.0734 166.856 24.8205 179.238 34.3006Z" fill="#06B24C"/>
<path d="M122.233 48.3984C122.782 48.3987 123.331 48.399 123.897 48.3994C124.471 48.407 125.045 48.4147 125.636 48.4226C126.499 48.4203 126.499 48.4203 127.38 48.418C131.664 48.4443 131.664 48.4443 132.743 49.5238C132.696 50.6974 132.696 50.6974 132.447 52.2452C132.351 52.8497 132.255 53.4543 132.156 54.0771C132.036 54.7818 131.914 55.4862 131.791 56.1905C131.725 56.5718 131.659 56.9531 131.59 57.346C131.117 60.0429 130.627 62.7366 130.134 65.43C128.196 76.0265 126.361 86.6389 124.575 97.262C124.488 97.7792 124.401 98.2964 124.311 98.8292C124.148 99.7956 123.986 100.762 123.825 101.728C123.753 102.158 123.681 102.587 123.606 103.029C123.513 103.586 123.513 103.586 123.418 104.154C123.214 105.313 122.986 106.466 122.752 107.619C123.24 107.623 123.24 107.623 123.739 107.628C127.119 107.658 130.499 107.698 133.879 107.744C135.142 107.76 136.405 107.773 137.668 107.784C139.479 107.8 141.291 107.825 143.102 107.852C143.67 107.855 144.237 107.858 144.822 107.861C145.346 107.87 145.87 107.88 146.409 107.889C146.872 107.895 147.335 107.9 147.812 107.905C148.177 107.968 148.543 108.031 148.92 108.095C149.871 109.524 149.871 109.524 149.812 110.553C149.73 110.941 149.649 111.33 149.564 111.73C149.478 112.153 149.391 112.576 149.301 113.012C149.205 113.452 149.108 113.892 149.009 114.345C148.918 114.789 148.827 115.233 148.733 115.69C148.043 118.973 148.043 118.973 147.492 119.524C146.784 119.593 146.072 119.632 145.36 119.658C144.706 119.684 144.706 119.684 144.038 119.712C143.578 119.728 143.119 119.745 142.645 119.762C139.272 119.863 139.272 119.863 135.93 120.283C134.43 120.509 133.284 120.253 131.791 120C130.913 119.949 130.033 119.917 129.153 119.902C128.648 119.893 128.143 119.883 127.623 119.873C127.086 119.865 126.55 119.858 125.997 119.849C125.441 119.839 124.885 119.83 124.313 119.819C122.543 119.788 120.774 119.76 119.005 119.732C117.803 119.712 116.601 119.691 115.399 119.67C112.458 119.619 109.516 119.57 106.575 119.524C105.97 117.707 106.329 116.324 106.681 114.496C106.748 114.133 106.815 113.769 106.883 113.395C107.028 112.607 107.175 111.819 107.323 111.032C107.721 108.915 108.107 106.796 108.495 104.676C108.574 104.243 108.654 103.809 108.736 103.363C109.492 99.2239 110.18 95.075 110.857 90.9226C111.953 84.2276 113.153 77.556 114.404 70.8884C115.081 67.2719 115.73 63.6548 116.304 60.0205C116.358 59.6849 116.411 59.3494 116.466 59.0037C116.716 57.4315 116.959 55.859 117.192 54.2841C117.277 53.7377 117.363 53.1913 117.451 52.6283C117.558 51.9146 117.558 51.9146 117.666 51.1864C118.388 48.5715 119.677 48.3912 122.233 48.3984Z" fill="#FBC54D"/>
<path d="M444.974 84.6131C448.478 87.5616 450.738 91.43 451.154 96.0101C451.295 101.365 450.102 106.677 446.759 110.952C446.508 111.274 446.258 111.596 446 111.927C442.484 116.183 438.435 119.083 432.802 119.632C428.237 119.912 423.653 120.097 419.639 117.619C419.115 117.308 419.115 117.308 418.58 116.99C415.167 114.717 413.809 111.57 412.978 107.619C412.198 101.831 414.672 95.2477 417.879 90.5153C424.22 82.4175 435.921 79.9084 444.974 84.6131Z" fill="#06B24C"/>
<path d="M538.049 84.8512C541.317 89.1801 541.414 93.0058 540.752 98.3802C540.472 100.097 540.161 101.804 539.833 103.512C539.613 104.719 539.393 105.926 539.175 107.134C539.02 107.994 539.02 107.994 538.861 108.872C538.406 111.511 538.09 114.158 537.804 116.821C537.633 118.095 537.633 118.095 537.157 119.048C534.802 119.048 532.447 119.048 530.02 119.048C529.069 117.143 529.069 117.143 529.069 115.714C527.111 116.388 525.491 117.385 523.772 118.514C520.973 120.196 517.006 119.938 513.844 119.524C511.059 118.645 508.793 117.389 507.331 114.792C506.072 111.501 506.731 108.764 507.984 105.578C509.859 101.709 512.709 99.547 516.698 98.0952C521.914 96.4566 526.992 96.5109 532.399 96.6667C532.277 95.8224 532.147 94.9793 532.013 94.1369C531.941 93.6673 531.869 93.1977 531.795 92.7139C531.42 91.3266 531.195 90.8069 530.02 90C524.509 88.6325 519.669 90.4181 514.795 92.8571C514.133 91.5311 514.349 90.5479 514.468 89.0774C514.506 88.5722 514.543 88.067 514.582 87.5465C514.795 86.1905 514.795 86.1905 515.747 84.7619C516.988 84.2225 516.988 84.2225 518.483 83.75C519.215 83.5124 519.215 83.5124 519.962 83.2701C525.532 81.7309 533.216 81.1708 538.049 84.8512Z" fill="#06B24C"/>
<path d="M224.123 67.5595C224.478 67.5577 224.832 67.5558 225.198 67.5539C227.839 67.5587 227.839 67.5587 228.375 68.0952C228.451 74.1472 226.765 80.3407 225.657 86.253C225.389 87.6899 225.125 89.1276 224.862 90.5655C224.778 91.0064 224.694 91.4474 224.607 91.9017C224.495 92.5174 224.495 92.5174 224.381 93.1455C224.314 93.5047 224.246 93.8639 224.177 94.234C224.086 95.3177 224.247 96.1103 224.569 97.1429C224.764 96.9165 224.959 96.6902 225.16 96.4571C227.321 93.9675 229.538 91.5394 231.795 89.1369C232.127 88.78 232.459 88.423 232.801 88.0552C233.123 87.7118 233.446 87.3684 233.778 87.0145C234.065 86.7071 234.353 86.3997 234.65 86.0829C236.235 84.5291 237.253 83.6276 239.528 83.6365C239.923 83.6368 240.319 83.6371 240.726 83.6375C241.339 83.649 241.339 83.649 241.965 83.6607C242.375 83.6592 242.786 83.6576 243.209 83.6561C246.264 83.6822 246.264 83.6822 247.882 84.7619C247.673 84.9366 247.464 85.1113 247.248 85.2912C245.191 87.0475 243.244 88.8927 241.344 90.8166C241.107 91.0567 240.869 91.2967 240.625 91.5441C239.638 92.5447 238.654 93.547 237.671 94.5514C236.945 95.2926 236.215 96.031 235.486 96.769C235.056 97.2066 234.627 97.6442 234.185 98.0951C233.133 99.0476 233.133 99.0476 232.181 99.0476C232.629 101.111 233.266 102.702 234.38 104.498C236.157 107.409 237.848 110.364 239.526 113.333C239.835 113.872 240.144 114.41 240.462 114.965C240.751 115.477 241.04 115.99 241.338 116.518C241.602 116.981 241.865 117.445 242.136 117.922C242.305 118.294 242.474 118.665 242.648 119.048C242.491 119.362 242.334 119.676 242.173 120C240.458 119.948 238.743 119.886 237.028 119.821C236.541 119.807 236.054 119.792 235.552 119.777C235.084 119.758 234.616 119.74 234.135 119.721C233.488 119.699 233.488 119.699 232.828 119.676C231.705 119.524 231.705 119.524 230.278 118.571C229.666 117.518 229.666 117.518 229.061 116.217C228.838 115.743 228.615 115.269 228.385 114.781C228.156 114.283 227.927 113.786 227.691 113.274C227.236 112.3 226.781 111.327 226.325 110.353C226.107 109.888 225.89 109.423 225.666 108.943C225.461 108.506 225.256 108.069 225.045 107.619C224.861 107.228 224.678 106.836 224.489 106.433C223.701 104.56 223.701 104.56 222.19 103.333C222.178 103.63 222.165 103.926 222.153 104.232C221.942 107.67 221.405 110.993 220.762 114.375C220.678 114.825 220.593 115.275 220.506 115.739C219.873 118.986 219.873 118.986 219.335 119.524C218.696 119.565 218.055 119.575 217.415 119.57C217.03 119.569 216.646 119.567 216.249 119.566C215.845 119.562 215.44 119.558 215.023 119.554C214.617 119.551 214.211 119.549 213.792 119.547C212.785 119.541 211.778 119.533 210.771 119.524C210.173 118.326 210.342 117.834 210.566 116.524C210.639 116.095 210.711 115.666 210.785 115.224C210.867 114.752 210.95 114.281 211.035 113.795C211.161 113.052 211.161 113.052 211.29 112.295C211.57 110.657 211.854 109.019 212.139 107.381C212.334 106.249 212.528 105.117 212.723 103.985C214.104 95.9646 215.521 87.9509 216.956 79.9405C217.049 79.4217 217.142 78.903 217.237 78.3686C217.499 76.9069 217.763 75.4456 218.027 73.9844C218.104 73.551 218.182 73.1177 218.262 72.6712C218.334 72.2752 218.406 71.8791 218.48 71.4711C218.542 71.1274 218.604 70.7838 218.668 70.4297C218.859 69.5238 218.859 69.5238 219.335 68.0952C220.845 67.3395 222.467 67.5509 224.123 67.5595Z" fill="#06B24C"/>
<path d="M343.699 83.7014C344.485 83.7015 344.485 83.7015 345.287 83.7016C346.134 83.709 346.134 83.709 346.999 83.7165C347.578 83.7179 348.156 83.7192 348.753 83.7206C350.605 83.7259 352.456 83.7379 354.308 83.75C355.563 83.7548 356.817 83.7591 358.071 83.763C361.148 83.7735 364.226 83.7895 367.303 83.8095C368.424 85.5329 368.27 86.6627 367.86 88.64C366.962 92.1536 365.277 94.0835 362.679 96.5216C362.273 96.9216 361.866 97.3217 361.447 97.7339C360.159 98.997 358.855 100.243 357.55 101.488C356.673 102.341 355.798 103.196 354.924 104.051C353.005 105.925 351.076 107.788 349.138 109.641C348.364 110.387 347.601 111.141 346.845 111.905C347.332 111.917 347.82 111.929 348.322 111.941C350.125 111.986 351.927 112.033 353.73 112.082C354.511 112.103 355.292 112.123 356.074 112.142C357.195 112.169 358.315 112.199 359.436 112.23C359.787 112.238 360.139 112.246 360.501 112.254C362.967 112.327 362.967 112.327 363.497 112.857C363.466 113.712 363.401 114.565 363.318 115.417C363.254 116.115 363.254 116.115 363.188 116.827C363.021 118.095 363.021 118.095 362.545 119.524C352.968 119.524 343.39 119.524 333.523 119.524C332.604 117.686 333.404 115.608 333.838 113.683C334.922 110.653 336.98 108.822 339.321 106.696C339.759 106.277 340.198 105.859 340.649 105.427C342.846 103.341 345.107 101.337 347.395 99.3533C348.856 98.0501 350.229 96.6629 351.602 95.2679C351.88 94.9876 352.158 94.7074 352.444 94.4187C353.116 93.7406 353.787 93.0609 354.457 92.381C353.547 91.4704 351.918 91.7884 350.708 91.7541C350.382 91.7442 350.055 91.7343 349.718 91.7241C348.671 91.6929 347.624 91.6649 346.577 91.6369C345.868 91.6163 345.16 91.5956 344.452 91.5746C342.712 91.5235 340.972 91.4753 339.232 91.4286C338.693 89.8107 338.821 89.0124 339.113 87.3512C339.189 86.889 339.265 86.4268 339.344 85.9505C340.045 83.6621 341.601 83.6918 343.699 83.7014Z" fill="#06B24C"/>
<path d="M502.425 73.8095C502.108 76.9841 501.791 80.1587 501.473 83.3333C501.943 83.3278 502.413 83.3223 502.897 83.3166C503.507 83.3123 504.116 83.308 504.744 83.3036C505.352 83.2981 505.959 83.2925 506.584 83.2868C508.134 83.3333 508.134 83.3333 509.086 83.8095C508.772 85.8524 508.458 87.8952 508.134 90C505.308 90.1572 502.482 90.3143 499.57 90.4762C499.518 91.1103 499.465 91.7444 499.41 92.3977C499.036 96.1529 498.332 99.8611 497.67 103.574C497.501 104.524 497.337 105.476 497.173 106.427C497.074 106.987 496.975 107.548 496.872 108.126C496.614 109.551 496.614 109.551 497.191 110.952C498.822 112.04 499.39 111.997 501.295 111.935C502.147 111.909 503 111.895 503.852 111.905C504.009 112.062 504.166 112.219 504.328 112.381C504.298 113.236 504.232 114.089 504.15 114.94C504.085 115.638 504.085 115.638 504.02 116.35C503.852 117.619 503.852 117.619 503.377 119.048C499.945 120.313 494.797 120.13 491.339 119.02C489.035 117.759 487.653 116.447 486.869 113.916C486.488 111.135 486.826 108.478 487.332 105.74C487.394 105.391 487.456 105.042 487.521 104.683C487.718 103.578 487.92 102.473 488.122 101.369C488.256 100.624 488.389 99.8798 488.522 99.1351C489.502 93.679 489.502 93.679 489.888 91.9441C489.943 91.6168 489.998 91.2896 490.055 90.9524C489.227 90.124 488.059 90.2991 486.932 90.2083C486.451 90.1684 485.969 90.1285 485.473 90.0874C485.101 90.0586 484.729 90.0297 484.345 90C483.708 87.4901 484.193 85.8121 484.821 83.3333C487.019 83.3333 489.217 83.3333 491.482 83.3333C491.61 82.3414 491.737 81.3494 491.869 80.3274C492.296 77.0078 492.296 77.0078 493.861 75.7143C495.142 75.2244 496.387 74.7966 497.697 74.4048C498.046 74.2937 498.394 74.1826 498.753 74.0681C501.349 73.2712 501.349 73.2712 502.425 73.8095Z" fill="#06B24C"/>
<path d="M62.7058 124.119C63.481 124.111 64.2562 124.098 65.0313 124.08C66.1547 124.054 67.2773 124.043 68.401 124.036C68.7436 124.026 69.0862 124.015 69.4391 124.004C71.7839 124.013 73.0819 124.583 74.8922 126.074C76.1653 127.071 77.6057 127.592 79.0986 128.185C79.6702 128.417 80.2418 128.65 80.8308 128.89C93.5783 133.358 108.538 130.086 120.848 125.714C121.162 125.557 121.476 125.4 121.8 125.238C124.879 125.07 124.879 125.07 126.558 126.19C110.419 134.597 89.3436 142.525 70.9806 137.738C69.9906 137.406 69.0072 137.052 68.0367 136.667C67.6393 136.524 67.2419 136.381 66.8324 136.233C61.1285 133.975 57.0029 130.165 54.2391 124.762C56.9091 123.871 59.9054 124.14 62.7058 124.119Z" fill="#06B24C"/>
<path d="M557.028 66.5365C557.379 66.5402 557.73 66.5438 558.091 66.5476C558.618 66.5421 558.618 66.5421 559.154 66.5365C561.777 66.5461 561.777 66.5461 562.849 67.6191C562.804 68.9853 562.804 68.9853 562.557 70.7887C562.512 71.1226 562.466 71.4564 562.419 71.8004C561.725 76.6996 560.8 81.563 559.905 86.4286C559.521 88.5365 559.138 90.6448 558.755 92.753C558.659 93.2797 558.563 93.8063 558.464 94.349C557.832 97.8324 557.214 101.318 556.61 104.807C556.533 105.252 556.456 105.698 556.376 106.156C556.083 107.852 555.79 109.547 555.5 111.242C555.304 112.386 555.107 113.529 554.91 114.673C554.824 115.177 554.824 115.177 554.737 115.691C554.339 117.987 554.339 117.987 553.809 119.048C550.983 119.048 548.157 119.048 545.245 119.048C544.728 116.975 544.895 115.913 545.281 113.834C545.369 113.348 545.369 113.348 545.459 112.852C545.586 112.156 545.714 111.459 545.844 110.763C546.191 108.909 546.525 107.053 546.86 105.197C546.928 104.827 546.995 104.457 547.064 104.075C547.592 101.166 548.067 98.2502 548.516 95.3274C549.362 89.9207 550.288 84.5278 551.23 79.1372C551.403 78.1476 551.574 77.1576 551.744 76.1675C551.984 74.7713 552.229 73.3761 552.475 71.981C552.547 71.555 552.62 71.129 552.694 70.6901C552.799 70.1036 552.799 70.1036 552.906 69.5053C552.966 69.1627 553.026 68.82 553.087 68.467C553.702 66.3498 555.102 66.5435 557.028 66.5365Z" fill="#06B24C"/>
<path d="M96.1078 52.8571C96.5788 53.0929 96.5788 53.0929 97.0594 53.3333C96.138 54.1177 95.2162 54.9013 94.2939 55.6845C94.0134 55.923 93.7329 56.1614 93.444 56.4071C91.7062 57.8801 89.9471 59.3207 88.1682 60.7441C75.6188 71.0321 65.8308 86.5684 63.8423 102.842C63.1935 110.012 65.4429 116.105 69.4641 121.905C69.6211 122.219 69.7781 122.533 69.9398 122.857C67.73 122.916 65.5206 122.959 63.3102 122.988C62.5583 123 61.8065 123.016 61.0548 123.037C59.9741 123.066 58.8941 123.079 57.813 123.09C57.3089 123.108 57.3089 123.108 56.7946 123.127C55.8424 123.127 55.8424 123.127 54.2391 122.857C51.8129 119.823 52.0621 116.086 52.3359 112.381C54.8942 98.1008 61.997 86.0765 71.3672 75.2381C71.6526 74.9072 71.9381 74.5762 72.2322 74.2353C73.7546 72.481 75.2929 70.7582 76.9279 69.1071C77.2732 68.7548 77.6185 68.4025 77.9742 68.0394C78.9797 67.1429 78.9797 67.1429 79.8941 66.7095C81.3673 65.9362 82.3941 64.7336 83.5293 63.5417C86.1341 60.8713 88.8833 58.4869 91.8258 56.1905C92.4587 55.6933 92.4587 55.6933 93.1044 55.186C94.1025 54.4056 95.1033 53.6292 96.1078 52.8571Z" fill="#07B24D"/>
<path d="M479.588 82.3809C479.902 82.6952 480.216 83.0095 480.539 83.3333C480.441 84.8177 480.441 84.8177 480.152 86.6071C480.061 87.1952 479.97 87.7833 479.876 88.3891C479.662 89.5816 479.431 90.7378 479.112 91.9048C478.551 91.8799 478.551 91.8799 477.98 91.8545C474.956 91.7765 472.69 91.75 470.072 93.3333C465.88 97.8693 465.218 105.242 464.244 111.131C464.063 112.199 463.88 113.267 463.695 114.335C463.532 115.286 463.372 116.237 463.213 117.188C462.935 118.571 462.935 118.571 462.459 119.048C461.821 119.089 461.18 119.099 460.54 119.094C460.155 119.093 459.77 119.091 459.373 119.089C458.969 119.085 458.564 119.081 458.148 119.077C457.741 119.075 457.335 119.073 456.916 119.071C455.909 119.065 454.902 119.057 453.895 119.048C453.26 117.252 453.552 115.828 453.882 113.977C453.937 113.663 453.992 113.349 454.048 113.026C454.23 111.991 454.418 110.957 454.605 109.924C454.733 109.204 454.861 108.484 454.988 107.764C455.255 106.257 455.525 104.75 455.797 103.243C456.145 101.311 456.489 99.3791 456.832 97.4464C457.159 95.6033 457.488 93.7605 457.817 91.9178C457.911 91.39 457.911 91.39 458.007 90.8515C458.184 89.8563 458.364 88.8612 458.543 87.8663C458.645 87.3 458.747 86.7337 458.852 86.1502C459.129 84.7619 459.129 84.7619 459.605 83.3333C462.117 83.3333 464.629 83.3333 467.217 83.3333C467.631 85.4045 467.71 86.1768 467.217 88.0952C467.531 88.0952 467.845 88.0952 468.169 88.0952C468.786 87.4122 468.786 87.4122 469.418 86.5476C472.011 83.3967 475.567 82.1615 479.588 82.3809Z" fill="#06B24C"/>
<path d="M285.71 87.9418C286.18 87.9433 286.65 87.9449 287.134 87.9464C287.589 87.9388 288.044 87.9311 288.513 87.9232C291.712 87.921 295.6 88.0122 298.15 90.1985C300.514 92.9812 300.908 94.8645 300.841 98.4301C300.56 101.432 299.419 103.345 297.244 105.387C293.117 108.628 288.152 108.654 283.12 108.631C282.505 108.634 282.505 108.634 281.877 108.637C278.868 108.632 278.868 108.632 278.332 108.095C278.159 105.268 278.66 102.673 279.224 99.9107C279.401 99.0229 279.577 98.1351 279.752 97.247C279.836 96.821 279.921 96.395 280.007 95.9561C280.382 93.9924 280.675 92.0188 280.953 90.0391C281.555 87.4878 283.557 87.958 285.71 87.9418Z" fill="#FAFCFC"/>
<path d="M179.238 34.3006C184.217 38.6092 187.307 43.8609 187.934 50.4762C187.978 50.9169 188.023 51.3577 188.069 51.8118C188.137 53.0067 188.153 54.0617 187.934 55.2381C186.952 56.0417 186.952 56.0417 185.555 56.6667C184.668 57.5208 183.839 58.4127 183.009 59.3211C182.224 60 182.224 60 180.797 60C180.75 59.5562 180.704 59.1124 180.656 58.6551C179.876 52.0032 178.562 46.6655 174.136 41.4286C173.747 40.9507 173.747 40.9507 173.35 40.4632C168.567 35.115 160.463 33.2474 153.59 32.7876C147.465 32.4823 141.774 33.3048 135.788 34.544C134.145 34.8575 132.502 35.0543 130.84 35.2381C130.997 34.9238 131.154 34.6095 131.316 34.2857C131.63 34.4429 131.944 34.6 132.267 34.7619C132.424 34.4476 132.581 34.1333 132.743 33.8095C133.057 33.9667 133.371 34.1238 133.695 34.2857C133.695 33.9714 133.695 33.6571 133.695 33.3333C147.288 29.0734 166.856 24.8205 179.238 34.3006Z" fill="#42C980"/>
<path d="M406.628 60.8966C409.065 62.0573 410.515 64.2296 411.551 66.6667C412.054 70.0871 411.34 73.4208 409.421 76.2872C407.218 79.0056 404.833 80.3366 401.559 81.4286C400.785 81.4674 400.01 81.4798 399.234 81.4751C398.788 81.4735 398.342 81.472 397.882 81.4704C397.185 81.4644 397.185 81.4644 396.474 81.4583C395.769 81.4551 395.769 81.4551 395.05 81.4518C393.889 81.4462 392.729 81.4384 391.568 81.4286C391.757 76.3368 392.682 71.447 393.701 66.4669C393.873 65.6093 394.034 64.7495 394.187 63.8883C394.265 63.4566 394.344 63.0248 394.425 62.58C394.493 62.1879 394.561 61.7957 394.632 61.3917C394.72 61.0896 394.808 60.7875 394.898 60.4762C398.106 58.8711 403.316 59.8716 406.628 60.8966Z" fill="#FBFDFD"/>
<path d="M437.719 90C439.197 91.2007 440.202 92.5897 441.049 94.2857C441.395 99.9822 441.406 104.784 437.511 109.286C435.821 111.094 434.612 112.238 432.119 112.541C428.958 112.582 426.895 112.497 424.397 110.476C422.292 106.998 422.522 103.302 423.265 99.3992C424.352 95.622 426.232 92.3688 429.71 90.3553C432.289 89.3368 435.074 89.0982 437.719 90Z" fill="#FBFDFD"/>
<path d="M328.795 83.75C329.149 83.7482 329.504 83.7463 329.87 83.7444C332.511 83.7492 332.511 83.7492 333.047 84.2857C333.134 86.4966 332.957 88.5461 332.574 90.7211C332.471 91.3154 332.367 91.9096 332.261 92.5218C332.147 93.1613 332.033 93.8007 331.919 94.4401C331.802 95.1033 331.686 95.7666 331.57 96.4299C331.327 97.8147 331.083 99.1991 330.837 100.583C330.522 102.355 330.21 104.128 329.899 105.901C329.602 107.597 329.303 109.292 329.005 110.988C328.92 111.471 328.92 111.471 328.833 111.964C328.672 112.877 328.51 113.789 328.348 114.702C328.256 115.22 328.164 115.739 328.069 116.274C327.862 117.365 327.607 118.446 327.337 119.524C324.354 119.524 321.371 119.524 318.298 119.524C318.298 117.071 318.3 115.227 318.719 112.909C318.811 112.391 318.904 111.873 318.999 111.339C319.1 110.79 319.201 110.242 319.305 109.676C319.408 109.101 319.512 108.526 319.618 107.933C319.948 106.102 320.283 104.271 320.617 102.44C320.839 101.213 321.06 99.9864 321.281 98.7593C322.342 92.8781 322.342 92.8781 322.789 90.4804C322.966 89.5289 323.138 88.5764 323.304 87.623C323.383 87.1901 323.462 86.7572 323.543 86.3111C323.61 85.9303 323.677 85.5495 323.746 85.1572C323.832 84.8696 323.918 84.582 324.007 84.2857C325.517 83.53 327.138 83.7414 328.795 83.75Z" fill="#06B24C"/>
<path d="M291.148 59.8214C291.509 59.8263 291.869 59.8311 292.241 59.8361C296.033 59.9396 299.557 60.28 302.716 62.5298C304.322 64.9207 303.885 68.2353 303.548 70.9524C302.403 73.7441 300.028 75.3753 297.363 76.6667C293.071 77.9762 288.481 77.7206 284.041 77.619C283.276 74.7507 283.961 72.1091 284.468 69.2369C284.636 68.2746 284.793 67.311 284.95 66.3467C285.055 65.739 285.16 65.1313 285.268 64.5052C285.363 63.9493 285.458 63.3934 285.557 62.8206C286.424 59.7074 288.228 59.7659 291.148 59.8214Z" fill="#FBFDFD"/>
<path d="M206.965 25.7143C207.279 25.5571 207.593 25.4 207.916 25.2381C208.23 25.3952 208.544 25.5524 208.868 25.7143C208.868 26.0286 208.868 26.3429 208.868 26.6667C209.143 26.7158 209.417 26.7649 209.701 26.8155C210.98 27.2066 211.711 27.6403 212.674 28.5714C213.031 29.8512 213.031 29.8512 213.15 30.9524C213.464 30.9524 213.778 30.9524 214.102 30.9524C213.945 31.8952 213.788 32.8381 213.626 33.8095C213.94 33.9667 214.254 34.1238 214.577 34.2857C214.419 35.0794 214.26 35.873 214.102 36.6667C214.057 37.2265 214.057 37.2265 214.012 37.7976C213.268 40.2037 211.51 41.8351 209.522 43.3036C206.677 44.2002 203.735 44.489 200.953 43.2515C198.596 41.7392 196.443 40.0802 195.665 37.2917C195.521 35.9575 195.546 34.6813 195.546 33.3333C195.86 33.3333 196.174 33.3333 196.498 33.3333C196.341 32.3905 196.184 31.4476 196.022 30.4762C196.493 30.4762 196.964 30.4762 197.449 30.4762C197.292 30.0048 197.135 29.5333 196.973 29.0476C197.692 27.6085 198.986 27.0699 200.304 26.1905C200.775 26.3476 201.246 26.5048 201.731 26.6667C201.731 26.1952 201.731 25.7238 201.731 25.2381C203.859 24.8286 205.082 24.5977 206.965 25.7143Z" fill="#21B54F"/>
<path d="M62.7058 124.119C63.481 124.111 64.2562 124.098 65.0313 124.08C66.1547 124.054 67.2773 124.043 68.401 124.036C68.7436 124.026 69.0862 124.015 69.4391 124.004C71.7896 124.013 73.0849 124.587 74.8962 126.086C76.5278 127.344 78.624 127.816 80.552 128.471C80.9752 128.661 81.3984 128.852 81.8344 129.048C82.0699 129.755 82.0699 129.755 82.3102 130.476C81.5273 130.915 81.5273 130.915 80.7286 131.363C80.0366 131.752 79.3446 132.141 78.6526 132.53C78.1379 132.818 78.1379 132.818 77.6127 133.113C77.277 133.302 76.9412 133.49 76.5952 133.685C76.267 133.869 75.9388 134.053 75.6007 134.243C74.8463 134.677 74.1072 135.137 73.3725 135.603C71.7664 136.499 70.2791 136.47 68.5125 136.19C66.9899 135.723 65.6389 135.024 64.2305 134.286C63.6908 134.03 63.151 133.775 62.595 133.512C58.2867 131.371 56.2305 129.258 54.2391 124.762C56.9091 123.871 59.9054 124.14 62.7058 124.119Z" fill="#43C981"/>
<path d="M73.2703 124.762C84.6984 124.712 96.1255 124.711 107.552 124.914C108.585 124.931 109.618 124.948 110.651 124.963C112.096 124.984 113.54 125.012 114.985 125.041C115.63 125.049 115.63 125.049 116.288 125.058C116.879 125.072 116.879 125.072 117.481 125.086C117.823 125.093 118.166 125.099 118.518 125.105C119.421 125.238 119.421 125.238 120.848 126.19C112.101 129.223 103.709 131.103 94.4129 131.161C93.8701 131.166 93.3274 131.17 92.7682 131.175C87.8194 131.124 83.1267 130.152 78.5039 128.393C78.0133 128.212 77.5226 128.032 77.0171 127.846C75.4506 127.041 74.4856 126.024 73.2703 124.762Z" fill="#FAFCFC"/>
<path d="M63.2789 107.619C63.7672 109.047 64.2283 110.468 64.6226 111.925C65.6673 115.734 67.2232 118.673 69.4641 121.905C69.6996 122.376 69.6996 122.376 69.9398 122.857C67.73 122.916 65.5206 122.959 63.3102 122.988C62.5583 123 61.8065 123.016 61.0548 123.037C59.9741 123.066 58.8941 123.079 57.813 123.09C57.3089 123.108 57.3089 123.108 56.7946 123.127C55.8424 123.127 55.8424 123.127 54.2391 122.857C52.398 120.552 52.2632 118.349 52.2467 115.476C52.24 114.941 52.2332 114.406 52.2263 113.854C52.3313 112.443 52.5519 111.663 53.2875 110.476C53.4445 110.79 53.6015 111.105 53.7633 111.429C53.9792 111.154 54.1951 110.879 54.4175 110.595C56.8718 108.49 60.0275 107.277 63.2789 107.619Z" fill="#45CA83"/>
<path d="M264.534 27.1429C265.922 27.1171 267.31 27.0983 268.697 27.0833C269.09 27.0754 269.483 27.0674 269.887 27.0592C270.267 27.0561 270.647 27.053 271.039 27.0499C271.388 27.0449 271.737 27.0399 272.096 27.0347C273.864 27.2255 274.829 27.9229 276.072 29.1667C277.605 31.6358 277.291 34.8536 276.905 37.6191C276.26 39.0097 275.744 39.4835 274.526 40.4762C272.687 41.0895 270.94 41.0401 269.025 41.0417C268.653 41.0475 268.282 41.0533 267.899 41.0593C266.936 41.0618 265.972 41.0106 265.01 40.9524C264.059 40 264.059 40 263.943 38.8142C263.945 38.3265 263.947 37.8388 263.949 37.3363C263.95 36.8066 263.951 36.2768 263.952 35.731C263.958 35.1755 263.963 34.62 263.969 34.0476C263.97 33.4921 263.97 32.9366 263.97 32.3642C263.992 28.2288 263.992 28.2288 264.534 27.1429Z" fill="#06B24C"/>
<path d="M279.759 27.1429C281.296 27.0734 282.831 27.0313 284.368 26.9941C284.802 26.9741 285.236 26.9542 285.683 26.9336C287.908 26.8931 288.938 26.8938 290.777 28.2515C291.654 29.5238 291.654 29.5238 291.565 30.9821C291.437 31.4438 291.31 31.9054 291.178 32.381C291.002 34.3077 291.002 34.3077 292.13 35.7143C292.338 37.3512 292.338 37.3512 292.13 39.0476C291.084 40.29 290.25 40.8822 288.626 41.1106C287.291 41.1572 285.971 41.1418 284.636 41.1012C284.174 41.0966 283.712 41.092 283.237 41.0872C279.839 41.0326 279.839 41.0326 279.284 40.4762C279.236 39.5701 279.221 38.6622 279.22 37.7548C279.22 37.2021 279.219 36.6493 279.219 36.0798C279.221 35.2065 279.221 35.2065 279.224 34.3155C279.221 33.4449 279.221 33.4449 279.219 32.5567C279.219 32.0034 279.22 31.45 279.22 30.8798C279.221 30.3692 279.221 29.8585 279.222 29.3323C279.284 28.0952 279.284 28.0952 279.759 27.1429Z" fill="#06B24C"/>
<path d="M248.358 27.1428C250.66 26.6402 250.66 26.6402 252.164 27.1428C253.829 28.9008 255.122 30.8357 256.446 32.8571C256.603 33.0143 256.76 33.1714 256.922 33.3333C257.079 31.2905 257.236 29.2476 257.398 27.1428C259.003 27.0833 259.003 27.0833 260.728 27.1428C261.68 28.0952 261.68 28.0952 261.788 29.3836C261.783 29.9173 261.778 30.4509 261.773 31.0007C261.77 31.5777 261.766 32.1548 261.763 32.7492C261.755 33.3545 261.747 33.9597 261.739 34.5833C261.735 35.1923 261.731 35.8012 261.726 36.4286C261.715 37.9366 261.699 39.4444 261.68 40.9524C258.03 41.0714 258.03 41.0714 256.625 40C255.261 38.2764 253.934 36.5386 252.64 34.7619C252.483 36.8048 252.326 38.8476 252.164 40.9524C251.054 40.9726 249.944 40.9719 248.834 40.9524C247.561 39.6785 248.122 36.0385 248.06 34.3155C248.036 33.7351 248.011 33.1547 247.986 32.5567C247.965 32.0034 247.944 31.45 247.923 30.8798C247.904 30.3692 247.884 29.8585 247.864 29.3323C247.882 28.0952 247.882 28.0952 248.358 27.1428Z" fill="#06B24C"/>
<path d="M311.31 26.9643C313.064 27.1429 313.064 27.1429 314.045 28.0952C314.35 28.5667 314.654 29.0381 314.967 29.5238C315.468 30.2119 315.974 30.8963 316.484 31.5774C316.726 31.9095 316.968 32.2415 317.218 32.5837C317.417 32.8311 317.616 33.0785 317.822 33.3333C317.979 33.3333 318.136 33.3333 318.298 33.3333C318.292 32.9663 318.287 32.5992 318.281 32.221C318.277 31.7434 318.272 31.2658 318.268 30.7738C318.262 30.2987 318.257 29.8236 318.251 29.3341C318.298 28.0952 318.298 28.0952 318.773 27.1429C321.509 27.0833 321.509 27.0833 322.58 27.619C322.58 32.019 322.58 36.419 322.58 40.9524C318.773 40.9524 318.773 40.9524 317.524 40C316.161 38.2764 314.834 36.5386 313.54 34.7619C313.383 36.8048 313.226 38.8476 313.064 40.9524C311.954 40.9726 310.844 40.9719 309.734 40.9524C308.876 40.0939 309.196 38.7902 309.195 37.6339C309.194 37.0575 309.193 36.4811 309.193 35.8873C309.195 35.2802 309.196 34.6731 309.198 34.0476C309.196 33.4405 309.195 32.8334 309.193 32.208C309.193 31.6316 309.194 31.0552 309.195 30.4613C309.195 29.9282 309.196 29.3951 309.196 28.8458C309.288 27.0076 309.429 27.1773 311.31 26.9643Z" fill="#06B24C"/>
<path d="M327.308 27.0536C328.765 27.1429 328.765 27.1429 329.716 28.0952C329.906 29.042 330.067 29.995 330.192 30.9524C330.545 30.589 330.899 30.2256 331.263 29.8512C331.694 29.4289 332.126 29.0066 332.571 28.5714C332.856 28.2866 333.14 28.0018 333.433 27.7083C335.086 26.8105 336.415 26.9923 338.28 27.1429C338.594 27.4571 338.908 27.7714 339.232 28.0952C338.952 28.3426 338.671 28.59 338.383 28.8449C338.025 29.177 337.668 29.509 337.299 29.8512C336.761 30.3401 336.761 30.3401 336.212 30.8389C335.314 31.8361 335.314 31.8361 335.426 33.0394C336.027 34.6148 336.865 35.8541 337.834 37.2322C339.708 39.9046 339.708 39.9046 339.708 40.9524C338.099 41.0906 336.555 41.1547 334.95 40.9524C333.79 39.9107 333.79 39.9107 333.047 38.5714C332.772 38.1295 332.497 37.6875 332.214 37.2322C331.92 36.7165 331.92 36.7165 331.62 36.1905C330.132 36.9547 330.132 36.9547 329.949 38.0692C329.921 38.4117 329.894 38.7542 329.865 39.1072C329.791 40.0205 329.791 40.0205 329.716 40.9524C326.789 40.9989 326.789 40.9989 325.91 40.9524C325.052 40.0939 325.372 38.7903 325.371 37.6339C325.371 37.0575 325.37 36.4811 325.369 35.8873C325.371 35.2802 325.373 34.6731 325.375 34.0476C325.373 33.4405 325.371 32.8335 325.369 32.208C325.37 31.6316 325.371 31.0552 325.371 30.4613C325.372 29.9282 325.372 29.3951 325.373 28.8458C325.461 27.0961 325.54 27.1665 327.308 27.0536Z" fill="#06B24C"/>
<path d="M299.344 27.0499C299.924 27.0664 299.924 27.0664 300.515 27.0833C301.099 27.0962 301.099 27.0962 301.694 27.1094C302.141 27.1259 302.141 27.1259 302.597 27.1429C303.204 28.64 303.807 30.1384 304.411 31.6369C304.665 32.2644 304.665 32.2644 304.925 32.9046C305.991 35.559 306.963 38.2262 307.83 40.9524C305.301 41.1211 305.301 41.1211 304.024 40.9524C303.72 40.6381 303.416 40.3238 303.102 40C301.899 38.8325 301.49 38.9184 299.861 38.9286C299.187 38.9591 298.512 38.9958 297.839 39.0476C297.525 39.6762 297.211 40.3048 296.888 40.9524C295.788 40.9524 294.689 40.9524 293.557 40.9524C293.081 40 293.081 40 293.405 38.8142C293.581 38.3265 293.757 37.8388 293.938 37.3363C294.128 36.8066 294.319 36.2768 294.515 35.731C294.719 35.1755 294.923 34.62 295.133 34.0476C295.431 33.2143 295.431 33.2143 295.734 32.3642C297.606 27.2069 297.606 27.2069 299.344 27.0499Z" fill="#06B24C"/>
<path d="M239.05 27.0536C239.623 27.0434 239.623 27.0434 240.208 27.0331C241.221 27.1429 241.221 27.1429 242.173 28.0952C242.503 28.8915 242.802 29.7014 243.081 30.5171C243.248 30.9996 243.415 31.4821 243.586 31.9792C243.757 32.485 243.929 32.9908 244.106 33.5119C244.279 34.014 244.452 34.5161 244.631 35.0335C246.017 39.0748 246.017 39.0748 246.455 40.9524C242.903 41.1272 242.903 41.1272 241.697 40.2976C241.221 39.5238 241.221 39.5238 241.221 38.5714C240.527 38.6 239.833 38.6423 239.14 38.6905C238.753 38.7126 238.367 38.7347 237.969 38.7574C236.849 38.9487 236.849 38.9487 236.326 40.0223C236.214 40.3292 236.103 40.6362 235.987 40.9524C234.888 40.9524 233.789 40.9524 232.657 40.9524C232.057 39.1512 232.409 38.5586 233.055 36.7969C233.247 36.2665 233.44 35.7362 233.638 35.1897C233.844 34.6361 234.05 34.0824 234.263 33.5119C234.566 32.6759 234.566 32.6759 234.876 31.8229C236.616 27.0731 236.616 27.0731 239.05 27.0536Z" fill="#06B24C"/>
<path d="M530.972 102.857C530.815 106.543 529.027 109.155 526.392 111.667C524.151 113.083 521.666 113.126 519.077 112.857C517.665 112.195 516.843 111.573 515.747 110.476C515.747 107.964 516.414 106.325 518.1 104.529C521.097 102.322 527.532 101.136 530.972 102.857Z" fill="#FBFDFD"/>
<path d="M256.446 109.048C257.959 110.644 258.778 111.758 258.944 113.958C258.769 116.543 257.885 117.573 256.149 119.435C254.592 120.662 253.216 120.8 251.27 120.672C249.646 120.357 248.913 119.862 247.882 118.571C247.224 116.637 247.268 115.178 247.912 113.244C249.992 110.222 252.68 107.87 256.446 109.048Z" fill="#9B9FA0"/>
<path d="M220.287 27.1429C221.892 27.0833 221.892 27.0833 223.617 27.1429C224.737 28.2636 224.701 28.538 224.766 30.0633C224.784 30.4469 224.803 30.8305 224.822 31.2258C224.836 31.6267 224.851 32.0275 224.866 32.4405C224.885 32.845 224.903 33.2495 224.922 33.6663C224.967 34.6663 225.006 35.6664 225.045 36.6667C225.485 36.7532 225.926 36.8398 226.381 36.929C226.951 37.0486 227.52 37.1683 228.107 37.2917C228.676 37.4077 229.244 37.5237 229.83 37.6432C230.292 37.7924 230.754 37.9416 231.23 38.0952C231.387 38.5667 231.544 39.0381 231.705 39.5238C231.391 39.9952 231.077 40.4667 230.754 40.9524C229.744 41.1297 229.744 41.1297 228.509 41.1254C228.065 41.1251 227.622 41.1248 227.165 41.1244C226.701 41.1168 226.237 41.1091 225.758 41.1012C225.294 41.1027 224.83 41.1043 224.351 41.1058C220.889 41.0795 220.889 41.0795 219.811 40C219.695 38.8142 219.695 38.8142 219.701 37.3363C219.702 36.8066 219.703 36.2768 219.704 35.731C219.71 35.1755 219.716 34.62 219.722 34.0476C219.722 33.4921 219.722 32.9366 219.723 32.3642C219.744 28.2288 219.744 28.2288 220.287 27.1429Z" fill="#06B24C"/>
<path d="M331.382 68.4821C331.71 68.4763 332.038 68.4705 332.376 68.4645C333.235 68.462 334.093 68.5134 334.95 68.5714C335.902 69.5238 335.902 69.5238 335.924 70.4204C335.877 70.7727 335.831 71.1251 335.783 71.4881C335.741 71.8331 335.699 72.1781 335.656 72.5335C335.346 74.253 334.91 75.927 334.474 77.619C333.057 77.6318 331.639 77.6413 330.222 77.6488C329.615 77.6548 329.615 77.6548 328.996 77.6609C328.611 77.6624 328.227 77.664 327.83 77.6656C327.474 77.668 327.117 77.6705 326.75 77.6731C325.91 77.619 325.91 77.619 325.434 77.1429C325.495 74.3835 325.726 71.5873 326.862 69.0476C328.305 68.3252 329.8 68.4836 331.382 68.4821Z" fill="#06B24C"/>
<path d="M165.572 68.4524C166.098 68.4377 166.098 68.4377 166.635 68.4226C167.653 68.4152 167.653 68.4152 169.378 68.5714C170.33 70 170.33 70 170.127 71.6853C169.993 72.3351 169.852 72.9837 169.705 73.631C169.603 74.1263 169.603 74.1263 169.498 74.6317C168.977 77.0677 168.977 77.0677 168.427 77.6191C167.788 77.6602 167.147 77.67 166.507 77.6656C166.122 77.664 165.737 77.6625 165.34 77.6609C164.936 77.6569 164.532 77.6529 164.115 77.6488C163.708 77.6467 163.302 77.6445 162.884 77.6423C161.876 77.6367 160.869 77.6281 159.862 77.6191C159.085 76.0626 159.695 74.4754 160.011 72.8274C160.073 72.4723 160.136 72.1172 160.2 71.7513C160.37 70.843 160.589 69.944 160.814 69.0476C162.318 68.2951 163.922 68.4639 165.572 68.4524Z" fill="#06B24C"/>
<path d="M158.465 29.0179C158.877 29.02 159.289 29.0222 159.713 29.0244C160.714 29.0299 161.716 29.0384 162.717 29.0476C162.717 29.3619 162.717 29.6762 162.717 30C164.13 30 165.543 30 166.999 30C166.999 30.1571 166.999 30.3143 166.999 30.4762C166.131 30.5204 166.131 30.5204 165.245 30.5655C163.539 30.7581 163.313 30.8077 162.152 32.2024C160.814 33.3333 160.814 33.3333 159.628 33.3836C158.589 33.2843 157.551 33.1733 156.513 33.0543C149.394 32.3094 142.766 33.0993 135.788 34.544C134.145 34.8575 132.502 35.0543 130.84 35.2381C130.997 34.9238 131.154 34.6095 131.316 34.2857C131.63 34.4429 131.944 34.6 132.267 34.7619C132.424 34.4476 132.581 34.1333 132.743 33.8095C133.057 33.9667 133.371 34.1238 133.695 34.2857C133.695 33.9714 133.695 33.6571 133.695 33.3333C141.835 30.7821 149.888 28.9313 158.465 29.0179Z" fill="#06B24C"/>
<path d="M200.304 31.9048C202.947 33.0719 204.09 35.2435 205.537 37.619C205.604 37.2526 205.67 36.8861 205.738 36.5085C206.062 35.0132 206.518 34.0775 207.441 32.8571C208.719 32.2321 208.719 32.2321 209.82 31.9048C210.176 32.9167 210.176 32.9167 210.295 34.2857C209.231 36.3351 208.157 37.6594 206.013 38.5714C204.41 38.346 203.231 37.653 201.88 36.7857C201.505 36.5524 201.13 36.3192 200.744 36.0789C199.606 35.0345 199.419 34.3868 199.352 32.8571C199.666 32.5428 199.98 32.2286 200.304 31.9048Z" fill="#FCC54D"/>
<path d="M268.816 30.4762C270.184 30.3869 270.184 30.3869 271.671 30.4762C272.702 32.0242 272.752 32.5202 272.742 34.3155C272.744 34.7335 272.747 35.1515 272.749 35.5822C272.623 36.6667 272.623 36.6667 271.671 37.619C270.452 37.7083 270.452 37.7083 269.292 37.619C268.437 36.7626 268.616 35.4758 268.519 34.3155C268.474 33.8005 268.428 33.2855 268.382 32.7548C268.341 31.4286 268.341 31.4286 268.816 30.4762Z" fill="#FBFDFD"/>
<path d="M205.062 27.1429C206.753 28.9088 206.852 30.4937 206.965 32.8571C206.494 33.5643 206.494 33.5643 206.013 34.2857C204.883 33.9881 204.883 33.9881 203.634 33.3333C202.891 32.0238 202.891 32.0238 202.683 30.4762C203.381 29.1988 204.032 28.1732 205.062 27.1429Z" fill="#FCC54D"/>
<path d="M13.7977 122.857C15.7602 122.816 17.7226 122.79 19.6854 122.768C20.2448 122.756 20.8041 122.744 21.3804 122.732C22.1808 122.725 22.1808 122.725 22.9973 122.718C23.4907 122.71 23.984 122.703 24.4923 122.695C24.8882 122.748 25.2842 122.802 25.6922 122.857C26.0062 123.329 26.3202 123.8 26.6437 124.286C22.4045 124.286 18.1653 124.286 13.7977 124.286C13.7977 123.814 13.7977 123.343 13.7977 122.857Z" fill="#D7E8BD"/>
<path d="M283.566 35.2381C285.171 35.1786 285.171 35.1786 286.896 35.2381C287.848 36.1905 287.848 36.1905 287.848 37.619C286.242 37.9167 286.242 37.9167 284.517 38.0952C284.203 37.781 283.889 37.4667 283.566 37.1429C283.566 36.5143 283.566 35.8857 283.566 35.2381Z" fill="#FBFDFD"/>
<path d="M136.549 120C134.719 121.66 132.79 122.817 130.364 123.333C129.295 123.131 129.295 123.131 128.461 122.857C128.775 122.857 129.089 122.857 129.412 122.857C129.412 122.543 129.412 122.229 129.412 121.905C131.9 120.456 133.66 119.759 136.549 120Z" fill="#06B24C"/>
<path d="M284.041 30C284.826 30 285.612 30 286.42 30C286.734 30.6286 287.048 31.2571 287.372 31.9048C286.896 32.381 286.896 32.381 285.439 32.4107C284.978 32.4009 284.517 32.3911 284.041 32.381C283.884 31.9095 283.727 31.4381 283.566 30.9524C283.723 30.6381 283.88 30.3238 284.041 30Z" fill="#FBFDFD"/>
<path d="M176.039 33.3333C177.979 33.5849 179.016 34.1175 180.47 35.4167C180.802 35.7052 181.133 35.9937 181.475 36.2909C182.224 37.1429 182.224 37.1429 182.224 38.5714C181.977 38.3529 181.73 38.1344 181.475 37.9092C179.694 36.341 177.909 34.7955 176.039 33.3333Z" fill="#1EBB61"/>
<path d="M299.742 31.4286C301.17 32.381 301.17 32.381 301.497 33.869C301.546 34.3208 301.595 34.7726 301.645 35.2381C301.017 35.3952 300.389 35.5524 299.742 35.7143C299.34 34.1056 299.215 33.0121 299.742 31.4286Z" fill="#FBFDFD"/>
<path d="M238.842 31.4286C239.156 31.5857 239.47 31.7429 239.794 31.9048C239.988 33.0103 240.148 34.1223 240.27 35.2381C239.484 35.081 238.699 34.9238 237.891 34.7619C238.205 33.6619 238.519 32.5619 238.842 31.4286Z" fill="#FBFDFD"/>
</g>
<defs>
<clipPath id="clip0_1_53">
<rect width="609" height="160" fill="white"/>
</clipPath>
</defs>
</svg>
