<svg width="210" height="200" viewBox="0 0 210 200" fill="none" xmlns="http://www.w3.org/2000/svg">
<rect width="210" height="200" fill="white"/>
<g clip-path="url(#clip0_1_104)">
<path d="M36.0411 19.3609C36.804 19.3617 37.5668 19.3601 38.3296 19.3588C39.6641 19.3569 40.9986 19.3565 42.3331 19.3572C44.2246 19.3581 46.1161 19.3569 48.0076 19.3551C51.7489 19.3515 55.4902 19.3507 59.2315 19.351C59.7477 19.351 60.2639 19.351 60.7801 19.3511C60.9339 19.3511 60.9339 19.3511 61.0908 19.3511C63.3676 19.3512 65.6443 19.3505 67.921 19.3497C68.4415 19.3495 68.9621 19.3494 69.4826 19.3492C69.6915 19.3491 69.9004 19.349 70.1093 19.349C70.2129 19.3489 70.3165 19.3489 70.4232 19.3489C70.6327 19.3488 70.8421 19.3487 71.0516 19.3486C76.9925 19.3466 82.9334 19.3453 88.8743 19.346C88.9843 19.346 89.0942 19.346 89.2074 19.346C90.4329 19.3462 91.6584 19.3463 92.8839 19.3465C93.2193 19.3465 93.5547 19.3465 93.8901 19.3466C94.1139 19.3466 94.3377 19.3466 94.5615 19.3467C101.636 19.3475 108.711 19.3455 115.786 19.3409C117.569 19.3398 119.352 19.3387 121.134 19.3376C121.244 19.3375 121.354 19.3375 121.467 19.3374C124.853 19.3354 128.239 19.3342 131.626 19.3339C131.732 19.3339 131.838 19.3339 131.948 19.3339C134.284 19.3337 136.62 19.3337 138.956 19.3339C139.792 19.334 140.628 19.334 141.464 19.3341C141.672 19.3341 141.88 19.3341 142.088 19.3341C145.394 19.3343 148.7 19.3326 152.006 19.3298C155.338 19.327 158.67 19.3265 162.002 19.3291C164.066 19.3306 166.131 19.3304 168.196 19.327C169.516 19.325 170.835 19.3256 172.155 19.3281C172.905 19.3295 173.655 19.3299 174.406 19.3271C183.171 19.297 183.171 19.297 186.578 21.4012C186.666 21.4552 186.754 21.5091 186.845 21.5647C190.089 23.585 192.534 26.6276 193.444 30.3733C193.509 30.7905 193.548 31.2003 193.583 31.6216C193.629 31.7131 193.675 31.8047 193.722 31.899C193.735 32.1563 193.739 32.4141 193.739 32.6718C193.74 32.9203 193.74 32.9203 193.74 33.1739C193.74 33.3598 193.74 33.5457 193.739 33.7316C193.74 33.9284 193.74 34.1251 193.74 34.3219C193.741 34.867 193.74 35.4122 193.74 35.9573C193.739 36.549 193.74 37.1407 193.74 37.7324C193.741 38.7713 193.741 39.8103 193.74 40.8493C193.74 42.3951 193.74 43.941 193.741 45.4868C193.741 48.2521 193.741 51.0174 193.741 53.7826C193.74 56.2134 193.74 58.6442 193.74 61.075C193.741 61.2365 193.741 61.3979 193.741 61.5643C193.741 62.2199 193.741 62.8754 193.741 63.531C193.741 69.6968 193.741 75.8627 193.74 82.0285C193.739 87.4683 193.739 92.9081 193.74 98.3479C193.741 104.476 193.741 110.605 193.741 116.734C193.741 117.393 193.741 118.053 193.74 118.713C193.74 118.875 193.74 119.038 193.74 119.205C193.74 121.46 193.74 123.716 193.741 125.971C193.742 133.805 193.739 141.638 193.723 149.472C193.722 149.96 193.721 150.448 193.721 150.936C193.716 153.57 193.709 156.205 193.695 158.84C193.694 159.035 193.693 159.231 193.692 159.426C193.691 159.522 193.691 159.617 193.69 159.716C193.687 160.367 193.685 161.018 193.683 161.669C193.681 162.515 193.677 163.361 193.67 164.208C193.668 164.507 193.667 164.807 193.667 165.107C193.664 169.558 192.446 173.094 189.269 176.311C188.628 176.93 187.922 177.448 187.186 177.949C187.05 178.048 187.05 178.048 186.912 178.15C185.994 178.786 184.897 179.112 183.848 179.474C183.717 179.521 183.585 179.567 183.449 179.615C182.095 180.058 180.689 180.05 179.277 180.047C179.117 180.047 178.957 180.047 178.792 180.047C178.35 180.048 177.908 180.047 177.466 180.047C176.983 180.047 176.5 180.047 176.017 180.047C175.17 180.048 174.323 180.048 173.476 180.048C172.212 180.047 170.948 180.047 169.684 180.048C167.41 180.048 165.136 180.048 162.862 180.048C160.846 180.048 158.83 180.048 156.815 180.048C156.612 180.048 156.612 180.048 156.406 180.048C155.858 180.048 155.31 180.048 154.762 180.048C149.109 180.049 143.456 180.048 137.803 180.047C137.201 180.047 136.599 180.047 135.997 180.047C135.773 180.047 135.773 180.047 135.544 180.047C132.392 180.046 129.24 180.046 126.088 180.046C111.531 180.046 96.9734 180.043 39.8579 179.96C39.7003 179.959 39.5428 179.959 39.3804 179.959C31.6796 179.938 23.9789 179.916 16.2781 179.89C16.1026 179.54 16.1254 179.292 16.1304 178.902C16.1316 178.776 16.1329 178.65 16.1342 178.52C16.1366 178.374 16.1366 178.374 16.1391 178.226C16.0932 178.226 16.0473 178.226 16 178.226C15.9973 163.96 15.9968 149.694 16.0106 135.428C16.0107 135.285 16.0108 135.142 16.011 134.995C16.015 130.834 16.0194 126.673 16.024 122.513C16.0252 121.42 16.0264 120.326 16.0276 119.233C16.0278 119.076 16.0279 118.918 16.0281 118.756C16.0283 118.598 16.0284 118.44 16.0286 118.277C16.0347 112.691 16.0408 107.105 16.0472 101.518C16.0476 101.185 16.048 100.852 16.0483 100.519C16.0485 100.354 16.0487 100.189 16.0489 100.019C16.0499 99.1837 16.0508 98.3483 16.0518 97.513C16.052 97.3473 16.0522 97.1815 16.0524 97.0108C16.0586 91.5634 16.0643 86.116 16.0697 80.6686C16.0755 74.8439 16.0817 69.0191 16.0886 63.1943C16.0893 62.5575 16.0901 61.9206 16.0908 61.2838C16.091 61.1271 16.0912 60.9704 16.0914 60.809C16.0943 58.2963 16.0968 55.7837 16.099 53.2711C16.1013 50.7656 16.1041 48.2602 16.1075 45.7548C16.1094 44.2688 16.111 42.7829 16.112 41.2969C16.1127 40.3067 16.1139 39.3165 16.1156 38.3263C16.1165 37.7617 16.1172 37.1971 16.1173 36.6325C16.1173 36.12 16.1181 35.6074 16.1193 35.0948C16.1198 34.8223 16.1196 34.5498 16.1194 34.2773C16.1201 34.0363 16.1201 34.0363 16.1209 33.7904C16.1211 33.6518 16.1212 33.5131 16.1214 33.3702C16.1375 33.0413 16.1924 32.7698 16.2781 32.4538C16.2887 32.1418 16.2972 31.8297 16.3042 31.5176C16.4588 28.4326 18.5362 25.3618 20.7102 23.2877C25.083 19.3665 30.4963 19.3517 36.0411 19.3609Z" fill="#0008CA"/>
<path d="M43.7217 105.31C44.3183 105.317 44.9148 105.324 45.5115 105.329C53.264 105.398 60.4719 106.33 67.4805 109.795C67.8128 109.958 68.1464 110.118 68.4814 110.276C69.4445 110.736 70.2516 111.246 71.0688 111.928C71.2591 112.071 71.4503 112.212 71.6424 112.353C72.3597 112.89 73.026 113.427 73.6067 114.113C73.9984 114.574 74.4201 114.97 74.8756 115.37C75.6454 116.058 76.2844 116.795 76.9094 117.615C77.0177 117.752 77.1259 117.889 77.2375 118.031C80.4767 122.245 82.3231 128.192 82.3991 133.477C82.4032 133.715 82.4032 133.715 82.4073 133.957C82.4579 137.691 82.3196 141.195 81.2991 144.799C81.2229 145.068 81.1495 145.338 81.0762 145.608C80.119 149.058 78.4104 152.11 76.2141 154.925C76.1146 155.057 76.0151 155.19 75.9126 155.327C74.6086 157.027 72.9732 158.442 71.2964 159.764C71.045 159.964 70.7963 160.168 70.55 160.375C69.7404 161.054 68.9281 161.618 68.0094 162.137C67.897 162.207 67.7846 162.278 67.6688 162.35C65.7775 163.515 63.6803 164.386 61.6125 165.188C62.0624 165.704 62.5696 165.731 63.2204 165.821C63.4477 165.855 63.6749 165.89 63.9022 165.925C64.0113 165.941 64.1205 165.957 64.2329 165.974C64.6918 166.045 65.145 166.14 65.5986 166.238C66.7406 166.448 67.8953 166.496 69.0524 166.567C70.3415 166.647 71.6182 166.751 72.8983 166.926C75.1304 167.198 77.4055 167.185 79.6521 167.206C80.1731 167.211 80.6939 167.219 81.2149 167.232C81.7272 167.245 82.2393 167.252 82.7519 167.254C82.9443 167.256 83.1368 167.26 83.3291 167.266C84.6378 167.308 85.3634 167.098 86.3301 166.202C86.4336 166.096 86.5371 165.991 86.6438 165.882C86.7404 165.787 86.837 165.692 86.9365 165.594C89.534 162.96 88.8901 158.688 88.889 155.307C88.889 154.741 88.8897 154.176 88.8904 153.611C88.8915 152.507 88.8919 151.403 88.892 150.298C88.8921 149.4 88.8924 148.502 88.8928 147.604C88.894 145.052 88.8947 142.5 88.8946 139.948C88.8945 139.811 88.8945 139.673 88.8945 139.532C88.8945 139.395 88.8945 139.257 88.8945 139.116C88.8945 136.889 88.8958 134.662 88.8978 132.435C88.8998 130.142 88.9007 127.85 88.9006 125.557C88.9006 124.272 88.9009 122.987 88.9024 121.703C88.9037 120.609 88.904 119.516 88.9031 118.423C88.9026 117.866 88.9026 117.309 88.9038 116.752C89.0207 111.45 89.0207 111.45 86.6003 106.885C86.1414 106.441 85.6295 106.062 85.1141 105.687C85.16 105.595 85.2059 105.504 85.2532 105.409C87.2606 105.387 89.268 105.367 91.2754 105.348C92.2085 105.339 93.1416 105.33 94.0747 105.319C97.8195 105.278 101.564 105.248 105.309 105.303C105.625 105.308 105.94 105.312 106.256 105.315C111.696 105.378 118.579 105.958 122.8 109.848C122.952 109.983 122.952 109.983 123.107 110.121C125.002 111.898 126.367 114.367 126.833 116.921C126.864 117.079 126.896 117.236 126.928 117.398C127.168 120.122 126.839 123.388 125.145 125.638C124.839 125.983 124.519 126.306 124.191 126.63C123.987 126.863 123.784 127.097 123.582 127.332C122.036 129.04 120.092 130.153 118.072 131.207C118.38 131.515 118.524 131.554 118.938 131.66C119.117 131.707 119.117 131.707 119.3 131.755C119.428 131.789 119.556 131.823 119.688 131.857C122.323 132.581 124.752 133.714 126.833 135.507C126.943 135.598 127.052 135.689 127.165 135.783C127.743 136.269 127.743 136.269 127.945 136.478C127.945 136.569 127.945 136.661 127.945 136.755C128.07 136.811 128.07 136.811 128.197 136.868C128.501 137.032 128.698 137.185 128.919 137.449C128.919 137.54 128.919 137.632 128.919 137.726C129.056 137.772 129.194 137.818 129.336 137.865C129.336 137.956 129.336 138.048 129.336 138.142C129.474 138.188 129.611 138.234 129.753 138.281C129.928 138.493 129.928 138.493 130.099 138.767C130.163 138.869 130.226 138.97 130.291 139.075C130.391 139.24 130.391 139.24 130.492 139.408C130.56 139.521 130.628 139.634 130.699 139.751C131.288 140.751 131.771 141.746 132.117 142.858C132.16 142.992 132.16 142.992 132.205 143.128C132.685 144.689 132.728 146.266 132.734 147.886C132.735 147.985 132.736 148.085 132.737 148.187C132.76 152.333 131.251 156.358 128.363 159.363C128.288 159.442 128.214 159.521 128.137 159.602C126.423 161.412 124.569 162.877 122.383 164.079C122.295 164.128 122.207 164.176 122.117 164.227C119.149 165.856 115.617 166.8 112.231 166.853C112.231 166.944 112.231 167.036 112.231 167.13C112.478 167.113 112.478 167.113 112.73 167.095C114.774 166.96 114.774 166.96 115.746 167.093C116.609 167.177 117.484 167.137 118.35 167.13C118.471 167.129 118.593 167.128 118.718 167.127C119.533 167.12 120.349 167.108 121.165 167.094C121.449 167.089 121.733 167.085 122.016 167.082C123.585 167.064 125.111 167.007 126.656 166.72C127.521 166.56 128.34 166.551 129.217 166.57C129.741 166.575 130.251 166.545 130.773 166.504C131.602 166.445 132.421 166.434 133.251 166.457C133.358 166.46 133.465 166.462 133.575 166.465C134.011 166.474 134.447 166.484 134.884 166.502C136.359 166.605 136.359 166.605 137.651 166.006C137.894 165.744 137.894 165.744 138.097 165.466C138.192 165.349 138.192 165.349 138.29 165.231C138.463 165.006 138.616 164.779 138.766 164.538C138.846 164.411 138.846 164.411 138.927 164.281C140.576 161.523 140.246 157.54 140.239 154.435C140.239 153.899 140.241 153.363 140.242 152.826C140.244 151.78 140.244 150.734 140.244 149.688C140.243 148.836 140.243 147.985 140.244 147.133C140.244 147.011 140.244 146.889 140.244 146.763C140.245 146.515 140.245 146.267 140.245 146.019C140.247 143.702 140.246 141.385 140.245 139.069C140.243 136.958 140.245 134.847 140.248 132.736C140.252 130.559 140.253 128.381 140.252 126.203C140.252 124.985 140.252 123.767 140.254 122.548C140.256 121.511 140.257 120.474 140.254 119.437C140.253 118.909 140.253 118.382 140.255 117.855C140.381 112.196 140.381 112.196 138.097 107.212C137.531 106.652 136.953 106.128 136.289 105.687C136.289 105.595 136.289 105.504 136.289 105.409C136.887 105.242 137.469 105.251 138.086 105.253C138.275 105.252 138.275 105.252 138.468 105.252C138.889 105.251 139.311 105.252 139.732 105.252C140.031 105.252 140.329 105.252 140.628 105.252C141.431 105.251 142.235 105.252 143.038 105.253C143.537 105.253 144.035 105.254 144.534 105.254C148.685 105.258 152.835 105.266 156.986 105.311C157.301 105.314 157.616 105.316 157.931 105.319C161.06 105.342 164.146 105.476 167.161 106.38C167.284 106.416 167.406 106.452 167.533 106.489C170.239 107.292 172.714 108.388 174.948 110.125C175.304 110.366 175.661 110.605 176.021 110.841C176.418 111.159 176.722 111.53 177.034 111.928C177.124 112.039 177.124 112.039 177.215 112.152C179.94 115.57 180.843 119.619 180.481 123.941C180.321 125.334 179.978 126.598 179.398 127.878C179.355 127.979 179.312 128.079 179.267 128.182C178.597 129.727 177.864 131.042 176.756 132.317C176.592 132.507 176.592 132.507 176.424 132.701C176.123 133.041 175.816 133.373 175.505 133.704C175.43 133.787 175.356 133.87 175.279 133.956C172.066 137.4 166.625 139.177 162.033 139.419C161.485 139.432 160.938 139.437 160.39 139.434C160.294 139.434 160.198 139.433 160.099 139.433C155.668 139.419 155.668 139.419 153.95 138.558C153.858 138.421 153.766 138.284 153.672 138.142C153.767 138.127 153.861 138.112 153.959 138.096C154.251 138.048 154.543 138 154.834 137.95C155.166 137.894 155.497 137.842 155.83 137.793C158.349 137.385 160.808 136.556 162.989 135.229C163.129 135.149 163.269 135.069 163.413 134.986C165.42 133.76 166.96 131.97 168.134 129.959C168.258 129.75 168.258 129.75 168.385 129.536C169.396 127.684 169.628 125.742 169.603 123.674C169.603 123.568 169.602 123.463 169.601 123.354C169.583 120.965 169.256 118.924 167.856 116.921C167.755 116.769 167.755 116.769 167.653 116.613C165.955 114.179 163.024 113.032 160.208 112.483C159.404 112.366 158.623 112.32 157.812 112.316C157.691 112.315 157.571 112.314 157.447 112.313C157.061 112.311 156.674 112.31 156.288 112.309C156.092 112.309 156.092 112.309 155.891 112.309C154.406 112.309 152.929 112.312 151.456 112.526C151.343 112.543 151.229 112.559 151.113 112.576C150.585 112.668 150.24 112.74 149.917 113.176C149.854 113.527 149.854 113.527 149.865 113.93C149.864 114.087 149.863 114.245 149.861 114.407C149.863 114.668 149.863 114.668 149.864 114.934C149.864 115.12 149.863 115.306 149.862 115.492C149.861 116.004 149.861 116.516 149.863 117.028C149.864 117.58 149.862 118.132 149.861 118.684C149.859 119.767 149.86 120.849 149.861 121.932C149.862 122.813 149.862 123.694 149.861 124.575C149.861 124.7 149.861 124.826 149.861 124.955C149.861 125.21 149.861 125.464 149.861 125.719C149.86 128.111 149.861 130.502 149.863 132.894C149.865 134.941 149.865 136.989 149.863 139.036C149.861 141.415 149.86 143.794 149.861 146.173C149.861 146.428 149.861 146.682 149.861 146.937C149.861 147.125 149.861 147.125 149.862 147.316C149.862 148.194 149.861 149.072 149.86 149.949C149.859 151.022 149.86 152.095 149.862 153.169C149.863 153.715 149.863 154.261 149.862 154.808C149.85 157.573 149.85 157.573 150.096 160.325C150.111 160.436 150.126 160.547 150.142 160.661C150.405 162.278 151.112 163.643 152.281 164.772C152.281 164.864 152.281 164.955 152.281 165.05C152.373 165.05 152.465 165.05 152.559 165.05C152.568 164.925 152.568 164.925 152.577 164.798C152.698 164.495 152.698 164.495 153.046 164.278C154.124 163.837 155.13 163.587 156.288 163.455C157.247 163.335 158.168 163.191 159.101 162.934C159.613 162.805 160.13 162.718 160.651 162.631C161.486 162.49 162.312 162.328 163.137 162.137C163.231 162.116 163.325 162.094 163.422 162.072C163.901 161.959 164.354 161.822 164.812 161.642C165.279 161.462 165.714 161.371 166.214 161.313C166.821 161.229 167.372 161.111 167.952 160.915C168.712 160.663 169.462 160.521 170.251 160.388C171.743 160.135 173.009 159.798 174.352 159.099C175.071 158.727 175.685 158.551 176.496 158.462C177.239 158.332 177.902 157.985 178.585 157.673C178.938 157.518 179.297 157.383 179.658 157.247C180.346 156.985 180.981 156.723 181.58 156.286C182.039 155.953 182.415 155.819 182.971 155.705C183.768 155.536 184.399 155.2 185.087 154.783C185.669 154.434 186.24 154.169 186.882 153.952C187.204 153.822 187.204 153.822 187.501 153.562C187.979 153.183 188.49 152.914 189.029 152.627C190.043 152.078 191.016 151.485 191.974 150.844C192.902 150.228 192.902 150.228 193.444 150.07C193.536 150.116 193.627 150.162 193.722 150.209C193.717 152.458 193.708 154.706 193.696 156.955C193.691 158 193.686 159.044 193.684 160.089C193.682 161 193.679 161.912 193.673 162.824C193.669 163.305 193.667 163.787 193.667 164.268C193.667 169.087 192.745 172.791 189.269 176.311C188.628 176.93 187.922 177.448 187.186 177.949C187.05 178.048 187.05 178.048 186.912 178.15C185.994 178.786 184.897 179.112 183.848 179.474C183.717 179.521 183.585 179.567 183.449 179.615C182.095 180.058 180.689 180.05 179.277 180.047C179.117 180.047 178.957 180.047 178.792 180.047C178.35 180.048 177.908 180.047 177.466 180.047C176.983 180.047 176.5 180.047 176.017 180.047C175.17 180.048 174.323 180.048 173.476 180.048C172.212 180.047 170.948 180.047 169.684 180.048C167.41 180.048 165.136 180.048 162.862 180.048C160.846 180.048 158.83 180.048 156.815 180.048C156.612 180.048 156.612 180.048 156.406 180.048C155.858 180.048 155.31 180.048 154.762 180.048C149.109 180.049 143.456 180.048 137.803 180.047C137.201 180.047 136.599 180.047 135.997 180.047C135.773 180.047 135.773 180.047 135.544 180.047C132.392 180.046 129.24 180.046 126.088 180.046C111.531 180.046 96.9734 180.043 39.8579 179.96C39.6216 179.959 39.6216 179.959 39.3804 179.959C31.6796 179.938 23.9789 179.916 16.2781 179.89C16.1026 179.54 16.1254 179.292 16.1304 178.902C16.1316 178.776 16.1329 178.65 16.1342 178.52C16.1358 178.423 16.1374 178.326 16.1391 178.226C16.0932 178.226 16.0473 178.226 16 178.226C15.9903 174.469 15.9829 170.713 15.9784 166.956C15.9762 165.212 15.9733 163.468 15.9685 161.723C15.9644 160.204 15.9617 158.684 15.9608 157.164C15.9602 156.359 15.9589 155.554 15.9559 154.749C15.9531 153.992 15.9522 153.235 15.9528 152.478C15.9527 152.199 15.9519 151.921 15.9503 151.642C15.9482 151.263 15.9487 150.884 15.9498 150.505C15.9486 150.394 15.9474 150.282 15.9462 150.168C15.9487 149.861 15.9487 149.861 16 149.377C16.1377 149.285 16.2754 149.194 16.4172 149.099C17.1261 149.515 17.7724 149.977 18.4162 150.486C19.0479 150.984 19.6605 151.386 20.406 151.703C20.76 151.89 21.0367 152.131 21.3394 152.391C21.7041 152.678 22.1137 152.88 22.5273 153.087C23.2787 153.473 24.0061 153.885 24.7262 154.327C25.7695 154.96 26.7741 155.53 27.9842 155.765C28.1097 155.79 28.2352 155.814 28.3645 155.84C28.5081 155.867 28.5081 155.867 28.6547 155.896C28.6643 150.458 28.6716 145.021 28.676 139.583C28.6765 138.941 28.6771 138.298 28.6776 137.655C28.6777 137.527 28.6778 137.399 28.678 137.267C28.6798 135.199 28.6831 133.13 28.6869 131.062C28.6908 128.937 28.6931 126.813 28.694 124.688C28.6945 123.379 28.6963 122.069 28.6997 120.76C28.7019 119.86 28.7026 118.961 28.7021 118.061C28.7018 117.543 28.7022 117.025 28.7044 116.507C28.7128 114.481 28.7141 112.521 28.2375 110.541C28.2051 110.395 28.1727 110.25 28.1393 110.1C27.7064 108.225 26.8572 106.994 25.2477 105.973C25.0861 105.876 24.9241 105.781 24.761 105.687C24.8068 105.595 24.8527 105.504 24.9 105.409C26.2518 105.391 27.6036 105.373 28.9555 105.355C29.5836 105.347 30.2117 105.338 30.8398 105.33C35.1347 105.271 39.4266 105.261 43.7217 105.31Z" fill="#E40910"/>
<path d="M127.884 32.2534C129.086 32.2495 130.288 32.2424 131.491 32.2311C132.345 32.2234 133.2 32.2194 134.055 32.2181C134.562 32.2172 135.069 32.2147 135.576 32.2082C136.139 32.201 136.702 32.2015 137.264 32.2027C137.512 32.1977 137.512 32.1977 137.765 32.1927C138.898 32.204 139.526 32.4803 140.322 33.286C140.569 33.5551 140.791 33.83 141.017 34.1182C141.373 34.4911 141.733 34.8287 142.13 35.1584C142.526 35.4876 142.893 35.82 143.242 36.1986C143.242 36.2902 143.242 36.3817 143.242 36.476C143.334 36.476 143.426 36.476 143.52 36.476C143.604 36.6048 143.687 36.7335 143.772 36.8661C144.088 37.3248 144.297 37.4587 144.772 37.7243C145.163 38.0797 145.163 38.0797 145.467 38.4178C145.467 38.5094 145.467 38.6009 145.467 38.6952C145.559 38.6952 145.651 38.6952 145.745 38.6952C145.829 38.8239 145.912 38.9527 145.997 39.0853C146.313 39.544 146.522 39.6778 146.997 39.9435C147.388 40.2989 147.388 40.2989 147.692 40.637C147.692 40.7285 147.692 40.8201 147.692 40.9144C147.784 40.9144 147.876 40.9144 147.97 40.9144C148.031 40.9859 148.091 41.0574 148.153 41.1311C148.375 41.364 148.375 41.364 148.693 41.327C149.261 41.1301 149.585 40.7624 149.999 40.3374C150.128 40.2077 150.128 40.2077 150.26 40.0754C150.535 39.7987 150.809 39.52 151.082 39.2413C151.265 39.0575 151.447 38.8737 151.631 38.6901C152.388 37.9276 153.134 37.164 153.832 36.3468C154.405 35.7069 155.023 35.1078 155.633 34.5024C155.873 34.2631 156.113 34.0231 156.353 33.7831C156.506 33.6305 156.659 33.478 156.812 33.3255C156.884 33.2539 156.955 33.1822 157.029 33.1084C157.653 32.4903 157.941 32.4344 158.82 32.4105C158.92 32.4077 159.021 32.4048 159.125 32.4019C159.462 32.3927 159.798 32.3847 160.135 32.3768C160.252 32.3739 160.369 32.371 160.489 32.368C163.083 32.3043 165.677 32.2937 168.271 32.297C168.895 32.2978 169.519 32.2973 170.142 32.2965C173.601 32.2928 177.054 32.3504 180.511 32.4538C180.754 32.986 180.839 33.4429 180.881 34.0249C180.895 34.2022 180.908 34.3796 180.921 34.5624C180.934 34.7582 180.947 34.9541 180.96 35.1499C180.97 35.3018 180.97 35.3018 180.981 35.4568C181.17 38.2615 181.28 41.0692 181.354 43.8791C181.359 44.0731 181.359 44.0731 181.365 44.2711C181.681 55.9222 181.681 55.9222 178.262 59.696C176.56 61.4613 174.517 62.9322 172.377 64.1239C171.989 64.3287 171.989 64.3287 171.889 64.7706C172.089 65.0576 172.089 65.0576 172.367 65.334C172.863 65.8533 172.863 65.8533 172.863 66.1575C172.974 66.1947 173.086 66.2319 173.201 66.2702C173.319 66.3246 173.437 66.3789 173.558 66.4349C173.604 66.5723 173.65 66.7096 173.697 66.851C173.789 66.851 173.88 66.851 173.975 66.851C174.459 67.2733 174.755 67.6239 174.948 68.238C175.04 68.238 175.132 68.238 175.227 68.238C175.227 68.3296 175.227 68.4211 175.227 68.5154C175.377 68.5626 175.377 68.5626 175.531 68.6108C176.212 68.9281 176.605 69.462 177.034 70.0584C177.367 70.5127 177.659 70.7272 178.147 71.012C178.491 71.3652 178.804 71.7439 179.12 72.1216C179.291 72.3186 179.462 72.5151 179.633 72.7111C179.713 72.8022 179.793 72.8934 179.875 72.9874C180.052 73.1842 180.237 73.3737 180.424 73.5606C180.736 73.8713 180.787 74.0089 180.806 74.4527C180.806 74.6202 180.806 74.7877 180.806 74.9603C180.806 75.1 180.806 75.1 180.806 75.2425C180.806 75.556 180.806 75.8694 180.805 76.1829C180.805 76.4071 180.805 76.6312 180.805 76.8553C180.805 77.4651 180.804 78.0749 180.803 78.6847C180.802 79.3215 180.802 79.9582 180.802 80.595C180.802 81.8014 180.8 83.0079 180.799 84.2143C180.798 85.5875 180.797 86.9607 180.796 88.3339C180.795 91.1593 180.792 93.9846 180.789 96.8099C177.791 96.8229 174.793 96.8327 171.796 96.8387C170.404 96.8415 169.012 96.8455 167.62 96.8518C166.407 96.8573 165.194 96.8609 163.981 96.8621C163.338 96.8629 162.696 96.8646 162.053 96.8686C161.449 96.8724 160.844 96.8735 160.24 96.8727C160.018 96.8728 159.796 96.8739 159.574 96.8761C159.271 96.8788 158.968 96.8782 158.665 96.8767C158.495 96.8772 158.326 96.8777 158.151 96.8782C157.619 96.7969 157.384 96.6335 157.009 96.2551C157.009 96.1636 157.009 96.0721 157.009 95.9777C156.923 95.9434 156.837 95.9091 156.749 95.8737C156.453 95.7004 156.453 95.7004 156.323 95.423C156.198 95.1128 156.198 95.1128 155.852 95.0312C155.394 94.8306 155.226 94.601 154.932 94.2007C154.447 93.5678 153.981 93.0113 153.255 92.649C153.255 92.5574 153.255 92.4659 153.255 92.3716C153.163 92.3716 153.071 92.3716 152.977 92.3716C152.795 92.1874 152.795 92.1874 152.577 91.9208C152.129 91.3933 151.653 90.9057 151.16 90.4211C150.698 89.9668 150.247 89.5135 149.83 89.0168C149.543 88.6253 149.543 88.6253 149.222 88.488C149.222 88.3965 149.222 88.3049 149.222 88.2106C149.13 88.2106 149.038 88.2106 148.944 88.2106C148.852 88.1191 148.76 88.0275 148.666 87.9332C147.974 88.33 147.523 88.8189 147.005 89.4204C146.748 89.7035 146.49 89.9438 146.197 90.1871C145.514 90.7616 144.93 91.4232 144.331 92.0823C143.98 92.4681 143.614 92.8374 143.242 93.2038C143.122 93.325 143.002 93.4462 142.879 93.5711C142.224 94.2309 141.567 94.877 140.853 95.4739C140.587 95.7116 140.365 95.9695 140.131 96.2378C139.175 97.1841 137.343 96.8298 136.078 96.8279C135.863 96.8281 135.649 96.8283 135.434 96.8286C134.854 96.8293 134.275 96.829 133.695 96.8286C133.088 96.8282 132.481 96.8285 131.873 96.8288C130.855 96.829 129.837 96.8287 128.818 96.828C127.64 96.8273 126.462 96.8275 125.284 96.8283C124.271 96.8289 123.259 96.829 122.247 96.8286C121.642 96.8284 121.038 96.8284 120.433 96.8288C119.866 96.8292 119.299 96.829 118.732 96.8282C118.524 96.828 118.315 96.828 118.107 96.8283C117.823 96.8287 117.54 96.8282 117.256 96.8276C117.097 96.8275 116.938 96.8274 116.774 96.8274C116.403 96.8099 116.403 96.8099 116.125 96.6712C116.112 93.7741 116.102 90.8769 116.096 87.9798C116.093 86.6345 116.089 85.2894 116.083 83.9441C116.078 82.7717 116.074 81.5992 116.073 80.4267C116.072 79.8059 116.07 79.1851 116.066 78.5643C116.062 77.9798 116.061 77.3954 116.062 76.8109C116.062 76.5965 116.061 76.3821 116.059 76.1678C116.056 75.8747 116.057 75.5817 116.058 75.2886C116.058 75.1247 116.057 74.9608 116.057 74.7919C116.164 74.0835 116.567 73.5844 117.071 73.092C117.143 73.0206 117.216 72.9493 117.29 72.8758C117.368 72.8008 117.445 72.7257 117.525 72.6484C117.608 72.5669 117.691 72.4854 117.777 72.4014C117.956 72.2256 118.136 72.0501 118.315 71.8749C118.6 71.5976 118.883 71.3192 119.165 71.0404C119.969 70.2483 120.773 69.4574 121.581 68.6693C122.076 68.1863 122.568 67.7013 123.06 67.215C123.247 67.0301 123.436 66.846 123.625 66.6627C123.888 66.4071 124.149 66.149 124.41 65.8901C124.489 65.8148 124.568 65.7395 124.649 65.6619C124.891 65.428 124.891 65.428 125.164 65.048C125.157 64.5602 125.069 64.4061 124.752 64.0332C124.642 63.9304 124.531 63.8276 124.417 63.7216C124.023 63.3525 123.654 63.004 123.356 62.5514C123.356 62.4598 123.356 62.3683 123.356 62.274C123.276 62.2377 123.196 62.2014 123.113 62.164C122.334 61.747 121.629 61.0558 121.131 60.3322C121.131 60.2407 121.131 60.1491 121.131 60.0548C121.051 60.0185 120.971 59.9822 120.888 59.9448C120.109 59.5278 119.404 58.8366 118.906 58.113C118.906 58.0215 118.906 57.9299 118.906 57.8356C118.803 57.8009 118.7 57.7663 118.594 57.7305C118.18 57.5442 117.951 57.346 117.637 57.0208C117.499 56.8797 117.499 56.8797 117.358 56.7358C116.681 55.9873 116.681 55.9873 116.681 55.6164C116.498 55.5249 116.314 55.4334 116.125 55.339C116.115 52.3961 116.108 49.4532 116.103 46.5103C116.101 45.1439 116.098 43.7776 116.094 42.4112C116.089 41.2207 116.087 40.0301 116.086 38.8395C116.085 38.2088 116.084 37.5781 116.081 36.9474C116.078 36.3543 116.077 35.7612 116.078 35.1681C116.078 34.9499 116.077 34.7317 116.075 34.5135C116.073 34.2166 116.074 33.9198 116.075 33.6228C116.074 33.4563 116.074 33.2899 116.074 33.1184C116.091 32.9906 116.108 32.8628 116.125 32.7312C116.576 32.431 116.724 32.4148 117.249 32.398C117.466 32.3903 117.466 32.3903 117.688 32.3825C117.847 32.3784 118.005 32.3743 118.169 32.3701C118.336 32.3649 118.502 32.3598 118.674 32.3544C121.743 32.2662 124.814 32.263 127.884 32.2534Z" fill="#F4F5F7"/>
<path d="M43.7216 105.31C44.3182 105.317 44.9148 105.324 45.5114 105.329C53.264 105.398 60.4719 106.33 67.4805 109.795C67.8128 109.958 68.1463 110.118 68.4814 110.276C69.4445 110.736 70.2516 111.246 71.0687 111.928C71.2591 112.071 71.4503 112.212 71.6424 112.353C72.3596 112.89 73.026 113.427 73.6066 114.113C73.9984 114.574 74.4201 114.97 74.8756 115.37C75.6454 116.058 76.2844 116.795 76.9094 117.615C77.0176 117.752 77.1259 117.889 77.2375 118.031C80.4767 122.245 82.3231 128.192 82.3991 133.477C82.4031 133.715 82.4031 133.715 82.4073 133.957C82.4579 137.691 82.3195 141.195 81.2991 144.799C81.2229 145.068 81.1495 145.338 81.0761 145.608C80.1189 149.058 78.4104 152.11 76.2141 154.925C76.1146 155.057 76.0151 155.19 75.9126 155.327C74.6086 157.027 72.9732 158.442 71.2963 159.764C71.045 159.964 70.7963 160.168 70.55 160.375C69.7404 161.054 68.9281 161.618 68.0094 162.137C67.897 162.207 67.7846 162.278 67.6688 162.35C63.7135 164.786 59.1974 166.046 54.6594 166.853C54.504 166.882 54.504 166.882 54.3456 166.911C51.5236 167.422 48.657 167.323 45.8013 167.311C45.0693 167.308 44.3373 167.308 43.6054 167.308C42.2245 167.306 40.8436 167.303 39.4627 167.299C37.8884 167.294 36.3142 167.292 34.7399 167.29C31.5062 167.285 28.2726 167.278 25.0391 167.269C25.1416 166.62 25.2906 166.427 25.8126 166.021C26.6511 165.301 27.1636 164.491 27.6812 163.524C27.7415 163.418 27.8017 163.312 27.8638 163.203C28.8612 161.158 28.5795 158.254 28.6547 156.034C28.5629 155.988 28.4711 155.943 28.3766 155.896C28.4683 155.896 28.5601 155.896 28.6547 155.896C28.6642 150.458 28.6716 145.021 28.676 139.583C28.6765 138.941 28.677 138.298 28.6776 137.655C28.6778 137.463 28.6778 137.463 28.6779 137.267C28.6797 135.199 28.683 133.13 28.6869 131.062C28.6908 128.937 28.6931 126.813 28.6939 124.688C28.6945 123.379 28.6963 122.069 28.6997 120.76C28.7019 119.86 28.7026 118.961 28.702 118.061C28.7018 117.543 28.7022 117.025 28.7044 116.507C28.7128 114.481 28.7141 112.521 28.2375 110.541C28.2051 110.395 28.1727 110.25 28.1392 110.1C27.7064 108.225 26.8572 106.994 25.2476 105.973C25.086 105.876 24.924 105.781 24.7609 105.687C24.8068 105.595 24.8527 105.504 24.9 105.409C26.2518 105.391 27.6036 105.373 28.9554 105.355C29.5836 105.347 30.2117 105.338 30.8398 105.33C35.1347 105.271 39.4266 105.261 43.7216 105.31Z" fill="#F4F5F7"/>
<path d="M104.944 105.307C105.27 105.312 105.595 105.315 105.92 105.319C111.464 105.373 118.484 105.87 122.8 109.848C122.952 109.983 122.952 109.983 123.107 110.121C125.002 111.898 126.367 114.367 126.833 116.921C126.88 117.157 126.88 117.157 126.928 117.398C127.168 120.122 126.839 123.388 125.145 125.638C124.839 125.983 124.519 126.306 124.191 126.63C123.987 126.863 123.784 127.097 123.582 127.332C122.036 129.04 120.092 130.153 118.072 131.207C118.38 131.515 118.524 131.554 118.938 131.66C119.117 131.707 119.117 131.707 119.3 131.755C119.428 131.789 119.556 131.823 119.688 131.857C122.323 132.581 124.752 133.714 126.833 135.507C126.943 135.598 127.052 135.689 127.165 135.783C127.743 136.269 127.743 136.269 127.945 136.478C127.945 136.569 127.945 136.661 127.945 136.755C128.029 136.792 128.112 136.83 128.197 136.868C128.501 137.032 128.698 137.185 128.919 137.449C128.919 137.54 128.919 137.632 128.919 137.726C129.056 137.772 129.194 137.818 129.336 137.865C129.336 137.956 129.336 138.048 129.336 138.142C129.474 138.188 129.611 138.234 129.753 138.281C129.928 138.493 129.928 138.493 130.099 138.767C130.163 138.869 130.226 138.97 130.291 139.075C130.358 139.185 130.424 139.295 130.492 139.408C130.56 139.521 130.628 139.634 130.699 139.751C131.288 140.751 131.771 141.746 132.117 142.858C132.146 142.947 132.175 143.036 132.205 143.128C132.685 144.689 132.728 146.266 132.734 147.886C132.736 148.035 132.736 148.035 132.737 148.187C132.76 152.333 131.251 156.358 128.363 159.363C128.288 159.442 128.214 159.521 128.137 159.602C126.423 161.412 124.569 162.877 122.383 164.079C122.295 164.128 122.207 164.176 122.117 164.227C117.404 166.814 111.753 167.297 106.468 167.285C106.236 167.285 106.004 167.285 105.772 167.285C105.151 167.285 104.53 167.284 103.908 167.283C103.256 167.282 102.604 167.282 101.951 167.282C100.72 167.281 99.488 167.28 98.2563 167.279C96.8525 167.277 95.4488 167.276 94.045 167.276C91.1607 167.274 88.2765 167.272 85.3922 167.269C85.4977 166.766 85.6009 166.617 86.0354 166.333C87.5181 165.271 88.3612 163.773 88.7297 161.998C88.9834 159.788 88.8897 157.529 88.889 155.307C88.889 154.741 88.8897 154.176 88.8904 153.611C88.8915 152.507 88.8919 151.403 88.892 150.298C88.8921 149.4 88.8923 148.502 88.8928 147.604C88.894 145.052 88.8947 142.5 88.8945 139.948C88.8945 139.742 88.8945 139.742 88.8945 139.532C88.8945 139.395 88.8945 139.257 88.8945 139.116C88.8945 136.889 88.8958 134.662 88.8977 132.435C88.8997 130.142 88.9007 127.85 88.9006 125.557C88.9005 124.272 88.9009 122.987 88.9024 121.703C88.9037 120.609 88.904 119.516 88.903 118.423C88.9026 117.866 88.9026 117.309 88.9038 116.752C89.0207 111.45 89.0207 111.45 86.6003 106.885C86.1413 106.441 85.6295 106.062 85.1141 105.687C85.16 105.595 85.2059 105.504 85.2531 105.409C86.9615 105.391 88.6698 105.373 90.3781 105.355C91.1716 105.347 91.9652 105.338 92.7587 105.33C93.527 105.322 94.2952 105.313 95.0634 105.306C95.3541 105.302 95.6447 105.299 95.9353 105.296C98.9388 105.264 101.941 105.261 104.944 105.307Z" fill="#F4F5F7"/>
<path d="M53.4078 112.622C53.6171 112.659 53.8264 112.697 54.0357 112.734C56.3211 113.165 58.4373 114.078 60.5347 115.057C60.7308 115.148 60.7308 115.148 60.9308 115.24C61.6958 115.607 62.347 116.024 63.004 116.56C63.297 116.803 63.297 116.803 63.7082 117.055C64.2695 117.444 64.7315 117.91 65.2107 118.395C65.3097 118.495 65.4087 118.595 65.5107 118.698C67.5692 120.795 69.1886 123.211 70.0812 126.019C70.1947 126.369 70.3137 126.714 70.4397 127.059C70.9815 128.567 71.2897 130.037 71.4859 131.623C71.5211 131.881 71.5211 131.881 71.5569 132.144C71.7468 133.578 71.8146 134.989 71.8075 136.434C71.8072 136.543 71.807 136.651 71.8067 136.763C71.7997 138.546 71.6911 140.272 71.3468 142.026C71.3237 142.15 71.3006 142.275 71.2768 142.403C70.1864 148.167 66.9978 152.773 62.1886 156.114C61.2921 156.709 60.3473 157.213 59.3875 157.699C59.301 157.743 59.2144 157.788 59.1253 157.834C57.3692 158.73 55.4472 159.174 53.5489 159.668C53.2227 159.755 52.899 159.845 52.5756 159.941C52.1495 160.058 51.7329 160.138 51.2958 160.204C51.1561 160.226 51.0165 160.247 50.8726 160.269C49.5405 160.433 48.2194 160.495 46.8778 160.496C46.7127 160.496 46.5476 160.497 46.3775 160.497C46.0315 160.498 45.6855 160.498 45.3395 160.498C44.811 160.499 44.2826 160.501 43.7541 160.504C43.4163 160.504 43.0785 160.504 42.7407 160.505C42.5052 160.506 42.5052 160.506 42.2648 160.508C41.4698 160.505 40.8094 160.455 40.0578 160.195C39.697 160.155 39.3403 160.135 38.9779 160.118C38.5913 160.042 38.4873 159.952 38.25 159.64C38.1977 159.293 38.1977 159.293 38.1975 158.869C38.1964 158.708 38.1953 158.546 38.1942 158.38C38.1951 158.202 38.196 158.023 38.197 157.84C38.1965 157.649 38.1959 157.459 38.195 157.268C38.1933 156.743 38.1941 156.218 38.1954 155.693C38.1964 155.128 38.1949 154.562 38.1938 153.997C38.1919 152.888 38.1923 151.78 38.1935 150.671C38.1945 149.771 38.1946 148.87 38.1941 147.97C38.1941 147.842 38.194 147.714 38.194 147.582C38.1938 147.322 38.1937 147.062 38.1935 146.802C38.1924 144.362 38.1937 141.921 38.196 139.481C38.1978 137.386 38.1975 135.291 38.1956 133.195C38.1934 130.764 38.1925 128.333 38.1938 125.902C38.1939 125.643 38.194 125.384 38.1941 125.124C38.1942 124.997 38.1943 124.87 38.1943 124.738C38.1947 123.838 38.1941 122.938 38.1931 122.039C38.1919 120.943 38.1923 119.846 38.1945 118.75C38.1956 118.191 38.196 117.631 38.1946 117.071C38.1934 116.56 38.1941 116.048 38.1963 115.536C38.197 115.262 38.1956 114.988 38.1942 114.714C38.1953 114.553 38.1964 114.391 38.1975 114.225C38.1975 114.085 38.1976 113.945 38.1977 113.801C38.25 113.454 38.25 113.454 38.442 113.203C38.7433 112.982 38.9915 112.943 39.3608 112.885C39.5004 112.863 39.64 112.841 39.7838 112.818C39.9345 112.796 40.0851 112.774 40.2403 112.752C40.3977 112.728 40.555 112.705 40.7171 112.68C41.1923 112.612 41.6678 112.546 42.1437 112.483C42.2684 112.466 42.3932 112.449 42.5217 112.431C46.0555 111.969 49.9094 111.913 53.4078 112.622Z" fill="#0008CB"/>
<path d="M131.728 45.9778C131.878 45.9792 131.878 45.9792 132.03 45.9806C132.365 45.9844 132.699 45.9931 133.033 46.0016C133.274 46.0051 133.516 46.0082 133.758 46.011C134.28 46.0173 134.803 46.0252 135.326 46.0342C136.588 46.0544 137.85 46.0527 139.112 46.0539C139.875 46.055 140.638 46.0577 141.401 46.0603C141.557 46.0608 141.714 46.0613 141.875 46.0618C144.081 46.0692 146.287 46.0775 148.493 46.0861C150.286 46.0931 152.078 46.0996 153.87 46.1047C155.449 46.1093 157.027 46.1148 158.606 46.1215C159.438 46.125 160.269 46.128 161.101 46.1299C161.878 46.1317 162.655 46.1347 163.432 46.1388C163.717 46.1401 164.003 46.1408 164.288 46.1411C164.676 46.1416 165.064 46.1437 165.452 46.1463C165.566 46.146 165.68 46.1458 165.797 46.1455C166.573 46.1533 166.573 46.1533 166.883 46.4623C166.917 46.7316 166.917 46.7316 166.917 47.0683C166.918 47.1964 166.918 47.3245 166.919 47.4565C166.918 47.5982 166.917 47.7398 166.916 47.8858C166.917 48.1104 166.917 48.1104 166.917 48.3396C166.917 48.8448 166.916 49.3499 166.914 49.8551C166.914 50.2159 166.914 50.5767 166.915 50.9375C166.915 51.7159 166.914 52.4944 166.912 53.2729C166.91 54.3984 166.909 55.524 166.909 56.6495C166.908 58.4755 166.906 60.3015 166.904 62.1275C166.901 63.9016 166.899 65.6757 166.898 67.4498C166.898 67.5591 166.898 67.6684 166.898 67.781C166.898 68.3293 166.897 68.8776 166.897 69.4259C166.894 73.9769 166.889 78.5278 166.883 83.0788C162.248 83.0883 157.614 83.0956 152.98 83.1C152.433 83.1005 151.886 83.1011 151.339 83.1016C151.23 83.1017 151.122 83.1018 151.009 83.1019C149.245 83.1038 147.481 83.107 145.717 83.1109C143.908 83.1147 142.099 83.1171 140.29 83.1179C139.173 83.1185 138.056 83.1203 136.939 83.1237C136.083 83.1261 135.228 83.1264 134.372 83.1258C134.021 83.1259 133.669 83.1268 133.317 83.1284C132.839 83.1304 132.36 83.1299 131.882 83.1288C131.741 83.13 131.601 83.1312 131.456 83.1325C131.328 83.1316 131.2 83.1308 131.069 83.13C130.903 83.1302 130.903 83.1302 130.734 83.1304C130.367 83.064 130.246 82.9644 130.031 82.6627C129.979 82.3814 129.979 82.3814 129.978 82.0524C129.977 81.9268 129.975 81.8013 129.974 81.672C129.975 81.5339 129.976 81.3958 129.976 81.2535C129.976 81.107 129.975 80.9604 129.974 80.8094C129.972 80.3159 129.972 79.8224 129.973 79.3288C129.972 78.976 129.971 78.6231 129.969 78.2703C129.967 77.4098 129.966 76.5494 129.966 75.689C129.966 74.9897 129.966 74.2904 129.965 73.5911C129.964 73.3898 129.964 73.1885 129.964 72.9873C129.964 72.8871 129.963 72.7869 129.963 72.6837C129.961 70.7882 129.961 68.8927 129.962 66.9971C129.963 65.2626 129.96 63.528 129.955 61.7935C129.95 60.0132 129.948 58.2328 129.949 56.4525C129.949 55.4527 129.948 54.4529 129.945 53.4531C129.942 52.513 129.942 51.5729 129.945 50.6328C129.945 50.2873 129.945 49.9418 129.943 49.5963C129.94 49.1255 129.942 48.6549 129.945 48.1841C129.943 48.0466 129.941 47.9091 129.94 47.7675C129.948 47.1501 129.971 46.8298 130.322 46.307C130.831 45.9789 131.124 45.9659 131.728 45.9778Z" fill="#0008CB"/>
<path d="M137.801 105.253C137.93 105.252 138.059 105.252 138.192 105.252C138.624 105.251 139.056 105.252 139.488 105.252C139.793 105.252 140.098 105.252 140.403 105.252C141.226 105.251 142.048 105.252 142.87 105.253C143.38 105.253 143.89 105.254 144.4 105.254C148.601 105.258 152.803 105.265 157.004 105.311C157.318 105.314 157.633 105.316 157.947 105.319C161.07 105.342 164.151 105.477 167.161 106.38C167.284 106.416 167.406 106.452 167.533 106.489C170.239 107.292 172.714 108.388 174.948 110.125C175.304 110.366 175.661 110.605 176.021 110.841C176.418 111.159 176.722 111.53 177.034 111.928C177.124 112.039 177.124 112.039 177.215 112.152C179.94 115.57 180.843 119.619 180.481 123.941C180.321 125.334 179.978 126.598 179.398 127.878C179.355 127.979 179.312 128.079 179.267 128.182C178.597 129.727 177.864 131.042 176.756 132.317C176.647 132.444 176.537 132.57 176.424 132.701C176.123 133.041 175.816 133.373 175.505 133.704C175.43 133.787 175.356 133.87 175.279 133.956C172.066 137.4 166.625 139.177 162.033 139.419C161.485 139.432 160.938 139.437 160.39 139.434C160.294 139.434 160.198 139.433 160.099 139.433C155.667 139.419 155.667 139.419 153.95 138.558C153.858 138.421 153.766 138.284 153.672 138.142C153.767 138.127 153.861 138.112 153.959 138.096C154.251 138.048 154.543 138 154.834 137.95C155.166 137.894 155.497 137.842 155.83 137.793C158.349 137.385 160.808 136.556 162.989 135.229C163.199 135.109 163.199 135.109 163.413 134.986C165.42 133.76 166.96 131.97 168.134 129.959C168.217 129.819 168.3 129.68 168.385 129.536C169.396 127.684 169.628 125.742 169.603 123.674C169.602 123.516 169.602 123.516 169.601 123.354C169.583 120.965 169.256 118.924 167.856 116.921C167.755 116.769 167.755 116.769 167.653 116.613C165.955 114.179 163.024 113.032 160.208 112.483C159.404 112.366 158.623 112.32 157.812 112.316C157.691 112.315 157.571 112.314 157.447 112.313C157.061 112.311 156.674 112.31 156.288 112.31C156.092 112.309 156.092 112.309 155.891 112.309C154.406 112.309 152.929 112.312 151.456 112.526C151.343 112.543 151.229 112.559 151.113 112.576C150.585 112.668 150.24 112.74 149.917 113.176C149.854 113.527 149.854 113.527 149.865 113.93C149.863 114.166 149.863 114.166 149.861 114.407C149.862 114.581 149.863 114.755 149.864 114.934C149.864 115.12 149.863 115.306 149.862 115.492C149.86 116.004 149.861 116.516 149.863 117.028C149.864 117.58 149.862 118.132 149.861 118.684C149.859 119.767 149.86 120.849 149.861 121.932C149.862 122.813 149.862 123.694 149.861 124.575C149.861 124.763 149.861 124.763 149.861 124.955C149.861 125.21 149.861 125.464 149.861 125.719C149.86 128.111 149.861 130.502 149.863 132.894C149.865 134.941 149.865 136.989 149.863 139.036C149.861 141.415 149.86 143.794 149.861 146.173C149.861 146.428 149.861 146.682 149.861 146.937C149.861 147.062 149.861 147.187 149.862 147.316C149.862 148.194 149.861 149.072 149.86 149.949C149.859 151.022 149.859 152.095 149.862 153.169C149.863 153.715 149.863 154.261 149.862 154.808C149.85 157.574 149.85 157.574 150.098 160.327C150.113 160.439 150.129 160.55 150.144 160.664C150.444 162.503 151.356 164.051 152.698 165.327C152.794 165.425 152.889 165.523 152.987 165.624C153.263 165.907 153.263 165.907 153.681 166.151C154.101 166.445 154.279 166.677 154.506 167.13C154.154 167.306 153.913 167.286 153.519 167.286C153.294 167.286 153.294 167.286 153.064 167.286C152.816 167.285 152.816 167.285 152.563 167.285C152.302 167.285 152.302 167.285 152.036 167.285C151.559 167.285 151.083 167.284 150.606 167.283C150.107 167.282 149.609 167.282 149.111 167.282C148.168 167.281 147.224 167.28 146.28 167.279C145.206 167.277 144.132 167.277 143.058 167.276C140.848 167.274 138.638 167.272 136.428 167.269C136.734 166.737 137.018 166.405 137.497 166.021C139.721 164.065 139.954 161.309 140.183 158.531C140.25 157.167 140.242 155.801 140.239 154.435C140.239 153.899 140.24 153.363 140.242 152.826C140.244 151.78 140.244 150.734 140.244 149.688C140.243 148.836 140.243 147.985 140.244 147.133C140.244 146.95 140.244 146.95 140.244 146.763C140.245 146.515 140.245 146.267 140.245 146.019C140.247 143.702 140.246 141.385 140.245 139.069C140.243 136.958 140.245 134.847 140.248 132.736C140.252 130.559 140.253 128.381 140.252 126.203C140.252 124.985 140.252 123.767 140.254 122.548C140.256 121.511 140.256 120.474 140.254 119.437C140.253 118.909 140.253 118.382 140.255 117.855C140.381 112.196 140.381 112.196 138.097 107.212C137.531 106.652 136.953 106.128 136.289 105.687C136.289 105.595 136.289 105.504 136.289 105.409C136.757 105.176 137.287 105.251 137.801 105.253Z" fill="#F4F5F7"/>
<path d="M118.989 140.426C119.919 141.403 120.719 142.348 121.331 143.551C121.375 143.637 121.419 143.722 121.465 143.81C122.237 145.408 122.322 147.024 122.321 148.766C122.322 149.141 122.33 149.515 122.337 149.889C122.353 151.484 122.124 152.659 121.409 154.092C121.319 154.296 121.229 154.499 121.138 154.702C119.815 157.298 117.437 158.631 114.744 159.554C112.17 160.387 109.56 160.537 106.87 160.512C106.406 160.507 105.941 160.506 105.476 160.505C99.6636 160.484 99.6636 160.484 98.6031 159.779C98.5502 159.389 98.5502 159.389 98.5492 158.88C98.5484 158.786 98.5477 158.693 98.5469 158.597C98.5449 158.282 98.5459 157.968 98.5469 157.653C98.5461 157.429 98.5452 157.204 98.544 156.979C98.5415 156.367 98.5417 155.755 98.5425 155.143C98.5429 154.633 98.5421 154.123 98.5412 153.613C98.5393 152.41 98.5395 151.207 98.5411 150.003C98.5427 148.761 98.5407 147.518 98.537 146.276C98.5339 145.21 98.533 144.144 98.5338 143.079C98.5343 142.442 98.5339 141.805 98.5315 141.168C98.5294 140.569 98.5299 139.97 98.5326 139.371C98.5331 139.151 98.5326 138.931 98.5312 138.71C98.5294 138.41 98.5309 138.111 98.5334 137.811C98.5334 137.643 98.5335 137.475 98.5335 137.302C98.6031 136.894 98.6031 136.894 98.8662 136.633C99.7953 136.141 101.12 136.326 102.152 136.344C102.62 136.35 103.02 136.322 103.47 136.2C108.864 135.639 114.923 136.572 118.989 140.426Z" fill="#0008CB"/>
<path d="M102.996 111.202C103.102 111.2 103.208 111.199 103.318 111.197C107.069 111.159 111.058 111.296 113.978 114.009C115.854 115.972 116.777 118.287 116.725 121C116.507 123.5 115.667 125.489 113.742 127.166C110.574 129.561 106.129 130.44 102.238 130.404C101.955 130.401 101.673 130.401 101.39 130.401C98.896 130.39 98.896 130.39 98.6031 130.098C98.5883 129.869 98.5831 129.64 98.5817 129.412C98.5805 129.263 98.5793 129.114 98.5781 128.961C98.5775 128.797 98.5769 128.633 98.5763 128.463C98.5752 128.291 98.574 128.119 98.5729 127.942C98.5694 127.369 98.5671 126.797 98.5651 126.225C98.5644 126.028 98.5636 125.831 98.5629 125.634C98.5599 124.816 98.5572 123.997 98.5557 123.178C98.5534 122.004 98.5488 120.83 98.5409 119.655C98.5355 118.83 98.5328 118.005 98.5321 117.18C98.5315 116.687 98.5299 116.194 98.5254 115.701C98.5204 115.151 98.521 114.601 98.522 114.05C98.5197 113.887 98.5174 113.724 98.5151 113.556C98.5245 112.326 98.5245 112.326 98.9394 111.898C99.6524 111.407 100.412 111.465 101.259 111.412C101.854 111.355 102.377 111.208 102.996 111.202Z" fill="#0008CB"/>
<path d="M125.442 71.5668C125.442 76.8304 125.442 82.094 125.442 87.5171C130.765 87.5629 136.089 87.6087 141.573 87.6558C141.712 88.2106 141.712 88.2106 141.48 88.6513C140.302 90.373 138.765 92.1658 136.636 92.5969C134.408 92.9163 132.127 92.7889 129.885 92.6791C128.918 92.6327 127.951 92.6121 126.983 92.5928C125.48 92.5622 123.978 92.5184 122.477 92.4534C122.329 92.4473 122.182 92.4413 122.031 92.4351C121.897 92.4289 121.763 92.4227 121.626 92.4163C121.509 92.411 121.393 92.4057 121.273 92.4003C120.992 92.3716 120.992 92.3716 120.714 92.2329C120.701 90.1495 120.691 88.0662 120.685 85.9828C120.682 85.0154 120.678 84.048 120.672 83.0806C120.666 82.1471 120.663 81.2137 120.661 80.2802C120.66 79.9239 120.658 79.5677 120.655 79.2115C120.651 78.7127 120.651 78.214 120.651 77.7152C120.649 77.5678 120.647 77.4203 120.645 77.2684C120.649 76.4482 120.711 75.9572 121.27 75.3117C121.338 75.2317 121.407 75.1518 121.477 75.0694C121.541 75.0047 121.605 74.94 121.671 74.8734C121.782 74.761 121.782 74.761 121.895 74.6464C121.973 74.5688 122.051 74.4912 122.131 74.4112C122.213 74.3292 122.294 74.2473 122.378 74.1629C122.55 73.9912 122.721 73.8199 122.894 73.6489C123.157 73.3863 123.419 73.1219 123.681 72.8573C123.848 72.6904 124.015 72.5235 124.182 72.3567C124.261 72.2774 124.339 72.1981 124.42 72.1164C124.977 71.5668 124.977 71.5668 125.442 71.5668Z" fill="#0008CB"/>
<path d="M171.75 71.4281C172.187 71.6056 172.465 71.8481 172.788 72.1866C173.044 72.441 173.317 72.6687 173.593 72.9018C174.205 73.4384 174.706 74.032 175.207 74.6718C175.49 75.0455 175.49 75.0455 175.866 75.3032C176.372 75.9469 176.292 76.5383 176.279 77.3343C176.279 77.578 176.279 77.578 176.279 77.8266C176.279 78.3632 176.273 78.8997 176.268 79.4363C176.267 79.8085 176.266 80.1806 176.265 80.5528C176.263 81.4321 176.257 82.3113 176.25 83.1906C176.242 84.1918 176.238 85.193 176.235 86.1943C176.228 88.2534 176.215 90.3125 176.2 92.3716C174.059 92.391 171.918 92.4057 169.777 92.4147C168.783 92.419 167.789 92.4248 166.795 92.4344C165.929 92.4427 165.062 92.448 164.195 92.4499C163.736 92.451 163.278 92.4539 162.819 92.4596C162.306 92.4656 161.794 92.4664 161.281 92.4661C161.13 92.469 160.979 92.472 160.823 92.4751C159.97 92.4682 159.481 92.372 158.869 91.7604C158.569 91.4132 158.276 91.0608 157.983 90.7072C157.752 90.5216 157.52 90.3366 157.287 90.1524C156.731 89.5226 156.731 89.5226 156.731 89.1815C156.639 89.1815 156.548 89.1815 156.453 89.1815C156.215 88.9563 155.984 88.7247 155.758 88.488C155.666 88.3965 155.574 88.3049 155.48 88.2106C155.526 88.0275 155.571 87.8445 155.619 87.6558C160.85 87.6558 166.082 87.6558 171.472 87.6558C171.467 85.9335 171.467 85.9335 171.462 84.1764C171.46 83.3586 171.459 82.5407 171.458 81.7229C171.456 80.6623 171.454 79.6017 171.451 78.5411C171.448 77.6121 171.446 76.6832 171.445 75.7542C171.445 75.399 171.444 75.0439 171.442 74.6888C171.44 74.1929 171.44 73.697 171.44 73.2012C171.439 73.053 171.438 72.9049 171.437 72.7522C171.438 72.6176 171.438 72.483 171.438 72.3444C171.438 72.227 171.438 72.1096 171.438 71.9887C171.472 71.7055 171.472 71.7055 171.75 71.4281Z" fill="#0008CB"/>
<path d="M121.79 36.9733C121.925 36.9711 122.061 36.969 122.2 36.9667C122.423 36.9663 122.423 36.9663 122.65 36.966C122.807 36.9641 122.963 36.9623 123.124 36.9604C123.644 36.955 124.163 36.9529 124.682 36.9512C125.043 36.9491 125.404 36.9471 125.765 36.945C126.522 36.9412 127.28 36.9394 128.038 36.9385C128.911 36.9374 129.784 36.9306 130.657 36.9211C131.499 36.9123 132.341 36.9097 133.183 36.9093C133.54 36.9083 133.897 36.9055 134.254 36.9008C134.755 36.8947 135.256 36.8956 135.757 36.8982C135.976 36.8932 135.976 36.8932 136.201 36.8881C137.357 36.9059 137.982 37.3414 138.792 38.1404C139.199 38.5691 139.577 39.0136 139.945 39.4754C140.333 39.9562 140.744 40.3329 141.232 40.7074C141.434 40.9144 141.434 40.9144 141.573 41.4692C133.657 41.5378 133.657 41.5378 125.581 41.6079C125.535 47.0088 125.489 52.4097 125.442 57.9743C124.624 57.464 124.096 57.0923 123.495 56.3966C123.036 55.8812 122.586 55.3902 122.053 54.9489C121.428 54.4188 120.816 53.8709 120.638 53.043C120.609 52.631 120.606 52.2266 120.613 51.8137C120.612 51.6586 120.611 51.5036 120.61 51.3438C120.609 50.8339 120.613 50.3243 120.618 49.8144C120.618 49.4594 120.619 49.1043 120.618 48.7493C120.619 48.0067 120.622 47.2642 120.628 46.5217C120.635 45.6634 120.637 44.8051 120.637 43.9468C120.636 43.1197 120.639 42.2926 120.642 41.4656C120.643 41.114 120.644 40.7625 120.644 40.4109C120.645 39.9208 120.649 39.4308 120.653 38.9407C120.653 38.7948 120.653 38.6489 120.653 38.4986C120.655 38.3654 120.656 38.2322 120.658 38.095C120.659 37.9792 120.66 37.8634 120.66 37.7441C120.779 37.0846 121.173 36.9788 121.79 36.9733Z" fill="#0008CB"/>
<path d="M161.521 36.9521C161.678 36.952 161.836 36.9519 161.998 36.9518C162.517 36.9523 163.035 36.9577 163.553 36.9631C163.914 36.9644 164.274 36.9654 164.634 36.9661C165.484 36.9684 166.334 36.9739 167.184 36.9809C168.153 36.9886 169.121 36.9924 170.089 36.9959C172.08 37.0032 174.07 37.0153 176.061 37.0308C176.224 37.3566 176.229 37.5756 176.246 37.9392C176.255 38.1388 176.255 38.1388 176.265 38.3424C176.271 38.489 176.278 38.6356 176.284 38.7866C176.291 38.9407 176.298 39.0948 176.305 39.2536C176.367 40.69 176.405 42.1269 176.435 43.5642C176.455 44.5279 176.484 45.4898 176.533 46.4525C176.882 53.4381 176.882 53.4381 174.934 55.6265C174.015 56.5746 172.988 57.3836 171.889 58.113C171.298 57.2291 171.453 56.0049 171.461 54.9744C171.461 54.8327 171.461 54.6909 171.462 54.5448C171.463 54.2392 171.464 53.9336 171.466 53.628C171.468 53.1449 171.47 52.6617 171.471 52.1785C171.474 50.8056 171.479 49.4327 171.485 48.0598C171.489 47.2184 171.491 46.377 171.493 45.5356C171.494 45.2149 171.495 44.8942 171.497 44.5735C171.5 44.1269 171.501 43.6804 171.501 43.2338C171.503 43.034 171.503 43.034 171.505 42.8301C171.505 42.709 171.505 42.5879 171.504 42.4631C171.505 42.3576 171.505 42.2521 171.506 42.1434C171.494 41.8511 171.494 41.8511 171.194 41.6079C170.908 41.5644 170.908 41.5644 170.574 41.5692C170.444 41.5677 170.314 41.5662 170.18 41.5646C169.965 41.5641 169.965 41.5641 169.745 41.5636C169.595 41.5623 169.444 41.5609 169.289 41.5594C168.789 41.5551 168.29 41.5528 167.79 41.5504C167.444 41.5478 167.099 41.5451 166.753 41.5423C165.935 41.5359 165.117 41.5307 164.299 41.5261C163.276 41.5203 162.254 41.5126 161.231 41.5049C159.407 41.4915 157.582 41.4797 155.758 41.4692C155.758 41.0531 155.758 41.0531 155.967 40.8087C156.061 40.7206 156.156 40.6324 156.253 40.5416C156.641 40.1702 157.008 39.7962 157.357 39.3887C158.618 37.9334 159.518 36.9182 161.521 36.9521Z" fill="#0008CB"/>
</g>
<defs>
<clipPath id="clip0_1_104">
<rect width="178" height="162" fill="white" transform="translate(16 19)"/>
</clipPath>
</defs>
</svg>
