<svg width="496" height="200" viewBox="0 0 496 200" fill="none" xmlns="http://www.w3.org/2000/svg">
<rect width="496" height="200" fill="white"/>
<path d="M78.6593 51.4462C78.8604 51.5273 79.0615 51.6084 79.2687 51.6919C82.3947 52.9653 85.3121 54.3595 88.0671 56.3387C88.3393 56.5338 88.6115 56.7288 88.892 56.9298C92.7591 59.8736 96.3737 63.4501 99.0375 67.5297C99.5401 68.3207 99.5401 68.3207 100.611 68.5699C100.423 66.6644 99.7257 65.2524 98.8469 63.5901C97.4749 60.9651 97.4749 60.965 97.4749 60.1828C98.1722 59.5515 98.8687 58.9686 99.6091 58.3918C99.829 58.2201 100.049 58.0484 100.275 57.8714C109.301 50.9721 120.028 48.0789 131.268 49.479C135.282 50.1954 138.903 51.8795 142.423 53.8925C142.77 54.0866 143.117 54.2808 143.474 54.4808C145.895 55.9272 147.924 57.743 149.938 59.6994C150.408 60.1544 150.887 60.601 151.366 61.0469C158.251 67.621 162.713 77.6115 163.017 87.1524C163.034 88.5278 163.04 89.903 163.043 91.2785C163.045 91.8068 163.047 92.3352 163.05 92.8635C163.057 94.5888 163.061 96.3141 163.064 98.0394C163.066 98.6348 163.067 99.2302 163.069 99.8256C163.075 102.62 163.08 105.414 163.083 108.209C163.086 111.432 163.096 114.656 163.11 117.879C163.12 120.374 163.125 122.869 163.127 125.364C163.127 126.853 163.13 128.342 163.139 129.831C163.147 131.23 163.149 132.628 163.145 134.027C163.145 134.54 163.147 135.054 163.152 135.567C163.158 136.267 163.155 136.968 163.151 137.668C163.152 138.06 163.153 138.452 163.154 138.856C162.942 140.091 162.564 140.501 161.587 141.258C160.733 141.443 160.733 141.443 159.767 141.456C159.404 141.463 159.041 141.471 158.668 141.479C158.082 141.48 158.082 141.48 157.485 141.481C157.082 141.484 156.679 141.488 156.264 141.492C155.412 141.498 154.559 141.5 153.707 141.498C152.404 141.498 151.103 141.519 149.8 141.541C148.972 141.544 148.144 141.546 147.315 141.546C146.926 141.554 146.538 141.563 146.137 141.571C145.772 141.567 145.407 141.562 145.031 141.558C144.711 141.559 144.392 141.56 144.063 141.562C142.839 141.167 142.234 140.661 141.445 139.648C140.554 137.854 140.745 135.84 140.766 133.879C140.764 133.379 140.76 132.879 140.756 132.379C140.748 131.025 140.752 129.671 140.759 128.317C140.763 126.896 140.756 125.475 140.75 124.054C140.739 121.36 140.739 118.667 140.744 115.973C140.749 112.029 140.739 108.086 140.729 104.142C140.728 103.557 140.726 102.973 140.725 102.389C140.724 102.103 140.723 101.818 140.723 101.524C140.719 99.8357 140.718 98.1478 140.719 96.46C140.72 95.4056 140.72 94.3512 140.719 93.2968C140.72 92.8116 140.72 92.3263 140.722 91.841C140.739 85.474 140.143 79.6395 135.445 74.837C131.046 71.1429 125.97 70.6082 120.472 71.0161C117.9 71.5015 115.769 72.6064 113.592 74.033C112.806 74.5107 112.806 74.5107 111.901 74.8356C109.076 76.0979 107.636 81.0217 106.528 83.6923C105.972 85.2413 105.794 86.6629 105.792 88.3046C105.79 88.6843 105.789 89.064 105.787 89.4552C105.788 89.8683 105.788 90.2813 105.788 90.7069C105.787 91.1446 105.786 91.5823 105.784 92.0333C105.782 92.9833 105.78 93.9333 105.779 94.8832C105.777 96.3855 105.771 97.8877 105.764 99.39C105.762 99.9048 105.76 100.42 105.758 100.934C105.757 101.192 105.755 101.45 105.754 101.715C105.74 105.211 105.728 108.707 105.724 112.203C105.721 114.564 105.713 116.924 105.7 119.284C105.693 120.533 105.689 121.781 105.69 123.03C105.692 124.421 105.683 125.813 105.674 127.204C105.676 127.618 105.678 128.031 105.681 128.458C105.674 129.026 105.674 129.026 105.667 129.605C105.666 130.099 105.666 130.099 105.665 130.602C105.436 131.736 104.983 132.156 104.095 132.871C103.28 133.056 103.28 133.056 102.371 133.068C101.858 133.08 101.858 133.08 101.335 133.092C100.784 133.093 100.784 133.093 100.222 133.093C99.652 133.099 99.652 133.099 99.0708 133.105C98.2677 133.111 97.4646 133.112 96.6615 133.111C95.4345 133.111 94.2089 133.132 92.982 133.154C92.2012 133.157 91.4204 133.159 90.6396 133.159C90.2737 133.167 89.9077 133.175 89.5307 133.184C89.1866 133.18 88.8425 133.175 88.4879 133.171C88.1872 133.172 87.8866 133.173 87.5768 133.175C86.1036 132.68 85.3091 131.788 84.5828 130.425C84.2909 129.052 84.3049 127.716 84.3245 126.316C84.3206 125.705 84.3206 125.705 84.3167 125.081C84.3104 123.735 84.3187 122.39 84.3269 121.044C84.326 120.104 84.3217 119.164 84.3174 118.224C84.309 116.002 84.3107 113.779 84.3164 111.556C84.3263 107.589 84.3192 103.622 84.3086 99.6541C84.3047 98.0433 84.3078 96.4326 84.3128 94.8218C84.548 86.8565 84.548 86.8565 82.1219 79.4251C81.9133 79.0505 81.9133 79.0505 81.7004 78.6684C79.4421 74.7856 76.0264 72.6073 71.7654 71.3151C70.1867 70.9453 68.6464 70.8955 67.0302 70.9069C66.592 70.9099 66.592 70.9099 66.1448 70.9129C61.7356 70.9997 57.3984 72.6984 54.2687 75.9086C50.4025 81.1193 49.2834 86.2604 49.2961 92.6273C49.2945 93.142 49.2927 93.6567 49.2905 94.1714C49.2866 95.2728 49.2846 96.3741 49.2843 97.4755C49.2836 99.2172 49.2773 100.959 49.2701 102.7C49.253 107.023 49.2422 111.346 49.2348 115.668C49.2291 119.035 49.2211 122.402 49.2059 125.768C49.1983 127.5 49.1955 129.231 49.1963 130.963C49.1957 132.038 49.1908 133.113 49.1847 134.189C49.1827 134.687 49.1826 135.186 49.1843 135.685C49.1865 136.365 49.1816 137.045 49.1764 137.726C49.1753 138.297 49.1753 138.297 49.1743 138.879C49.0245 139.991 48.7783 140.466 47.9968 141.258C46.9906 141.594 46.3399 141.655 45.2932 141.664C44.9571 141.667 44.621 141.671 44.2747 141.674C43.7308 141.676 43.7308 141.676 43.1759 141.679C42.8025 141.68 42.4292 141.682 42.0445 141.685C41.2543 141.688 40.464 141.69 39.6738 141.691C38.4655 141.695 37.2575 141.706 36.0492 141.717C35.2816 141.719 34.5139 141.721 33.7463 141.722C33.3851 141.726 33.0239 141.731 32.6518 141.735C29.4764 141.725 29.4764 141.725 28.1359 140.559C27.0652 139.4 26.959 138.599 26.9555 137.037C26.952 136.601 26.9486 136.165 26.945 135.716C26.9465 135.234 26.9481 134.752 26.9498 134.269C26.9478 133.761 26.9454 133.252 26.9425 132.743C26.9363 131.36 26.9367 129.977 26.9387 128.594C26.9398 127.435 26.9376 126.276 26.9355 125.117C26.9306 122.376 26.9312 119.635 26.9352 116.894C26.9391 114.083 26.9343 111.271 26.9249 108.46C26.9171 106.036 26.9149 103.613 26.9169 101.19C26.9181 99.7469 26.9173 98.3041 26.9113 96.8613C26.8642 84.4646 28.735 73.4885 36.8468 63.6774C37.0934 63.3769 37.34 63.0765 37.5941 62.7669C47.3767 51.3644 64.3772 45.6256 78.6593 51.4462ZM62.6312 49.6989C64.0249 50.0484 64.0249 50.0484 64.0249 50.0484L62.6312 49.6989ZM68.5546 49.6989C69.9484 50.0484 69.9484 50.0484 69.9484 50.0484L68.5546 49.6989ZM101.308 67.871C101.656 68.5699 101.656 68.5699 101.656 68.5699L101.308 67.871ZM84.2343 84.6452C84.5828 85.3441 84.5828 85.3441 84.5828 85.3441L84.2343 84.6452ZM27.439 86.3925C27.7874 87.4409 27.7874 87.4409 27.7874 87.4409L27.439 86.3925ZM141.03 86.3925C141.378 87.4409 141.378 87.4409 141.378 87.4409L141.03 86.3925ZM84.5828 86.7419C84.9312 87.7903 84.9312 87.7903 84.9312 87.7903L84.5828 86.7419Z" fill="#72ECA5"/>
<path d="M419.235 49.2621C419.47 49.2615 419.705 49.2609 419.946 49.2603C423.374 49.2598 426.574 49.4262 429.884 50.3979C430.281 50.5069 430.679 50.6159 431.088 50.7282C436.95 52.4764 442.743 55.3718 447.306 59.4839C447.602 59.7474 447.898 60.0109 448.203 60.2825C448.796 60.815 449.387 61.35 449.975 61.8878C451.041 62.8569 452.132 63.7927 453.23 64.7258C453.575 64.3798 453.575 64.3798 453.927 64.0269C453.118 62.2687 452.21 60.7687 451.074 59.1999C449.754 57.2455 449.09 55.5726 449.397 53.1936C449.963 52.1015 449.963 52.1015 450.791 51.4462C453.395 50.6739 456.41 50.9904 459.1 50.9744C459.817 50.9686 460.535 50.9591 461.252 50.9458C462.291 50.9266 463.329 50.919 464.368 50.9139C464.687 50.9059 465.006 50.898 465.334 50.8899C465.786 50.8913 465.786 50.8913 466.247 50.8929C466.51 50.89 466.772 50.8872 467.042 50.8843C468.297 51.2086 469.178 51.824 469.955 52.8441C470.264 54.0104 470.234 55.1471 470.216 56.3483C470.218 56.7041 470.221 57.06 470.224 57.4266C470.231 58.6206 470.222 59.8141 470.214 61.0081C470.216 61.8634 470.219 62.7186 470.222 63.5739C470.228 65.6567 470.224 67.7393 470.215 69.822C470.206 72.247 470.207 74.6721 470.209 77.0971C470.211 81.4236 470.203 85.75 470.189 90.0764C470.176 94.2755 470.171 98.4744 470.175 102.673C470.179 107.245 470.179 111.818 470.171 116.39C470.17 116.877 470.169 117.364 470.168 117.852C470.168 118.092 470.168 118.331 470.167 118.578C470.164 120.269 470.165 121.96 470.166 123.651C470.168 125.926 470.162 128.201 470.151 130.475C470.148 131.312 470.147 132.148 470.149 132.984C470.151 134.123 470.145 135.262 470.136 136.4C470.139 136.734 470.142 137.067 470.144 137.41C470.115 139.64 470.115 139.64 469.298 140.764C468.407 141.361 467.898 141.437 466.831 141.444C466.488 141.45 466.145 141.456 465.792 141.461C465.423 141.46 465.055 141.458 464.675 141.456C464.104 141.459 464.104 141.459 463.522 141.463C462.717 141.465 461.913 141.464 461.108 141.46C459.877 141.455 458.648 141.467 457.417 141.48C456.635 141.48 455.853 141.48 455.071 141.478C454.704 141.482 454.336 141.487 453.957 141.492C452.297 141.471 451.417 141.456 450.038 140.472C449.185 139.193 449.115 138.478 449.193 136.974C449.584 135.138 450.637 133.7 451.684 132.172C452.115 131.526 452.543 130.878 452.97 130.228C453.161 129.947 453.353 129.665 453.55 129.375C453.675 129.145 453.799 128.915 453.927 128.677C453.812 128.447 453.697 128.216 453.578 127.978C453.2 128.36 453.2 128.36 452.815 128.75C443.419 138.121 432.3 143.228 418.953 143.364C405.867 143.228 394.424 137.507 385.284 128.328C384.177 127.09 383.147 125.811 382.149 124.484C381.833 124.065 381.833 124.065 381.512 123.638C378.459 119.418 375.621 114.65 374.643 109.48C374.481 108.751 374.245 108.115 373.96 107.426C370.504 98.5372 372.606 86.9068 376.225 78.3548C378.4 73.452 381.129 69.1757 384.588 65.0753C384.885 64.6968 385.183 64.3182 385.48 63.9395C393.793 54.5335 406.898 49.2782 419.235 49.2621ZM403.246 75.5274C402.706 75.9086 402.706 75.9086 401.922 76.2977C401.192 76.6689 400.793 77.0949 400.267 77.7214C400.102 77.9138 399.937 78.1062 399.766 78.3043C399.029 79.3189 398.434 80.4041 397.828 81.5C397.655 81.8044 397.655 81.8044 397.478 82.1149C393.755 88.6697 392.026 95.7543 394.003 103.197C396.165 110.456 400.562 116.076 407.154 119.709C409.022 120.696 409.022 120.696 411.069 120.989C411.184 121.22 411.299 121.451 411.417 121.688C418.395 123.765 426.372 122.612 432.746 119.387C435.164 118.071 437.049 116.328 438.944 114.349C439.183 114.108 439.423 113.867 439.669 113.618C444.766 108.183 445.789 101.297 445.672 94.1585C445.457 88.2524 443.221 82.7758 439.292 78.3548C439.09 78.1192 438.887 77.8836 438.678 77.6409C435.749 74.456 431.828 72.4423 427.794 71.0161C427.338 70.8486 427.338 70.8486 426.872 70.6776C418.733 68.1551 409.925 70.5771 403.246 75.5274ZM373.438 88.8387C373.786 89.5376 373.786 89.5376 373.786 89.5376L373.438 88.8387ZM373.089 91.2849C373.438 92.6828 373.438 92.6828 373.438 92.6828L373.089 91.2849ZM445.913 94.0806C445.913 95.6952 445.913 97.3097 445.913 98.9731C446.028 98.9731 446.143 98.9731 446.261 98.9731C446.261 97.3586 446.261 95.7441 446.261 94.0806C446.146 94.0806 446.031 94.0806 445.913 94.0806ZM373.089 100.371C373.438 101.769 373.438 101.769 373.438 101.769L373.089 100.371ZM445.564 100.72C445.913 101.419 445.913 101.419 445.913 101.419L445.564 100.72ZM373.438 103.516C373.786 104.215 373.786 104.215 373.786 104.215L373.438 103.516ZM418.038 122.737C418.038 122.852 418.038 122.967 418.038 123.086C419.187 123.086 420.337 123.086 421.522 123.086C421.522 122.971 421.522 122.855 421.522 122.737C420.372 122.737 419.222 122.737 418.038 122.737Z" fill="#73EDA6"/>
<path d="M281.743 50.9897C282.077 50.9841 282.411 50.9785 282.755 50.9728C283.293 50.97 283.293 50.97 283.841 50.9671C284.213 50.9639 284.584 50.9608 284.966 50.9575C285.752 50.9525 286.537 50.9494 287.322 50.9481C288.52 50.9439 289.717 50.9267 290.914 50.9091C291.678 50.9058 292.442 50.9032 293.206 50.9016C293.74 50.8913 293.74 50.8913 294.286 50.8809C294.792 50.8841 294.792 50.8841 295.308 50.8873C295.748 50.8847 295.748 50.8847 296.198 50.882C297.625 51.211 298.659 51.6579 299.569 52.8441C299.932 54.303 299.89 55.7344 299.867 57.2314C299.869 57.6771 299.872 58.1229 299.875 58.5821C299.882 59.8034 299.874 61.0242 299.863 62.2455C299.855 63.5282 299.862 64.8108 299.867 66.0934C299.874 68.527 299.869 70.9604 299.86 73.394C299.844 77.739 299.85 82.0841 299.857 86.4291C299.859 87.9507 299.857 89.4722 299.85 90.9938C299.848 91.7162 299.847 92.4385 299.846 93.1609C299.845 94.0352 299.842 94.9095 299.835 95.7837C299.842 102.733 301.229 109.996 306.167 115.201C307.463 116.408 308.814 117.358 310.37 118.194C310.594 118.323 310.817 118.452 311.047 118.585C316.162 121.243 323.547 120.788 328.901 119.279C333.767 117.621 337.781 114.273 340.247 109.735C342.111 105.88 342.529 102.556 342.516 98.3197C342.517 97.8372 342.518 97.3546 342.519 96.8721C342.522 95.839 342.523 94.8059 342.522 93.7728C342.521 92.1382 342.526 90.5035 342.532 88.8688C342.549 84.2226 342.557 79.5764 342.559 74.9301C342.561 72.3594 342.567 69.7889 342.578 67.2182C342.586 65.5941 342.586 63.9702 342.583 62.3461C342.582 61.3357 342.587 60.3253 342.593 59.315C342.596 58.6251 342.592 57.9353 342.587 57.2454C342.623 53.391 342.623 53.391 344.169 51.7957C345.178 51.0924 346.008 51.0054 347.223 50.9897C347.715 50.9813 347.715 50.9813 348.217 50.9728C348.569 50.9709 348.921 50.969 349.284 50.9671C349.648 50.9639 350.012 50.9608 350.388 50.9575C351.158 50.9525 351.928 50.9494 352.698 50.9481C353.875 50.9439 355.05 50.9267 356.227 50.9091C356.976 50.9058 357.725 50.9032 358.474 50.9016C359 50.8913 359 50.8913 359.536 50.8809C361.132 50.8912 362.276 50.9075 363.549 51.939C364.96 53.4801 364.776 54.7632 364.771 56.7688C364.771 57.1075 364.772 57.4461 364.772 57.795C364.774 58.9372 364.773 60.0794 364.772 61.2216C364.772 62.0378 364.773 62.854 364.774 63.6702C364.775 65.8944 364.774 68.1186 364.773 70.3427C364.773 72.4358 364.773 74.5288 364.774 76.6219C364.775 81.0271 364.774 85.4324 364.772 89.8376C364.77 93.6065 364.77 97.3754 364.772 101.144C364.774 105.525 364.775 109.906 364.774 114.287C364.773 116.604 364.773 118.921 364.774 121.238C364.775 123.422 364.774 125.607 364.772 127.791C364.772 128.589 364.772 129.386 364.773 130.184C364.784 142.613 364.784 142.613 363.79 147.243C363.73 147.531 363.67 147.82 363.608 148.118C362.429 153.458 360.236 159.657 356.364 163.624C355.9 163.858 355.436 164.092 354.97 164.323C354.783 164.618 354.597 164.914 354.404 165.218C350.475 171.429 342.036 174.621 335.229 176.153C331.183 177.012 327.24 177.341 323.106 177.375C322.584 177.381 322.062 177.39 321.54 177.404C320.777 177.423 320.015 177.43 319.251 177.436C318.801 177.443 318.35 177.449 317.885 177.457C316.255 177.189 315.709 176.665 314.552 175.505C314.153 174.705 314.153 174.239 314.141 173.349C314.137 173.048 314.133 172.747 314.128 172.437C314.125 172.111 314.123 171.784 314.12 171.448C314.116 170.945 314.116 170.945 314.112 170.432C314.107 169.721 314.103 169.01 314.1 168.299C314.094 167.215 314.079 166.131 314.064 165.046C314.06 164.355 314.057 163.665 314.055 162.974C314.049 162.651 314.043 162.327 314.036 161.994C314.043 160.04 314.245 158.852 315.597 157.333C316.65 156.588 317.541 156.547 318.812 156.539C319.168 156.533 319.525 156.526 319.892 156.52C320.271 156.515 320.651 156.509 321.041 156.503C328.256 156.301 336.178 154.843 341.381 149.339C342.78 147.577 343.493 145.884 343.45 143.609C343.373 139.105 345.59 136.577 348.35 133.22C348.628 132.872 348.906 132.523 349.193 132.164C349.374 131.936 349.556 131.708 349.744 131.473C349.629 131.242 349.514 131.012 349.395 130.774C349.204 130.94 349.014 131.105 348.817 131.275C342.493 136.565 335.193 139.61 327.095 140.909C326.768 140.961 326.44 141.014 326.103 141.068C325.269 141.173 324.451 141.227 323.611 141.258C323.016 141.285 323.016 141.285 322.409 141.313C310.892 141.589 300.186 137.568 291.756 129.707C283.354 121.645 277.88 111.241 277.519 99.3873C277.471 96.7535 277.47 94.12 277.477 91.4858C277.479 90.1555 277.477 88.8253 277.475 87.495C277.473 85.2674 277.476 83.0399 277.481 80.8123C277.487 78.2402 277.485 75.6681 277.479 73.0959C277.474 70.8773 277.474 68.6587 277.476 66.4401C277.478 65.1192 277.478 63.7983 277.475 62.4774C277.471 61.0096 277.476 59.5419 277.482 58.0741C277.48 57.6388 277.478 57.2034 277.476 56.7549C277.478 56.3553 277.481 55.9557 277.484 55.544C277.485 55.1977 277.485 54.8514 277.486 54.4946C277.641 53.371 278.007 52.7122 278.663 51.7957C279.68 51.0953 280.525 51.0052 281.743 50.9897ZM343.123 53.8925C343.123 69.5764 343.123 85.2602 343.123 101.419C343.238 101.419 343.353 101.419 343.472 101.419C343.472 85.7355 343.472 70.0516 343.472 53.8925C343.357 53.8925 343.242 53.8925 343.123 53.8925ZM277.966 99.672C277.966 100.364 277.966 101.056 277.966 101.769C278.081 101.769 278.196 101.769 278.314 101.769C278.314 101.077 278.314 100.385 278.314 99.672C278.199 99.672 278.084 99.672 277.966 99.672ZM342.775 103.167C343.123 103.866 343.123 103.866 343.123 103.866L342.775 103.167ZM278.314 103.866C278.663 104.565 278.663 104.565 278.663 104.565L278.314 103.866ZM317.688 120.64C319.081 120.989 319.081 120.989 319.081 120.989L317.688 120.64ZM343.82 144.753C344.169 145.452 344.169 145.452 344.169 145.452L343.82 144.753Z" fill="#72ECA5"/>
<path d="M228.836 50.7473C229.274 50.8662 229.274 50.8662 229.721 50.9876C230.492 51.2193 231.225 51.4945 231.972 51.7957C232.377 51.9561 232.783 52.1164 233.201 52.2817C238.995 54.6513 243.793 57.9992 248.348 62.2796C248.525 62.4442 248.701 62.6088 248.883 62.7783C249.3 63.1796 249.698 63.6016 250.091 64.0269C250.091 64.2575 250.091 64.4882 250.091 64.7258C250.551 64.6105 251.01 64.4952 251.484 64.3763C250.951 61.928 249.722 60.2127 248.283 58.1966C247.189 56.5908 246.69 55.5564 246.955 53.543C247.548 52.2039 248.054 51.641 249.394 51.0968C250.169 50.9963 250.169 50.9963 251.022 50.9786C251.343 50.9708 251.664 50.9629 251.995 50.9548C252.512 50.9487 252.512 50.9487 253.039 50.9425C253.395 50.9377 253.752 50.9329 254.119 50.9279C254.873 50.9198 255.627 50.9138 256.381 50.9097C257.532 50.9003 258.682 50.8741 259.833 50.8476C260.566 50.8418 261.3 50.837 262.033 50.8333C262.376 50.8229 262.719 50.8124 263.072 50.8017C263.396 50.8038 263.719 50.8058 264.052 50.808C264.475 50.803 264.475 50.803 264.907 50.7979C266.315 51.2853 267.101 52.2804 267.861 53.543C268.152 54.7297 268.141 55.8716 268.122 57.0891C268.124 57.441 268.127 57.7929 268.13 58.1555C268.137 59.332 268.129 60.508 268.12 61.6846C268.122 62.5291 268.125 63.3735 268.128 64.218C268.134 66.2718 268.13 68.3255 268.122 70.3793C268.112 72.7716 268.113 75.1638 268.115 77.5561C268.117 81.8244 268.109 86.0927 268.095 90.361C268.082 94.502 268.077 98.6429 268.081 102.784C268.085 107.295 268.085 111.806 268.077 116.318C268.076 116.799 268.075 117.28 268.075 117.761C268.074 117.997 268.074 118.234 268.073 118.478C268.071 120.145 268.071 121.813 268.072 123.48C268.074 125.724 268.068 127.967 268.057 130.211C268.054 131.035 268.053 131.859 268.055 132.684C268.057 133.807 268.051 134.93 268.043 136.053C268.045 136.381 268.048 136.709 268.051 137.047C268.031 138.516 267.984 139.308 267.205 140.586C266.31 141.401 265.901 141.48 264.705 141.49C264.355 141.496 264.005 141.503 263.645 141.51C263.081 141.506 263.081 141.506 262.505 141.502C262.117 141.505 261.728 141.507 261.328 141.51C260.507 141.513 259.686 141.511 258.865 141.505C257.609 141.498 256.355 141.512 255.099 141.528C254.301 141.528 253.503 141.527 252.705 141.524C252.33 141.53 251.955 141.535 251.568 141.54C249.029 141.501 249.029 141.501 248.072 140.801C246.922 139.461 246.614 138.402 246.689 136.689C247.268 134.458 248.781 132.633 250.091 130.774C250.756 129.717 251.256 128.863 251.484 127.629C250.298 127.826 249.812 128.155 249.067 129.092C248.906 129.292 248.745 129.492 248.578 129.697C248.12 130.274 247.667 130.855 247.216 131.438C246.216 132.635 245.06 133.519 243.797 134.422C243.566 134.588 243.334 134.755 243.096 134.926C234.034 141.37 223.003 144.327 211.922 142.754C199.332 140.602 188.296 133.274 180.882 122.889C178.965 120.098 177.534 117.115 176.222 114C176.072 113.657 175.922 113.314 175.767 112.961C174.86 110.813 174.363 108.667 173.957 106.377C173.817 105.608 173.817 105.608 173.434 104.958C170.888 99.5311 172.577 89.855 174.131 84.2957C174.195 84.0616 174.258 83.8275 174.323 83.5864C175.323 79.9919 176.904 76.7315 178.661 73.4624C178.863 73.0831 179.064 72.7038 179.272 72.313C180.676 69.7835 182.346 67.6068 184.236 65.4247C184.475 65.1337 184.715 64.8427 184.961 64.5429C195.287 52.3617 213.541 46.299 228.836 50.7473ZM197.477 78.0054C197.237 78.4674 197.006 78.9342 196.78 79.4032C196.419 79.9544 196.058 80.5053 195.692 81.0523C191.619 87.1656 189.769 94.0941 191.073 101.426C192.766 108.514 196.48 114.72 202.703 118.652C204.084 119.452 205.447 119.993 206.984 120.416C207.581 120.64 207.581 120.64 207.93 121.339C208.16 121.223 208.39 121.108 208.627 120.989C208.742 121.22 208.857 121.451 208.975 121.688C209.205 121.573 209.435 121.458 209.672 121.339C209.787 121.569 209.902 121.8 210.02 122.038C217.775 123.254 225.643 122.577 232.32 118.194C236.501 115.09 239.938 110.875 241.728 105.962C241.865 105.62 242.001 105.278 242.142 104.925C243.712 100.244 243.244 95.1101 243.122 90.2366C242.892 90.2366 242.662 90.2366 242.425 90.2366C242.54 89.7753 242.655 89.314 242.773 88.8387C242.543 88.8387 242.313 88.8387 242.077 88.8387C242.055 88.572 242.033 88.3053 242.011 88.0306C240.757 82.3231 236.885 77.438 232.103 74.2705C221.443 67.4928 206.418 68.5287 197.477 78.0054ZM173.434 88.8387C173.783 89.5376 173.783 89.5376 173.783 89.5376L173.434 88.8387ZM173.086 91.2849C173.434 92.6828 173.434 92.6828 173.434 92.6828L173.086 91.2849ZM243.122 91.6344C243.47 92.3333 243.47 92.3333 243.47 92.3333L243.122 91.6344ZM243.47 94.4301C243.47 95.814 243.47 97.1979 243.47 98.6237C243.585 98.6237 243.7 98.6237 243.819 98.6237C243.819 97.2398 243.819 95.8559 243.819 94.4301C243.704 94.4301 243.589 94.4301 243.47 94.4301ZM173.086 100.371C173.434 101.769 173.434 101.769 173.434 101.769L173.086 100.371ZM173.434 103.516C173.783 104.215 173.783 104.215 173.783 104.215L173.434 103.516ZM215.595 122.737C215.595 122.852 215.595 122.967 215.595 123.086C216.745 123.086 217.895 123.086 219.08 123.086C219.08 122.971 219.08 122.855 219.08 122.737C217.93 122.737 216.78 122.737 215.595 122.737ZM251.833 127.978C252.181 128.677 252.181 128.677 252.181 128.677L251.833 127.978Z" fill="#73EDA6"/>
<path d="M281.102 50.7473C286.161 50.7473 291.22 50.7473 296.433 50.7473C296.433 50.8626 296.433 50.978 296.433 51.0968C291.374 51.0968 286.314 51.0968 281.102 51.0968C281.102 50.9815 281.102 50.8661 281.102 50.7473Z" fill="#73EDA6"/>
<path d="M452.533 50.7473C457.362 50.7473 462.192 50.7473 467.167 50.7473C467.167 50.8626 467.167 50.978 467.167 51.0968C462.338 51.0968 457.509 51.0968 452.533 51.0968C452.533 50.9815 452.533 50.8661 452.533 50.7473Z" fill="#73EDA6"/>
<path d="M346.956 50.7473C351.786 50.7473 356.615 50.7473 361.591 50.7473C361.591 50.8626 361.591 50.978 361.591 51.0968C356.761 51.0968 351.932 51.0968 346.956 51.0968C346.956 50.9815 346.956 50.8661 346.956 50.7473Z" fill="#73EDA6"/>
<path d="M250.439 50.7473C255.268 50.7473 260.098 50.7473 265.073 50.7473C265.073 50.8626 265.073 50.978 265.073 51.0968C260.244 51.0968 255.415 51.0968 250.439 51.0968C250.439 50.9815 250.439 50.8661 250.439 50.7473Z" fill="#73EDA6"/>
<path d="M111.413 74.8602C111.413 75.2062 111.413 75.5521 111.413 75.9086C110.723 76.2546 110.723 76.2546 110.019 76.6075C110.479 76.0309 110.939 75.4543 111.413 74.8602Z" fill="#336949"/>
<path d="M123.608 49C124.643 49 125.678 49 126.744 49C126.744 49.1153 126.744 49.2306 126.744 49.3495C125.709 49.3495 124.674 49.3495 123.608 49.3495C123.608 49.2341 123.608 49.1188 123.608 49Z" fill="#73EDA6"/>
<path d="M249.045 129.027C249.045 129.373 249.045 129.719 249.045 130.075C248.7 130.075 248.355 130.075 248 130.075C248.345 129.729 248.69 129.383 249.045 129.027Z" fill="#316647"/>
<path d="M246.606 136.366C246.721 136.366 246.836 136.366 246.955 136.366C246.955 137.058 246.955 137.749 246.955 138.462C246.84 138.462 246.725 138.462 246.606 138.462C246.606 137.77 246.606 137.078 246.606 136.366Z" fill="#73EDA6"/>
<path d="M449.048 136.715C449.163 136.715 449.278 136.715 449.397 136.715C449.397 137.292 449.397 137.868 449.397 138.462C449.282 138.462 449.167 138.462 449.048 138.462C449.048 137.886 449.048 137.309 449.048 136.715Z" fill="#73EDA6"/>
<path d="M449.048 53.8925C449.163 53.8925 449.278 53.8925 449.397 53.8925C449.397 54.4691 449.397 55.0457 449.397 55.6398C449.282 55.6398 449.167 55.6398 449.048 55.6398C449.048 55.0632 449.048 54.4866 449.048 53.8925Z" fill="#73EDA6"/>
<path d="M354.622 164.672C354.737 164.903 354.852 165.133 354.97 165.371C354.74 165.256 354.51 165.14 354.273 165.022C354.388 164.906 354.503 164.791 354.622 164.672Z" fill="#264F37"/>
</svg>
