<?xml version="1.0" encoding="UTF-8"?>
<!-- Generator: visioncortex VTracer 0.6.2 -->
<svg version="1.1" xmlns="http://www.w3.org/2000/svg" width="1280" height="336">
<path d="M0 0 C422.4 0 844.8 0 1280 0 C1280 110.88 1280 221.76 1280 336 C857.6 336 435.2 336 0 336 C0 225.12 0 114.24 0 0 Z " fill="#FAFCFC" transform="translate(0,0)"/>
<path d="M0 0 C10.33673106 8.93604194 17.21952598 20.1441661 18.27734375 33.96875 C18.57328002 40.8267514 17.98171869 47.19226934 16.58984375 53.90625 C16.41267822 54.77797852 16.2355127 55.64970703 16.05297852 56.54785156 C14.83290333 62.20883163 13.2320593 67.33355321 10.5234375 72.484375 C9.46946986 74.58570234 8.68426588 76.57613733 7.90625 78.78515625 C6.33632109 83.06678056 4.18552277 86.79760012 1.77734375 90.65625 C1.38675781 91.29369141 0.99617188 91.93113281 0.59375 92.58789062 C-0.1614249 93.81981736 -0.91911042 95.05020975 -1.6796875 96.27880859 C-3.04825847 98.49632925 -4.38764912 100.73090151 -5.72265625 102.96875 C-5.39265625 103.29875 -5.06265625 103.62875 -4.72265625 103.96875 C-1.12617202 103.95965649 2.46044507 103.83525514 6.0546875 103.7109375 C7.11816406 103.79601562 8.18164062 103.88109375 9.27734375 103.96875 C11.56748028 107.4039548 11.45577348 108.954081 11.27734375 112.96875 C12.20546875 112.06125 13.13359375 111.15375 14.08984375 110.21875 C21.71002765 103.78731479 30.2425959 102.24409554 40.03515625 102.59765625 C45.57951728 103.23225179 48.94400347 104.61821065 52.8671875 108.5703125 C56.36313627 113.43171495 56.6645063 118.53879633 56.65234375 124.359375 C56.65073242 125.18258743 56.64912109 126.00579987 56.64746094 126.85395813 C56.44534384 137.47420825 54.32356498 147.76635569 52.27734375 158.15625 C51.89034081 160.18915179 51.50491554 162.22235457 51.12109375 164.25585938 C50.1940852 169.16460941 49.23531671 174.06555358 48.27734375 178.96875 C42.00734375 178.96875 35.73734375 178.96875 29.27734375 178.96875 C29.92135028 168.36855059 31.54371487 158.20290722 33.54882812 147.78515625 C36.44058759 133.9043314 36.44058759 133.9043314 33.46484375 120.59375 C28.57061447 118.09865272 24.50157783 118.52758198 19.27734375 119.96875 C13.08756287 122.92506326 10.93163179 128.33250478 8.48144531 134.41333008 C6.30107493 140.85143508 5.22239115 147.47336761 4.08984375 154.15625 C3.71897441 156.26610064 3.34419307 158.37522316 2.96842957 160.48420715 C2.6312237 162.38834339 2.30320696 164.29410045 1.97583008 166.19995117 C1.1830765 170.47738457 0.22105095 174.7220676 -0.72265625 178.96875 C-6.99265625 178.96875 -13.26265625 178.96875 -19.72265625 178.96875 C-19.72265625 171.09395179 -19.72265625 171.09395179 -19.14355469 167.8671875 C-19.01619431 167.14039795 -18.88883392 166.4136084 -18.75761414 165.66479492 C-18.61717178 164.8988501 -18.47672943 164.13290527 -18.33203125 163.34375 C-18.18727859 162.52688721 -18.04252594 161.71002441 -17.89338684 160.8684082 C-17.42534333 158.23416711 -16.94905952 155.60149075 -16.47265625 152.96875 C-16.15035495 151.16286835 -15.82866084 149.35687823 -15.50756836 147.55078125 C-14.87403416 143.99041181 -14.23775969 140.430551 -13.59912109 136.87109375 C-12.47094233 130.57436701 -11.37502743 124.27221747 -10.28515625 117.96875 C-9.97406568 116.17706469 -9.66288172 114.38539559 -9.3515625 112.59375 C-9.14402344 111.3975 -8.93648438 110.20125 -8.72265625 108.96875 C-9.38265625 108.96875 -10.04265625 108.96875 -10.72265625 108.96875 C-12.34124752 110.91527147 -13.85464913 112.866412 -15.34765625 114.90625 C-16.16926445 116.02242192 -16.99490506 117.13563502 -17.82421875 118.24609375 C-18.24546524 118.81190659 -18.66671173 119.37771942 -19.10072327 119.9606781 C-20.72265625 121.96875 -20.72265625 121.96875 -22.66795349 123.90992737 C-28.34193336 129.62844822 -30.16558976 134.20103919 -31.21875 142.09375 C-31.38262711 143.12185791 -31.54650421 144.14996582 -31.71534729 145.20922852 C-32.22710281 148.45860337 -32.69479676 151.7124398 -33.16015625 154.96875 C-33.66023174 158.25153074 -34.16911729 161.5328423 -34.6799469 164.81396484 C-34.99327534 166.84817556 -35.29847043 168.88365858 -35.59483337 170.92041016 C-35.7962368 172.28818604 -35.7962368 172.28818604 -36.00170898 173.68359375 C-36.11747787 174.48917725 -36.23324677 175.29476074 -36.3525238 176.12475586 C-36.72265625 177.96875 -36.72265625 177.96875 -37.72265625 178.96875 C-39.06533038 179.05506874 -40.41239947 179.07581473 -41.7578125 179.06640625 C-42.56669922 179.06318359 -43.37558594 179.05996094 -44.20898438 179.05664062 C-45.05912109 179.04826172 -45.90925781 179.03988281 -46.78515625 179.03125 C-47.63916016 179.02673828 -48.49316406 179.02222656 -49.37304688 179.01757812 C-51.48961288 179.00575373 -53.6061431 178.98781769 -55.72265625 178.96875 C-57.24815803 174.00834354 -56.20737571 169.62838638 -55.28515625 164.65625 C-55.13755859 163.82029297 -54.98996094 162.98433594 -54.83789062 162.12304688 C-54.47423723 160.07016479 -54.09953845 158.01924468 -53.72265625 155.96875 C-54.58890625 156.401875 -54.58890625 156.401875 -55.47265625 156.84375 C-57.72265625 157.96875 -57.72265625 157.96875 -59.87109375 158.703125 C-62.72930509 160.65683908 -62.7181528 162.89679203 -63.34765625 166.21875 C-64.20749487 170.60898482 -65.22650419 174.74883393 -66.72265625 178.96875 C-67.31167725 178.97285889 -67.90069824 178.97696777 -68.50756836 178.98120117 C-71.2260561 179.0144866 -73.94240441 179.08516192 -76.66015625 179.15625 C-77.58634766 179.16205078 -78.51253906 179.16785156 -79.46679688 179.17382812 C-86.36849616 179.39177652 -91.00653481 181.1147185 -96.72265625 184.96875 C-95.0429134 186.64849285 -92.98138424 186.08619209 -90.73955002 186.08900275 C-90.01768937 186.08477139 -89.29582872 186.08054004 -88.55209351 186.07618046 C-87.78791749 186.07564596 -87.02374146 186.07511147 -86.23640859 186.07456077 C-83.63853105 186.07149908 -81.04072989 186.06120844 -78.44287109 186.05104065 C-76.56974998 186.0473479 -74.69662794 186.0440977 -72.82350534 186.04125381 C-67.63126315 186.03208938 -62.43905501 186.01663892 -57.24683122 186.00027026 C-51.62365869 185.98365187 -46.00047475 185.97285297 -40.37728977 185.9613905 C-30.52556554 185.94053792 -20.6738554 185.91607516 -10.82214546 185.88933563 C3.76431892 185.84982531 18.35079375 185.81640135 32.93727662 185.78463136 C39.85532757 185.76956056 46.77337794 185.75422812 53.69142818 185.7388401 C54.38758714 185.7372929 55.0837461 185.7357457 55.80100078 185.73415161 C66.62711238 185.71005405 77.45322101 185.68482089 88.27932835 185.65888023 C89.01016697 185.65712941 89.74100559 185.65537858 90.49399083 185.65357469 C93.46105025 185.64646379 96.42810966 185.6393472 99.39516906 185.63222638 C160.03828109 185.48670721 220.68144239 185.36533632 281.32461455 185.24790486 C285.98757222 185.23887387 290.65052983 185.22980972 295.31348738 185.22071552 C370.24124012 185.07458423 445.16898849 184.94438998 672.47074382 184.7895864 C691.33002853 184.78496495 710.18930376 184.77460557 729.04858398 184.76101685 C750.36979658 184.74570081 771.69099766 184.73742186 793.01221603 184.73920047 C803.82342064 184.73995493 814.63460295 184.73775859 825.44580269 184.72684479 C834.35707545 184.71786446 843.26831675 184.71545766 852.17959208 184.72227794 C856.65884793 184.7255145 861.13804242 184.72554627 865.6172924 184.71687329 C869.6803399 184.70907642 873.74327541 184.71036808 877.80631994 184.71916321 C879.27121066 184.72070801 880.7361096 184.71885154 882.20099062 184.71330532 C884.17959901 184.70629751 886.15824155 184.71270356 888.1368494 184.71986103 C889.23466332 184.71964366 890.33247725 184.71942629 891.46355826 184.71920234 C894.25476124 184.96674721 895.90578619 185.52422639 898.27734375 186.96875 C897.61130127 187.21407471 896.94525879 187.45939941 896.2590332 187.7121582 C894.22439404 188.46218137 892.19044655 189.21408206 890.15698242 189.96728516 C887.73219689 190.86046124 885.30381001 191.74390796 882.87231445 192.61865234 C876.65621911 194.86769787 870.6114872 197.21692391 864.64453125 200.08203125 C850.09117387 206.83498018 838.08812287 208.6610017 822.25 208.33203125 C820.25781495 208.30937602 818.26560421 208.2888947 816.27337646 208.27037048 C810.78456248 208.2125984 805.2966835 208.12250656 799.80841446 208.02696228 C793.67484531 207.92584591 787.54090126 207.854595 781.40698242 207.77832031 C767.34428921 207.59697917 753.28255798 207.37104572 739.22071344 207.13453221 C734.39782938 207.05358857 729.57490734 206.97532523 724.75195312 206.89868164 C698.51673894 206.4817201 672.28279388 206.05187773 646.05239868 205.3898735 C632.24810304 205.04314216 618.44372634 204.78613879 604.63671875 204.57421875 C603.57748451 204.55795944 602.51825027 204.54170013 601.42691803 204.52494812 C595.74141258 204.43808415 590.05588981 204.35240098 584.37036133 204.26705933 C570.9486224 204.06514043 557.52701927 203.85465594 544.10546875 203.640625 C543.35769165 203.62870896 542.60991455 203.61679292 541.83947754 203.60451579 C510.60448381 203.10602935 479.3705735 202.54924649 448.13671875 201.984375 C446.92598411 201.96248934 445.71524946 201.94060368 444.46782589 201.91805482 C419.85985602 201.47315114 395.25193996 201.02532276 370.64409137 200.57376081 C358.96119711 200.35940762 347.27828729 200.14591554 335.59536266 199.93322396 C333.32384006 199.89185827 331.05231817 199.85045349 328.780797 199.80900931 C299.26419183 199.27059659 269.74767894 198.78046955 240.22886562 198.38117909 C223.74216787 198.1581261 207.26088205 197.89413834 190.77991486 197.39744377 C177.18177787 196.98857453 163.58305765 196.74856735 149.98046875 196.5390625 C148.83240187 196.52131712 147.68433498 196.50357174 146.5014782 196.48528862 C137.84347309 196.35210985 129.18541058 196.22284112 120.52734375 196.09375 C109.5129659 195.9292589 98.49863718 195.76190909 87.484375 195.58984375 C86.763724 195.57861583 86.04307299 195.56738791 85.30058408 195.55581975 C61.81176515 195.18902353 38.32527412 194.73819544 14.83882034 194.24330902 C8.3166528 194.10592839 1.79443835 193.97101208 -4.72781372 193.83770752 C-5.64464223 193.81894562 -6.56147074 193.80018372 -7.50608194 193.78085327 C-11.1976151 193.70531891 -14.88914868 193.62980573 -18.58068728 193.55453777 C-29.53796363 193.33093074 -40.49493628 193.09752049 -51.45167619 192.84898072 C-58.36881041 192.69283967 -65.2861209 192.54765801 -72.203664 192.41083831 C-76.2322803 192.33072507 -80.26061233 192.24524796 -84.28881264 192.1462574 C-87.99996611 192.0551013 -91.71113433 191.9780039 -95.42281961 191.9120996 C-97.41447385 191.87297395 -99.40580895 191.81853934 -101.39709091 191.76364326 C-102.57634769 191.74541952 -103.75560448 191.72719578 -104.97059631 191.7084198 C-105.99182618 191.68612903 -107.01305605 191.66383825 -108.06523228 191.640872 C-111.18114306 192.02531897 -112.37628453 192.94508597 -114.72265625 194.96875 C-146.55919682 212.38269669 -191.33554365 226.64765829 -227.53515625 217.21875 C-229.61594764 216.52110149 -231.68287366 215.77849886 -233.72265625 214.96875 C-234.55796875 214.66839844 -235.39328125 214.36804688 -236.25390625 214.05859375 C-247.45912421 209.62639281 -257.15657545 201.69825895 -262.72265625 190.96875 C-262.72265625 190.30875 -262.72265625 189.64875 -262.72265625 188.96875 C-281.86265625 188.96875 -301.00265625 188.96875 -320.72265625 188.96875 C-320.06265625 188.63875 -319.40265625 188.30875 -318.72265625 187.96875 C-318.72265625 187.30875 -318.72265625 186.64875 -318.72265625 185.96875 C-300.57265625 185.96875 -282.42265625 185.96875 -263.72265625 185.96875 C-264.71265625 182.99875 -265.70265625 180.02875 -266.72265625 176.96875 C-270.14123548 152.05315905 -254.57996869 122.57950082 -240.72265625 102.96875 C-236.27380844 97.12383621 -231.52778351 91.5220425 -226.72265625 85.96875 C-226.12267822 85.27378418 -225.5227002 84.57881836 -224.90454102 83.86279297 C-221.70486857 80.17884345 -218.47151957 76.56096039 -215.03515625 73.09375 C-214.30941406 72.35382813 -213.58367187 71.61390625 -212.8359375 70.8515625 C-210.72265625 68.96875 -210.72265625 68.96875 -208.80078125 68.05859375 C-205.7042474 66.43465965 -203.54619032 63.90931871 -201.16015625 61.40625 C-195.68546181 55.79849884 -189.9071469 50.79118021 -183.72265625 45.96875 C-182.83578125 45.27265625 -181.94890625 44.5765625 -181.03515625 43.859375 C-178.93744401 42.22053731 -176.83395642 40.59002001 -174.72265625 38.96875 C-174.06265625 39.29875 -173.40265625 39.62875 -172.72265625 39.96875 C-174.65911699 41.61581915 -176.59666339 43.26157476 -178.53515625 44.90625 C-179.12466064 45.40697021 -179.71416504 45.90769043 -180.3215332 46.42358398 C-183.97405353 49.51705009 -187.67120251 52.54222968 -191.41015625 55.53125 C-217.78655851 77.13623362 -238.35907411 109.7624754 -242.53857422 143.93603516 C-243.84917813 158.40830057 -239.67988124 172.55919891 -230.72265625 183.96875 C-227.43673218 186.15936605 -226.50044297 186.21702276 -222.69233704 186.20925903 C-221.13373962 186.21338303 -221.13373962 186.21338303 -219.5436554 186.21759033 C-217.83462288 186.2068045 -217.83462288 186.2068045 -216.09106445 186.19580078 C-214.89093719 186.19609283 -213.69080994 186.19638489 -212.45431519 186.19668579 C-209.16317729 186.19553038 -205.87228966 186.18549326 -202.58119607 186.17153788 C-199.14188132 186.15904362 -195.70256331 186.15786105 -192.26322937 186.15548706 C-185.75030069 186.14926845 -179.23743907 186.1328525 -172.72453994 186.11278808 C-165.30986877 186.09044092 -157.89519441 186.07943863 -150.48049796 186.06939721 C-135.2278452 186.04848658 -119.97525937 186.01330322 -104.72265625 185.96875 C-104.72265625 185.30875 -104.72265625 184.64875 -104.72265625 183.96875 C-102.74265625 182.97875 -100.76265625 181.98875 -98.72265625 180.96875 C-100.38889203 179.30251422 -102.41024537 179.80134309 -104.70141602 179.76342773 C-105.76244034 179.74348251 -106.82346466 179.72353729 -107.91664124 179.70298767 C-109.07079025 179.68627518 -110.22493927 179.66956268 -111.4140625 179.65234375 C-113.17652565 179.6211721 -113.17652565 179.6211721 -114.97459412 179.58937073 C-118.74471949 179.52374876 -122.51491707 179.4649317 -126.28515625 179.40625 C-128.83399198 179.3630768 -131.38282028 179.31946292 -133.93164062 179.27539062 C-140.19523517 179.16805455 -146.45890226 179.0663121 -152.72265625 178.96875 C-153.99432841 175.15373351 -153.23912074 172.24988408 -152.5 168.41015625 C-152.28942711 167.26563492 -152.28942711 167.26563492 -152.07460022 166.09799194 C-151.76959908 164.44347747 -151.46131393 162.78956581 -151.15014648 161.13619995 C-150.31381704 156.68999636 -149.50175975 152.23935137 -148.6875 147.7890625 C-148.52035492 146.87875778 -148.35320984 145.96845306 -148.18099976 145.03056335 C-146.59178569 136.33888747 -145.14600521 127.62632835 -143.72265625 118.90625 C-141.41984949 104.84681449 -138.89593743 90.83631733 -136.26660156 76.83447266 C-134.84538396 69.239678 -133.47964921 61.64391555 -132.2734375 54.01171875 C-132.10496559 52.95482849 -132.10496559 52.95482849 -131.93309021 51.87658691 C-131.40826019 48.57487885 -130.89737955 45.2725709 -130.40795898 41.96533203 C-130.13834351 40.24419189 -130.13834351 40.24419189 -129.86328125 38.48828125 C-129.71407227 37.48901611 -129.56486328 36.48975098 -129.41113281 35.46020508 C-128.63469399 32.65043266 -128.15947862 31.56484383 -125.72265625 29.96875 C-123.02709961 29.59643555 -123.02709961 29.59643555 -119.8125 29.60546875 C-118.65814453 29.60611328 -117.50378906 29.60675781 -116.31445312 29.60742188 C-115.10853516 29.62353516 -113.90261719 29.63964844 -112.66015625 29.65625 C-110.84547852 29.65141602 -110.84547852 29.65141602 -108.99414062 29.64648438 C-99.9895555 29.70185075 -99.9895555 29.70185075 -97.72265625 31.96875 C-97.82202148 34.43334961 -97.82202148 34.43334961 -98.34375 37.68359375 C-98.54597168 38.95315918 -98.74819336 40.22272461 -98.95654297 41.53076172 C-99.20927691 43.01054397 -99.46481343 44.48984938 -99.72265625 45.96875 C-99.86213684 46.76951965 -100.00161743 47.57028931 -100.14532471 48.39532471 C-101.14062993 54.05875349 -102.1705152 59.71567869 -103.20678711 65.37173462 C-107.2802836 87.62443432 -111.135863 109.9105414 -114.89086914 132.21899414 C-115.16526573 133.84807709 -115.16526573 133.84807709 -115.44520569 135.5100708 C-115.78669441 137.5394229 -116.12735519 139.56891457 -116.46702576 141.59857178 C-116.61841507 142.49972717 -116.76980438 143.40088257 -116.92578125 144.3293457 C-117.05629883 145.10897171 -117.18681641 145.88859772 -117.32128906 146.69184875 C-117.75035212 149.12586488 -118.22933646 151.547012 -118.72265625 153.96875 C-118.04471512 153.97905746 -117.36677399 153.98936493 -116.66828918 153.99998474 C-109.61169022 154.10817275 -102.55521577 154.22276084 -95.4987793 154.34106445 C-92.86534226 154.38437383 -90.23187786 154.42605175 -87.59838867 154.46606445 C-83.81290442 154.52386355 -80.02755736 154.58753067 -76.2421875 154.65234375 C-75.06493607 154.66905624 -73.88768463 154.68576874 -72.67475891 154.70298767 C-71.57399521 154.72293289 -70.47323151 154.74287811 -69.33911133 154.76342773 C-68.37314529 154.77897202 -67.40717926 154.7945163 -66.41194153 154.81053162 C-63.76328424 154.96635974 -61.3072172 155.38283544 -58.72265625 155.96875 C-51.70654626 149.65718662 -50.92989972 142.18755309 -49.53515625 133.28125 C-49.0703459 130.48433504 -48.59406274 127.68941155 -48.1171875 124.89453125 C-47.94656296 123.88267258 -47.94656296 123.88267258 -47.77249146 122.85037231 C-45.65063203 110.47376808 -45.65063203 110.47376808 -43.72265625 104.96875 C-40.68841644 103.4516301 -37.54760831 103.78435743 -34.22265625 103.78125 C-33.53300781 103.76900391 -32.84335937 103.75675781 -32.1328125 103.74414062 C-30.32788131 103.73886305 -28.52347783 103.84690542 -26.72265625 103.96875 C-24.72265625 105.96875 -24.72265625 105.96875 -24.7109375 107.9921875 C-24.81792969 108.76820313 -24.92492187 109.54421875 -25.03515625 110.34375 C-25.18404297 111.50003906 -25.18404297 111.50003906 -25.3359375 112.6796875 C-25.72265625 114.96875 -25.72265625 114.96875 -26.328125 117.1328125 C-26.94092158 119.05317662 -26.94092158 119.05317662 -25.72265625 120.96875 C-18.75761229 111.70581244 -12.88182788 102.34493151 -7.72265625 91.96875 C-7.01496094 90.62103516 -7.01496094 90.62103516 -6.29296875 89.24609375 C3.24752276 70.07622416 5.33913716 49.42711369 -1.3984375 29.0390625 C-3.69755869 23.70835674 -6.99176223 19.37927557 -10.72265625 14.96875 C-11.26792969 14.29972656 -11.81320312 13.63070312 -12.375 12.94140625 C-22.42655463 1.71020707 -39.46092286 -2.21179129 -53.90722656 -3.17724609 C-66.78037615 -3.81846855 -78.74188194 -2.09118224 -91.32226562 0.51123047 C-94.77546747 1.16941805 -98.22929673 1.58285563 -101.72265625 1.96875 C-101.39265625 1.30875 -101.06265625 0.64875 -100.72265625 -0.03125 C-99.73265625 0.46375 -99.73265625 0.46375 -98.72265625 0.96875 C-98.39265625 0.30875 -98.06265625 -0.35125 -97.72265625 -1.03125 C-96.73265625 -0.53625 -96.73265625 -0.53625 -95.72265625 -0.03125 C-95.72265625 -0.69125 -95.72265625 -1.35125 -95.72265625 -2.03125 C-67.15262253 -10.97706501 -26.0240007 -19.90814964 0 0 Z " fill="#FBC44C" transform="translate(376.72265625,72.03125)"/>
<path d="M0 0 C1.22874246 1.0175121 2.43800923 2.05907702 3.625 3.125 C4.51251953 3.89263672 4.51251953 3.89263672 5.41796875 4.67578125 C14.87405653 13.42214059 19.15554085 23.64493764 21.625 36.125 C21.92277344 37.57132813 21.92277344 37.57132813 22.2265625 39.046875 C25.55194027 62.12890895 12.29834833 88.34359121 -0.75 106.5625 C-3.09095604 109.66551194 -5.58085608 112.42317361 -8.375 115.125 C-9.61218595 111.26738549 -8.94603475 108.9826905 -7.75 105.22265625 C-7.15579389 102.63668155 -7.15579389 102.63668155 -8.375 98.125 C-13.985 98.125 -19.595 98.125 -25.375 98.125 C-25.70113281 100.04441406 -26.02726563 101.96382813 -26.36328125 103.94140625 C-27.25852253 109.19777113 -28.16924211 114.45115154 -29.08984375 119.703125 C-29.81322026 123.83345495 -30.51528026 127.9613705 -31.12890625 132.109375 C-32.39991879 139.94328876 -34.25450094 144.87646245 -40.375 150.125 C-41.08416061 149.96423477 -41.79332123 149.80346954 -42.52397156 149.63783264 C-45.40066524 149.12038343 -48.0708694 148.96667566 -50.99145508 148.91967773 C-52.09221878 148.89973251 -53.19298248 148.87978729 -54.32710266 148.85923767 C-55.5043541 148.84252518 -56.68160553 148.82581268 -57.89453125 148.80859375 C-59.71509285 148.7774221 -59.71509285 148.7774221 -61.57243347 148.74562073 C-65.44406551 148.68031084 -69.31576455 148.62132637 -73.1875 148.5625 C-75.81446002 148.51929715 -78.44141329 148.47568229 -81.06835938 148.43164062 C-87.50383571 148.32464842 -93.93937849 148.22284764 -100.375 148.125 C-101.60255636 145.66988729 -101.30179521 144.81313052 -100.80517578 142.14916992 C-100.65363037 141.31739227 -100.50208496 140.48561462 -100.34594727 139.62863159 C-100.08575806 138.25591599 -100.08575806 138.25591599 -99.8203125 136.85546875 C-99.64346924 135.89182404 -99.46662598 134.92817932 -99.28442383 133.93533325 C-98.89823933 131.83306745 -98.50921428 129.73132199 -98.11773682 127.6300354 C-97.06421198 121.97211469 -96.03207159 116.31030471 -95 110.6484375 C-94.6765007 108.87666893 -94.6765007 108.87666893 -94.34646606 107.06910706 C-91.54460622 91.65693156 -88.96559318 76.20678912 -86.38330078 60.7565918 C-86.02924805 58.64627517 -85.6749271 56.53600353 -85.3203125 54.42578125 C-85.15379181 53.43021713 -84.98727112 52.43465302 -84.81570435 51.40892029 C-83.65389215 44.54318344 -82.31348403 37.73619986 -80.78857422 30.94213867 C-80.16009008 27.90549 -80.16009008 27.90549 -81.375 24.125 C-90.615 24.125 -99.855 24.125 -109.375 24.125 C-109.78234375 27.11175781 -110.1896875 30.09851563 -110.609375 33.17578125 C-112.12092088 43.92771483 -114.03441387 54.58498835 -116.04800415 65.25256348 C-119.45335889 83.31191237 -122.65066758 101.39557334 -125.62277222 119.53097534 C-127.32336875 129.90477189 -129.03740741 140.26617978 -131.1340332 150.56933594 C-132.50395714 157.37802644 -133.43070727 164.24611094 -134.375 171.125 C-133.3890107 171.13713028 -133.3890107 171.13713028 -132.38310242 171.14950562 C-125.55378567 171.23543124 -118.72476321 171.33492949 -111.89575195 171.44238281 C-109.34567194 171.48071278 -106.79553711 171.51555848 -104.24536133 171.546875 C-100.58394757 171.59243799 -96.9229125 171.65044738 -93.26171875 171.7109375 C-92.1178923 171.72248871 -90.97406586 171.73403992 -89.795578 171.74594116 C-88.73470474 171.76581085 -87.67383148 171.78568054 -86.58081055 171.80615234 C-85.17849434 171.82613785 -85.17849434 171.82613785 -83.74784851 171.8465271 C-81.375 172.125 -81.375 172.125 -78.375 174.125 C-84.125 177.125 -84.125 177.125 -86.375 177.125 C-86.375 177.785 -86.375 178.445 -86.375 179.125 C-102.32554237 179.37245001 -118.27617854 179.59100753 -134.22756481 179.77521229 C-141.63414693 179.8614157 -149.04038215 179.95705643 -156.4465332 180.07495117 C-162.90203818 180.17768908 -169.35749175 180.26268268 -175.81350404 180.32640952 C-179.23177176 180.36076976 -182.64940775 180.40398479 -186.06725121 180.46845436 C-189.88376971 180.53598309 -193.69937722 180.5721382 -197.51635742 180.60083008 C-198.64852188 180.6281572 -199.78068634 180.65548431 -200.94715881 180.68363953 C-208.63132911 180.69500433 -208.63132911 180.69500433 -212.5124054 177.72026062 C-213.12706161 176.86382462 -213.74171783 176.00738861 -214.375 175.125 C-214.92285156 174.465 -215.47070312 173.805 -216.03515625 173.125 C-224.8088368 160.61211855 -226.77835033 145.52104675 -224.25 130.6875 C-215.93261611 87.19960386 -184.28267542 52.73086545 -148.68920898 28.48901367 C-140.4568857 22.96982236 -132.0768311 17.87508211 -123.375 13.125 C-122.19763369 12.46404548 -121.02055525 11.80257795 -119.84375 11.140625 C-86.9824559 -7.12204141 -34.3011143 -24.6416051 0 0 Z " fill="#FAFCFC" transform="translate(358.375,78.875)"/>
<path d="M0 0 C1.08227875 -0.00630432 2.1645575 -0.01260864 3.27963257 -0.019104 C5.04507919 -0.01303131 5.04507919 -0.01303131 6.84619141 -0.00683594 C8.05787994 -0.00874939 9.26956848 -0.01066284 10.51797485 -0.01263428 C13.09206346 -0.01399834 15.6661589 -0.01028658 18.24023438 -0.00195312 C22.14680878 0.00865078 26.05291352 -0.00179303 29.95947266 -0.01464844 C32.46337991 -0.01332507 34.96728688 -0.01075903 37.47119141 -0.00683594 C38.62791351 -0.0108844 39.78463562 -0.01493286 40.97640991 -0.019104 C53.39820093 0.05120569 65.7165141 1.57518384 76.63525391 7.88378906 C85.82201172 17.85798326 86.47906953 26.97191038 85.99755859 39.89404297 C85.64861207 44.61456816 84.32365854 48.28108911 81.82275391 52.25878906 C81.33677734 53.03222656 80.85080078 53.80566406 80.35009766 54.60253906 C73.66967806 64.07831154 64.7220894 68.92268067 53.82275391 72.25878906 C56.6320392 73.24375228 56.6320392 73.24375228 58.80322266 73.73144531 C66.84922228 75.88179212 72.02283798 80.93626751 76.26025391 88.00878906 C80.79784701 97.44698272 79.38320765 107.50256872 76.07666016 117.15722656 C70.78264786 130.25207319 62.39067939 138.47482632 49.83837891 144.75097656 C39.28916472 149.0681039 28.59344771 149.68311671 17.33447266 149.55175781 C15.89574125 149.54614481 14.45700402 149.5418828 13.01826477 149.53889465 C9.27820282 149.52757966 5.53850469 149.49823226 1.79858398 149.46478271 C-2.0364083 149.43378937 -5.87146086 149.42032758 -9.70654297 149.40527344 C-17.19694108 149.37334578 -24.68704212 149.32231705 -32.17724609 149.25878906 C-32.29240651 143.90142281 -31.95257055 139.06567821 -30.96240234 133.77441406 C-30.83159271 133.06195023 -30.70078308 132.34948639 -30.56600952 131.61543274 C-30.28047909 130.06355171 -29.99183388 128.51224121 -29.70040894 126.9614563 C-28.88877143 122.64012509 -28.10099156 118.31441771 -27.31005859 113.98925781 C-27.13947433 113.05971786 -26.96889008 112.13017792 -26.7931366 111.17247009 C-24.8460381 100.52484565 -23.02199012 89.85630929 -21.19241333 79.18798828 C-17.9009416 60.00498011 -14.53819112 40.84160902 -10.83447266 21.73339844 C-10.34255097 19.13271884 -9.87209133 16.53216476 -9.41845703 13.92480469 C-9.28853363 13.19295959 -9.15861023 12.4611145 -9.02474976 11.70709229 C-8.77205289 10.28028362 -8.52554994 8.85236043 -8.28604126 7.42327881 C-7.2120849 1.42363889 -6.07159774 0.01012478 0 0 Z " fill="#FCC54D" transform="translate(583.17724609375,101.7412109375)"/>
<path d="M0 0 C0.8668895 -0.0033284 1.73377899 -0.0066568 2.62693787 -0.01008606 C4.47386139 -0.01516102 6.32079412 -0.01749421 8.16772461 -0.01733398 C10.93294579 -0.01948219 13.69774219 -0.03752269 16.46289062 -0.05664062 C57.0082589 -0.18942142 57.0082589 -0.18942142 70.7890625 11.4296875 C79.69036766 20.83843049 80.99472705 29.56661411 80.7421875 42.00390625 C80.23198395 53.56710868 76.26606412 62.87081729 69.43359375 72.16796875 C68.67046875 73.24046875 67.90734375 74.31296875 67.12109375 75.41796875 C49.7688036 93.17380053 25.63972348 93.64187788 2.43359375 94.16796875 C2.33054932 95.01439941 2.22750488 95.86083008 2.12133789 96.73291016 C0.83631345 106.84986371 -0.83811087 116.8727524 -2.65307617 126.90722656 C-3.13684372 129.58693639 -3.61260451 132.26799302 -4.08789062 134.94921875 C-4.39405904 136.65503274 -4.70068187 138.36076525 -5.0078125 140.06640625 C-5.22033409 141.26769669 -5.22033409 141.26769669 -5.43714905 142.49325562 C-6.45157031 148.05313281 -6.45157031 148.05313281 -7.56640625 149.16796875 C-9.62695935 149.26790407 -11.69093215 149.29877781 -13.75390625 149.30078125 C-15.00945313 149.30207031 -16.265 149.30335938 -17.55859375 149.3046875 C-18.21569336 149.30259277 -18.87279297 149.30049805 -19.54980469 149.29833984 C-21.5580196 149.29299109 -23.56601084 149.29828566 -25.57421875 149.3046875 C-26.82976563 149.30339844 -28.0853125 149.30210937 -29.37890625 149.30078125 C-30.54035156 149.29965332 -31.70179688 149.29852539 -32.8984375 149.29736328 C-35.56640625 149.16796875 -35.56640625 149.16796875 -36.56640625 148.16796875 C-36.4642201 139.18793946 -34.4189786 130.27300162 -32.75390625 121.48046875 C-31.00210144 112.15905301 -29.32507233 102.83100027 -27.78125 93.47265625 C-25.22161373 77.97076963 -22.52636526 62.49274675 -19.8203125 47.01586914 C-19.22780475 43.62543106 -18.63849214 40.23445947 -18.05175781 36.84301758 C-17.33225131 32.6842602 -16.60743857 28.52646095 -15.87877274 24.36929893 C-15.6050231 22.80237625 -15.33311879 21.23512995 -15.06315231 19.66755104 C-14.68831896 17.4933408 -14.30665891 15.32043297 -13.92333984 13.14770508 C-13.70890228 11.916595 -13.49446472 10.68548492 -13.27352905 9.41706848 C-12.62850656 6.45330831 -11.89800923 3.88991213 -10.56640625 1.16796875 C-7.27482356 -0.47782259 -3.61823308 0.00483268 0 0 Z " fill="#FCC54D" transform="translate(815.56640625,101.83203125)"/>
<path d="M0 0 C10.33673106 8.93604194 17.21952598 20.1441661 18.27734375 33.96875 C18.57328002 40.8267514 17.98171869 47.19226934 16.58984375 53.90625 C16.41267822 54.77797852 16.2355127 55.64970703 16.05297852 56.54785156 C14.83290333 62.20883163 13.2320593 67.33355321 10.5234375 72.484375 C9.46946986 74.58570234 8.68426588 76.57613733 7.90625 78.78515625 C6.33632109 83.06678056 4.18552277 86.79760012 1.77734375 90.65625 C1.38675781 91.29369141 0.99617188 91.93113281 0.59375 92.58789062 C-0.1614249 93.81981736 -0.91911042 95.05020975 -1.6796875 96.27880859 C-3.04825847 98.49632925 -4.38764912 100.73090151 -5.72265625 102.96875 C-5.39265625 103.29875 -5.06265625 103.62875 -4.72265625 103.96875 C-1.12617202 103.95965649 2.46044507 103.83525514 6.0546875 103.7109375 C7.11816406 103.79601562 8.18164062 103.88109375 9.27734375 103.96875 C11.56748028 107.4039548 11.45577348 108.954081 11.27734375 112.96875 C12.20546875 112.06125 13.13359375 111.15375 14.08984375 110.21875 C21.71002765 103.78731479 30.2425959 102.24409554 40.03515625 102.59765625 C45.57951728 103.23225179 48.94400347 104.61821065 52.8671875 108.5703125 C56.36313627 113.43171495 56.6645063 118.53879633 56.65234375 124.359375 C56.65073242 125.18258743 56.64912109 126.00579987 56.64746094 126.85395813 C56.44534384 137.47420825 54.32356498 147.76635569 52.27734375 158.15625 C51.89034081 160.18915179 51.50491554 162.22235457 51.12109375 164.25585938 C50.1940852 169.16460941 49.23531671 174.06555358 48.27734375 178.96875 C42.00734375 178.96875 35.73734375 178.96875 29.27734375 178.96875 C29.92135028 168.36855059 31.54371487 158.20290722 33.54882812 147.78515625 C36.44058759 133.9043314 36.44058759 133.9043314 33.46484375 120.59375 C28.57061447 118.09865272 24.50157783 118.52758198 19.27734375 119.96875 C13.08756287 122.92506326 10.93163179 128.33250478 8.48144531 134.41333008 C6.30107493 140.85143508 5.22239115 147.47336761 4.08984375 154.15625 C3.71897441 156.26610064 3.34419307 158.37522316 2.96842957 160.48420715 C2.6312237 162.38834339 2.30320696 164.29410045 1.97583008 166.19995117 C1.1830765 170.47738457 0.22105095 174.7220676 -0.72265625 178.96875 C-6.99265625 178.96875 -13.26265625 178.96875 -19.72265625 178.96875 C-19.72265625 171.09395179 -19.72265625 171.09395179 -19.14355469 167.8671875 C-19.01619431 167.14039795 -18.88883392 166.4136084 -18.75761414 165.66479492 C-18.61717178 164.8988501 -18.47672943 164.13290527 -18.33203125 163.34375 C-18.18727859 162.52688721 -18.04252594 161.71002441 -17.89338684 160.8684082 C-17.42534333 158.23416711 -16.94905952 155.60149075 -16.47265625 152.96875 C-16.15035495 151.16286835 -15.82866084 149.35687823 -15.50756836 147.55078125 C-14.87403416 143.99041181 -14.23775969 140.430551 -13.59912109 136.87109375 C-12.47094233 130.57436701 -11.37502743 124.27221747 -10.28515625 117.96875 C-9.97406568 116.17706469 -9.66288172 114.38539559 -9.3515625 112.59375 C-9.14402344 111.3975 -8.93648438 110.20125 -8.72265625 108.96875 C-9.38265625 108.96875 -10.04265625 108.96875 -10.72265625 108.96875 C-12.34124752 110.91527147 -13.85464913 112.866412 -15.34765625 114.90625 C-16.16926445 116.02242192 -16.99490506 117.13563502 -17.82421875 118.24609375 C-18.24546524 118.81190659 -18.66671173 119.37771942 -19.10072327 119.9606781 C-20.72265625 121.96875 -20.72265625 121.96875 -22.66795349 123.90992737 C-28.34193336 129.62844822 -30.16558976 134.20103919 -31.21875 142.09375 C-31.38262711 143.12185791 -31.54650421 144.14996582 -31.71534729 145.20922852 C-32.22710281 148.45860337 -32.69479676 151.7124398 -33.16015625 154.96875 C-33.66023174 158.25153074 -34.16911729 161.5328423 -34.6799469 164.81396484 C-34.99327534 166.84817556 -35.29847043 168.88365858 -35.59483337 170.92041016 C-35.72910233 171.83226074 -35.86337128 172.74411133 -36.00170898 173.68359375 C-36.11747787 174.48917725 -36.23324677 175.29476074 -36.3525238 176.12475586 C-36.72265625 177.96875 -36.72265625 177.96875 -37.72265625 178.96875 C-39.06533038 179.05506874 -40.41239947 179.07581473 -41.7578125 179.06640625 C-42.56669922 179.06318359 -43.37558594 179.05996094 -44.20898438 179.05664062 C-45.05912109 179.04826172 -45.90925781 179.03988281 -46.78515625 179.03125 C-47.63916016 179.02673828 -48.49316406 179.02222656 -49.37304688 179.01757812 C-51.48961288 179.00575373 -53.6061431 178.98781769 -55.72265625 178.96875 C-57.24815803 174.00834354 -56.20737571 169.62838638 -55.28515625 164.65625 C-55.13755859 163.82029297 -54.98996094 162.98433594 -54.83789062 162.12304688 C-54.47423723 160.07016479 -54.09953845 158.01924468 -53.72265625 155.96875 C-54.33625 156.27554688 -54.94984375 156.58234375 -55.58203125 156.8984375 C-57.62890625 157.921875 -59.67578125 158.9453125 -61.72265625 159.96875 C-61.72265625 158.97875 -61.72265625 157.98875 -61.72265625 156.96875 C-60.06417448 155.95523336 -58.39599664 154.95754205 -56.72265625 153.96875 C-53.05967568 150.15039379 -52.00821055 147.07668478 -51.125 141.90234375 C-51.00459854 141.22760513 -50.88419708 140.55286652 -50.76014709 139.85768127 C-50.37929871 137.70939669 -50.01879802 135.55834245 -49.66015625 133.40625 C-49.17570921 130.59130687 -48.68350665 127.77777179 -48.1875 124.96484375 C-48.06756683 124.28408783 -47.94763367 123.60333191 -47.82406616 122.90194702 C-45.54409716 110.18942158 -45.54409716 110.18942158 -43.72265625 104.96875 C-40.68841644 103.4516301 -37.54760831 103.78435743 -34.22265625 103.78125 C-33.53300781 103.76900391 -32.84335937 103.75675781 -32.1328125 103.74414062 C-30.32788131 103.73886305 -28.52347783 103.84690542 -26.72265625 103.96875 C-24.72265625 105.96875 -24.72265625 105.96875 -24.7109375 107.9921875 C-24.81792969 108.76820313 -24.92492187 109.54421875 -25.03515625 110.34375 C-25.13441406 111.11460937 -25.23367188 111.88546875 -25.3359375 112.6796875 C-25.72265625 114.96875 -25.72265625 114.96875 -26.328125 117.1328125 C-26.94092158 119.05317662 -26.94092158 119.05317662 -25.72265625 120.96875 C-18.75761229 111.70581244 -12.88182788 102.34493151 -7.72265625 91.96875 C-7.25085938 91.07027344 -6.7790625 90.17179687 -6.29296875 89.24609375 C3.24752276 70.07622416 5.33913716 49.42711369 -1.3984375 29.0390625 C-3.69755869 23.70835674 -6.99176223 19.37927557 -10.72265625 14.96875 C-11.54056641 13.96521484 -11.54056641 13.96521484 -12.375 12.94140625 C-22.42655463 1.71020707 -39.46092286 -2.21179129 -53.90722656 -3.17724609 C-66.78037615 -3.81846855 -78.74188194 -2.09118224 -91.32226562 0.51123047 C-94.77546747 1.16941805 -98.22929673 1.58285563 -101.72265625 1.96875 C-101.39265625 1.30875 -101.06265625 0.64875 -100.72265625 -0.03125 C-100.06265625 0.29875 -99.40265625 0.62875 -98.72265625 0.96875 C-98.39265625 0.30875 -98.06265625 -0.35125 -97.72265625 -1.03125 C-97.06265625 -0.70125 -96.40265625 -0.37125 -95.72265625 -0.03125 C-95.72265625 -0.69125 -95.72265625 -1.35125 -95.72265625 -2.03125 C-67.15262253 -10.97706501 -26.0240007 -19.90814964 0 0 Z " fill="#06B24C" transform="translate(376.72265625,72.03125)"/>
<path d="M0 0 C1.15435547 0.00064453 2.30871094 0.00128906 3.49804688 0.00195312 C4.70396484 0.01806641 5.90988281 0.03417969 7.15234375 0.05078125 C8.96702148 0.04594727 8.96702148 0.04594727 10.81835938 0.04101562 C19.8229445 0.096382 19.8229445 0.096382 22.08984375 2.36328125 C21.99047852 4.82788086 21.99047852 4.82788086 21.46875 8.078125 C21.26652832 9.34769043 21.06430664 10.61725586 20.85595703 11.92529297 C20.60322309 13.40507522 20.34768657 14.88438063 20.08984375 16.36328125 C19.95036316 17.1640509 19.81088257 17.96482056 19.66717529 18.78985596 C18.67187007 24.45328474 17.6419848 30.11020994 16.60571289 35.76626587 C12.5322164 58.01896557 8.676637 80.30507265 4.92163086 102.61352539 C4.7386998 103.69958069 4.55576874 104.78563599 4.36729431 105.90460205 C4.02580559 107.93395415 3.68514481 109.96344582 3.34547424 111.99310303 C3.19408493 112.89425842 3.04269562 113.79541382 2.88671875 114.72387695 C2.69094238 115.89331596 2.69094238 115.89331596 2.49121094 117.08638 C2.06214788 119.52039613 1.58316354 121.94154325 1.08984375 124.36328125 C2.1167482 124.37208061 2.1167482 124.37208061 3.16439819 124.38105774 C10.26938084 124.44483391 17.37390387 124.52921195 24.47851562 124.62573242 C27.13242546 124.65905258 29.78640738 124.6870621 32.44042969 124.7097168 C36.24836034 124.74313217 40.05562613 124.7954421 43.86328125 124.8515625 C45.05601654 124.85795242 46.24875183 124.86434235 47.47763062 124.8709259 C48.57862091 124.89072006 49.67961121 124.91051422 50.81396484 124.9309082 C51.78659271 124.94201126 52.75922058 124.95311432 53.76132202 124.96455383 C54.52973419 125.09613388 55.29814636 125.22771393 56.08984375 125.36328125 C58.08984375 128.36328125 58.08984375 128.36328125 57.96557617 130.52392578 C57.79388916 131.33974121 57.62220215 132.15555664 57.4453125 132.99609375 C57.26291016 133.88425781 57.08050781 134.77242187 56.89257812 135.6875 C56.68955078 136.61175781 56.48652344 137.53601563 56.27734375 138.48828125 C56.08591797 139.42027344 55.89449219 140.35226563 55.69726562 141.3125 C54.24737543 148.20574957 54.24737543 148.20574957 53.08984375 149.36328125 C51.60045586 149.50827749 50.10482354 149.59036608 48.609375 149.64453125 C47.23362305 149.70060547 47.23362305 149.70060547 45.83007812 149.7578125 C44.86392578 149.79261719 43.89777344 149.82742187 42.90234375 149.86328125 C35.8128561 150.07605751 35.8128561 150.07605751 28.7890625 150.95703125 C25.6363958 151.43152812 23.22794287 150.89475564 20.08984375 150.36328125 C18.24287286 150.25638066 16.39325961 150.18893654 14.54345703 150.15795898 C13.48281036 150.13801376 12.4221637 150.11806854 11.32937622 150.09751892 C10.20103363 150.08080643 9.07269104 150.06409393 7.91015625 150.046875 C6.74225555 150.0260939 5.57435486 150.00531281 4.37106323 149.98390198 C0.65238137 149.9186895 -3.06636914 149.85965324 -6.78515625 149.80078125 C-9.31120492 149.75756912 -11.83724674 149.71395397 -14.36328125 149.66992188 C-20.54550103 149.56303717 -26.72778861 149.46121889 -32.91015625 149.36328125 C-34.18182841 145.54826476 -33.42662074 142.64441533 -32.6875 138.8046875 C-32.54711807 138.04167328 -32.40673615 137.27865906 -32.26210022 136.49252319 C-31.95709908 134.83800872 -31.64881393 133.18409706 -31.33764648 131.5307312 C-30.50131704 127.08452761 -29.68925975 122.63388262 -28.875 118.18359375 C-28.70785492 117.27328903 -28.54070984 116.36298431 -28.36849976 115.4250946 C-26.77928569 106.73341872 -25.33350521 98.0208596 -23.91015625 89.30078125 C-21.60734949 75.24134574 -19.08343743 61.23084858 -16.45410156 47.22900391 C-15.03288396 39.63420925 -13.66714921 32.0384468 -12.4609375 24.40625 C-12.34862289 23.70165649 -12.23630829 22.99706299 -12.12059021 22.27111816 C-11.59576019 18.9694101 -11.08487955 15.66710215 -10.59545898 12.35986328 C-10.41571533 11.21243652 -10.23597168 10.06500977 -10.05078125 8.8828125 C-9.82696777 7.38391479 -9.82696777 7.38391479 -9.59863281 5.85473633 C-8.08118811 0.36341604 -5.37185143 -0.0150952 0 0 Z " fill="#FBC54D" transform="translate(256.91015625,101.63671875)"/>
<path d="M0 0 C7.36335725 6.19191405 12.11390939 14.31550325 12.98828125 23.93359375 C13.28464753 35.17991408 10.77665157 46.33400077 3.75 55.3125 C3.2240625 55.98796875 2.698125 56.6634375 2.15625 57.359375 C-5.23544075 66.29660108 -13.74459232 72.38620975 -25.58496094 73.54003906 C-35.17798421 74.12827304 -44.81440533 74.51606606 -53.25 69.3125 C-54.35214844 68.65894531 -54.35214844 68.65894531 -55.4765625 67.9921875 C-62.65024483 63.21842799 -65.50305521 56.61048773 -67.25 48.3125 C-68.89044381 36.15830266 -63.68926559 22.33255827 -56.94921875 12.39453125 C-43.6227538 -4.61078881 -19.02788564 -9.8798637 0 0 Z " fill="#06B24C" transform="translate(935.25,177.6875)"/>
<path d="M0 0 C6.86847659 9.09063078 7.07170894 17.12459748 5.68188477 28.41088867 C5.09264706 32.01547661 4.43773721 35.60044547 3.75 39.1875 C3.28617998 41.72213046 2.82522099 44.25728622 2.3671875 46.79296875 C2.03992676 48.59967041 2.03992676 48.59967041 1.70605469 50.44287109 C0.75010764 55.98656066 0.0849661 61.54521559 -0.515625 67.13671875 C-0.875 69.8125 -0.875 69.8125 -1.875 71.8125 C-6.825 71.8125 -11.775 71.8125 -16.875 71.8125 C-18.875 67.8125 -18.875 67.8125 -18.875 64.8125 C-22.98990195 66.22699754 -26.39371592 68.32185266 -30.0078125 70.69140625 C-35.89097306 74.22376416 -44.22773038 73.68267054 -50.875 72.8125 C-56.72832809 70.96802103 -61.48989686 68.32913637 -64.5625 62.875 C-67.20925328 55.96475744 -65.82527572 50.21755575 -63.19140625 43.52734375 C-59.25078225 35.40053757 -53.259168 30.86128836 -44.875 27.8125 C-33.91328417 24.37135376 -23.24063803 24.48534411 -11.875 24.8125 C-12.13087405 23.03944336 -12.40527739 21.26905392 -12.6875 19.5 C-12.83832031 18.51386719 -12.98914062 17.52773437 -13.14453125 16.51171875 C-13.93294421 13.5983853 -14.40524156 12.50699794 -16.875 10.8125 C-28.45820673 7.94078985 -38.63123305 11.69061653 -48.875 16.8125 C-50.26730517 14.02788966 -49.81328498 11.96302401 -49.5625 8.875 C-49.48386719 7.81410156 -49.40523437 6.75320312 -49.32421875 5.66015625 C-48.875 2.8125 -48.875 2.8125 -46.875 -0.1875 C-44.265625 -1.3203125 -44.265625 -1.3203125 -41.125 -2.3125 C-39.58585937 -2.81136719 -39.58585937 -2.81136719 -38.015625 -3.3203125 C-26.30944231 -6.55261668 -10.15777064 -7.72873853 0 0 Z " fill="#06B24C" transform="translate(1130.875,178.1875)"/>
<path d="M0 0 C0.74572266 -0.00386719 1.49144531 -0.00773438 2.25976562 -0.01171875 C7.81086499 -0.00163501 7.81086499 -0.00163501 8.9375 1.125 C9.09636396 13.83411677 5.5541511 26.84053738 3.22509766 39.25634766 C2.6612498 42.27381102 2.10747961 45.29299487 1.5546875 48.3125 C1.37767303 49.23853027 1.20065857 50.16456055 1.01828003 51.11865234 C0.78275925 52.41150146 0.78275925 52.41150146 0.54248047 53.73046875 C0.40115692 54.48481201 0.25983337 55.23915527 0.11422729 56.01635742 C-0.0765166 58.29224072 0.26157493 59.95657806 0.9375 62.125 C1.34782471 61.64973877 1.75814941 61.17447754 2.1809082 60.68481445 C6.72153744 55.4567694 11.38258027 50.35772211 16.125 45.3125 C16.82302734 44.56291016 17.52105469 43.81332031 18.24023438 43.04101562 C18.91763672 42.31978516 19.59503906 41.59855469 20.29296875 40.85546875 C20.89778076 40.20989014 21.50259277 39.56431152 22.12573242 38.89916992 C25.45801409 35.63603949 27.5967832 33.7428614 32.37890625 33.76171875 C33.20970703 33.76236328 34.04050781 33.76300781 34.89648438 33.76367188 C36.18522461 33.7878418 36.18522461 33.7878418 37.5 33.8125 C38.36302734 33.80927734 39.22605469 33.80605469 40.11523438 33.80273438 C46.53642451 33.85761634 46.53642451 33.85761634 49.9375 36.125 C49.49776855 36.49181885 49.05803711 36.8586377 48.60498047 37.23657227 C44.28135915 40.92475393 40.1901328 44.79976307 36.1953125 48.83984375 C35.69666687 49.34399811 35.19802124 49.84815247 34.68426514 50.36758423 C32.61074558 52.46880869 30.54112297 54.57378913 28.47558594 56.68286133 C26.94896331 58.23949651 25.41632953 59.79000464 23.8828125 61.33984375 C22.98062988 62.25886475 22.07844727 63.17788574 21.14892578 64.12475586 C18.9375 66.125 18.9375 66.125 16.9375 66.125 C17.87937365 70.45761879 19.21644031 73.79881224 21.55859375 77.5703125 C25.2932768 83.68355271 28.84815233 89.88997189 32.375 96.125 C33.02404297 97.25550781 33.67308594 98.38601562 34.34179688 99.55078125 C34.94958984 100.62714844 35.55738281 101.70351562 36.18359375 102.8125 C36.73716553 103.78574219 37.2907373 104.75898438 37.86108398 105.76171875 C38.21630127 106.54160156 38.57151855 107.32148438 38.9375 108.125 C38.6075 108.785 38.2775 109.445 37.9375 110.125 C34.33270054 110.01520915 30.72895321 109.88455955 27.125 109.75 C26.10083984 109.7190625 25.07667969 109.688125 24.02148438 109.65625 C23.03857422 109.61757812 22.05566406 109.57890625 21.04296875 109.5390625 C19.68401489 109.49193115 19.68401489 109.49193115 18.29760742 109.44384766 C15.9375 109.125 15.9375 109.125 12.9375 107.125 C11.65063477 104.91357422 11.65063477 104.91357422 10.37890625 102.1796875 C9.91033203 101.18453125 9.44175781 100.189375 8.95898438 99.1640625 C8.47751953 98.11992187 7.99605469 97.07578125 7.5 96 C6.54355546 93.9554546 5.58653453 91.91117873 4.62890625 89.8671875 C4.1714502 88.88975586 3.71399414 87.91232422 3.24267578 86.90527344 C2.81196777 85.9877832 2.38125977 85.07029297 1.9375 84.125 C1.55190918 83.30290039 1.16631836 82.48080078 0.76904297 81.63378906 C-0.88661631 77.70170241 -0.88661631 77.70170241 -4.0625 75.125 C-4.08828125 75.74761719 -4.1140625 76.37023437 -4.140625 77.01171875 C-4.58371527 84.23207611 -5.71230737 91.21075149 -7.0625 98.3125 C-7.24071289 99.25762451 -7.41892578 100.20274902 -7.60253906 101.17651367 C-8.93226218 107.99476218 -8.93226218 107.99476218 -10.0625 109.125 C-11.40517413 109.21131874 -12.75224322 109.23206473 -14.09765625 109.22265625 C-14.90654297 109.21943359 -15.71542969 109.21621094 -16.54882812 109.21289062 C-17.39896484 109.20451172 -18.24910156 109.19613281 -19.125 109.1875 C-19.97900391 109.18298828 -20.83300781 109.17847656 -21.71289062 109.17382812 C-23.82945663 109.16200373 -25.94598685 109.14406769 -28.0625 109.125 C-29.31973831 106.61052338 -28.96463123 105.5758468 -28.49267578 102.82617188 C-28.34114044 101.92484528 -28.1896051 101.02351868 -28.03347778 100.09487915 C-27.86000824 99.10450653 -27.6865387 98.11413391 -27.5078125 97.09375 C-27.24241165 95.53507706 -27.24241165 95.53507706 -26.97164917 93.94491577 C-26.38361305 90.50376023 -25.78582795 87.06437984 -25.1875 83.625 C-24.77833224 81.24761254 -24.36948152 78.8701705 -23.9609375 76.49267578 C-21.05786675 59.65071455 -18.07919043 42.82195231 -15.0625 26 C-14.86754944 24.91066162 -14.67259888 23.82132324 -14.47174072 22.69897461 C-13.92139826 19.62954419 -13.36766861 16.56074826 -12.8125 13.4921875 C-12.64934296 12.58213959 -12.48618591 11.67209167 -12.31808472 10.73446655 C-12.16671051 9.9028299 -12.0153363 9.07119324 -11.859375 8.21435547 C-11.72885742 7.49263153 -11.59833984 6.77090759 -11.46386719 6.02731323 C-11.0625 4.125 -11.0625 4.125 -10.0625 1.125 C-6.88856311 -0.46196844 -3.48075795 -0.0181447 0 0 Z " fill="#06B24C" transform="translate(471.0625,141.875)"/>
<path d="M0 0 C1.65137215 0.00022659 1.65137215 0.00022659 3.33610535 0.00045776 C5.11746635 0.01594162 5.11746635 0.01594162 6.93481445 0.03173828 C8.15135208 0.03456818 9.36788971 0.03739807 10.62129211 0.04031372 C14.51365929 0.05152475 18.40579786 0.0766313 22.2980957 0.10205078 C24.93416009 0.11207937 27.57022808 0.12120543 30.20629883 0.12939453 C36.67447602 0.15146712 43.14251953 0.1849539 49.6105957 0.22705078 C51.96632511 3.846145 51.64364732 6.21867557 50.78051758 10.37109375 C48.89363911 17.74961231 45.3520135 21.80247663 39.8918457 26.92236328 C39.03755981 27.76249969 38.18327393 28.60263611 37.30310059 29.4682312 C34.5950252 32.12080817 31.85422311 34.73631454 29.1105957 37.35205078 C27.26845636 39.14396469 25.4285884 40.9382168 23.59106445 42.73486328 C19.55859836 46.66949644 15.50529806 50.58109364 11.4317627 54.47317505 C9.80527836 56.03956156 8.20098155 57.6241255 6.6105957 59.22705078 C7.63531982 59.25210693 8.66004395 59.27716309 9.71582031 59.30297852 C13.50469247 59.39689562 17.29337451 59.49715396 21.08203125 59.59936523 C22.72423874 59.64277375 24.36649309 59.68444436 26.00878906 59.72436523 C28.36448316 59.78192518 30.71993998 59.8456597 33.07543945 59.91064453 C33.81398666 59.92735703 34.55253387 59.94406952 35.3134613 59.96128845 C40.496724 60.11317907 40.496724 60.11317907 41.6105957 61.22705078 C41.5462844 63.02192083 41.40919584 64.81443856 41.2355957 66.60205078 C41.10024414 68.06771484 41.10024414 68.06771484 40.9621582 69.56298828 C40.6105957 72.22705078 40.6105957 72.22705078 39.6105957 75.22705078 C19.4805957 75.22705078 -0.6494043 75.22705078 -21.3894043 75.22705078 C-23.31932766 71.36720405 -21.63798405 67.00470671 -20.72680664 62.9609375 C-18.44748174 56.59730205 -14.12348717 52.75237062 -9.2019043 48.28955078 C-8.28086914 47.40976563 -7.35983398 46.52998047 -6.41088867 45.62353516 C-1.79437081 41.24292169 2.95916175 37.03547194 7.76806641 32.86889648 C10.83917087 30.13228889 13.72482471 27.21904557 16.6105957 24.28955078 C17.19454102 23.70109375 17.77848633 23.11263672 18.38012695 22.50634766 C19.79264375 21.08225285 21.2019738 19.65499829 22.6105957 18.22705078 C20.69839986 16.31485493 17.27414067 16.9826978 14.73168945 16.91064453 C14.04502701 16.88986343 13.35836456 16.86908234 12.65089417 16.84767151 C10.45006636 16.78210935 8.24911595 16.72326063 6.0480957 16.66455078 C4.55915056 16.62137186 3.07021797 16.57775778 1.58129883 16.53369141 C-2.07546983 16.42642148 -5.73237748 16.32517306 -9.3894043 16.22705078 C-10.52189514 12.82957825 -10.2525715 11.15310056 -9.6394043 7.66455078 C-9.47956055 6.69388672 -9.3197168 5.72322266 -9.1550293 4.72314453 C-7.68096969 -0.08259062 -4.4101282 -0.02018365 0 0 Z " fill="#06B24C" transform="translate(722.389404296875,175.77294921875)"/>
<path d="M0 0 C-0.66666667 6.66666667 -1.33333333 13.33333333 -2 20 C-1.01257812 19.98839844 -0.02515625 19.97679687 0.9921875 19.96484375 C2.27351563 19.95582031 3.55484375 19.94679687 4.875 19.9375 C6.15117188 19.92589844 7.42734375 19.91429687 8.7421875 19.90234375 C12 20 12 20 14 21 C13.34 25.29 12.68 29.58 12 34 C6.06 34.33 0.12 34.66 -6 35 C-6.11085938 36.33160156 -6.22171875 37.66320312 -6.3359375 39.03515625 C-7.12272996 46.92115205 -8.60238213 54.70826984 -9.99414062 62.50561523 C-10.34884732 64.50131458 -10.69410092 66.49868687 -11.0390625 68.49609375 C-11.24740723 69.67357178 -11.45575195 70.8510498 -11.67041016 72.06420898 C-12.21450185 75.05665058 -12.21450185 75.05665058 -11 78 C-7.57267837 80.28488108 -6.37963387 80.19457895 -2.375 80.0625 C-0.58402787 80.00844179 1.20832865 79.97957378 3 80 C3.33 80.33 3.66 80.66 4 81 C3.9356887 82.79487005 3.79860014 84.58738778 3.625 86.375 C3.48964844 87.84066406 3.48964844 87.84066406 3.3515625 89.3359375 C3 92 3 92 2 95 C-5.21240206 97.65684313 -16.03168673 97.27267798 -23.30078125 94.94140625 C-28.14353537 92.294034 -31.047446 89.53871871 -32.6953125 84.22265625 C-33.49571846 78.38379737 -32.78693226 72.80280707 -31.72265625 67.0546875 C-31.59185165 66.32178497 -31.46104706 65.58888245 -31.32627869 64.83377075 C-30.91067027 62.51312168 -30.48667782 60.19409628 -30.0625 57.875 C-29.78135729 56.31129558 -29.50075345 54.74749418 -29.22070312 53.18359375 C-27.16186455 41.72580916 -27.16186455 41.72580916 -26.34936523 38.08251953 C-26.23407471 37.39528809 -26.11878418 36.70805664 -26 36 C-27.73956658 34.26043342 -30.1936622 34.62809614 -32.5625 34.4375 C-33.57441406 34.35371094 -34.58632813 34.26992187 -35.62890625 34.18359375 C-36.41136719 34.12300781 -37.19382812 34.06242187 -38 34 C-39.33874301 28.7292845 -38.32076346 25.20536186 -37 20 C-32.38 20 -27.76 20 -23 20 C-22.731875 17.916875 -22.46375 15.83375 -22.1875 13.6875 C-21.2902388 6.71647067 -21.2902388 6.71647067 -18 4 C-15.30652295 2.97122178 -12.6909375 2.07286638 -9.9375 1.25 C-9.20466797 1.01667969 -8.47183594 0.78335938 -7.71679688 0.54296875 C-2.26080499 -1.1304025 -2.26080499 -1.1304025 0 0 Z " fill="#06B24C" transform="translate(1056,155)"/>
<path d="M0 0 C1.62937736 -0.01653039 3.25868308 -0.04378232 4.88769531 -0.08203125 C7.24891386 -0.13712156 9.60843808 -0.15872156 11.97021484 -0.17333984 C12.69025696 -0.19600922 13.41029907 -0.21867859 14.15216064 -0.24203491 C19.08046078 -0.2216938 21.80859912 0.97522129 25.61340332 4.10575867 C28.2893001 6.1983623 31.31672615 7.29246664 34.45458984 8.53759766 C35.65599609 9.02615234 36.85740234 9.51470703 38.09521484 10.01806641 C64.88799024 19.40171125 96.33012507 12.53044815 122.20458984 3.35009766 C122.86458984 3.02009766 123.52458984 2.69009766 124.20458984 2.35009766 C130.67517808 1.99715648 130.67517808 1.99715648 134.20458984 4.35009766 C100.28486142 22.00375147 55.98747958 38.6530337 17.39208984 28.60009766 C15.31129846 27.90244914 13.24437244 27.15984652 11.20458984 26.35009766 C10.36927734 26.04974609 9.53396484 25.74939453 8.67333984 25.43994141 C-3.31524341 20.69788194 -11.98628294 12.6964355 -17.79541016 1.35009766 C-12.1834254 -0.52056393 -5.88576577 0.04372081 0 0 Z " fill="#06B24C" transform="translate(131.79541015625,260.64990234375)"/>
<path d="M0 0 C0.73734375 0.00773438 1.4746875 0.01546875 2.234375 0.0234375 C3.34039063 0.01183594 3.34039063 0.01183594 4.46875 0 C9.9810554 0.0201179 9.9810554 0.0201179 12.234375 2.2734375 C12.1394043 5.14257812 12.1394043 5.14257812 11.62109375 8.9296875 C11.52543625 9.63081665 11.42977875 10.3319458 11.33122253 11.05432129 C9.87201218 21.34258764 7.92636575 31.55579982 6.046875 41.7734375 C5.23886554 46.20015382 4.43382577 50.62740842 3.62890625 55.0546875 C3.42741974 56.16070312 3.22593323 57.26671875 3.01834106 58.40625 C1.68850023 65.72134605 0.3908113 73.04142476 -0.87890625 80.3671875 C-1.0411821 81.30268433 -1.20345795 82.23818115 -1.37065125 83.20202637 C-1.98725079 86.76174224 -2.60269827 90.32163814 -3.21224976 93.88256836 C-3.62335634 96.28413313 -4.03799284 98.68506594 -4.453125 101.0859375 C-4.63220146 102.14476135 -4.63220146 102.14476135 -4.81489563 103.22497559 C-5.65233186 108.04685122 -5.65233186 108.04685122 -6.765625 110.2734375 C-12.705625 110.2734375 -18.645625 110.2734375 -24.765625 110.2734375 C-25.85366095 105.92129371 -25.50249622 103.6906477 -24.69140625 99.32421875 C-24.50606071 98.30399124 -24.50606071 98.30399124 -24.31697083 97.26315308 C-24.05042976 95.80030014 -23.78019683 94.33811602 -23.50665283 92.8765564 C-22.77828849 88.98321504 -22.07674939 85.08500895 -21.37109375 81.1875 C-21.22953857 80.41006943 -21.0879834 79.63263885 -20.94213867 78.83164978 C-19.83341615 72.72139009 -18.83510917 66.59873145 -17.890625 60.4609375 C-16.11247921 49.1068694 -14.16669892 37.78184974 -12.18597412 26.46157837 C-11.82335885 24.3832673 -11.46352093 22.30446969 -11.10650635 20.22518921 C-10.60225676 17.29322896 -10.08764154 14.36327064 -9.5703125 11.43359375 C-9.41834412 10.5389743 -9.26637573 9.64435486 -9.10980225 8.72262573 C-8.88891937 7.49106247 -8.88891937 7.49106247 -8.66357422 6.23461914 C-8.53796112 5.51504532 -8.41234802 4.7954715 -8.28292847 4.05409241 C-6.99127593 -0.39201627 -4.04913602 0.01477787 0 0 Z " fill="#06B24C" transform="translate(1170.765625,139.7265625)"/>
<path d="M0 0 C0.99 0.495 0.99 0.495 2 1 C0.06353926 2.64706915 -1.87400714 4.29282476 -3.8125 5.9375 C-4.40200439 6.43822021 -4.99150879 6.93894043 -5.59887695 7.45483398 C-9.25139728 10.54830009 -12.94854626 13.57347968 -16.6875 16.5625 C-43.06390226 38.16748362 -63.63641786 70.7937254 -67.81591797 104.96728516 C-69.17960598 120.02572866 -64.45174323 132.82150385 -56 145 C-55.67 145.66 -55.34 146.32 -55 147 C-59.64467639 147.12359943 -64.28839626 147.21433399 -68.93432617 147.2746582 C-70.51457389 147.2998033 -72.09470529 147.33392474 -73.67456055 147.37719727 C-75.94609232 147.43785708 -78.21608744 147.46620678 -80.48828125 147.48828125 C-81.54780754 147.52699089 -81.54780754 147.52699089 -82.6287384 147.56648254 C-84.63012695 147.56762695 -84.63012695 147.56762695 -88 147 C-93.09938061 140.62900333 -92.57550803 132.78151699 -92 125 C-86.62301104 95.01176445 -71.69426071 69.7606855 -52 47 C-51.40002197 46.30503418 -50.80004395 45.61006836 -50.18188477 44.89404297 C-46.98221232 41.21009345 -43.74886332 37.59221039 -40.3125 34.125 C-39.58675781 33.38507813 -38.86101562 32.64515625 -38.11328125 31.8828125 C-36 30 -36 30 -34.078125 29.08984375 C-30.98159115 27.46590965 -28.82353407 24.94056871 -26.4375 22.4375 C-20.96280556 16.82974884 -15.18449065 11.82243021 -9 7 C-7.6696875 5.95585938 -7.6696875 5.95585938 -6.3125 4.890625 C-4.21478776 3.25178731 -2.11130017 1.62127001 0 0 Z " fill="#07B24D" transform="translate(202,111)"/>
<path d="M0 0 C0.66 0.66 1.32 1.32 2 2 C1.79296875 5.1171875 1.79296875 5.1171875 1.1875 8.875 C0.99542969 10.10992187 0.80335938 11.34484375 0.60546875 12.6171875 C0.15725494 15.12140145 -0.32887775 17.54948022 -1 20 C-2.17755859 19.94779297 -2.17755859 19.94779297 -3.37890625 19.89453125 C-9.73488294 19.73075762 -14.49653535 19.67499011 -20 23 C-28.81081683 32.52560866 -30.20171601 48.00841674 -32.25 60.375 C-32.63049046 62.61844879 -33.0143004 64.86125882 -33.40228271 67.10342407 C-33.7464246 69.09956839 -34.08101556 71.09735246 -34.41503906 73.09521484 C-35 76 -35 76 -36 77 C-37.34267413 77.08631874 -38.68974322 77.10706473 -40.03515625 77.09765625 C-40.84404297 77.09443359 -41.65292969 77.09121094 -42.48632812 77.08789062 C-43.33646484 77.07951172 -44.18660156 77.07113281 -45.0625 77.0625 C-45.91650391 77.05798828 -46.77050781 77.05347656 -47.65039062 77.04882812 C-49.76695663 77.03700373 -51.88348685 77.01906769 -54 77 C-55.33427946 73.2299253 -54.7215021 70.2382752 -54.02783203 66.35131836 C-53.9125415 65.69231033 -53.79725098 65.03330231 -53.6784668 64.35432434 C-53.29620672 62.18133618 -52.90217465 60.01066541 -52.5078125 57.83984375 C-52.23907902 56.32828742 -51.97101184 54.81661249 -51.70358276 53.30482483 C-51.14186188 50.1390668 -50.57479135 46.97433267 -50.00341797 43.81030273 C-49.27095221 39.75395296 -48.54762512 35.69604568 -47.8277607 31.63744259 C-47.14087289 27.76685611 -46.44955256 23.89706548 -45.7578125 20.02734375 C-45.56022528 18.91899327 -45.56022528 18.91899327 -45.35864639 17.78825188 C-44.9851866 15.69814973 -44.60859509 13.60863785 -44.23095703 11.51928711 C-44.01698273 10.33000107 -43.80300842 9.14071503 -43.58255005 7.91539001 C-43 5 -43 5 -42 2 C-36.72 2 -31.44 2 -26 2 C-25.13011146 6.34944269 -24.96404478 7.97128525 -26 12 C-25.34 12 -24.68 12 -24 12 C-22.7026989 10.56555549 -22.7026989 10.56555549 -21.375 8.75 C-15.92340096 2.13307144 -8.44928417 -0.46087005 0 0 Z " fill="#06B24C" transform="translate(1008,173)"/>
<path d="M0 0 C0.98742187 0.00322266 1.97484375 0.00644531 2.9921875 0.00976562 C3.94867187 -0.00634766 4.90515625 -0.02246094 5.890625 -0.0390625 C12.61366746 -0.04361741 20.78562978 0.14795121 26.14648438 4.73901367 C31.11346674 10.58278737 31.94221428 14.53775956 31.80078125 22.02539062 C31.21073648 28.32916008 28.81196886 32.34732773 24.2421875 36.63476562 C15.56819582 43.44079747 5.13193399 43.49627217 -5.4453125 43.44726562 C-6.73791992 43.45306641 -6.73791992 43.45306641 -8.05664062 43.45898438 C-14.38106132 43.44901681 -14.38106132 43.44901681 -15.5078125 42.32226562 C-15.87239092 36.38597782 -14.81815119 30.93561477 -13.6328125 25.13476562 C-13.26173262 23.27043824 -12.89193388 21.40585538 -12.5234375 19.54101562 C-12.34619141 18.64640625 -12.16894531 17.75179687 -11.98632812 16.83007812 C-11.1994587 12.70623999 -10.58287547 8.56174538 -10 4.40429688 C-8.7334368 -0.95346648 -4.52682407 0.03410621 0 0 Z " fill="#FAFCFC" transform="translate(600.5078125,184.677734375)"/>
<path d="M0 0 C10.46628122 9.04803728 16.96103921 20.07667438 18.27734375 33.96875 C18.37144531 34.89429688 18.46554687 35.81984375 18.5625 36.7734375 C18.70433225 39.28277727 18.73785766 41.49828474 18.27734375 43.96875 C16.21484375 45.65625 16.21484375 45.65625 13.27734375 46.96875 C11.41437244 48.76242041 9.67137693 50.6354513 7.92578125 52.54296875 C6.27734375 53.96875 6.27734375 53.96875 3.27734375 53.96875 C3.179375 53.03675781 3.08140625 52.10476562 2.98046875 51.14453125 C1.34204414 37.17554902 -1.41970411 25.96635755 -10.72265625 14.96875 C-11.54056641 13.96521484 -11.54056641 13.96521484 -12.375 12.94140625 C-22.42655463 1.71020707 -39.46092286 -2.21179129 -53.90722656 -3.17724609 C-66.78037615 -3.81846855 -78.74188194 -2.09118224 -91.32226562 0.51123047 C-94.77546747 1.16941805 -98.22929673 1.58285563 -101.72265625 1.96875 C-101.39265625 1.30875 -101.06265625 0.64875 -100.72265625 -0.03125 C-100.06265625 0.29875 -99.40265625 0.62875 -98.72265625 0.96875 C-98.39265625 0.30875 -98.06265625 -0.35125 -97.72265625 -1.03125 C-97.06265625 -0.70125 -96.40265625 -0.37125 -95.72265625 -0.03125 C-95.72265625 -0.69125 -95.72265625 -1.35125 -95.72265625 -2.03125 C-67.15262253 -10.97706501 -26.0240007 -19.90814964 0 0 Z " fill="#42C980" transform="translate(376.72265625,72.03125)"/>
<path d="M0 0 C5.12207006 2.43745763 8.17113819 6.99942881 10.34765625 12.1171875 C11.40518998 19.30017633 9.90536658 26.30092129 5.87109375 32.3203125 C1.24081023 38.02888122 -3.77267425 40.82396433 -10.65234375 43.1171875 C-12.27953857 43.19862605 -13.90986094 43.2247177 -15.5390625 43.21484375 C-16.47685547 43.21162109 -17.41464844 43.20839844 -18.38085938 43.20507812 C-19.84555664 43.19250977 -19.84555664 43.19250977 -21.33984375 43.1796875 C-22.82194336 43.17291992 -22.82194336 43.17291992 -24.33398438 43.16601562 C-26.77349849 43.15423053 -29.21289064 43.13777761 -31.65234375 43.1171875 C-31.25558369 32.42450379 -29.3116966 22.15587587 -27.16845703 11.69775391 C-26.80823343 9.89663589 -26.46975018 8.09109292 -26.14794922 6.28271484 C-25.98311035 5.37602051 -25.81827148 4.46932617 -25.6484375 3.53515625 C-25.50462646 2.71168701 -25.36081543 1.88821777 -25.21264648 1.03979492 C-25.02774658 0.40533447 -24.84284668 -0.22912598 -24.65234375 -0.8828125 C-17.91090778 -4.25353049 -6.95926638 -2.15235043 0 0 Z " fill="#FBFDFD" transform="translate(854.65234375,127.8828125)"/>
<path d="M0 0 C3.10636814 2.52156604 5.21920401 5.43840803 7 9 C7.72670609 20.96270019 7.74998675 31.0466847 -0.4375 40.5 C-3.98939358 44.29830244 -6.53042062 46.70044594 -11.76953125 47.3359375 C-18.41324663 47.42122268 -22.75028025 47.24445427 -28 43 C-32.42430838 35.6957173 -31.93970517 27.93492969 -30.37890625 19.73828125 C-28.09375156 11.80625541 -24.14281046 4.97449037 -16.83203125 0.74609375 C-11.41325277 -1.39264537 -5.55860214 -1.89369327 0 0 Z " fill="#FBFDFD" transform="translate(920,189)"/>
<path d="M0 0 C0.74572266 -0.00386719 1.49144531 -0.00773438 2.25976562 -0.01171875 C7.81086499 -0.00163501 7.81086499 -0.00163501 8.9375 1.125 C9.1208684 5.76790059 8.74868288 10.07173935 7.94360352 14.6394043 C7.72660294 15.88727219 7.50960236 17.13514008 7.286026 18.42082214 C7.04632204 19.76365124 6.80644466 21.10644939 6.56640625 22.44921875 C6.32170148 23.8420233 6.07748233 25.23491324 5.83372498 26.62788391 C5.32364088 29.53585243 4.80975127 32.44311144 4.29272461 35.34985352 C3.63081697 39.07122266 2.97533542 42.79368491 2.3222971 46.51661968 C1.69740812 50.07785217 1.06962094 53.63857166 0.44140625 57.19921875 C0.26270083 58.21370873 0.26270083 58.21370873 0.08038521 59.24869347 C-0.25790034 61.16566809 -0.59850405 63.08223319 -0.93920898 64.9987793 C-1.13240219 66.08797165 -1.3255954 67.177164 -1.52464294 68.29936218 C-1.96075295 70.5904708 -2.4968473 72.86238919 -3.0625 75.125 C-9.3325 75.125 -15.6025 75.125 -22.0625 75.125 C-22.0625 69.97486263 -22.05842848 66.10224165 -21.17626953 61.23486328 C-20.9825174 60.14658234 -20.78876526 59.05830139 -20.58914185 57.93704224 C-20.37667816 56.78477142 -20.16421448 55.63250061 -19.9453125 54.4453125 C-19.7280954 53.2373703 -19.5108783 52.0294281 -19.28707886 50.78488159 C-18.59371616 46.93871319 -17.89064238 43.09439118 -17.1875 39.25 C-16.72203995 36.67328834 -16.25719002 34.09646638 -15.79296875 31.51953125 C-13.5611131 19.16905321 -13.5611131 19.16905321 -12.62164307 14.1338501 C-12.25030639 12.13562017 -11.889658 10.13537303 -11.53997803 8.13323975 C-11.37451477 7.22414856 -11.20905151 6.31505737 -11.03857422 5.37841797 C-10.8976535 4.57870575 -10.75673279 3.77899353 -10.61154175 2.95504761 C-10.43035797 2.3511319 -10.24917419 1.74721619 -10.0625 1.125 C-6.88856311 -0.46196844 -3.48075795 -0.0181447 0 0 Z " fill="#06B24C" transform="translate(691.0625,175.875)"/>
<path d="M0 0 C0.75764648 0.01015137 1.51529297 0.02030273 2.29589844 0.03076172 C10.2675605 0.24817068 17.67277882 0.963083 24.3125 5.6875 C27.68931 10.7084497 26.76893187 17.66920412 26.0625 23.375 C23.65463891 29.23761832 18.66292794 32.66321384 13.0625 35.375 C4.04010537 38.1249316 -5.60605977 37.58815473 -14.9375 37.375 C-16.54699125 31.35142951 -15.10565347 25.80411365 -14.04150391 19.77246094 C-13.68779142 17.75166491 -13.35680315 15.72799914 -13.02734375 13.703125 C-12.80691406 12.42695313 -12.58648438 11.15078125 -12.359375 9.8359375 C-12.15924805 8.66853027 -11.95912109 7.50112305 -11.75292969 6.29833984 C-9.92929039 -0.23946164 -6.13755733 -0.1165359 0 0 Z " fill="#FBFDFD" transform="translate(611.9375,125.625)"/>
<path d="M0 0 C0.66 -0.33 1.32 -0.66 2 -1 C2.66 -0.67 3.32 -0.34 4 0 C4 0.66 4 1.32 4 2 C4.5775 2.103125 5.155 2.20625 5.75 2.3125 C8.43825009 3.13390975 9.97475522 4.04459125 12 6 C12.75 8.6875 12.75 8.6875 13 11 C13.66 11 14.32 11 15 11 C14.67 12.98 14.34 14.96 14 17 C14.66 17.33 15.32 17.66 16 18 C15.66666667 19.66666667 15.33333333 21.33333333 15 23 C14.9071875 24.175625 14.9071875 24.175625 14.8125 25.375 C13.24854323 30.42778341 9.55296668 33.85376269 5.375 36.9375 C-0.60593829 38.82038798 -6.7895212 39.42687947 -12.63671875 36.828125 C-17.58872877 33.65229048 -22.1157908 30.16841629 -23.75 24.3125 C-24.05290098 21.51066594 -24 18.83073167 -24 16 C-23.34 16 -22.68 16 -22 16 C-22.33 14.02 -22.66 12.04 -23 10 C-22.01 10 -21.02 10 -20 10 C-20.33 9.01 -20.66 8.02 -21 7 C-19.48892569 3.97785139 -16.77033533 2.84689022 -14 1 C-13.01 1.33 -12.02 1.66 -11 2 C-11 1.01 -11 0.02 -11 -1 C-6.52888724 -1.85982938 -3.95677641 -2.34475639 0 0 Z " fill="#21B54F" transform="translate(435,54)"/>
<path d="M0 0 C1.62937736 -0.01653039 3.25868308 -0.04378232 4.88769531 -0.08203125 C7.24891386 -0.13712156 9.60843808 -0.15872156 11.97021484 -0.17333984 C12.69025696 -0.19600922 13.41029907 -0.21867859 14.15216064 -0.24203491 C19.09241602 -0.22164445 21.81500137 0.98325256 25.62179565 4.1305542 C29.05114131 6.77286619 33.45698024 7.76377913 37.50927734 9.13916016 C38.39873047 9.53876953 39.28818359 9.93837891 40.20458984 10.35009766 C40.69958984 11.83509766 40.69958984 11.83509766 41.20458984 13.35009766 C39.55910156 14.27242188 39.55910156 14.27242188 37.88037109 15.21337891 C36.4259225 16.02974683 34.97149661 16.84615521 33.51708984 17.66259766 C32.43524414 18.2687793 32.43524414 18.2687793 31.33154297 18.88720703 C30.62578125 19.28359375 29.92001953 19.67998047 29.19287109 20.08837891 C28.50306152 20.47517822 27.81325195 20.86197754 27.10253906 21.26049805 C25.51696233 22.17076676 23.96358313 23.13682281 22.41943359 24.11572266 C19.04359183 25.99714417 15.91773838 25.93745024 12.20458984 25.35009766 C9.00437264 24.3677916 6.16486766 22.90071937 3.20458984 21.35009766 C2.07021484 20.81384766 0.93583984 20.27759766 -0.23291016 19.72509766 C-9.28807695 15.22887205 -13.60982811 10.79126016 -17.79541016 1.35009766 C-12.1834254 -0.52056393 -5.88576577 0.04372081 0 0 Z " fill="#43C981" transform="translate(131.79541015625,260.64990234375)"/>
<path d="M0 0 C24.0196222 -0.10504444 48.03714321 -0.10651203 72.0539856 0.31838989 C74.22505278 0.3561078 76.39618002 0.39051525 78.56735229 0.42160034 C81.60377312 0.46643677 84.6396634 0.5241822 87.67578125 0.5859375 C89.03188004 0.60327187 89.03188004 0.60327187 90.41537476 0.62095642 C91.65669662 0.6507534 91.65669662 0.6507534 92.9230957 0.68115234 C93.64213577 0.69447601 94.36117584 0.70779968 95.102005 0.7215271 C97 1 97 1 100 3 C81.61485464 9.368988 63.97523173 13.31557563 44.4375 13.4375 C43.29676025 13.44765137 42.15602051 13.45780273 40.98071289 13.46826172 C30.57924341 13.36092877 20.71627648 11.31817652 11 7.625 C9.96875 7.24601562 8.9375 6.86703125 7.875 6.4765625 C4.5824723 4.78556322 2.55437783 2.65059702 0 0 Z " fill="#FAFCFC" transform="translate(154,262)"/>
<path d="M0 0 C1.02633229 2.99832447 1.99550919 5.98342018 2.82421875 9.04296875 C5.020035 17.04130394 8.29021384 23.21345774 13 30 C13.495 30.99 13.495 30.99 14 32 C9.35532361 32.12359943 4.71160374 32.21433399 0.06567383 32.2746582 C-1.51457389 32.2998033 -3.09470529 32.33392474 -4.67456055 32.37719727 C-6.94609232 32.43785708 -9.21608744 32.46620678 -11.48828125 32.48828125 C-12.54780754 32.52699089 -12.54780754 32.52699089 -13.6287384 32.56648254 C-15.63012695 32.56762695 -15.63012695 32.56762695 -19 32 C-22.8696149 27.15832451 -23.15290637 22.53312981 -23.1875 16.5 C-23.20167969 15.3759375 -23.21585937 14.251875 -23.23046875 13.09375 C-23.00970218 10.13023944 -22.5460647 8.4932585 -21 6 C-20.67 6.66 -20.34 7.32 -20 8 C-19.54625 7.4225 -19.0925 6.845 -18.625 6.25 C-13.46658069 1.82849773 -6.83379516 -0.71934686 0 0 Z " fill="#45CA83" transform="translate(133,226)"/>
<path d="M0 0 C2.91691525 -0.05401695 5.83282724 -0.09368066 8.75 -0.125 C9.575 -0.14175781 10.4 -0.15851562 11.25 -0.17578125 C12.04921875 -0.18222656 12.8484375 -0.18867187 13.671875 -0.1953125 C14.4050293 -0.20578613 15.13818359 -0.21625977 15.89355469 -0.22705078 C19.60979502 0.17351754 21.63797593 1.63797593 24.25 4.25 C27.47149424 9.43519392 26.81097704 16.19257964 26 22 C24.64577246 24.92037618 23.56103884 25.91543351 21 28 C17.1361104 29.2879632 13.46322278 29.18415915 9.4375 29.1875 C8.65697266 29.19974609 7.87644531 29.21199219 7.07226562 29.22460938 C5.04679965 29.22985217 3.02177448 29.12234328 1 29 C-1 27 -1 27 -1.24291992 24.50976562 C-1.23881104 23.48560547 -1.23470215 22.46144531 -1.23046875 21.40625 C-1.22853516 20.29378906 -1.22660156 19.18132812 -1.22460938 18.03515625 C-1.21236328 16.86855469 -1.20011719 15.70195313 -1.1875 14.5 C-1.18685547 13.33339844 -1.18621094 12.16679688 -1.18554688 10.96484375 C-1.14026365 2.2805273 -1.14026365 2.2805273 0 0 Z " fill="#06B24C" transform="translate(556,57)"/>
<path d="M0 0 C3.22868746 -0.14584064 6.45652365 -0.23424106 9.6875 -0.3125 C10.59951172 -0.35439453 11.51152344 -0.39628906 12.45117188 -0.43945312 C17.12673315 -0.52446333 19.29090601 -0.52304458 23.15625 2.328125 C25 5 25 5 24.8125 8.0625 C24.544375 9.031875 24.27625 10.00125 24 11 C23.63019987 15.04622502 23.63019987 15.04622502 26 18 C26.4375 21.4375 26.4375 21.4375 26 25 C23.80268883 27.6090179 22.04870971 28.85256751 18.63647461 29.33227539 C15.8303362 29.43006003 13.0564373 29.39771571 10.25 29.3125 C9.27933594 29.30283203 8.30867187 29.29316406 7.30859375 29.28320312 C0.16836021 29.16836021 0.16836021 29.16836021 -1 28 C-1.09974389 26.09715013 -1.1308063 24.19061747 -1.1328125 22.28515625 C-1.13410156 21.12435547 -1.13539063 19.96355469 -1.13671875 18.76757812 C-1.13091797 16.93356445 -1.13091797 16.93356445 -1.125 15.0625 C-1.13080078 13.23428711 -1.13080078 13.23428711 -1.13671875 11.36914062 C-1.13542969 10.20705078 -1.13414062 9.04496094 -1.1328125 7.84765625 C-1.13168457 6.77523682 -1.13055664 5.70281738 -1.12939453 4.59790039 C-1 2 -1 2 0 0 Z " fill="#06B24C" transform="translate(588,57)"/>
<path d="M0 0 C4.83830778 -1.05563079 4.83830778 -1.05563079 8 0 C11.50021269 3.69163057 14.21668055 7.75498106 17 12 C17.33 12.33 17.66 12.66 18 13 C18.33 8.71 18.66 4.42 19 0 C22.375 -0.125 22.375 -0.125 26 0 C28 2 28 2 28.22705078 4.70556641 C28.21657715 5.82624512 28.20610352 6.94692383 28.1953125 8.1015625 C28.18886719 9.31328125 28.18242188 10.525 28.17578125 11.7734375 C28.15902344 13.04445313 28.14226563 14.31546875 28.125 15.625 C28.11597656 16.90375 28.10695313 18.1825 28.09765625 19.5 C28.07402303 22.66685167 28.04107629 25.83333424 28 29 C20.328125 29.25 20.328125 29.25 17.375 27 C14.50955761 23.38049382 11.71931188 19.73114886 9 16 C8.67 20.29 8.34 24.58 8 29 C5.66705225 29.04241723 3.33297433 29.04092937 1 29 C-1.67512068 26.32487932 -0.49529285 18.68094791 -0.625 15.0625 C-0.6765625 13.84369141 -0.728125 12.62488281 -0.78125 11.36914062 C-0.82507813 10.20705078 -0.86890625 9.04496094 -0.9140625 7.84765625 C-0.9548291 6.77523682 -0.9955957 5.70281738 -1.03759766 4.59790039 C-1 2 -1 2 0 0 Z " fill="#06B24C" transform="translate(522,57)"/>
<path d="M0 0 C3.6875 0.375 3.6875 0.375 5.75 2.375 C6.389375 3.365 7.02875 4.355 7.6875 5.375 C8.73983525 6.81995779 9.80288031 8.25716023 10.875 9.6875 C11.38417969 10.38488281 11.89335938 11.08226563 12.41796875 11.80078125 C12.83691406 12.32027344 13.25585938 12.83976562 13.6875 13.375 C14.0175 13.375 14.3475 13.375 14.6875 13.375 C14.67589844 12.60414062 14.66429687 11.83328125 14.65234375 11.0390625 C14.64332031 10.03617188 14.63429688 9.03328125 14.625 8 C14.61339844 7.00226562 14.60179687 6.00453125 14.58984375 4.9765625 C14.6875 2.375 14.6875 2.375 15.6875 0.375 C21.4375 0.25 21.4375 0.25 23.6875 1.375 C23.6875 10.615 23.6875 19.855 23.6875 29.375 C15.6875 29.375 15.6875 29.375 13.0625 27.375 C10.19705761 23.75549382 7.40681188 20.10614886 4.6875 16.375 C4.3575 20.665 4.0275 24.955 3.6875 29.375 C1.35455225 29.41741723 -0.97952567 29.41592937 -3.3125 29.375 C-5.11529191 27.57220809 -4.44286605 24.83452299 -4.4453125 22.40625 C-4.44660156 21.19582031 -4.44789063 19.98539063 -4.44921875 18.73828125 C-4.44535156 17.46339844 -4.44148437 16.18851563 -4.4375 14.875 C-4.44136719 13.60011719 -4.44523438 12.32523438 -4.44921875 11.01171875 C-4.44792969 9.80128906 -4.44664062 8.59085938 -4.4453125 7.34375 C-4.44418457 6.22419922 -4.44305664 5.10464844 -4.44189453 3.95117188 C-4.24801054 0.09105145 -3.95202573 0.44739914 0 0 Z " fill="#06B24C" transform="translate(654.3125,56.625)"/>
<path d="M0 0 C3.0625 0.1875 3.0625 0.1875 5.0625 2.1875 C5.46014263 4.17571313 5.80025349 6.17694339 6.0625 8.1875 C6.805 7.424375 7.5475 6.66125 8.3125 5.875 C9.22 4.988125 10.1275 4.10125 11.0625 3.1875 C11.660625 2.589375 12.25875 1.99125 12.875 1.375 C16.34831484 -0.51051377 19.14216103 -0.12865637 23.0625 0.1875 C23.7225 0.8475 24.3825 1.5075 25.0625 2.1875 C24.47339844 2.70699219 23.88429688 3.22648437 23.27734375 3.76171875 C22.52582031 4.45910156 21.77429688 5.15648437 21 5.875 C19.86884766 6.90173828 19.86884766 6.90173828 18.71484375 7.94921875 C16.82663444 10.04332063 16.82663444 10.04332063 17.0625 12.5703125 C18.32656234 15.87860067 20.08664833 18.48104393 22.125 21.375 C26.0625 26.98714851 26.0625 26.98714851 26.0625 29.1875 C22.68213664 29.47779838 19.43504283 29.61238729 16.0625 29.1875 C13.625 27 13.625 27 12.0625 24.1875 C11.485 23.259375 10.9075 22.33125 10.3125 21.375 C9.69375 20.2921875 9.69375 20.2921875 9.0625 19.1875 C5.93643036 20.79230784 5.93643036 20.79230784 5.55078125 23.1328125 C5.49277344 23.85210937 5.43476562 24.57140625 5.375 25.3125 C5.2203125 27.230625 5.2203125 27.230625 5.0625 29.1875 C-1.08984375 29.28515625 -1.08984375 29.28515625 -2.9375 29.1875 C-4.74029191 27.38470809 -4.06786605 24.64702299 -4.0703125 22.21875 C-4.07160156 21.00832031 -4.07289063 19.79789063 -4.07421875 18.55078125 C-4.07035156 17.27589844 -4.06648437 16.00101563 -4.0625 14.6875 C-4.06636719 13.41261719 -4.07023438 12.13773438 -4.07421875 10.82421875 C-4.07292969 9.61378906 -4.07164062 8.40335938 -4.0703125 7.15625 C-4.06918457 6.03669922 -4.06805664 4.91714844 -4.06689453 3.76367188 C-3.88234147 0.08932497 -3.7148307 0.23711685 0 0 Z " fill="#06B24C" transform="translate(687.9375,56.8125)"/>
<path d="M0 0 C1.21816406 0.03480469 1.21816406 0.03480469 2.4609375 0.0703125 C3.68683594 0.09738281 3.68683594 0.09738281 4.9375 0.125 C5.87722656 0.15980469 5.87722656 0.15980469 6.8359375 0.1953125 C8.11123503 3.33935387 9.38033079 6.48586468 10.6484375 9.6328125 C11.18307617 10.95055664 11.18307617 10.95055664 11.72851562 12.29492188 C13.97059831 17.86927423 16.01162899 23.47039615 17.8359375 29.1953125 C12.51997659 29.54970989 12.51997659 29.54970989 9.8359375 29.1953125 C9.1965625 28.5353125 8.5571875 27.8753125 7.8984375 27.1953125 C5.37009427 24.74358573 4.5090432 24.92401791 1.0859375 24.9453125 C-0.33173307 25.00933633 -1.74912699 25.08647131 -3.1640625 25.1953125 C-3.8240625 26.5153125 -4.4840625 27.8353125 -5.1640625 29.1953125 C-7.4740625 29.1953125 -9.7840625 29.1953125 -12.1640625 29.1953125 C-13.1640625 27.1953125 -13.1640625 27.1953125 -12.4831543 24.70507812 C-12.11359619 23.68091797 -11.74403809 22.65675781 -11.36328125 21.6015625 C-10.96302734 20.48910156 -10.56277344 19.37664062 -10.15039062 18.23046875 C-9.72177734 17.06386719 -9.29316406 15.89726563 -8.8515625 14.6953125 C-8.22604492 12.94541016 -8.22604492 12.94541016 -7.58789062 11.16015625 C-3.6535516 0.32974292 -3.6535516 0.32974292 0 0 Z " fill="#06B24C" transform="translate(629.1640625,56.8046875)"/>
<path d="M0 0 C1.20462891 -0.02126953 1.20462891 -0.02126953 2.43359375 -0.04296875 C4.5625 0.1875 4.5625 0.1875 6.5625 2.1875 C7.25756153 3.85973943 7.88488014 5.56054098 8.47265625 7.2734375 C8.82263672 8.28664063 9.17261719 9.29984375 9.53320312 10.34375 C9.89349609 11.4059375 10.25378906 12.468125 10.625 13.5625 C10.98916016 14.61695312 11.35332031 15.67140625 11.72851562 16.7578125 C14.64176745 25.24447585 14.64176745 25.24447585 15.5625 29.1875 C8.0965751 29.55467663 8.0965751 29.55467663 5.5625 27.8125 C4.5625 26.1875 4.5625 26.1875 4.5625 24.1875 C3.10302295 24.24756078 1.64470728 24.3363689 0.1875 24.4375 C-0.62460937 24.48390625 -1.43671875 24.5303125 -2.2734375 24.578125 C-4.62588927 24.9797092 -4.62588927 24.9797092 -5.7265625 27.234375 C-5.96117187 27.87890625 -6.19578125 28.5234375 -6.4375 29.1875 C-8.7475 29.1875 -11.0575 29.1875 -13.4375 29.1875 C-14.69833863 25.40498411 -13.95806292 24.16064268 -12.6015625 20.4609375 C-12.19679688 19.3471875 -11.79203125 18.2334375 -11.375 17.0859375 C-10.941875 15.92320313 -10.50875 14.76046875 -10.0625 13.5625 C-9.42441406 11.80679688 -9.42441406 11.80679688 -8.7734375 10.015625 C-5.11682245 0.04093458 -5.11682245 0.04093458 0 0 Z " fill="#06B24C" transform="translate(502.4375,56.8125)"/>
<path d="M0 0 C-0.3293805 7.74044183 -4.08732322 13.22602211 -9.625 18.5 C-14.33577337 21.47522528 -19.55856523 21.56357717 -25 21 C-27.96912882 19.61019502 -29.69657028 18.30342972 -32 16 C-32 10.7246889 -30.59686257 7.2826946 -27.0546875 3.51171875 C-20.75416568 -1.12383628 -7.22971737 -3.61485869 0 0 Z " fill="#FBFDFD" transform="translate(1116,216)"/>
<path d="M0 0 C3.17965206 3.35152515 4.90127628 5.69191071 5.25 10.3125 C4.88204245 15.73987385 3.02328506 17.90362315 -0.625 21.8125 C-3.89646129 24.39050939 -6.78831072 24.67918361 -10.87890625 24.41015625 C-14.29198158 23.75016931 -15.8322539 22.70968263 -18 20 C-19.38325266 15.9366953 -19.29122593 12.87367779 -17.9375 8.8125 C-13.56597232 2.46673401 -7.91567095 -2.47364717 0 0 Z " fill="#9B9FA0" transform="translate(539,229)"/>
<path d="M0 0 C3.375 -0.125 3.375 -0.125 7 0 C9.35358251 2.35358251 9.27871904 2.92968394 9.4140625 6.1328125 C9.45273437 6.93847656 9.49140625 7.74414062 9.53125 8.57421875 C9.5621875 9.41597656 9.593125 10.25773437 9.625 11.125 C9.66367187 11.97449219 9.70234375 12.82398437 9.7421875 13.69921875 C9.83656494 15.79911684 9.91937586 17.89952891 10 20 C10.92683594 20.18175781 11.85367187 20.36351563 12.80859375 20.55078125 C14.00613281 20.80214844 15.20367187 21.05351563 16.4375 21.3125 C17.63246094 21.55613281 18.82742188 21.79976562 20.05859375 22.05078125 C21.02925781 22.36402344 21.99992187 22.67726563 23 23 C23.33 23.99 23.66 24.98 24 26 C23.34 26.99 22.68 27.98 22 29 C19.87695312 29.37231445 19.87695312 29.37231445 17.28125 29.36328125 C16.34925781 29.36263672 15.41726563 29.36199219 14.45703125 29.36132812 C13.48121094 29.34521484 12.50539063 29.32910156 11.5 29.3125 C10.52417969 29.31572266 9.54835938 29.31894531 8.54296875 29.32226562 C1.26691529 29.26691529 1.26691529 29.26691529 -1 27 C-1.24291992 24.50976562 -1.24291992 24.50976562 -1.23046875 21.40625 C-1.22853516 20.29378906 -1.22660156 19.18132812 -1.22460938 18.03515625 C-1.21236328 16.86855469 -1.20011719 15.70195313 -1.1875 14.5 C-1.18685547 13.33339844 -1.18621094 12.16679688 -1.18554688 10.96484375 C-1.14026365 2.2805273 -1.14026365 2.2805273 0 0 Z " fill="#06B24C" transform="translate(463,57)"/>
<path d="M0 0 C0.68964844 -0.01224609 1.37929688 -0.02449219 2.08984375 -0.03710938 C3.89477494 -0.04238695 5.69917842 0.06565542 7.5 0.1875 C9.5 2.1875 9.5 2.1875 9.546875 4.0703125 C9.44890625 4.81023437 9.3509375 5.55015625 9.25 6.3125 C9.16234375 7.03695312 9.0746875 7.76140625 8.984375 8.5078125 C8.33165433 12.11883172 7.41649694 15.63419628 6.5 19.1875 C3.52077407 19.21433987 0.54178705 19.23426037 -2.4375 19.25 C-3.71270508 19.26256836 -3.71270508 19.26256836 -5.01367188 19.27539062 C-5.82255859 19.27861328 -6.63144531 19.28183594 -7.46484375 19.28515625 C-8.2137085 19.29039307 -8.96257324 19.29562988 -9.73413086 19.30102539 C-11.5 19.1875 -11.5 19.1875 -12.5 18.1875 C-12.37166912 12.39286698 -11.88598909 6.52088738 -9.5 1.1875 C-6.46576019 -0.3296199 -3.32495206 0.00310743 0 0 Z " fill="#06B24C" transform="translate(696.5,143.8125)"/>
<path d="M0 0 C1.10601562 -0.0309375 1.10601562 -0.0309375 2.234375 -0.0625 C4.375 -0.078125 4.375 -0.078125 8 0.25 C10 3.25 10 3.25 9.57421875 6.7890625 C9.29145582 8.1537587 8.99537546 9.51574899 8.6875 10.875 C8.4719043 11.91527344 8.4719043 11.91527344 8.25195312 12.9765625 C7.15790955 18.09209045 7.15790955 18.09209045 6 19.25 C4.65732587 19.33631874 3.31025678 19.35706473 1.96484375 19.34765625 C1.15595703 19.34443359 0.34707031 19.34121094 -0.48632812 19.33789062 C-1.33646484 19.32951172 -2.18660156 19.32113281 -3.0625 19.3125 C-3.91650391 19.30798828 -4.77050781 19.30347656 -5.65039062 19.29882812 C-7.76695663 19.28700373 -9.88348685 19.26906769 -12 19.25 C-13.63427842 15.98144316 -12.35200277 12.64832666 -11.6875 9.1875 C-11.55666016 8.44177734 -11.42582031 7.69605469 -11.29101562 6.92773438 C-10.93239098 5.02026705 -10.47318627 3.13232249 -10 1.25 C-6.83928451 -0.33035774 -3.46725496 0.02424654 0 0 Z " fill="#06B24C" transform="translate(348,143.75)"/>
<path d="M0 0 C0.86560547 0.00451172 1.73121094 0.00902344 2.62304688 0.01367188 C4.72789539 0.02530087 6.83270758 0.04322927 8.9375 0.0625 C8.9375 0.7225 8.9375 1.3825 8.9375 2.0625 C11.9075 2.0625 14.8775 2.0625 17.9375 2.0625 C17.9375 2.3925 17.9375 2.7225 17.9375 3.0625 C16.1121875 3.1553125 16.1121875 3.1553125 14.25 3.25 C10.66571471 3.65447664 10.190635 3.758738 7.75 6.6875 C4.9375 9.0625 4.9375 9.0625 2.4453125 9.16796875 C0.26080721 8.95952359 -1.92140599 8.72642313 -4.1015625 8.4765625 C-19.06618912 6.91221297 -32.99599392 8.57110757 -47.66210938 11.60498047 C-51.11531122 12.26316805 -54.56914048 12.67660563 -58.0625 13.0625 C-57.7325 12.4025 -57.4025 11.7425 -57.0625 11.0625 C-56.4025 11.3925 -55.7425 11.7225 -55.0625 12.0625 C-54.7325 11.4025 -54.4025 10.7425 -54.0625 10.0625 C-53.4025 10.3925 -52.7425 10.7225 -52.0625 11.0625 C-52.0625 10.4025 -52.0625 9.7425 -52.0625 9.0625 C-34.95204387 3.70489431 -18.02591993 -0.18179749 0 0 Z " fill="#06B24C" transform="translate(333.0625,60.9375)"/>
<path d="M0 0 C5.55548012 2.45094711 7.95659662 7.01132848 11 12 C11.13921875 11.23042969 11.2784375 10.46085937 11.421875 9.66796875 C12.10231905 6.52781139 13.06060408 4.56277318 15 2 C17.6875 0.6875 17.6875 0.6875 20 0 C20.75 2.125 20.75 2.125 21 5 C18.76206458 9.30372195 16.50647421 12.08474846 12 14 C8.63012242 13.5266629 6.15253743 12.07137938 3.3125 10.25 C2.52488281 9.76015625 1.73726563 9.2703125 0.92578125 8.765625 C-1.46641973 6.57236974 -1.86011139 5.21225689 -2 2 C-1.34 1.34 -0.68 0.68 0 0 Z " fill="#FCC54D" transform="translate(421,67)"/>
<path d="M0 0 C2.875 -0.1875 2.875 -0.1875 6 0 C8.16721782 3.25082673 8.27221018 4.29232153 8.25 8.0625 C8.25515625 8.94035156 8.2603125 9.81820312 8.265625 10.72265625 C8 13 8 13 6 15 C3.4375 15.1875 3.4375 15.1875 1 15 C-0.79849929 13.20150071 -0.42218132 10.49922152 -0.625 8.0625 C-0.72039063 6.98097656 -0.81578125 5.89945312 -0.9140625 4.78515625 C-1 2 -1 2 0 0 Z " fill="#FBFDFD" transform="translate(565,64)"/>
<path d="M0 0 C3.55389242 3.70840948 3.76365909 7.03684082 4 12 C3.01 13.485 3.01 13.485 2 15 C-0.375 14.375 -0.375 14.375 -3 13 C-4.5625 10.25 -4.5625 10.25 -5 7 C-3.53215528 4.31738723 -2.1638224 2.1638224 0 0 Z " fill="#FCC54D" transform="translate(431,57)"/>
<path d="M0 0 C4.12486838 -0.08676908 8.24950384 -0.14031295 12.375 -0.1875 C13.550625 -0.21263672 14.72625 -0.23777344 15.9375 -0.26367188 C17.61972656 -0.27817383 17.61972656 -0.27817383 19.3359375 -0.29296875 C20.37282715 -0.3086792 21.4097168 -0.32438965 22.47802734 -0.34057617 C23.31027832 -0.22818604 24.1425293 -0.1157959 25 0 C25.66 0.99 26.32 1.98 27 3 C18.09 3 9.18 3 0 3 C0 2.01 0 1.02 0 0 Z " fill="#D7E8BD" transform="translate(29,258)"/>
<path d="M0 0 C3.375 -0.125 3.375 -0.125 7 0 C9 2 9 2 9 5 C5.625 5.625 5.625 5.625 2 6 C1.34 5.34 0.68 4.68 0 4 C0 2.68 0 1.36 0 0 Z " fill="#FBFDFD" transform="translate(596,74)"/>
<path d="M0 0 C-3.84722622 3.48654876 -7.90194018 5.91552207 -13 7 C-15.24609375 6.57421875 -15.24609375 6.57421875 -17 6 C-16.34 6 -15.68 6 -15 6 C-15 5.34 -15 4.68 -15 4 C-9.77228537 0.95842058 -6.07328688 -0.50610724 0 0 Z " fill="#06B24C" transform="translate(287,252)"/>
<path d="M0 0 C1.65 0 3.3 0 5 0 C5.66 1.32 6.32 2.64 7 4 C6 5 6 5 2.9375 5.0625 C1.968125 5.041875 0.99875 5.02125 0 5 C-0.33 4.01 -0.66 3.02 -1 2 C-0.67 1.34 -0.34 0.68 0 0 Z " fill="#FBFDFD" transform="translate(597,63)"/>
<path d="M0 0 C4.07690223 0.52835511 6.25617734 1.64675717 9.3125 4.375 C10.00988281 4.98085937 10.70726562 5.58671875 11.42578125 6.2109375 C13 8 13 8 13 11 C12.48050781 10.54109375 11.96101563 10.0821875 11.42578125 9.609375 C7.68287834 6.31617392 3.93021199 3.07047811 0 0 Z " fill="#1EBB61" transform="translate(370,70)"/>
<path d="M0 0 C3 2 3 2 3.6875 5.125 C3.790625 6.07375 3.89375 7.0225 4 8 C2.68 8.33 1.36 8.66 0 9 C-0.84454356 5.62182575 -1.10844919 3.32534757 0 0 Z " fill="#FBFDFD" transform="translate(630,66)"/>
<path d="M0 0 C0.66 0.33 1.32 0.66 2 1 C2.40729228 3.32156597 2.74438677 5.6568787 3 8 C1.35 7.67 -0.3 7.34 -2 7 C-1.34 4.69 -0.68 2.38 0 0 Z " fill="#FBFDFD" transform="translate(502,66)"/>
</svg>
