<?xml version="1.0" encoding="UTF-8"?>
<!-- Generator: visioncortex VTracer 0.6.2 -->
<svg version="1.1" xmlns="http://www.w3.org/2000/svg" width="1280" height="1168">
<path d="M0 0 C5.48551291 0.00585229 10.97099523 -0.00577066 16.45649959 -0.01506168 C26.05299423 -0.02892426 35.64944174 -0.03172209 45.24594457 -0.0271023 C58.84760132 -0.02057151 72.44921184 -0.02927915 86.05086261 -0.04216049 C112.95471568 -0.06760637 139.85854865 -0.07365073 166.76241212 -0.07174934 C170.47433438 -0.07148969 174.18625663 -0.07125102 177.89817889 -0.07103426 C179.00424656 -0.0709682 179.00424656 -0.0709682 180.13265904 -0.07090081 C196.50466449 -0.07003584 212.87666683 -0.07483605 229.24867106 -0.08071617 C232.99174795 -0.08205716 236.73482485 -0.08335708 240.47790175 -0.08466182 C241.98026257 -0.08518635 243.4826234 -0.08571094 244.98498422 -0.08623559 C245.72970201 -0.08649537 246.47441979 -0.08675515 247.24170479 -0.0870228 C248.74812595 -0.08754899 250.25454711 -0.08807667 251.76096827 -0.08860582 C294.48207492 -0.10359393 337.20317909 -0.11237586 379.92428834 -0.10764963 C380.71466631 -0.10756377 381.50504428 -0.1074779 382.3193731 -0.10738944 C391.13204721 -0.10643012 399.94472131 -0.10539191 408.7573954 -0.10433055 C411.16921333 -0.10404103 413.58103125 -0.10375155 415.99284917 -0.10346214 C417.6020546 -0.10326814 419.21126003 -0.10307264 420.82046545 -0.10287565 C471.69677455 -0.09666108 522.57303605 -0.11151701 573.44933469 -0.1441868 C586.26835803 -0.15241074 599.0873814 -0.16056101 611.90640504 -0.16828806 C612.69583499 -0.16876426 613.48526493 -0.16924045 614.298617 -0.16973108 C638.64878764 -0.18432865 662.99895434 -0.19276412 687.34912927 -0.19485361 C688.11417628 -0.19491993 688.87922329 -0.19498625 689.66745354 -0.19505457 C706.46601966 -0.19644895 723.26458549 -0.19633702 740.06315158 -0.19484448 C746.07465132 -0.19432242 752.08615106 -0.19390524 758.0976508 -0.19353631 C759.59301958 -0.19344309 761.08838836 -0.19334395 762.58375715 -0.19323887 C786.35810304 -0.19161737 810.13241336 -0.20440131 833.90675003 -0.22439665 C857.86562876 -0.24442882 881.82445462 -0.24805386 905.78333629 -0.2297709 C920.63155685 -0.21844042 935.47961146 -0.22021705 950.32781745 -0.24477195 C959.81726342 -0.25906876 969.30659011 -0.25495974 978.79602816 -0.23632618 C984.19104317 -0.22623679 989.58574384 -0.22367868 994.98073848 -0.24364687 C1058.0123071 -0.46060602 1058.0123071 -0.46060602 1082.50914914 14.71030539 C1083.14320676 15.09927999 1083.77726438 15.4882546 1084.43053586 15.88901632 C1107.76118901 30.4551188 1125.33929634 52.39167592 1131.88414914 79.39780539 C1132.35411179 82.40556633 1132.63520733 85.36071524 1132.88414914 88.39780539 C1133.21414914 89.05780539 1133.54414914 89.71780539 1133.88414914 90.39780539 C1133.97956514 92.25306438 1134.00937677 94.11181755 1134.00949831 95.96952855 C1134.01325359 97.76151684 1134.01325359 97.76151684 1134.01708473 99.58970692 C1134.0148075 100.93006061 1134.01243929 102.27041415 1134.00999029 103.61076754 C1134.01103242 105.02939588 1134.01251292 106.44802396 1134.01439465 107.86665144 C1134.01831672 111.79707871 1134.01594397 115.72748167 1134.0126167 119.65790857 C1134.01009362 123.92390742 1134.0133347 128.18990236 1134.01586003 132.45590066 C1134.01948436 139.94668431 1134.01935439 147.43746077 1134.01681287 154.92824476 C1134.01304187 166.07367118 1134.01495882 177.21909149 1134.01802118 188.36451786 C1134.02330425 208.30178942 1134.02282211 228.23905779 1134.01994227 248.17632965 C1134.01742368 265.70209323 1134.01677129 283.22785564 1134.01796491 300.75361937 C1134.01804129 301.91760485 1134.01811768 303.08159033 1134.01819638 304.2808481 C1134.01850778 309.00758426 1134.01882619 313.73432042 1134.01915614 318.46105658 C1134.02222203 362.91576813 1134.01943536 407.37047765 1134.01405925 451.82518888 C1134.0093519 491.0454404 1134.00970435 530.26568867 1134.01452024 569.48594015 C1134.0199279 613.67222609 1134.02196579 657.85851023 1134.01890797 702.04479646 C1134.01858738 706.80153788 1134.01827453 711.55827931 1134.01796491 716.31502073 C1134.01788583 717.48599237 1134.01780676 718.65696401 1134.01772528 719.86341963 C1134.01667873 736.12369449 1134.01756875 752.38396815 1134.019955 768.64424284 C1134.02805062 825.12502712 1134.00975093 881.60565662 1133.8948452 938.08634054 C1133.88769479 941.6037443 1133.88085541 945.12114842 1133.87432284 948.63855337 C1133.83894794 967.6340008 1133.79183447 986.62925461 1133.68943838 1005.62447476 C1133.68184222 1007.03446681 1133.67425118 1008.44445889 1133.66666539 1009.85445099 C1133.66295026 1010.54245712 1133.65923513 1011.23046325 1133.65540742 1011.93931804 C1133.63095028 1016.633862 1133.61631851 1021.32834742 1133.60584242 1026.02294403 C1133.59169636 1032.12415783 1133.55883682 1038.22497325 1133.51066516 1044.32601086 C1133.49650383 1046.48876109 1133.48865077 1048.65156522 1133.48820678 1050.81436176 C1133.46902727 1082.9024524 1124.70587885 1108.39749507 1101.86461789 1131.59311789 C1097.25661338 1136.05051413 1092.1763387 1139.78603809 1086.88414914 1143.39780539 C1085.90961789 1144.11516867 1085.90961789 1144.11516867 1084.91539914 1144.84702414 C1078.31288823 1149.43692756 1070.42593795 1151.78786905 1062.88414914 1154.39780539 C1061.93668821 1154.73167257 1060.98922727 1155.06553976 1060.01305539 1155.40952414 C1050.27663835 1158.60306893 1040.16749061 1158.54624399 1030.01148183 1158.52364653 C1028.86051617 1158.52509988 1027.70955051 1158.52655323 1026.5237071 1158.52805062 C1023.34410197 1158.53105886 1020.16453559 1158.52962522 1016.98493199 1158.52627254 C1013.51321426 1158.52372379 1010.04150102 1158.52700454 1006.56978394 1158.52952056 C1000.47794925 1158.53313268 994.38612344 1158.53302897 988.29428835 1158.5304777 C979.20442211 1158.52668105 970.11456322 1158.52860277 961.02469701 1158.53161783 C944.67346533 1158.5368475 928.32223755 1158.53631316 911.97100551 1158.53346605 C897.47498834 1158.53096803 882.97897283 1158.53057574 868.48295553 1158.53212469 C867.02903497 1158.53227585 867.02903497 1158.53227585 865.54574228 1158.53243007 C861.60402144 1158.53284158 857.6623006 1158.53326035 853.72057975 1158.53369066 C813.07101621 1158.53807392 772.42145556 1158.53468379 731.77189244 1158.52837043 C727.44167244 1158.52770094 723.11145243 1158.52703626 718.78123243 1158.52637594 C717.17101937 1158.52612957 717.17101937 1158.52612957 715.52827676 1158.52587823 C692.86247124 1158.52245356 670.19666578 1158.52127159 647.53086004 1158.52038201 C542.84774196 1158.51621623 438.16461545 1158.50134394 27.44664914 1157.89780539 C26.31346576 1157.89484382 25.18028238 1157.89188226 24.01276011 1157.88883095 C-31.36350149 1157.7439097 -86.73971045 1157.58348826 -142.11585086 1157.39780539 C-143.37822816 1154.87305077 -143.2144149 1153.08580073 -143.17835086 1150.27280539 C-143.16932742 1149.36272726 -143.16030398 1148.45264914 -143.15100711 1147.51499289 C-143.13360476 1146.46698507 -143.13360476 1146.46698507 -143.11585086 1145.39780539 C-143.44585086 1145.39780539 -143.77585086 1145.39780539 -144.11585086 1145.39780539 C-144.13553731 1042.54198426 -144.13891117 939.68620672 -144.03992312 836.83042257 C-144.03893252 835.79930561 -144.03794191 834.76818865 -144.03692129 833.70582572 C-144.00803339 803.70786738 -143.97613834 773.70991243 -143.94322231 743.71195828 C-143.93457822 735.8301656 -143.92602411 727.94837282 -143.91752355 720.06657999 C-143.91629891 718.93110213 -143.91507427 717.79562428 -143.91381252 716.625738 C-143.91258394 715.48655333 -143.91135537 714.34736866 -143.91008956 713.17366324 C-143.86665273 672.89766679 -143.82256186 632.6216711 -143.7765116 592.34567755 C-143.7737678 589.94414776 -143.77102432 587.54261798 -143.76828115 585.1410882 C-143.76692178 583.95102709 -143.7655624 582.76096598 -143.76416184 581.53484242 C-143.75728329 575.51211263 -143.75040859 569.48938284 -143.7435364 563.46665304 C-143.74217232 562.27184341 -143.74080824 561.07703377 -143.73940282 559.84601779 C-143.69459031 520.57103594 -143.65369189 481.29605123 -143.61486673 442.02106305 C-143.57333595 400.02516382 -143.52820029 358.02926995 -143.47897231 316.03337901 C-143.47360404 311.44185451 -143.46825125 306.85032998 -143.46291011 302.25880545 C-143.46159438 301.12908396 -143.46027865 299.99936248 -143.45892305 298.83540701 C-143.43791141 280.71960397 -143.42020369 262.60379917 -143.40372555 244.4879915 C-143.38721589 226.42419295 -143.36708472 208.36040134 -143.34318244 190.29661103 C-143.32911354 179.58294024 -143.31783082 168.86927485 -143.31048648 158.15559729 C-143.30532107 151.01642657 -143.2965805 143.87726617 -143.28486312 136.73810321 C-143.27828533 132.66748237 -143.27331599 128.59687639 -143.27268886 124.52624991 C-143.27208897 120.83052627 -143.26696687 117.13483847 -143.25813023 113.4391256 C-143.25462744 111.47443622 -143.25604052 109.50973998 -143.25761505 107.54504811 C-143.25209398 105.80755106 -143.25209398 105.80755106 -143.24646138 104.03495305 C-143.24536952 103.03517288 -143.24427765 102.03539271 -143.2431527 101.00531618 C-143.12736933 98.63373715 -142.73238841 96.67630797 -142.11585086 94.39780539 C-142.0395462 92.14823124 -141.97905497 89.89810211 -141.92835086 87.64780539 C-140.81679024 65.40566862 -125.87834111 43.26573084 -110.24475711 28.31186789 C-78.79963836 0.04010975 -39.87259187 -0.06680428 0 0 Z " fill="#0008CA" transform="translate(144.11585085559636,2.6021946147084236)"/>
<path d="M0 0 C4.29007373 0.04988146 8.5801178 0.09641859 12.87031555 0.13433456 C68.61904841 0.63265843 120.45136785 7.35243429 170.85005188 32.33062363 C173.23977972 33.50862916 175.63814744 34.66194932 178.04780579 35.79839706 C184.97332071 39.11484083 190.77702924 42.79281234 196.65327454 47.71245956 C198.02205478 48.74161764 199.39695448 49.76269448 200.77827454 50.77495956 C205.93609099 54.64587528 210.72761261 58.523078 214.90327454 63.46245956 C217.72062279 66.79147869 220.7526819 69.64627021 224.02827454 72.52495956 C229.56376771 77.48651348 234.15917984 82.80413927 238.65327454 88.71245956 C239.43186829 89.70245956 240.21046204 90.69245956 241.01264954 91.71245956 C264.30596086 122.09707197 277.58344395 164.97495278 278.12983704 203.07964706 C278.15901466 204.79190475 278.15901466 204.79190475 278.18878174 206.53875351 C278.5525958 233.45712043 277.55784311 258.72222287 270.21961975 284.70495224 C269.67194399 286.64628249 269.1439414 288.59312959 268.61665344 290.54009628 C261.73340396 315.41798341 249.44702628 337.41981366 233.65327454 357.71245956 C232.93784485 358.66894394 232.22241516 359.62542831 231.48530579 360.61089706 C222.10823839 372.86875423 210.34827646 383.07464028 198.28999329 392.60308456 C196.48249346 394.04908442 194.69415639 395.5192714 192.92280579 397.00933456 C187.10107213 401.90320376 181.25998195 405.96764384 174.65327454 409.71245956 C173.84503235 410.21906113 173.03679016 410.72566269 172.20405579 411.24761581 C158.60391732 419.64594949 143.522724 425.93080742 128.65327454 431.71245956 C131.88855348 435.43010974 135.53538331 435.62614544 140.21577454 436.27495956 C141.8500764 436.52242381 143.4841933 436.77111278 145.11811829 437.02105331 C145.90299622 437.13819687 146.68787415 437.25534042 147.49653625 437.37603378 C150.79664227 437.89081147 154.05521476 438.57035456 157.31733704 439.28277206 C165.52969008 440.79340557 173.83262077 441.14344466 182.15327454 441.64995956 C191.42349428 442.2301489 200.60442721 442.97648019 209.8092804 444.2439537 C225.86065855 446.20029506 242.22080669 446.10794852 258.37590218 446.26077366 C262.12295868 446.29692873 265.86791123 446.35092338 269.6139679 446.44634628 C273.29839867 446.53975871 276.98095861 446.58789226 280.66650581 446.60529327 C282.05041643 446.61923097 283.43427447 446.64850902 284.81748772 446.69459534 C294.22799415 446.99360864 299.44577411 445.48146571 306.39779663 439.02138901 C307.14210434 438.25944229 307.88641205 437.49749557 308.65327454 436.71245956 C309.34799362 436.02721207 310.04271271 435.34196457 310.75848389 434.635952 C329.43698726 415.64343862 324.80637902 384.84760501 324.79865825 360.46603763 C324.7984519 356.39032274 324.80399487 352.31461466 324.80871582 348.23890305 C324.81697083 340.27867771 324.81976825 332.31845979 324.8203282 324.35823052 C324.82080553 317.88330921 324.82287103 311.40839032 324.82602882 304.93346977 C324.83481896 286.53252194 324.83945042 268.13157992 324.83869835 249.73062997 C324.83865839 248.74164302 324.83861844 247.75265606 324.83857727 246.7336998 C324.83853639 245.74349154 324.83849551 244.75328328 324.83845339 243.73306871 C324.83804671 227.67636936 324.84762619 211.61969343 324.86171564 195.56300085 C324.87610431 179.03365586 324.88298455 162.50432228 324.88212186 145.97497088 C324.8817909 136.71181246 324.884494 127.44867864 324.89529991 118.18552589 C324.90443747 110.30290487 324.90655331 102.42031963 324.89979049 94.53769558 C324.89654252 90.52338616 324.89640583 86.50914528 324.90514374 82.49484253 C325.74558319 44.2636949 325.74558319 44.2636949 308.34077454 11.34917831 C305.04036476 8.14808643 301.35982797 5.42236196 297.65327454 2.71245956 C297.98327454 2.05245956 298.31327454 1.39245956 298.65327454 0.71245956 C313.08858272 0.55512999 327.52396582 0.40733927 341.95947361 0.26949596 C348.66938867 0.20522471 355.37924748 0.13816265 362.08906555 0.0642662 C389.01840884 -0.23017326 415.94584997 -0.4485482 442.87530327 -0.05299568 C445.14515179 -0.02010518 447.41506055 0.00893345 449.68501472 0.03347206 C488.80591697 0.48669075 538.29908446 4.66918519 568.65327454 32.71245956 C569.7476886 33.68892441 569.7476886 33.68892441 570.86421204 34.68511581 C584.48854273 47.49570662 594.30003057 65.29852501 597.65327454 83.71245956 C597.88014954 84.84683456 598.10702454 85.98120956 598.34077454 87.14995956 C600.06354379 106.789529 597.70067659 130.34041442 585.51655579 146.55620956 C583.3155776 149.04527389 581.01207236 151.37358402 578.65327454 153.71245956 C577.18848171 155.39435562 575.73018403 157.08192939 574.27827454 158.77495956 C563.16036357 171.08959011 549.18324266 179.11252393 534.65327454 186.71245956 C536.87223979 188.93142482 537.90484491 189.2130975 540.87983704 189.97417831 C542.16845642 190.31618271 542.16845642 190.31618271 543.48310852 190.66509628 C544.40551331 190.90760117 545.32791809 191.15010605 546.27827454 191.39995956 C565.22248365 196.61627053 582.68887435 204.78631389 597.65327454 217.71245956 C598.44218079 218.36859238 599.23108704 219.02472519 600.04389954 219.70074081 C604.19843154 223.20885088 604.19843154 223.20885088 605.65327454 224.71245956 C605.65327454 225.37245956 605.65327454 226.03245956 605.65327454 226.71245956 C606.55046204 227.11464706 606.55046204 227.11464706 607.46577454 227.52495956 C609.65175307 228.71163363 611.06660047 229.80845069 612.65327454 231.71245956 C612.65327454 232.37245956 612.65327454 233.03245956 612.65327454 233.71245956 C613.64327454 234.04245956 614.63327454 234.37245956 615.65327454 234.71245956 C615.65327454 235.37245956 615.65327454 236.03245956 615.65327454 236.71245956 C616.64327454 237.04245956 617.63327454 237.37245956 618.65327454 237.71245956 C619.90840149 239.2402916 619.90840149 239.2402916 621.14155579 241.22027206 C621.59780334 241.95173447 622.0540509 242.68319687 622.52412415 243.4368248 C623.23774109 244.62513901 623.23774109 244.62513901 623.96577454 245.83745956 C624.45634338 246.65351669 624.94691223 247.46957382 625.4523468 248.31035995 C629.69342623 255.5234957 633.16025384 262.69671959 635.65327454 270.71245956 C635.96434143 271.67683945 635.96434143 271.67683945 636.2816925 272.66070175 C639.73453844 283.91179342 640.04290765 295.28595028 640.09077454 306.96245956 C640.09703857 307.67930923 640.10330261 308.39615891 640.10975647 309.13473129 C640.27480292 339.02908959 629.42709679 368.04833064 608.65327454 389.71245956 C608.1183136 390.28158066 607.58335266 390.85070175 607.03218079 391.43706894 C594.70889816 404.48608761 581.37174595 415.05011945 565.65327454 423.71245956 C565.02195618 424.06437363 564.39063782 424.41628769 563.7401886 424.77886581 C542.40230412 436.52608104 516.99811401 443.32880164 492.65327454 443.71245956 C492.65327454 444.37245956 492.65327454 445.03245956 492.65327454 445.71245956 C494.4283136 445.58677597 494.4283136 445.58677597 496.23921204 445.45855331 C510.93964542 444.48547866 510.93964542 444.48547866 517.92939758 445.44536972 C524.13237142 446.05360252 530.42441093 445.76456256 536.65327454 445.71245956 C537.5253656 445.70517838 538.39745667 445.69789719 539.29597473 445.69039536 C545.16356451 445.63606582 551.03023252 445.55257561 556.89717102 445.45000839 C558.93745629 445.4167314 560.97783423 445.38870816 563.01826477 445.36602402 C574.30067034 445.23823711 585.27014261 444.82780804 596.38369751 442.75559616 C602.60108469 441.60033557 608.49003486 441.53586185 614.80049133 441.67437363 C618.569012 441.7116266 622.22981852 441.49559732 625.98530579 441.19683456 C631.9485614 440.76991807 637.83441573 440.69575774 643.80952454 440.86089706 C644.57642105 440.87824905 645.34331757 440.89560104 646.13345337 440.91347885 C649.27266198 440.98466253 652.41034656 441.05700921 655.54780579 441.1856041 C666.15657145 441.92434636 666.15657145 441.92434636 675.44624329 437.60699081 C677.19720823 435.7164162 677.19720823 435.7164162 678.65327454 433.71245956 C679.33994202 432.87327988 679.33994202 432.87327988 680.04048157 432.01714706 C681.28787682 430.40110412 682.38859821 428.75845502 683.46577454 427.02495956 C684.03739319 426.10626083 684.03739319 426.10626083 684.62055969 425.16900253 C696.47952331 405.28370252 694.1072285 376.56920301 694.06010759 354.18437922 C694.05529649 350.31715222 694.06795442 346.44997114 694.078125 342.58275986 C694.09516563 335.04108988 694.09618405 327.49950374 694.0909121 319.95781954 C694.08684146 313.81731172 694.08834792 307.67682833 694.09366035 301.53632164 C694.09440878 300.65647796 694.0951572 299.77663428 694.0959283 298.87012867 C694.09746005 297.08172322 694.0989984 295.29331779 694.10054327 293.50491235 C694.11421492 276.80079467 694.1088683 260.09672405 694.09735806 243.39260749 C694.08743071 228.17395714 694.10036728 212.95542847 694.12429225 197.73679688 C694.14878459 182.03663183 694.1582664 166.33652322 694.15163952 150.63633949 C694.14816977 141.85135565 694.15022918 133.06646523 694.16789055 124.28149605 C694.18274016 116.80366907 694.18308394 109.32600131 694.16581964 101.84817704 C694.15741078 98.04719059 694.15490543 94.24648695 694.17047119 90.44551659 C695.08095184 49.64432053 695.08095184 49.64432053 678.65327454 13.71245956 C674.5812654 9.67139274 670.43102032 5.89762342 665.65327454 2.71245956 C665.65327454 2.05245956 665.65327454 1.39245956 665.65327454 0.71245956 C669.94999179 -0.49436322 674.13981772 -0.42749063 678.57173157 -0.41693497 C679.93266339 -0.41951671 679.93266339 -0.41951671 681.32108879 -0.42215061 C684.35110616 -0.42650007 687.38106888 -0.42352913 690.41108704 -0.42035294 C692.55887369 -0.42149557 694.7066602 -0.42297242 696.85444641 -0.42476273 C702.631468 -0.42778328 708.40846055 -0.42352986 714.18547821 -0.41671753 C717.77140274 -0.41254843 721.35732669 -0.40958522 724.94325256 -0.40683365 C754.7899055 -0.38089023 784.63722358 -0.31967984 814.48233795 0.00204849 C816.74863366 0.02466378 819.01491448 0.04227645 821.28126526 0.05834579 C843.77946847 0.22599442 865.97166579 1.19288096 887.65327454 7.71245956 C888.53563782 7.97123886 889.4180011 8.23001816 890.32710266 8.49663925 C909.79038938 14.288505 927.58222661 22.1861038 943.65327454 34.71245956 C946.21167872 36.45261871 948.78049212 38.17420493 951.36421204 39.87652206 C954.22401957 42.17022435 956.40791726 44.84244116 958.65327454 47.71245956 C959.29522766 48.51151718 959.29522766 48.51151718 959.95014954 49.32671738 C979.54948508 73.97128247 986.03954644 103.16261133 983.43501282 134.32378769 C982.28959414 144.36482169 979.81779266 153.47989944 975.65327454 162.71245956 C975.34116028 163.43578476 975.02904602 164.15910995 974.70747375 164.9043541 C969.89154807 176.04075287 964.61570126 185.52118588 956.65327454 194.71245956 C955.47184875 196.08337753 955.47184875 196.08337753 954.26655579 197.48199081 C952.10214396 199.93303103 949.89209446 202.3294732 947.65327454 204.71245956 C947.11702454 205.31316269 946.58077454 205.91386581 946.02827454 206.53277206 C922.92889732 231.36460257 883.79608142 244.17360183 850.77876282 245.91704941 C846.83970739 246.01452384 842.90558841 246.04560774 838.96577454 246.02495956 C838.27449463 246.02380142 837.58321472 246.02264328 836.87098694 246.02145004 C805.00376634 245.91642754 805.00376634 245.91642754 792.65327454 239.71245956 C791.99327454 238.72245956 791.33327454 237.73245956 790.65327454 236.71245956 C791.33389954 236.60288925 792.01452454 236.49331894 792.71577454 236.38042831 C794.81606229 236.03689721 796.91487741 235.68431349 799.01264954 235.32574081 C801.39421356 234.9245546 803.77972779 234.54599481 806.16889954 234.19292831 C824.28295187 231.25602652 841.96932355 225.27815431 857.65327454 215.71245956 C858.65874329 215.1336705 859.66421204 214.55488144 860.70014954 213.95855331 C875.1307651 205.12075569 886.20976667 192.21513684 894.65327454 177.71245956 C895.54466125 176.20425644 895.54466125 176.20425644 896.45405579 174.66558456 C903.72612646 161.31240268 905.39507712 147.31226371 905.21577454 132.39995956 C905.21151459 131.63787186 905.20725464 130.87578415 905.2028656 130.09060287 C905.06918401 112.86776953 902.72223357 98.15139187 892.65327454 83.71245956 C891.92817688 82.61224472 891.92817688 82.61224472 891.18843079 81.48980331 C878.98448723 63.94452158 857.90736734 55.66966677 837.65327454 51.71245956 C831.8756603 50.87049374 826.25729686 50.54089174 820.42280579 50.50933456 C819.55754272 50.50241089 818.69227966 50.49548721 817.80079651 50.48835373 C815.02240944 50.47115265 812.24421233 50.46476771 809.46577454 50.46245956 C808.05339005 50.46045044 808.05339005 50.46045044 806.61247253 50.45840073 C795.93079567 50.46170856 785.30915469 50.48346242 774.71577454 52.02495956 C773.90277893 52.14258652 773.08978333 52.26021347 772.25215149 52.38140488 C768.45485882 53.0438662 765.97113982 53.56368442 763.65327454 56.71245956 C763.2020932 59.24181793 763.2020932 59.24181793 763.27575111 62.14544106 C763.26792787 63.28101727 763.26010463 64.41659349 763.25204432 65.58658111 C763.26208257 67.46633311 763.26208257 67.46633311 763.27232361 69.38405991 C763.26886865 70.72462093 763.26410518 72.06517911 763.25814188 73.40573132 C763.24557693 77.09820341 763.25182734 80.79044396 763.26110053 84.48291707 C763.2678695 88.46286951 763.25741971 92.44278124 763.24916077 96.42272568 C763.23579156 104.22795802 763.23871723 112.03310401 763.24739869 119.83833979 C763.25417105 126.19059393 763.25509386 132.54282385 763.25182724 138.89508057 C763.25136754 139.7989294 763.25090784 140.70277824 763.25043421 141.63401643 C763.24947501 143.47034748 763.24850237 145.30667852 763.24751644 147.14300956 C763.23895097 164.38622111 763.24881023 181.62938493 763.26491754 198.87258865 C763.27828093 213.63385225 763.27602784 228.39504495 763.26216125 243.15630722 C763.24605517 260.30948431 763.23981805 277.46261928 763.24899805 294.61580288 C763.24995362 296.45092018 763.25089674 298.28603748 763.25182724 300.12115479 C763.25252148 301.47533716 763.25252148 301.47533716 763.25322974 302.85687675 C763.25580766 309.18444868 763.25147377 315.5119937 763.24438858 321.83956146 C763.23591558 329.57679535 763.23837244 337.31393811 763.25423081 345.05116175 C763.2620427 348.99095347 763.26532902 352.93059408 763.25528336 356.87038422 C763.17165732 376.80894821 763.17165732 376.80894821 764.93925476 396.65047836 C765.04865407 397.44916143 765.15805337 398.2478445 765.27076781 399.07073009 C767.16168356 410.73251039 772.24672527 420.56973923 780.65327454 428.71245956 C780.65327454 429.37245956 780.65327454 430.03245956 780.65327454 430.71245956 C781.31327454 430.71245956 781.97327454 430.71245956 782.65327454 430.71245956 C782.71514954 429.81527206 782.71514954 429.81527206 782.77827454 428.89995956 C783.65327454 426.71245956 783.65327454 426.71245956 786.15327454 425.14995956 C793.90313385 421.96698163 801.13934385 420.16760761 809.46577454 419.21245956 C816.35948197 418.35038979 822.98580028 417.31293955 829.69233704 415.45855331 C833.37700954 414.53009362 837.09595946 413.90105898 840.84077454 413.27495956 C846.8423558 412.25710004 852.78561332 411.08874047 858.71577454 409.71245956 C859.39341858 409.55849716 860.07106262 409.40453476 860.76924133 409.24590683 C864.21215233 408.42770117 867.46695903 407.43996342 870.76264954 406.14605331 C874.11925384 404.84331957 877.24887964 404.18851538 880.84077454 403.77495956 C885.20807727 403.16949259 889.16879939 402.31707069 893.34077454 400.89995956 C898.80458832 399.08531111 904.20142969 398.05962332 909.87666321 397.10357285 C920.60336871 395.27896278 929.70675389 392.84608147 939.36347961 387.80620956 C944.53400627 385.12674636 948.95313115 383.85551349 954.77827454 383.21636581 C960.12719508 382.27885121 964.89336527 379.77391559 969.80171204 377.52691269 C972.34079583 376.41003722 974.9271144 375.43680389 977.51997375 374.45293808 C982.46905094 372.56955651 987.03172952 370.6750737 991.34077454 367.52495956 C994.64480383 365.12707263 997.3447694 364.1629501 1001.34077454 363.33745956 C1007.0741173 362.1177548 1011.61012227 359.69423714 1016.56196594 356.69439316 C1020.74288844 354.17325143 1024.85413523 352.26468019 1029.46968079 350.69683456 C1031.78404314 349.76405243 1031.78404314 349.76405243 1033.91499329 347.88824081 C1037.35752928 345.15287342 1041.03410418 343.21529086 1044.90327454 341.14995956 C1052.19687088 337.19197295 1059.19190243 332.91615292 1066.08198547 328.29229355 C1072.75557426 323.84840136 1072.75557426 323.84840136 1076.65327454 322.71245956 C1077.31327454 323.04245956 1077.97327454 323.37245956 1078.65327454 323.71245956 C1078.61589285 339.92594107 1078.55572109 356.13915997 1078.4693718 372.35244751 C1078.42978187 379.88277355 1078.39728873 387.41299812 1078.38227844 394.9434166 C1078.36915675 401.51689655 1078.34192954 408.09015135 1078.29866147 414.66350436 C1078.27627933 418.13506054 1078.26034956 421.60634151 1078.26139069 425.07797623 C1078.26065477 459.82283908 1071.6266344 486.52713846 1046.63374329 511.90777206 C1042.02573877 516.36516831 1036.94546409 520.10069227 1031.65327454 523.71245956 C1030.67874329 524.42982285 1030.67874329 524.42982285 1029.68452454 525.16167831 C1023.08201362 529.75158174 1015.19506334 532.10252323 1007.65327454 534.71245956 C1006.7058136 535.04632675 1005.75835266 535.38019394 1004.78218079 535.72417831 C995.04576374 538.91772311 984.936616 538.86089817 974.78060722 538.8383007 C973.62964156 538.83975406 972.4786759 538.84120741 971.29283249 538.8427048 C968.11322736 538.84571304 964.93366099 538.8442794 961.75405739 538.84092672 C958.28233965 538.83837797 954.81062642 538.84165872 951.33890933 538.84417474 C945.24707464 538.84778686 939.15524883 538.84768315 933.06341374 538.84513187 C923.9735475 538.84133523 914.88368861 538.84325695 905.7938224 538.84627201 C889.44259072 538.85150168 873.09136294 538.85096734 856.7401309 538.84812023 C842.24411373 538.84562221 827.74809822 538.84522992 813.25208092 538.84677887 C811.79816036 538.84693003 811.79816036 538.84693003 810.31486768 538.84708425 C806.37314683 538.84749576 802.43142599 538.84791453 798.48970515 538.84834484 C757.8401416 538.8527281 717.19058096 538.84933797 676.54101783 538.84302461 C672.21079783 538.84235512 667.88057782 538.84169044 663.55035782 538.84103012 C661.94014477 538.84078375 661.94014477 538.84078375 660.29740216 538.8405324 C637.63159663 538.83710774 614.96579118 538.83592577 592.29998543 538.83503619 C487.61686735 538.83087041 382.93374085 538.81599812 -27.78422546 538.21245956 C-29.48400053 538.20801722 -29.48400053 538.20801722 -31.2181145 538.20348513 C-86.5943761 538.05856388 -141.97058505 537.89814244 -197.34672546 537.71245956 C-198.60910277 535.18770495 -198.44528951 533.40045491 -198.40922546 530.58745956 C-198.40020203 529.67738144 -198.39117859 528.76730331 -198.38188171 527.82964706 C-198.37028015 527.13097519 -198.35867859 526.43230331 -198.34672546 525.71245956 C-198.67672546 525.71245956 -199.00672546 525.71245956 -199.34672546 525.71245956 C-199.41671775 498.6271882 -199.46966559 471.54193033 -199.50216198 444.45658684 C-199.51764974 431.88120252 -199.53877563 419.30587429 -199.57304382 406.73052597 C-199.60288784 395.77351402 -199.62228657 384.81654269 -199.62899095 373.85949123 C-199.6329117 368.05450024 -199.64216544 362.24962547 -199.66391563 356.44467163 C-199.68420191 350.98646263 -199.69057526 345.52841828 -199.68604851 340.07017517 C-199.68687724 338.06175976 -199.69288946 336.05333913 -199.70434189 334.04495621 C-199.71916318 331.31291614 -199.71571731 328.58150617 -199.70748901 325.84945297 C-199.71622754 325.04596141 -199.72496606 324.24246985 -199.73396939 323.41463006 C-199.71586895 321.20696831 -199.71586895 321.20696831 -199.34672546 317.71245956 C-198.35672546 317.05245956 -197.36672546 316.39245956 -196.34672546 315.71245956 C-191.24878946 318.71124545 -186.60146132 322.03833478 -181.97172546 325.71245956 C-177.42925278 329.30190624 -173.02430613 332.19766432 -167.66313171 334.48199081 C-165.11757396 335.83418422 -163.1277629 337.57024512 -160.95146179 339.44366074 C-158.32885314 341.51724923 -155.3833732 342.96946267 -152.40922546 344.46245956 C-147.00591283 347.24959429 -141.77493361 350.21495586 -136.59672546 353.39995956 C-129.09434541 357.9638913 -121.87003764 362.07819039 -113.16825867 363.77325058 C-112.26589981 363.95009888 -111.36354095 364.12694717 -110.43383789 364.30915451 C-109.40071724 364.50879051 -109.40071724 364.50879051 -108.34672546 364.71245956 C-108.27796703 325.50967531 -108.22514989 286.30689895 -108.19352948 247.10406638 C-108.18977763 242.46938028 -108.18589464 237.83469431 -108.18193054 233.20000839 C-108.18114361 232.27737709 -108.18035668 231.35474579 -108.1795459 230.40415596 C-108.16651375 215.49087899 -108.14287205 200.57763692 -108.11526708 185.66438062 C-108.08715178 170.34698262 -108.07053629 155.02960282 -108.06445998 139.71218008 C-108.06035621 130.2705613 -108.04742367 120.82904121 -108.02297606 111.38745283 C-108.00704316 104.90140697 -108.00234209 98.41541168 -108.00622133 91.9293477 C-108.0081312 88.19460767 -108.00533138 84.46003937 -107.98910904 80.72533035 C-107.92878411 66.11626954 -107.91961191 51.9900663 -111.34672546 37.71245956 C-111.57984845 36.66269471 -111.81297144 35.61292986 -112.05315876 34.53135395 C-115.16596972 21.016285 -121.27266337 12.13655383 -132.84672546 4.77495956 C-134.00889864 4.0798906 -135.17386969 3.38934707 -136.34672546 2.71245956 C-136.01672546 2.05245956 -135.68672546 1.39245956 -135.34672546 0.71245956 C-125.62585413 0.58000725 -115.90495887 0.44950912 -106.18403053 0.32130814 C-101.66712309 0.26168132 -97.15022554 0.20145419 -92.63334656 0.13970566 C-61.7487325 -0.28167421 -30.88580893 -0.35926275 0 0 Z " fill="#E40910" transform="translate(199.3467254638672,622.287540435791)"/>
<path d="M0 0 C8.64624614 -0.02774604 17.29168967 -0.07912605 25.93760169 -0.1604743 C32.08345021 -0.21630983 38.22907986 -0.24523648 44.37517297 -0.25447321 C48.02238451 -0.26069595 51.66863217 -0.27852052 55.31556129 -0.32585907 C59.36337653 -0.37780954 63.40933928 -0.37407786 67.45747948 -0.36573029 C69.23884048 -0.40112411 69.23884048 -0.40112411 71.05618858 -0.43723297 C79.20218624 -0.3559553 83.72150156 1.63573476 89.44331932 7.44481659 C91.22095736 9.38503733 92.81739027 11.36724057 94.44331932 13.44481659 C97.00103598 16.13369821 99.59120231 18.56805242 102.44331932 20.94481659 C105.29155944 23.31835002 107.9347091 25.71485841 110.44331932 28.44481659 C110.44331932 29.10481659 110.44331932 29.76481659 110.44331932 30.44481659 C111.10331932 30.44481659 111.76331932 30.44481659 112.44331932 30.44481659 C113.04144432 31.37294159 113.63956932 32.30106659 114.25581932 33.25731659 C116.52528067 36.56424598 118.02909801 37.52952171 121.44331932 39.44481659 C124.25581932 42.00731659 124.25581932 42.00731659 126.44331932 44.44481659 C126.44331932 45.10481659 126.44331932 45.76481659 126.44331932 46.44481659 C127.10331932 46.44481659 127.76331932 46.44481659 128.44331932 46.44481659 C129.04144432 47.37294159 129.63956932 48.30106659 130.25581932 49.25731659 C132.52528067 52.56424598 134.02909801 53.52952171 137.44331932 55.44481659 C140.25581932 58.00731659 140.25581932 58.00731659 142.44331932 60.44481659 C142.44331932 61.10481659 142.44331932 61.76481659 142.44331932 62.44481659 C143.10331932 62.44481659 143.76331932 62.44481659 144.44331932 62.44481659 C144.87644432 62.96044159 145.30956932 63.47606659 145.75581932 64.00731659 C147.35224241 65.68617286 147.35224241 65.68617286 149.63716698 65.4196701 C153.72359831 64.00004941 156.05383471 61.34889301 159.02925682 58.28466034 C159.9592701 57.34971489 159.9592701 57.34971489 160.90807152 56.39588165 C162.88768603 54.40053764 164.8527489 52.39148606 166.81831932 50.38231659 C168.13255425 49.05658453 169.44765005 47.73170529 170.76363182 46.40770721 C176.2085215 40.91047896 181.57682355 35.40513222 186.59566307 29.51293182 C190.71754738 24.89923178 195.16105435 20.58030223 199.54268456 16.21508026 C201.27312069 14.49006946 202.99806422 12.75969231 204.7226162 11.02880096 C205.82320661 9.92887026 206.9241066 8.82924921 208.02535057 7.72997284 C208.5399131 7.21338608 209.05447563 6.69679932 209.58463097 6.16455841 C214.07051721 1.70826825 216.1454798 1.30546811 222.46138573 1.13280487 C223.18593327 1.11231457 223.9104808 1.09182426 224.65698433 1.07071304 C227.07783717 1.00469663 229.49879366 0.94682398 231.91988182 0.89012909 C232.76047771 0.86919315 233.60107361 0.84825722 234.46714211 0.82668686 C253.12035341 0.36717094 271.77063258 0.29063245 290.42867088 0.3144455 C294.91356361 0.32013325 299.39839675 0.31675747 303.88328743 0.31099319 C328.75063208 0.28417795 353.58736902 0.69955591 378.44331932 1.44481659 C380.19089708 5.28199991 380.80493225 8.5763542 381.10776329 12.77230072 C381.20171662 14.05111335 381.29566996 15.32992598 381.39247036 16.6474905 C381.48593377 18.05952744 381.57845344 19.4716271 381.67012596 20.88378143 C381.74432898 21.97895983 381.74432898 21.97895983 381.82003105 23.09626305 C383.18315567 43.31756767 383.97016539 63.56124014 384.50581932 83.81981659 C384.54450323 85.21892202 384.54450323 85.21892202 384.58396864 86.64629221 C386.85906085 170.64957348 386.85906085 170.64957348 362.26935387 197.85814667 C350.02909459 210.58565849 335.33750225 221.19045637 319.95529747 229.78244781 C317.16255913 231.25940496 317.16255913 231.25940496 316.44331932 234.44481659 C317.87931104 236.51448118 317.87931104 236.51448118 319.88081932 238.50731659 C323.44331932 242.25107882 323.44331932 242.25107882 323.44331932 244.44481659 C324.24769432 244.71294159 325.05206932 244.98106659 325.88081932 245.25731659 C326.72644432 245.64919159 327.57206932 246.04106659 328.44331932 246.44481659 C328.77331932 247.43481659 329.10331932 248.42481659 329.44331932 249.44481659 C330.10331932 249.44481659 330.76331932 249.44481659 331.44331932 249.44481659 C334.92260446 252.48919109 337.05178188 255.01719745 338.44331932 259.44481659 C339.10331932 259.44481659 339.76331932 259.44481659 340.44331932 259.44481659 C340.44331932 260.10481659 340.44331932 260.76481659 340.44331932 261.44481659 C341.52613182 261.78512909 341.52613182 261.78512909 342.63081932 262.13231659 C347.53291813 264.4199627 350.35243376 268.26945407 353.44331932 272.56981659 C355.83570825 275.84489354 357.93587729 277.39167979 361.44331932 279.44481659 C363.9182161 281.99127665 366.16659901 284.72149017 368.44331932 287.44481659 C369.66836529 288.86504809 370.89742586 290.28182837 372.13081932 291.69481659 C372.70445213 292.35223846 373.27808495 293.00966034 373.86910057 293.68700409 C375.14028644 295.10644241 376.47096661 296.47246388 377.81831932 297.81981659 C380.05855177 300.06004904 380.42610904 301.0521628 380.56636715 304.25216103 C380.56544536 305.45970984 380.56452356 306.66725864 380.56357384 307.91139984 C380.56485547 308.918517 380.56485547 308.918517 380.566163 309.94597995 C380.56781621 312.20619834 380.56229905 314.46634327 380.55684471 316.72655487 C380.55656278 318.34259286 380.55672069 319.95863097 380.55728722 321.57466888 C380.55757496 325.9711156 380.55168201 330.36753522 380.54471326 334.76397562 C380.53847582 339.35508748 380.53787561 343.94619992 380.53668785 348.53731537 C380.53357569 357.23541635 380.52536384 365.9335048 380.51533836 374.63160026 C380.50417366 384.53230299 380.49866587 394.43300631 380.49364293 404.33371377 C380.48318114 424.70408837 380.46558392 445.07445169 380.44331932 465.44481659 C358.88600323 465.53822891 337.32872047 465.6087806 315.7712431 465.65206528 C305.76188265 465.67269667 295.75264791 465.70082834 285.74336815 465.7465744 C277.0199887 465.78642445 268.29670029 465.8122452 259.57323235 465.82117057 C254.95353789 465.82638842 250.33410385 465.83866425 245.7144928 465.86773682 C241.36673059 465.894877 237.01933622 465.90326444 232.67149734 465.89724731 C231.07553293 465.89834818 229.47955627 465.90631055 227.88366508 465.92163849 C225.70418938 465.94154557 223.52610178 465.93675453 221.34659386 465.92583466 C220.12706174 465.92952183 218.90752962 465.933209 217.65104198 465.9370079 C213.82944184 465.35062354 212.13702401 464.17288825 209.44331932 461.44481659 C209.44331932 460.78481659 209.44331932 460.12481659 209.44331932 459.44481659 C208.82456932 459.19731659 208.20581932 458.94981659 207.56831932 458.69481659 C205.44331932 457.44481659 205.44331932 457.44481659 204.50581932 455.44481659 C203.60645973 453.20873626 203.60645973 453.20873626 201.12300682 452.62059784 C197.82566311 451.17380417 196.62168604 449.51837611 194.50581932 446.63231659 C191.01791405 442.06968814 187.66827008 438.05729197 182.44331932 435.44481659 C182.44331932 434.78481659 182.44331932 434.12481659 182.44331932 433.44481659 C181.78331932 433.44481659 181.12331932 433.44481659 180.44331932 433.44481659 C179.13863182 432.11669159 179.13863182 432.11669159 177.56831932 430.19481659 C174.34611943 426.391675 170.9286851 422.87607906 167.38081932 419.38231659 C164.05846548 416.10664808 160.81715427 412.83823498 157.81831932 409.25731659 C155.75162637 406.43445532 155.75162637 406.43445532 153.44331932 405.44481659 C153.44331932 404.78481659 153.44331932 404.12481659 153.44331932 403.44481659 C152.78331932 403.44481659 152.12331932 403.44481659 151.44331932 403.44481659 C150.78331932 402.78481659 150.12331932 402.12481659 149.44331932 401.44481659 C144.46825188 404.30548037 141.22381636 407.83006815 137.49800682 412.16747284 C135.65702171 414.20795634 133.80163862 415.94079991 131.69331932 417.69481659 C126.78259672 421.83732714 122.58035205 426.60705111 118.27535057 431.35887909 C115.74634437 434.14057213 113.11895998 436.8030448 110.44331932 439.44481659 C109.58093651 440.31880096 108.7185537 441.19278534 107.83003807 442.09325409 C103.12073831 446.85026021 98.39845794 451.50872876 93.26363182 455.81200409 C91.35273856 457.52606714 89.75234043 459.38515047 88.06831932 461.31981659 C81.19851184 468.14272374 68.02083548 465.58770788 58.92769432 465.57421112 C57.38268556 465.5755685 55.83767713 465.57735032 54.2926693 465.57952118 C50.12589653 465.58405239 45.95914872 465.58232462 41.79237556 465.57914209 C37.42512765 465.57659976 33.05788178 465.5789609 28.69063377 465.58052826 C21.36746908 465.58234295 14.04431451 465.57996043 6.72115135 465.57518768 C-1.75073298 465.56973013 -10.22259331 465.57152132 -18.69447708 465.57701409 C-25.97533118 465.58154581 -33.25617803 465.58219597 -40.53703308 465.57957542 C-44.88306383 465.57801506 -49.22908327 465.57781263 -53.5751133 465.58111191 C-57.65287788 465.58399202 -61.73061129 465.58201236 -65.8083725 465.57621765 C-67.30721866 465.57489151 -68.80606743 465.57528172 -70.30491257 465.57748032 C-72.34431937 465.58019705 -74.38373188 465.57619241 -76.42313576 465.57180023 C-77.56607597 465.57142321 -78.70901619 465.57104618 -79.88659096 465.57065773 C-82.55668068 465.44481659 -82.55668068 465.44481659 -84.55668068 464.44481659 C-84.65012429 443.55669167 -84.72066005 422.66860121 -84.76392937 401.78030968 C-84.78455412 392.08149351 -84.8126731 382.38280721 -84.85843849 372.6840744 C-84.89830887 364.23059983 -84.92411412 355.77721932 -84.93303466 347.32365334 C-84.93824907 342.84756395 -84.95050299 338.37174365 -84.97960091 333.89574051 C-85.00677322 329.68175858 -85.01512204 325.4681563 -85.0091114 321.25409508 C-85.01021083 319.70853931 -85.01815412 318.16297071 -85.03350258 316.61749077 C-85.05346017 314.50403878 -85.04860049 312.39201257 -85.03769875 310.27852631 C-85.04138592 309.0967877 -85.04507309 307.9150491 -85.04887199 306.69750023 C-84.27595668 301.58963074 -81.38190363 297.99175383 -77.75313759 294.44113922 C-77.23293037 293.92685364 -76.71272316 293.41256805 -76.17675209 292.88269806 C-75.6191671 292.34172989 -75.06158211 291.80076172 -74.4871006 291.24340057 C-73.8899424 290.65558807 -73.29278419 290.06777557 -72.67753029 289.46215057 C-71.3892075 288.1947265 -70.09870589 286.92951409 -68.8062439 285.66631126 C-66.7626827 283.66697307 -64.72730849 281.65963756 -62.69420815 279.64966583 C-56.91623332 273.93874092 -51.13000097 268.23639188 -45.32352638 262.55443573 C-41.76593039 259.0719944 -38.22300256 255.57520157 -34.68915176 252.06867409 C-33.34018148 250.73583459 -31.98567362 249.40857601 -30.62564087 248.0870266 C-28.72963189 246.24378562 -26.85279532 244.38290591 -24.9792881 242.51683807 C-24.41158195 241.97384567 -23.84387581 241.43085327 -23.25896645 240.87140656 C-21.52174297 239.18490335 -21.52174297 239.18490335 -19.55668068 236.44481659 C-19.60622319 232.92831877 -20.24146724 231.81717031 -22.51761818 229.12841034 C-23.3142588 228.3871994 -24.11089943 227.64598846 -24.93168068 226.88231659 C-27.76413015 224.22055219 -30.41813103 221.70782943 -32.55668068 218.44481659 C-32.55668068 217.78481659 -32.55668068 217.12481659 -32.55668068 216.44481659 C-33.13418068 216.1831369 -33.71168068 215.92145721 -34.30668068 215.65184784 C-39.91134171 212.64518072 -44.97930051 207.66182934 -48.55668068 202.44481659 C-48.55668068 201.78481659 -48.55668068 201.12481659 -48.55668068 200.44481659 C-49.13418068 200.1831369 -49.71168068 199.92145721 -50.30668068 199.65184784 C-55.91134171 196.64518072 -60.97930051 191.66182934 -64.55668068 186.44481659 C-64.55668068 185.78481659 -64.55668068 185.12481659 -64.55668068 184.44481659 C-65.29660255 184.19473846 -66.03652443 183.94466034 -66.79886818 183.68700409 C-69.78135404 182.34361811 -71.42502838 180.91496506 -73.68168068 178.56981659 C-74.67554787 177.55274628 -74.67554787 177.55274628 -75.68949318 176.51512909 C-80.55668068 171.11845676 -80.55668068 171.11845676 -80.55668068 168.44481659 C-81.87668068 167.78481659 -83.19668068 167.12481659 -84.55668068 166.44481659 C-84.62668159 145.22682143 -84.67962503 124.00884523 -84.7121172 102.79075813 C-84.72760313 92.93940248 -84.74872552 83.08811846 -84.78299904 73.23680878 C-84.81284867 64.65299381 -84.83224311 56.0692307 -84.83894616 47.48536527 C-84.84286597 42.9379156 -84.85211365 38.39061435 -84.87387085 33.84321213 C-84.89416606 29.5669083 -84.9005287 25.29081465 -84.89600372 21.01446724 C-84.89683206 19.44143979 -84.90283913 17.86840563 -84.9142971 16.29541969 C-84.92913286 14.1544965 -84.9256678 12.01437615 -84.91744423 9.87343597 C-84.92020961 8.67326151 -84.92297499 7.47308704 -84.92582417 6.23654366 C-84.80400681 5.31527372 -84.68218946 4.39400379 -84.55668068 3.44481659 C-81.31052558 1.28071319 -80.24940362 1.16365623 -76.47724342 1.04283905 C-74.91203233 0.98738796 -74.91203233 0.98738796 -73.31520081 0.93081665 C-72.17495264 0.90127647 -71.03470448 0.8717363 -69.85990334 0.84130096 C-68.66069567 0.80412712 -67.461488 0.76695328 -66.2259407 0.72865295 C-44.15860646 0.09264677 -22.07505436 0.06967684 0 0 Z " fill="#F4F5F7" transform="translate(804.5566806793213,95.55518341064453)"/>
<path d="M0 0 C4.29007373 0.04988146 8.5801178 0.09641859 12.87031555 0.13433456 C68.61904841 0.63265843 120.45136785 7.35243429 170.85005188 32.33062363 C173.23977972 33.50862916 175.63814744 34.66194932 178.04780579 35.79839706 C184.97332071 39.11484083 190.77702924 42.79281234 196.65327454 47.71245956 C198.02205478 48.74161764 199.39695448 49.76269448 200.77827454 50.77495956 C205.93609099 54.64587528 210.72761261 58.523078 214.90327454 63.46245956 C217.72062279 66.79147869 220.7526819 69.64627021 224.02827454 72.52495956 C229.56376771 77.48651348 234.15917984 82.80413927 238.65327454 88.71245956 C239.43186829 89.70245956 240.21046204 90.69245956 241.01264954 91.71245956 C264.30596086 122.09707197 277.58344395 164.97495278 278.12983704 203.07964706 C278.15901466 204.79190475 278.15901466 204.79190475 278.18878174 206.53875351 C278.5525958 233.45712043 277.55784311 258.72222287 270.21961975 284.70495224 C269.67194399 286.64628249 269.1439414 288.59312959 268.61665344 290.54009628 C261.73340396 315.41798341 249.44702628 337.41981366 233.65327454 357.71245956 C232.93784485 358.66894394 232.22241516 359.62542831 231.48530579 360.61089706 C222.10823839 372.86875423 210.34827646 383.07464028 198.28999329 392.60308456 C196.48249346 394.04908442 194.69415639 395.5192714 192.92280579 397.00933456 C187.10107213 401.90320376 181.25998195 405.96764384 174.65327454 409.71245956 C173.84503235 410.21906113 173.03679016 410.72566269 172.20405579 411.24761581 C143.76170718 428.8112851 111.28645006 437.8952507 78.65327454 443.71245956 C77.53634374 443.9213906 77.53634374 443.9213906 76.39684868 444.13454247 C56.10408385 447.81335843 35.49008916 447.10338456 14.9546864 447.01664138 C9.69105544 446.99766346 4.42741723 446.99610774 -0.83624268 446.99256516 C-10.76616239 446.98330586 -20.69598094 446.95877649 -30.62585646 446.92851669 C-41.94659542 446.89478021 -53.26733967 446.87843868 -64.58811653 446.86343038 C-87.84104188 446.83222021 -111.09387796 446.77958107 -134.34672546 446.71245956 C-133.60908321 442.03768183 -132.53778086 440.64653646 -128.78422546 437.71245956 C-122.75417181 432.52782116 -119.06909676 426.68328914 -115.34672546 419.71245956 C-114.91360046 418.9480455 -114.48047546 418.18363144 -114.03422546 417.39605331 C-106.86184529 402.65575729 -108.88728574 381.71612005 -108.34672546 365.71245956 C-109.00672546 365.38245956 -109.66672546 365.05245956 -110.34672546 364.71245956 C-109.68672546 364.71245956 -109.02672546 364.71245956 -108.34672546 364.71245956 C-108.27796703 325.50967531 -108.22514989 286.30689895 -108.19352948 247.10406638 C-108.18977763 242.46938028 -108.18589464 237.83469431 -108.18193054 233.20000839 C-108.18075015 231.81606144 -108.18075015 231.81606144 -108.1795459 230.40415596 C-108.16651375 215.49087899 -108.14287205 200.57763692 -108.11526708 185.66438062 C-108.08715178 170.34698262 -108.07053629 155.02960282 -108.06445998 139.71218008 C-108.06035621 130.2705613 -108.04742367 120.82904121 -108.02297606 111.38745283 C-108.00704316 104.90140697 -108.00234209 98.41541168 -108.00622133 91.9293477 C-108.0081312 88.19460767 -108.00533138 84.46003937 -107.98910904 80.72533035 C-107.92878411 66.11626954 -107.91961191 51.9900663 -111.34672546 37.71245956 C-111.57984845 36.66269471 -111.81297144 35.61292986 -112.05315876 34.53135395 C-115.16596972 21.016285 -121.27266337 12.13655383 -132.84672546 4.77495956 C-134.00889864 4.0798906 -135.17386969 3.38934707 -136.34672546 2.71245956 C-136.01672546 2.05245956 -135.68672546 1.39245956 -135.34672546 0.71245956 C-125.62585413 0.58000725 -115.90495887 0.44950912 -106.18403053 0.32130814 C-101.66712309 0.26168132 -97.15022554 0.20145419 -92.63334656 0.13970566 C-61.7487325 -0.28167421 -30.88580893 -0.35926275 0 0 Z " fill="#F4F5F7" transform="translate(199.3467254638672,622.287540435791)"/>
<path d="M0 0 C2.33944998 0.03321241 4.67897937 0.06125576 7.01855469 0.08398438 C46.88517892 0.47795648 97.36034504 4.06063429 128.40039062 32.73754883 C129.49480469 33.71401367 129.49480469 33.71401367 130.61132812 34.71020508 C144.23565882 47.52079588 154.04714666 65.32361428 157.40039062 83.73754883 C157.74070312 85.43911133 157.74070312 85.43911133 158.08789062 87.17504883 C159.81065987 106.81461827 157.44779267 130.36550369 145.26367188 146.58129883 C143.06269369 149.07036316 140.75918845 151.39867328 138.40039062 153.73754883 C136.9355978 155.41944488 135.47730012 157.10701865 134.02539062 158.80004883 C122.90747966 171.11467938 108.93035875 179.13761319 94.40039062 186.73754883 C96.61935588 188.95651408 97.65196099 189.23818677 100.62695312 189.99926758 C101.91557251 190.34127197 101.91557251 190.34127197 103.23022461 190.69018555 C104.15262939 190.93269043 105.07503418 191.17519531 106.02539062 191.42504883 C124.96959974 196.64135979 142.43599044 204.81140315 157.40039062 217.73754883 C158.18929688 218.39368164 158.97820312 219.04981445 159.79101562 219.72583008 C163.94554763 223.23394014 163.94554763 223.23394014 165.40039062 224.73754883 C165.40039062 225.39754883 165.40039062 226.05754883 165.40039062 226.73754883 C165.99851562 227.00567383 166.59664062 227.27379883 167.21289062 227.55004883 C169.39886916 228.73672289 170.81371656 229.83353995 172.40039062 231.73754883 C172.40039062 232.39754883 172.40039062 233.05754883 172.40039062 233.73754883 C173.39039063 234.06754883 174.38039063 234.39754883 175.40039062 234.73754883 C175.40039062 235.39754883 175.40039062 236.05754883 175.40039062 236.73754883 C176.39039063 237.06754883 177.38039063 237.39754883 178.40039062 237.73754883 C179.65551758 239.26538086 179.65551758 239.26538086 180.88867188 241.24536133 C181.34491943 241.97682373 181.80116699 242.70828613 182.27124023 243.46191406 C182.74698486 244.25412354 183.22272949 245.04633301 183.71289062 245.86254883 C184.20345947 246.67860596 184.69402832 247.49466309 185.19946289 248.33544922 C189.44054231 255.54858496 192.90736993 262.72180885 195.40039062 270.73754883 C195.60776855 271.38046875 195.81514648 272.02338867 196.02880859 272.68579102 C199.48165453 283.93688268 199.79002374 295.31103954 199.83789062 306.98754883 C199.84728668 308.06282333 199.84728668 308.06282333 199.85687256 309.15982056 C200.02191901 339.05417885 189.17421288 368.0734199 168.40039062 389.73754883 C167.86542969 390.30666992 167.33046875 390.87579102 166.77929688 391.4621582 C154.45601425 404.51117687 141.11886204 415.07520871 125.40039062 423.73754883 C124.76907227 424.08946289 124.13775391 424.44137695 123.48730469 424.80395508 C89.59714151 443.46161728 48.96263612 446.94330286 10.95678711 446.85107422 C9.28927614 446.8507912 7.62176505 446.85095232 5.95425415 446.85151672 C1.48638381 446.85180022 -2.98145894 446.84597684 -7.44932294 446.83894277 C-12.14044376 446.83263376 -16.83156541 446.83209952 -21.52268982 446.83091736 C-30.3796631 446.82782608 -39.23662384 446.81964278 -48.09359163 446.80956787 C-58.18810889 446.79833781 -68.28262679 446.79287901 -78.37714875 446.78787243 C-99.11797592 446.777458 -119.85879185 446.75990182 -140.59960938 446.73754883 C-139.84078708 443.111138 -139.09877738 442.03816103 -135.97460938 439.98754883 C-125.31201093 432.33332637 -119.24972169 421.5302833 -116.59960938 408.73754883 C-114.77510344 392.80130826 -115.44915211 376.51297583 -115.45422566 360.49112689 C-115.45443201 356.415412 -115.44888904 352.33970392 -115.44416809 348.26399231 C-115.43591309 340.30376697 -115.43311566 332.34354905 -115.43255571 324.38331979 C-115.43207838 317.90839848 -115.43001289 311.43347958 -115.42685509 304.95855904 C-115.41806495 286.55761121 -115.41343349 268.15666918 -115.41418556 249.75571924 C-115.4142455 248.2722388 -115.4142455 248.2722388 -115.41430664 246.75878906 C-115.41434752 245.7685808 -115.4143884 244.77837255 -115.41443052 243.75815798 C-115.41483721 227.70145862 -115.40525772 211.64478269 -115.39116827 195.58809011 C-115.3767796 179.05874512 -115.36989936 162.52941155 -115.37076205 146.00006014 C-115.37109301 136.73690172 -115.36838991 127.4737679 -115.357584 118.21061516 C-115.34844644 110.32799413 -115.3463306 102.44540889 -115.35309342 94.56278484 C-115.35634139 90.54847543 -115.35647808 86.53423454 -115.34774017 82.51993179 C-114.50730073 44.28878416 -114.50730073 44.28878416 -131.91210938 11.37426758 C-135.21251915 8.17317569 -138.89305594 5.44745123 -142.59960938 2.73754883 C-142.26960938 2.07754883 -141.93960937 1.41754883 -141.59960938 0.73754883 C-129.31507881 0.6058504 -117.03053587 0.47537751 -104.74597645 0.3463974 C-99.03954757 0.28644653 -93.33312349 0.22609993 -87.62670898 0.16479492 C-82.10237806 0.10546153 -76.57803637 0.04723815 -71.05368614 -0.01026917 C-68.96376834 -0.03220955 -66.87385445 -0.05452574 -64.78394508 -0.07725525 C-43.18596495 -0.31164577 -21.59724659 -0.32791161 0 0 Z " fill="#F4F5F7" transform="translate(639.599609375,622.262451171875)"/>
<path d="M0 0 C1.50499783 0.27070416 3.01020739 0.54023387 4.515625 0.80859375 C20.94966448 3.91619261 36.16693417 10.50345483 51.25 17.5625 C52.65995239 18.21424194 52.65995239 18.21424194 54.09838867 18.87915039 C59.59956053 21.52370801 64.28198041 24.53318797 69.00634766 28.39672852 C71.11380832 30.15100019 71.11380832 30.15100019 74.0703125 31.9609375 C78.10672812 34.77028277 81.42881953 38.13074655 84.875 41.625 C85.5868042 42.34502197 86.2986084 43.06504395 87.03198242 43.80688477 C101.83522826 58.92599658 113.48016716 76.34749884 119.8984375 96.59375 C120.71473693 99.11790992 121.5704715 101.60228758 122.4765625 104.09375 C126.37243257 114.96212957 128.58910926 125.55962387 130 137 C130.25269653 138.85757935 130.25269653 138.85757935 130.51049805 140.75268555 C131.87576336 151.09135875 132.36348535 161.26441837 132.3125 171.6875 C132.31067719 172.46925598 132.30885437 173.25101196 132.30697632 174.05645752 C132.25677512 186.91156297 131.47550513 199.35933011 129 212 C128.83371094 212.89783203 128.66742188 213.79566406 128.49609375 214.72070312 C120.65488298 256.27912022 97.72595855 289.48320261 63.14306641 313.57275391 C56.69626881 317.86621241 49.90198488 321.50095676 43 325 C42.37786621 325.32307129 41.75573242 325.64614258 41.11474609 325.97900391 C28.48687062 332.43585324 14.66510882 335.63686146 1.0144043 339.2019043 C-1.33117446 339.8229213 -3.65901044 340.47287608 -5.984375 341.1640625 C-9.04868361 342.0134952 -12.04421092 342.58841711 -15.1875 343.0625 C-16.19167969 343.21847656 -17.19585937 343.37445312 -18.23046875 343.53515625 C-27.80935139 344.71638634 -37.30999808 345.15837636 -46.95703125 345.16796875 C-48.14423264 345.17129715 -49.33143402 345.17462555 -50.55461121 345.17805481 C-53.0428326 345.18308086 -55.53106064 345.18546449 -58.01928711 345.18530273 C-61.81961019 345.18750412 -65.6196494 345.20574642 -69.41992188 345.22460938 C-71.84895735 345.22754126 -74.27799419 345.22952743 -76.70703125 345.23046875 C-78.40095757 345.24124702 -78.40095757 345.24124702 -80.12910461 345.25224304 C-85.84639955 345.23567809 -90.59488046 344.87000689 -96 343 C-98.59427457 342.71052586 -101.15924443 342.56686867 -103.765625 342.44140625 C-106.54540444 341.89225402 -107.29346678 341.24422232 -109 339 C-109.37604749 336.49565077 -109.37604749 336.49565077 -109.37752342 333.43865204 C-109.38534666 332.27455826 -109.39316991 331.11046449 -109.40123022 329.91109514 C-109.39453805 328.62619424 -109.38784589 327.34129334 -109.38095093 326.01745605 C-109.3844057 324.64344266 -109.38916904 323.26943203 -109.39513266 321.89542723 C-109.40769734 318.11119807 -109.40144762 314.32719484 -109.39217401 310.5429647 C-109.38540612 306.46519649 -109.39585347 302.38746804 -109.40411377 298.30970764 C-109.41747754 290.31800848 -109.41456163 282.32639368 -109.40587585 274.33469117 C-109.39911008 267.84164557 -109.39817777 261.34862367 -109.4014473 254.85557556 C-109.401907 253.93265291 -109.40236669 253.00973025 -109.40284032 252.05884025 C-109.40379947 250.18414103 -109.40477211 248.30944183 -109.4057581 246.43474263 C-109.41431974 228.84156049 -109.40446574 211.24842519 -109.388357 193.65525073 C-109.37495312 178.54830124 -109.37728099 163.4414209 -109.39111328 148.33447266 C-109.40715545 130.80571303 -109.41349569 113.27699449 -109.40427649 95.74822855 C-109.40332081 93.88029385 -109.4023777 92.01235915 -109.4014473 90.14442444 C-109.40098447 89.22528282 -109.40052164 88.3061412 -109.40004479 87.3591468 C-109.39745081 80.87133343 -109.40183468 74.38354604 -109.40888596 67.89573669 C-109.41728603 59.99293258 -109.41505237 52.09021789 -109.39904372 44.18742406 C-109.39114081 40.15265057 -109.38810359 36.11802636 -109.39799118 32.08325386 C-109.40689706 28.39336841 -109.4020737 24.70377135 -109.38605852 21.01391226 C-109.38109265 19.03890956 -109.39094389 17.06388701 -109.40123022 15.08890486 C-109.39340697 13.92481108 -109.38558373 12.76071731 -109.37752342 11.56134796 C-109.37703637 10.55253838 -109.37654931 9.5437288 -109.37604749 8.50434923 C-109 6 -109 6 -107.61930335 4.19466734 C-105.45252294 2.59608991 -103.66760027 2.31679278 -101.01171875 1.90234375 C-100.00794189 1.7415332 -99.00416504 1.58072266 -97.9699707 1.41503906 C-96.88675537 1.25745117 -95.80354004 1.09986328 -94.6875 0.9375 C-93.55594482 0.76831055 -92.42438965 0.59912109 -91.25854492 0.42480469 C-87.84166693 -0.07210871 -84.42229737 -0.54202957 -81 -1 C-80.10313477 -1.12294434 -79.20626953 -1.24588867 -78.28222656 -1.37255859 C-52.87002774 -4.70212401 -25.15715058 -5.11039376 0 0 Z " fill="#0008CB" transform="translate(269,675)"/>
<path d="M0 0 C1.07460612 0.00998791 1.07460612 0.00998791 2.17092144 0.0201776 C4.57514847 0.04764219 6.97723429 0.11025492 9.3808136 0.17172241 C11.1179093 0.19697719 12.85504703 0.21946791 14.59221172 0.23941994 C18.35084349 0.28476147 22.10903564 0.3421985 25.86738205 0.4068985 C34.94313838 0.5524193 44.0194722 0.54026287 53.09617484 0.54914355 C58.58193201 0.55671375 64.06764673 0.57591169 69.55337524 0.59466553 C70.67934268 0.59840624 71.80531011 0.60214695 72.96539778 0.60600102 C88.82953654 0.65916179 104.69365422 0.71866347 120.55775928 0.78102684 C133.44537972 0.83151072 146.33299141 0.87806942 159.22065735 0.91537476 C170.57242162 0.94823608 181.92413623 0.98798545 193.27584571 1.03628981 C199.25681996 1.06151601 205.23776169 1.08331457 211.2187748 1.09684372 C216.8063781 1.10960635 222.39386677 1.13159641 227.98140717 1.16088295 C230.03337306 1.16998822 232.08535739 1.17565578 234.13734245 1.17771339 C236.9263391 1.1810134 239.71500655 1.19642605 242.50393677 1.21502686 C243.32362609 1.21309212 244.14331542 1.21115739 244.98784381 1.20916402 C250.56784313 1.26524608 250.56784313 1.26524608 252.7960968 3.49349976 C253.04449379 5.43467247 253.04449379 5.43467247 253.04219246 7.86258125 C253.04617456 8.78617978 253.05015665 9.70977831 253.05425942 10.66136467 C253.04843374 11.68274934 253.04260805 12.70413401 253.03660583 13.75646973 C253.03916911 15.37611974 253.03916911 15.37611974 253.04178417 17.02848995 C253.04509587 20.67070125 253.03404773 24.31273102 253.02314758 27.95492554 C253.02258383 30.55617264 253.02289932 33.15742007 253.02403259 35.75866699 C253.02508282 41.37135852 253.01879185 46.98400365 253.00755692 52.5966835 C252.99132352 60.7117339 252.98609613 68.82676181 252.98358093 76.94182669 C252.97920043 90.10701299 252.9658817 103.27217455 252.94697571 116.43734741 C252.92862609 129.22836177 252.9144651 142.01936942 252.90596008 154.81039429 C252.90543464 155.59843567 252.90490919 156.38647706 252.90436782 157.19839849 C252.9017578 161.15165199 252.89923037 165.10490553 252.89674401 169.05815911 C252.87600045 201.86995734 252.84076527 234.68172524 252.7960968 267.49349976 C219.46992299 267.56212014 186.14376671 267.61500526 152.81753797 267.64669574 C148.88583025 267.650448 144.95412267 267.65433096 141.02241516 267.65829468 C140.23966102 267.65908161 139.45690688 267.65986854 138.65043292 267.66067932 C125.96511311 267.67374423 113.27983396 267.69740402 100.59453829 267.72495814 C87.58469358 267.75298219 74.5748702 267.76966965 61.56499654 267.77576524 C53.5328945 267.77988793 45.50090737 267.79292341 37.4688407 267.81724916 C31.31673774 267.83493566 25.16472295 267.83687299 19.01259804 267.8328228 C16.48374853 267.83365126 13.95489486 267.83965981 11.42607117 267.85111618 C7.98501555 267.86594657 4.54445969 267.8624878 1.10339355 267.85426331 C0.09270363 267.86300183 -0.9179863 267.87174035 -1.9593032 267.88074368 C-2.87792599 267.87477054 -3.79654877 267.86879739 -4.74300861 267.86264324 C-5.93514059 267.86435198 -5.93514059 267.86435198 -7.15135604 267.86609524 C-9.78964285 267.38717141 -10.65778529 266.66891678 -12.2039032 264.49349976 C-12.58225203 262.46594203 -12.58225203 262.46594203 -12.58701324 260.09342384 C-12.59606988 259.18833474 -12.60512652 258.28324563 -12.61445761 257.35072958 C-12.60912968 256.3551231 -12.60380176 255.35951661 -12.59831238 254.33374023 C-12.60440348 253.27706473 -12.61049459 252.22038922 -12.61677027 251.13169324 C-12.63348541 247.57331402 -12.62861224 244.0152893 -12.62382507 240.45687866 C-12.63116047 237.91285325 -12.63974514 235.36883117 -12.64949036 232.82481384 C-12.66945471 226.62115375 -12.67508383 220.41762519 -12.67330247 214.2139373 C-12.67199595 209.17208692 -12.67579335 204.13026575 -12.68322754 199.08842087 C-12.68532669 197.63729743 -12.68742429 196.186174 -12.68952036 194.73505056 C-12.69056389 194.01282884 -12.69160741 193.29060712 -12.69268256 192.54649989 C-12.71159484 178.87999699 -12.71053182 165.21354774 -12.70371324 151.54703717 C-12.698138 139.04102604 -12.71896049 126.53521978 -12.75207371 114.02925654 C-12.78579726 101.19330888 -12.80098065 88.35745941 -12.79635668 75.52146661 C-12.7941105 68.31296813 -12.79937653 61.10465896 -12.82424927 53.89619827 C-12.84743774 47.11802098 -12.844696 40.34034044 -12.82432175 33.56213188 C-12.82089938 31.0712126 -12.82605314 28.58026494 -12.84030533 26.08938408 C-12.85839112 22.69482758 -12.84582647 19.30173739 -12.82536316 15.90722656 C-12.83788101 14.91608152 -12.85039886 13.92493648 -12.86329603 12.90375674 C-12.80556937 8.452479 -12.63884162 6.14322484 -10.1153059 2.37348557 C-6.45238753 0.00822206 -4.34614843 -0.08576541 0 0 Z " fill="#0008CB" transform="translate(832.2039031982422,194.50650024414063)"/>
<path d="M0 0 C0.92649731 -0.00172116 1.85299461 -0.00344233 2.8075676 -0.00521564 C5.91339578 -0.00957844 9.01917101 -0.00658957 12.125 -0.00341797 C14.32057718 -0.00456003 16.51615421 -0.00603657 18.71173096 -0.00782776 C24.62363234 -0.01085215 30.5355054 -0.0065901 36.44740295 0.00021744 C40.11447119 0.00438257 43.78153886 0.00734757 47.4486084 0.01010132 C77.66105159 0.03581056 107.87425544 0.09251377 138.08514404 0.41898346 C140.34564899 0.44160086 142.60613904 0.45921149 144.86669922 0.47528076 C167.32589904 0.64310566 189.48149341 1.6212731 211.125 8.12939453 C212.00736328 8.38817383 212.88972656 8.64695312 213.79882812 8.91357422 C233.26211484 14.70543997 251.05395207 22.60303877 267.125 35.12939453 C269.68340419 36.86955367 272.25221758 38.5911399 274.8359375 40.29345703 C277.69574504 42.58715932 279.87964273 45.25937613 282.125 48.12939453 C282.76695312 48.92845215 282.76695312 48.92845215 283.421875 49.74365234 C303.02121054 74.38821744 309.51127191 103.5795463 306.90673828 134.74072266 C305.76131961 144.78175665 303.28951812 153.89683441 299.125 163.12939453 C298.81288574 163.85271973 298.50077148 164.57604492 298.17919922 165.32128906 C293.36327353 176.45768784 288.08742672 185.93812085 280.125 195.12939453 C279.33738281 196.04333984 278.54976562 196.95728516 277.73828125 197.89892578 C275.57386943 200.349966 273.36381993 202.74640817 271.125 205.12939453 C270.58875 205.73009766 270.0525 206.33080078 269.5 206.94970703 C246.40062279 231.78153754 207.26780688 244.5905368 174.25048828 246.33398438 C170.31143286 246.4314588 166.37731388 246.4625427 162.4375 246.44189453 C161.74622009 246.44073639 161.05494019 246.43957825 160.3427124 246.43838501 C128.47549181 246.33336251 128.47549181 246.33336251 116.125 240.12939453 C115.465 239.13939453 114.805 238.14939453 114.125 237.12939453 C114.805625 237.01982422 115.48625 236.91025391 116.1875 236.79736328 C118.28778775 236.45383217 120.38660287 236.10124846 122.484375 235.74267578 C124.86593902 235.34148957 127.25145325 234.96292977 129.640625 234.60986328 C147.75467733 231.67296149 165.44104901 225.69508927 181.125 216.12939453 C182.63320312 215.26121094 182.63320312 215.26121094 184.171875 214.37548828 C198.60249056 205.53769066 209.68149213 192.63207181 218.125 178.12939453 C218.71925781 177.12392578 219.31351563 176.11845703 219.92578125 175.08251953 C227.19785192 161.72933765 228.86680258 147.72919868 228.6875 132.81689453 C228.68111008 131.67376297 228.68111008 131.67376297 228.67459106 130.50753784 C228.54090947 113.28470449 226.19395904 98.56832684 216.125 84.12939453 C215.39990234 83.02917969 215.39990234 83.02917969 214.66015625 81.90673828 C202.45621269 64.36145654 181.37909281 56.08660174 161.125 52.12939453 C155.34738576 51.28742871 149.72902232 50.95782671 143.89453125 50.92626953 C143.02926819 50.91934586 142.16400513 50.91242218 141.27252197 50.9052887 C138.49413491 50.88808762 135.71593779 50.88170268 132.9375 50.87939453 C131.52511551 50.87738541 131.52511551 50.87738541 130.084198 50.87533569 C119.40252114 50.87864353 108.78088015 50.90039739 98.1875 52.44189453 C97.37450439 52.55952148 96.56150879 52.67714844 95.72387695 52.79833984 C91.92658428 53.46080116 89.44286528 53.98061938 87.125 57.12939453 C86.67381866 59.6587529 86.67381866 59.6587529 86.74747658 62.56237602 C86.73574171 64.26574035 86.73574171 64.26574035 86.72376978 66.00351608 C86.73046195 67.25668408 86.73715411 68.50985208 86.74404907 69.80099487 C86.74059411 71.14155589 86.73583064 72.48211408 86.72986734 73.82266629 C86.7173024 77.51513838 86.7235528 81.20737893 86.73282599 84.89985204 C86.73959497 88.87980447 86.72914517 92.85971621 86.72088623 96.83966064 C86.70751702 104.64489299 86.7104427 112.45003897 86.71912415 120.25527476 C86.72589651 126.6075289 86.72681932 132.95975882 86.7235527 139.31201553 C86.72286316 140.66778879 86.72286316 140.66778879 86.72215968 142.0509514 C86.72120047 143.88728245 86.72022783 145.72361349 86.7192419 147.55994453 C86.71067644 164.80315608 86.72053569 182.04631989 86.736643 199.28952362 C86.75000639 214.05078722 86.74775331 228.81197991 86.73388672 243.57324219 C86.71778064 260.72641928 86.71154351 277.87955425 86.72072351 295.03273785 C86.72167909 296.86785515 86.7226222 298.70297245 86.7235527 300.53808975 C86.72401553 301.440878 86.72447836 302.34366625 86.72495521 303.27381172 C86.72753313 309.60138365 86.72319923 315.92892867 86.71611404 322.25649643 C86.70764104 329.99373032 86.7100979 337.73087308 86.72595628 345.46809672 C86.73376816 349.40788843 86.73705449 353.34752905 86.72700882 357.28731918 C86.64372642 377.23422945 86.64372642 377.23422945 88.42269897 397.08303833 C88.53366933 397.88381613 88.64463968 398.68459392 88.75897276 399.50963771 C90.91676302 412.76560404 97.46992874 423.92803903 107.125 433.12939453 C107.80949219 433.83580078 108.49398437 434.54220703 109.19921875 435.27001953 C111.18247421 437.3103883 111.18247421 437.3103883 114.1875 439.06689453 C117.20970842 441.18887066 118.49304821 442.86549096 120.125 446.12939453 C117.59508449 447.39435229 115.85768231 447.25242064 113.02511597 447.24964905 C111.4054744 447.25171104 111.4054744 447.25171104 109.75311279 447.2538147 C107.96855682 447.24842178 107.96855682 447.24842178 106.14794922 447.24291992 C104.27482559 447.24313896 104.27482559 447.24313896 102.36386108 447.24336243 C98.93431337 447.24278405 95.50482543 447.23775972 92.0752883 447.23078847 C88.49315662 447.22454831 84.91102421 447.22395061 81.32888794 447.22276306 C74.5432475 447.21965171 67.75762311 447.21144094 60.97198975 447.20141357 C53.24778784 447.19024638 45.52358517 447.18474045 37.7993772 447.17971814 C21.90790883 447.16925818 6.01645648 447.1516625 -9.875 447.12939453 C-7.67701681 443.29818499 -5.63604987 440.90122739 -2.1875 438.12939453 C13.80317307 424.0323538 15.47708801 404.15802305 17.125 384.12939453 C17.60827531 374.29492453 17.55255474 364.44516555 17.53183305 354.60131419 C17.52702196 350.73408719 17.53967988 346.8669061 17.54985046 342.99969482 C17.5668911 335.45802485 17.56790952 327.91643871 17.56263756 320.37475451 C17.55856692 314.23424668 17.56007338 308.0937633 17.56538582 301.95325661 C17.56650845 300.63349108 17.56650845 300.63349108 17.56765376 299.28706363 C17.56918552 297.49865819 17.57072387 295.71025275 17.57226873 293.92184732 C17.58594039 277.21772964 17.58059377 260.51365902 17.56908352 243.80954245 C17.55915618 228.59089211 17.57209275 213.37236344 17.59601771 198.15373185 C17.62051006 182.4535668 17.62999187 166.75345818 17.62336498 151.05327445 C17.61989523 142.26829062 17.62195464 133.4834002 17.63961601 124.69843102 C17.65446562 117.22060404 17.6548094 109.74293628 17.6375451 102.26511201 C17.62913624 98.46412555 17.62663089 94.66342191 17.64219666 90.86245155 C18.5526773 50.0612555 18.5526773 50.0612555 2.125 14.12939453 C-1.94700914 10.08832771 -6.09725421 6.31455839 -10.875 3.12939453 C-10.875 2.46939453 -10.875 1.80939453 -10.875 1.12939453 C-7.50939549 -0.55340772 -3.70136562 -0.0085555 0 0 Z " fill="#F4F5F7" transform="translate(875.875,621.87060546875)"/>
<path d="M0 0 C6.68269797 7.04128177 12.43723191 13.85640454 16.83984375 22.53125 C17.15735596 23.14653564 17.47486816 23.76182129 17.80200195 24.39575195 C23.35730263 35.91968082 23.9616573 47.56733235 23.95825195 60.12963867 C23.96480892 62.82941053 24.01943353 65.5254853 24.07617188 68.22460938 C24.18805887 79.72536598 22.54405449 88.19824048 17.40234375 98.53125 C16.75249757 99.99604646 16.10273606 101.4608805 15.453125 102.92578125 C5.93411969 121.64292652 -11.15977199 131.25641264 -30.53125 137.91015625 C-49.03803329 143.91200828 -67.80992651 144.99519888 -87.14746094 144.8125 C-90.49034822 144.78108373 -93.83276007 144.77147968 -97.17578125 144.765625 C-138.97139898 144.61542152 -138.97139898 144.61542152 -146.59765625 139.53125 C-146.97797298 136.71666813 -146.97797298 136.71666813 -146.9853363 133.04689026 C-146.99072184 132.37351197 -146.99610738 131.70013368 -147.00165612 131.00634998 C-147.01601843 128.73915741 -147.00881204 126.47254193 -147.00170898 124.20532227 C-147.00740828 122.58429492 -147.01437082 120.96327159 -147.02250671 119.34225464 C-147.04050256 114.93109779 -147.03925769 110.52013916 -147.03356433 106.10895658 C-147.03048159 102.4308385 -147.03655473 98.75275901 -147.04260308 95.07464641 C-147.05666792 86.39958537 -147.05507089 77.72462277 -147.04370117 69.04956055 C-147.03221879 60.09038237 -147.04629313 51.13150349 -147.07309765 42.17236477 C-147.095227 34.48909248 -147.10189826 26.80591433 -147.09602123 19.12261242 C-147.0926437 14.52988106 -147.0951192 9.93734158 -147.11227226 5.34463692 C-147.12769535 1.02634528 -147.12383788 -3.29150177 -147.10496712 -7.60977554 C-147.10126825 -9.19688517 -147.10442733 -10.7840274 -147.11485291 -12.3711071 C-147.12797716 -14.53372555 -147.11659432 -16.69485345 -147.09886169 -18.85740662 C-147.09865241 -20.06881034 -147.09844313 -21.28021406 -147.0982275 -22.52832699 C-146.59765625 -25.46875 -146.59765625 -25.46875 -144.70597935 -27.34997654 C-138.02432526 -30.89557032 -128.50111842 -29.56219802 -121.08105469 -29.43237305 C-117.71304086 -29.3879259 -114.83454803 -29.59288516 -111.59765625 -30.46875 C-72.81499541 -34.51329169 -29.24311152 -27.79194959 0 0 Z " fill="#0008CB" transform="translate(740.59765625,875.46875)"/>
<path d="M0 0 C0.76473633 -0.00979385 1.52947266 -0.01958771 2.31738281 -0.02967834 C29.2945435 -0.30364382 57.97703737 0.68450656 78.9765625 20.23828125 C92.46289874 34.39415191 99.10595104 51.08621583 98.7265625 70.6484375 C97.15768391 88.67093027 91.12166479 103.01021112 77.28125 115.1015625 C54.49965172 132.36636259 22.53567412 138.70685843 -5.44726562 138.4440918 C-7.48059457 138.42560251 -9.51346982 138.42358478 -11.546875 138.42382812 C-29.47981803 138.34440072 -29.47981803 138.34440072 -31.5859375 136.23828125 C-31.69291692 134.59229487 -31.73002332 132.9417274 -31.73983765 131.29229736 C-31.74843811 130.22113678 -31.75703857 129.1499762 -31.76589966 128.0463562 C-31.77015961 126.86091217 -31.77441956 125.67546814 -31.77880859 124.45410156 C-31.78698608 123.21352997 -31.79516357 121.97295837 -31.80358887 120.6947937 C-31.82850428 116.56866788 -31.84512255 112.44257884 -31.859375 108.31640625 C-31.86473356 106.89720401 -31.87011107 105.47800184 -31.87550735 104.05879974 C-31.89714375 98.15515142 -31.91588021 92.25150587 -31.92712975 86.34782791 C-31.94336577 77.882192 -31.97652566 69.41701537 -32.03353059 60.95155263 C-32.0722263 55.00245887 -32.09176209 49.05348796 -32.09705031 43.10427165 C-32.10070506 39.5497874 -32.11273745 35.99579255 -32.14515305 32.4414444 C-32.18081408 28.47417216 -32.17686367 24.50747617 -32.16943359 20.54003906 C-32.18583893 19.36269196 -32.20224426 18.18534485 -32.21914673 16.97232056 C-32.15103153 8.10885102 -32.15103153 8.10885102 -29.16812134 5.01824951 C-24.04056711 1.48368948 -18.57491197 1.90275605 -12.484375 1.51953125 C-8.20883043 1.10465361 -4.44962394 0.04584258 0 0 Z " fill="#0008CB" transform="translate(625.5859375,664.76171875)"/>
<path d="M0 0 C0 37.95 0 75.9 0 115 C38.28 115.33 76.56 115.66 116 116 C117 120 117 120 115.331604 123.17726135 C106.8549772 135.590645 95.80598761 148.51621338 80.49389648 151.62469482 C64.47230216 153.9276682 48.07144875 153.00873641 31.95181417 152.21734393 C24.99572416 151.8824912 18.03888867 151.73403175 11.0765872 151.59493434 C0.27158859 151.37411127 -10.52798867 151.05858878 -21.32519531 150.58959961 C-22.3836113 150.54606354 -23.44202728 150.50252747 -24.53251648 150.45767212 C-25.49319534 150.41294266 -26.45387421 150.3682132 -27.44366455 150.3221283 C-28.28040333 150.28408553 -29.11714211 150.24604277 -29.9792366 150.20684719 C-32 150 -32 150 -34 149 C-34.09350696 133.97917134 -34.16401032 118.95836527 -34.20724869 103.93730736 C-34.22786011 96.96250037 -34.2559532 89.98787439 -34.30175781 83.01318359 C-34.34593628 76.28288914 -34.36913441 69.55282164 -34.37950897 62.82237625 C-34.38690285 60.25392318 -34.40134118 57.68548046 -34.42292023 55.11710739 C-34.45193365 51.52104147 -34.45595669 47.92575387 -34.45410156 44.32958984 C-34.46848267 43.26647583 -34.48286377 42.20336182 -34.49768066 41.10803223 C-34.46464307 35.19412091 -34.02367902 31.65463905 -30 27 C-29.50966782 26.423638 -29.01933563 25.847276 -28.5141449 25.25344849 C-28.05242386 24.78712006 -27.59070282 24.32079163 -27.11499023 23.84033203 C-26.31912758 23.03017136 -26.31912758 23.03017136 -25.50718689 22.2036438 C-24.94665115 21.64401947 -24.38611542 21.08439514 -23.80859375 20.5078125 C-23.22207535 19.91700897 -22.63555695 19.32620544 -22.03126526 18.71749878 C-20.79918127 17.47970505 -19.5645134 16.2444784 -18.32739258 15.01171875 C-16.43092246 13.11843351 -14.54823245 11.21213117 -12.66601562 9.3046875 C-11.46435201 8.10075314 -10.26190537 6.89759971 -9.05859375 5.6953125 C-8.49603378 5.12354279 -7.93347382 4.55177307 -7.35386658 3.962677 C-3.34383163 0 -3.34383163 0 0 0 Z " fill="#0008CB" transform="translate(787,379)"/>
<path d="M0 0 C3.1405911 1.27950008 5.14473713 3.02802622 7.46484375 5.46875 C9.30366301 7.30289033 11.26988748 8.94448712 13.25 10.625 C17.65537616 14.49438873 21.25453965 18.77386462 24.859375 23.38671875 C26.89123647 26.0812682 26.89123647 26.0812682 29.59831238 27.93937683 C33.23971357 32.57984578 32.66107095 36.84390603 32.56762695 42.58325195 C32.56872215 44.33998985 32.56872215 44.33998985 32.56983948 46.13221741 C32.56635746 50.00137726 32.52746365 53.86933181 32.48828125 57.73828125 C32.47895531 60.42158548 32.47159226 63.10482304 32.46684265 65.78813171 C32.45131603 72.12763083 32.41030423 78.46669766 32.3600952 84.80600661 C32.3041644 92.02478738 32.27670595 99.24358905 32.25161803 106.46253264 C32.19938686 121.30858871 32.11146812 136.15426579 32 151 C16.60536882 151.14030676 1.21078561 151.24603771 -14.18433475 151.31087303 C-21.33298712 151.34178072 -28.48124168 151.38390095 -35.62963867 151.45263672 C-41.86191484 151.51253479 -48.09390285 151.55117162 -54.32645887 151.56453097 C-57.62524121 151.5723377 -60.92300949 151.59378713 -64.22157478 151.63438034 C-67.90871127 151.67795006 -71.59414156 151.68393337 -75.28149414 151.68115234 C-76.36906509 151.702724 -77.45663605 151.72429565 -78.5771637 151.746521 C-84.71030438 151.69648073 -88.22354454 151.00297815 -92.62438107 146.59372902 C-94.7852069 144.09029529 -96.89372228 141.54970461 -99 139 C-100.66270287 137.66172696 -102.32916181 136.32810215 -104 135 C-108 130.45945946 -108 130.45945946 -108 128 C-108.66 128 -109.32 128 -110 128 C-111.70884005 126.37660195 -113.37446717 124.70680947 -115 123 C-115.66 122.34 -116.32 121.68 -117 121 C-116.67 119.68 -116.34 118.36 -116 117 C-78.38 117 -40.76 117 -2 117 C-2.03480469 104.58246094 -2.03480469 104.58246094 -2.0703125 91.9140625 C-2.08182476 86.01738214 -2.09207834 80.12071018 -2.10050774 74.22402573 C-2.11160709 66.57738525 -2.12571647 58.93078821 -2.15087891 51.28417969 C-2.17290879 44.58634186 -2.1845554 37.88856078 -2.18975449 31.19068527 C-2.1934615 28.63011306 -2.20069992 26.06954353 -2.21146011 23.50899124 C-2.22589196 19.93383385 -2.22798143 16.35887304 -2.22705078 12.78369141 C-2.23424133 11.71554703 -2.24143188 10.64740265 -2.24884033 9.54689026 C-2.246091 8.57651321 -2.24334167 7.60613617 -2.24050903 6.60635376 C-2.24235262 5.7601478 -2.24419621 4.91394184 -2.24609566 4.04209328 C-2 2 -2 2 0 0 Z " fill="#0008CB" transform="translate(1120,378)"/>
<path d="M0 0 C0.97412842 -0.01568527 1.94825684 -0.03137054 2.9519043 -0.04753113 C4.55321449 -0.05020493 4.55321449 -0.05020493 6.18687439 -0.05293274 C7.3124173 -0.06622116 8.43796021 -0.07950958 9.59761047 -0.09320068 C13.3317818 -0.13200123 17.0655636 -0.14750932 20.7999115 -0.15962219 C23.39483734 -0.17433839 25.98976227 -0.18921793 28.58468628 -0.20425415 C34.03300785 -0.23128144 39.48117212 -0.24482495 44.92955017 -0.25117493 C51.20846922 -0.2590266 57.48615987 -0.30815628 63.7646876 -0.37624043 C69.81906333 -0.43958068 75.87276116 -0.45837968 81.92750359 -0.46123695 C84.49548378 -0.46845548 87.06346302 -0.48888158 89.63122749 -0.52293968 C93.23419426 -0.56705965 96.83376044 -0.56017338 100.43687439 -0.54121399 C102.01693016 -0.5772876 102.01693016 -0.5772876 103.62890625 -0.61408997 C111.94546097 -0.48578709 116.43659077 2.65374224 122.26475525 8.41459656 C125.19074696 11.50520899 127.90879273 14.71042614 130.557724 18.03959656 C133.347593 21.50661823 136.30331727 24.22253341 139.81163025 26.92240906 C141.26475525 28.41459656 141.26475525 28.41459656 142.26475525 32.41459656 C85.33975525 32.90959656 85.33975525 32.90959656 27.26475525 33.41459656 C26.93475525 72.35459656 26.60475525 111.29459656 26.26475525 151.41459656 C20.37810104 147.73543768 16.58126001 145.05546022 12.26475525 140.03959656 C8.96493311 136.32326677 5.72514449 132.78355928 1.88975525 129.60209656 C-2.60234267 125.7795524 -7.00277005 121.82946696 -8.28309822 115.86044884 C-8.4922129 112.89024435 -8.51217946 109.9745805 -8.46400452 106.99736023 C-8.46969955 105.87935028 -8.47539459 104.76134033 -8.48126221 103.60945129 C-8.49233045 99.93317 -8.46036494 96.25868703 -8.426651 92.58256531 C-8.423073 90.02285979 -8.42171667 87.46315029 -8.42248535 84.90344238 C-8.41780083 79.54954858 -8.39373827 74.19627319 -8.35267639 68.84257507 C-8.30538756 62.65413958 -8.28968662 56.46626365 -8.29188305 50.27766055 C-8.29371349 44.3145889 -8.27808205 38.35167817 -8.25350761 32.38865089 C-8.24394704 29.8540437 -8.23804526 27.31942002 -8.23582649 24.78479576 C-8.22934328 21.25119627 -8.20313177 17.71830769 -8.17103577 14.18486023 C-8.17239532 13.13287949 -8.17375488 12.08089874 -8.17515564 10.99703979 C-8.16236069 10.03684937 -8.14956573 9.07665894 -8.13638306 8.08737183 C-8.13135552 7.25247821 -8.12632799 6.41758459 -8.12114811 5.55739117 C-7.26476676 0.80218677 -4.43440931 0.03991894 0 0 Z " fill="#0008CB" transform="translate(760.7352447509766,129.5854034423828)"/>
<path d="M0 0 C1.13243637 -0.00073013 2.26487274 -0.00146027 3.43162537 -0.00221252 C7.16007027 0.00125997 10.88725288 0.04010837 14.61547852 0.0793457 C17.20621559 0.08867495 19.79696151 0.09579053 22.38771057 0.1007843 C28.50051094 0.11789872 34.61279342 0.15727039 40.72539908 0.20753175 C47.68788026 0.26353143 54.6503836 0.29093825 61.61303413 0.31600893 C75.92789219 0.36819017 90.24237246 0.45606579 104.55688477 0.56762695 C105.73142619 2.91670979 105.7622725 4.49528722 105.88574219 7.11723328 C105.95500412 8.55608383 105.95500412 8.55608383 106.02566528 10.02400208 C106.0707724 11.08084702 106.11587952 12.13769196 106.16235352 13.2265625 C106.21229462 14.33773437 106.26223572 15.44890625 106.31369019 16.59375 C106.75621372 26.94977142 107.03058662 37.30976428 107.24519348 47.67273235 C107.39270147 54.6203382 107.59755857 61.55612234 107.95043945 68.49658203 C110.46242087 118.86228447 110.46242087 118.86228447 96.45002747 134.64007664 C89.84303849 141.4760264 82.45868123 147.3088892 74.55688477 152.56762695 C70.30808178 146.19442247 71.42220539 137.36819345 71.47509766 129.93896484 C71.47816422 128.91673828 71.48123077 127.89451172 71.48439026 126.84130859 C71.49150499 124.63806928 71.5008734 122.43483631 71.51228523 120.23161507 C71.52975289 116.74802859 71.53999764 113.26448842 71.54820251 109.78086853 C71.57260066 99.88218825 71.6084343 89.98357115 71.65283203 80.08496094 C71.67953997 74.01865992 71.69662785 67.95239417 71.70770073 61.88604546 C71.71392309 59.57387414 71.72394393 57.2617099 71.73777962 54.94957161 C71.75689244 51.72984377 71.76387658 48.51030406 71.76806641 45.29052734 C71.7812088 43.84978096 71.7812088 43.84978096 71.7946167 42.37992859 C71.79331253 41.50669952 71.79200836 40.63347046 71.79066467 39.73377991 C71.79380708 38.97300675 71.79694948 38.2122336 71.80018711 37.42840672 C71.71692911 35.32136275 71.71692911 35.32136275 69.55688477 33.56762695 C67.501131 33.25410565 67.501131 33.25410565 65.10238647 33.28915405 C64.16566605 33.27799057 63.22894562 33.26682709 62.26383972 33.25532532 C60.71772758 33.25208504 60.71772758 33.25208504 59.14038086 33.2487793 C58.05744247 33.23873367 56.97450409 33.22868805 55.85874939 33.21833801 C52.26594594 33.1873553 48.67321749 33.17042897 45.08032227 33.15356445 C42.59452665 33.13486495 40.10873746 33.11529247 37.62295532 33.09487915 C31.74046032 33.04868757 25.85796066 33.01132564 19.97537863 32.97820628 C12.62227099 32.93626957 5.26927736 32.88068658 -2.08374023 32.82543945 C-15.20347 32.72852104 -28.32324941 32.64378812 -41.44311523 32.56762695 C-41.44311523 29.56762695 -41.44311523 29.56762695 -39.93920898 27.8059082 C-39.25987305 27.17040039 -38.58053711 26.53489258 -37.88061523 25.88012695 C-35.09529893 23.20250302 -32.45240026 20.50575053 -29.94311523 17.56762695 C-20.87289082 7.07502644 -14.40520449 -0.24440665 0 0 Z " fill="#0008CB" transform="translate(1046.443115234375,129.432373046875)"/>
</svg>
