<?xml version="1.0" encoding="UTF-8"?>
<!-- Generator: visioncortex VTracer 0.6.2 -->
<svg version="1.1" xmlns="http://www.w3.org/2000/svg" width="1280" height="372">
<path d="M0 0 C0.57717773 0.23203125 1.15435547 0.4640625 1.74902344 0.703125 C10.72029371 4.34700581 19.09320163 8.33635289 27 14 C27.78117188 14.55816406 28.56234375 15.11632812 29.3671875 15.69140625 C40.46568709 24.11534939 50.83960673 34.34966974 58.484375 46.0234375 C59.9268815 48.28696574 59.9268815 48.28696574 63 49 C62.45987441 43.5473036 60.45961767 39.50674007 57.9375 34.75 C54 27.23846154 54 27.23846154 54 25 C56.00102775 23.19360109 58.00010172 21.52552834 60.125 19.875 C60.75591553 19.38362549 61.38683105 18.89225098 62.03686523 18.38598633 C87.93936317 -1.35675164 118.72711118 -9.6357589 150.98388672 -5.62939453 C162.50536471 -3.5793778 172.89769669 1.23986483 183 7 C183.99515625 7.55558594 184.9903125 8.11117188 186.015625 8.68359375 C192.96313149 12.82232262 198.78610221 18.01857178 204.56542969 23.61669922 C205.91572074 24.91873276 207.28921075 26.19658417 208.6640625 27.47265625 C228.42434976 46.28469443 241.22934893 74.87288847 242.10140419 102.17470551 C242.15134343 106.11037949 242.16979919 110.0455256 242.17700195 113.98144531 C242.18327611 115.49335889 242.18992374 117.00527096 242.19691467 118.5171814 C242.21782121 123.45415194 242.2282954 128.39112237 242.23828125 133.328125 C242.24233199 135.03184779 242.24644901 136.73557043 242.25063133 138.43929291 C242.26964309 146.43549591 242.28388986 154.43168983 242.2922433 162.42791104 C242.30204074 171.65234115 242.32844198 180.87653291 242.36874419 190.10087895 C242.39886545 197.23989926 242.41370784 204.37885097 242.41702431 211.51793361 C242.41937671 215.77920702 242.42836378 220.04022457 242.45348549 224.30142975 C242.47670562 228.30377644 242.48102423 232.30569752 242.47072411 236.30809402 C242.47022737 237.77708729 242.4765883 239.24610113 242.49028015 240.71503067 C242.50791419 242.71873616 242.49853537 244.72262535 242.48774719 246.72637939 C242.49013555 247.84795063 242.4925239 248.96952187 242.49498463 250.12508011 C241.88653268 253.65902948 240.80353487 254.83290296 238 257 C235.54727173 257.52812195 235.54727173 257.52812195 232.77587891 257.56518555 C231.73444733 257.58747726 230.69301575 257.60976898 229.62002563 257.63273621 C227.94026138 257.63470757 227.94026138 257.63470757 226.2265625 257.63671875 C225.07006195 257.64766068 223.9135614 257.6586026 222.72201538 257.6698761 C220.27598528 257.68574174 217.82986618 257.69093757 215.38378906 257.6862793 C211.64497911 257.68749351 207.91008451 257.74724167 204.171875 257.81054688 C201.79428041 257.81868912 199.41667088 257.82336094 197.0390625 257.82421875 C195.92326813 257.84779953 194.80747375 257.87138031 193.65786743 257.89567566 C192.61013153 257.88329361 191.56239563 257.87091156 190.48291016 257.8581543 C189.56675934 257.86163376 188.65060852 257.86511322 187.70669556 257.86869812 C184.19223763 256.74075339 182.45640723 255.29080819 180.19340515 252.394063 C177.6343949 247.2604906 178.18262285 241.49656919 178.24291992 235.88574219 C178.23637945 234.45428585 178.22719412 233.02283954 178.21557617 231.59141541 C178.19145657 227.71695403 178.20385838 223.8433714 178.22263885 219.96891308 C178.23578603 215.90207116 178.21419132 211.83541734 178.19612122 207.76861572 C178.16694633 200.06118126 178.16730885 192.35405534 178.17904502 184.6465857 C178.19489917 173.36108203 178.16606724 162.07567547 178.13767719 150.79021072 C178.13354017 149.11821751 178.12942111 147.44622426 178.12532043 145.77423096 C178.12326751 144.95711616 178.12121458 144.14000136 178.11909944 143.29812551 C178.10794773 138.46824136 178.10508058 133.63844263 178.10988748 128.80854845 C178.11244524 125.7914111 178.1113358 122.77428071 178.10974884 119.75714302 C178.10998313 118.36850656 178.11193621 116.97986904 178.11583138 115.59123802 C178.16573107 97.37164653 176.45550536 80.676228 162.97265625 66.93359375 C150.34703752 56.36277734 135.78056963 54.83283574 120 56 C112.61858017 57.38897685 106.50407278 60.55063944 100.25390625 64.6328125 C98 66 98 66 95.40234375 66.9296875 C87.29535815 70.54158027 83.1629724 84.63130898 79.98046875 92.2734375 C78.38656763 96.70587965 77.87497166 100.77388494 77.86869812 105.47169495 C77.86468994 106.5582135 77.86068176 107.64473206 77.85655212 108.76417542 C77.85708084 109.94616013 77.85760956 111.12814484 77.8581543 112.34594727 C77.85467987 113.59846283 77.85120544 114.85097839 77.84762573 116.14144897 C77.84027677 118.85986902 77.83459992 121.57824038 77.83133507 124.29666328 C77.82541089 128.59543473 77.80885898 132.89412403 77.78999329 137.19285583 C77.78365668 138.66593642 77.77733104 140.13901706 77.77101612 141.61209774 C77.76785031 142.3495859 77.7646845 143.08707407 77.76142275 143.84691036 C77.71937025 153.85064409 77.68634953 163.85433797 77.67407227 173.8581543 C77.66569759 180.61278761 77.64323431 187.3672158 77.6047166 194.12174648 C77.58494544 197.69445782 77.57255497 201.26686248 77.57755089 204.83963203 C77.58305125 208.82110586 77.55782275 212.80205952 77.5300293 216.78344727 C77.53663071 217.96745621 77.54323212 219.15146515 77.55003357 220.37135315 C77.53133209 221.99690125 77.53133209 221.99690125 77.51225281 223.6552887 C77.50867028 225.06695234 77.50867028 225.06695234 77.50501537 226.50713444 C76.84765995 229.75198358 75.54724974 230.95300241 73 233 C70.66116333 233.52812195 70.66116333 233.52812195 68.05126953 233.56518555 C66.57921555 233.59862312 66.57921555 233.59862312 65.0774231 233.63273621 C63.49609085 233.63470757 63.49609085 233.63470757 61.8828125 233.63671875 C60.24794388 233.65313164 60.24794388 233.65313164 58.58004761 233.6698761 C56.27525562 233.68573859 53.97036921 233.69093846 51.66552734 233.6862793 C48.14390934 233.68749348 44.62644924 233.74724115 41.10546875 233.81054688 C38.86459349 233.81868928 36.62370239 233.82336096 34.3828125 233.82421875 C33.33263947 233.84779953 32.28246643 233.87138031 31.20046997 233.89567566 C30.21279633 233.88329361 29.22512268 233.87091156 28.20751953 233.8581543 C27.34466339 233.86163376 26.48180725 233.86511322 25.59280396 233.86869812 C21.36480069 232.45213962 19.08452485 229.90188862 17 226 C16.16229401 222.07090829 16.20243835 218.24975085 16.25878906 214.24414062 C16.24766335 212.49384552 16.24766335 212.49384552 16.23631287 210.70819092 C16.21843408 206.85705911 16.24226477 203.0073334 16.265625 199.15625 C16.26297047 196.46688631 16.25073393 193.77759164 16.23846436 191.08825684 C16.214454 184.72781871 16.2191127 178.36776785 16.23558688 172.00731802 C16.26407614 160.65441208 16.24367073 149.30153893 16.21318793 137.94865561 C16.20211151 133.33924966 16.21090044 128.73013865 16.22515869 124.12072754 C16.9001756 101.32770295 16.9001756 101.32770295 9.9375 80.0625 C9.33869019 78.99068481 9.33869019 78.99068481 8.7277832 77.8972168 C2.2466413 66.78650602 -7.55645556 60.55310477 -19.78515625 56.85546875 C-24.31616605 55.79731908 -28.73672276 55.65479659 -33.375 55.6875 C-34.63280273 55.69595947 -34.63280273 55.69595947 -35.91601562 55.70458984 C-48.57022799 55.95285625 -61.01791552 60.81377723 -70 70 C-81.09570265 84.91062963 -84.30748607 99.62203388 -84.27124023 117.84130859 C-84.27563563 119.31411016 -84.28094073 120.78690925 -84.28707886 122.25970459 C-84.29851072 125.41129446 -84.30403317 128.5628177 -84.30496025 131.71442795 C-84.30691154 136.69832143 -84.32501885 141.68207791 -84.34571838 146.66592407 C-84.39474611 159.03521968 -84.42583602 171.40455192 -84.44702148 183.77392578 C-84.46353944 193.40781886 -84.48630689 203.04159289 -84.53004223 212.6754061 C-84.55182268 217.63020849 -84.55987634 222.58478463 -84.55764949 227.53963161 C-84.55931433 230.61658384 -84.57334934 233.69338757 -84.59086227 236.77028656 C-84.59646753 238.19732968 -84.59694171 239.62440351 -84.59192467 241.05144882 C-84.58579718 242.99820212 -84.59974366 244.94498786 -84.61473083 246.89169312 C-84.61774783 248.52590745 -84.61774783 248.52590745 -84.62082577 250.19313622 C-85.05055588 253.37424343 -85.75710127 254.73376087 -88 257 C-90.88790908 257.96263636 -92.75528525 258.136966 -95.75927734 258.16113281 C-96.72392914 258.17074036 -97.68858093 258.1803479 -98.6824646 258.19024658 C-100.24343369 258.1966214 -100.24343369 258.1966214 -101.8359375 258.203125 C-102.90744049 258.20882507 -103.97894348 258.21452515 -105.08291626 258.22039795 C-107.35084038 258.22984738 -109.61877822 258.2363817 -111.88671875 258.24023438 C-115.35441038 258.24994236 -118.82150994 258.28096784 -122.2890625 258.3125 C-124.49218398 258.3190299 -126.6953097 258.32428042 -128.8984375 258.328125 C-129.9350351 258.3404718 -130.97163269 258.3528186 -132.03964233 258.36553955 C-141.15288292 258.33737171 -141.15288292 258.33737171 -145 255 C-148.0727811 251.68186891 -148.37765704 249.39181551 -148.38768005 244.92102051 C-148.39758469 243.67388779 -148.40748932 242.42675507 -148.41769409 241.14183044 C-148.4134557 239.76187036 -148.40889781 238.38191122 -148.40405273 237.00195312 C-148.40975661 235.54614233 -148.41672094 234.09033601 -148.42485046 232.63453674 C-148.44281933 228.6768811 -148.44160361 224.71944683 -148.43590808 220.76176262 C-148.43281401 217.44551777 -148.43891285 214.12931531 -148.44494683 210.8130765 C-148.45900976 202.96958678 -148.45742304 195.12620586 -148.44604492 187.28271484 C-148.43463022 179.23722321 -148.44852233 171.19206751 -148.4754414 163.14662027 C-148.49776044 156.21207817 -148.50419769 149.27764018 -148.49836498 142.34306479 C-148.49502427 138.2142698 -148.49721172 134.0856887 -148.51461601 129.95692444 C-148.64976311 94.48346397 -143.28063303 63.07489952 -120 35 C-119.29230469 34.14019531 -118.58460937 33.28039063 -117.85546875 32.39453125 C-89.77968726 -0.23407967 -40.9891401 -16.65590455 0 0 Z M-46 -5 C-42 -4 -42 -4 -42 -4 Z M-29 -5 C-25 -4 -25 -4 -25 -4 Z M65 47 C66 49 66 49 66 49 Z M16 95 C17 97 17 97 17 97 Z M-147 100 C-146 103 -146 103 -146 103 Z M179 100 C180 103 180 103 180 103 Z M17 101 C18 104 18 104 18 104 Z " fill="#72ECA5" transform="translate(154,7)"/>
<path d="M0 0 C0.67346466 -0.00167175 1.34692932 -0.00334351 2.040802 -0.00506592 C11.87913522 -0.00653382 21.06067091 0.469599 30.5625 3.25 C31.70203125 3.56195313 32.8415625 3.87390625 34.015625 4.1953125 C50.83937071 9.19796816 67.46536779 17.48322448 80.5625 29.25 C81.41199219 30.00410156 82.26148438 30.75820313 83.13671875 31.53515625 C84.83866906 33.05902507 86.53433725 34.58994881 88.22265625 36.12890625 C91.28193197 38.90217289 94.41310975 41.57986479 97.5625 44.25 C98.5525 43.26 98.5525 43.26 99.5625 42.25 C97.24050065 37.2190014 94.6348993 32.92644572 91.375 28.4375 C87.58750821 22.84475512 85.68188923 18.05779866 86.5625 11.25 C88.1875 8.125 88.1875 8.125 90.5625 6.25 C98.0368101 4.03998506 106.6909907 4.94547955 114.40893555 4.89990234 C116.46796956 4.88331428 118.52694534 4.85598701 120.58569336 4.81787109 C123.56654479 4.76304536 126.5460558 4.74122475 129.52734375 4.7265625 C130.44313705 4.70389313 131.35893036 4.68122375 132.30247498 4.65786743 C133.59895714 4.66214249 133.59895714 4.66214249 134.92163086 4.66650391 C135.67488144 4.65841705 136.42813202 4.6503302 137.20420837 4.64199829 C140.80378358 5.57002087 143.33305847 7.33096715 145.5625 10.25 C146.44888362 13.58750529 146.36421689 16.84025455 146.3109436 20.27735901 C146.31889242 21.29561341 146.32684123 22.31386781 146.33503091 23.3629784 C146.35430179 26.77974215 146.33062919 30.19485463 146.30712891 33.61157227 C146.31198405 36.05899677 146.31942203 38.50641733 146.32925415 40.9538269 C146.34613186 46.91377535 146.33503588 52.87307523 146.31072827 58.83294911 C146.28348033 65.7723121 146.2867646 72.71155981 146.29099493 79.6509627 C146.29737388 92.03132397 146.27404343 104.41145504 146.23486328 116.79174805 C146.19684692 128.80744435 146.18269035 140.82287091 146.19384766 152.83862305 C146.20596011 165.92172214 146.20561557 179.00470262 146.18287599 192.08779186 C146.18046139 193.48248255 146.17804942 194.87717324 146.17564011 196.27186394 C146.17443303 196.95808961 146.17322595 197.64431528 146.1719823 198.35133566 C146.16422043 203.18961117 146.16501255 208.02784256 146.1688118 212.86612129 C146.17349631 219.37589234 146.15641537 225.88536518 146.12469101 232.39507675 C146.11618686 234.78803381 146.11451657 237.18102605 146.12007141 239.57399178 C146.12649017 242.83292059 146.10841695 246.09080342 146.08389282 249.34962463 C146.09145147 250.30340879 146.09901012 251.25719296 146.10679781 252.23987967 C146.02147058 258.62052847 146.02147058 258.62052847 143.67651081 261.83660698 C141.1214559 263.54487486 139.65851319 263.76149672 136.59790039 263.78344727 C135.61330338 263.7992836 134.62870636 263.81511993 133.61427307 263.83143616 C132.55691452 263.82647629 131.49955597 263.82151642 130.41015625 263.81640625 C128.77173012 263.82570412 128.77173012 263.82570412 127.10020447 263.83518982 C124.79117728 263.8422909 122.48209892 263.83910903 120.1730957 263.82641602 C116.64112996 263.81256326 113.11181954 263.8466046 109.58007812 263.88476562 C107.33593685 263.88571694 105.09179226 263.88385736 102.84765625 263.87890625 C101.79232193 263.89216446 100.73698761 263.90542267 99.64967346 263.91908264 C94.88639616 263.85864353 92.35974893 263.81769495 88.40234375 260.99975586 C85.95363767 257.34001905 85.75344731 255.29471176 85.97607422 250.9921875 C87.09969671 245.7380127 90.12045429 241.62193958 93.125 237.25 C94.36201155 235.40019196 95.59285013 233.54623553 96.81640625 231.6875 C97.36627197 230.88183594 97.9161377 230.07617188 98.48266602 229.24609375 C98.83901123 228.58738281 99.19535645 227.92867187 99.5625 227.25 C99.2325 226.59 98.9025 225.93 98.5625 225.25 C97.47775391 226.34248047 97.47775391 226.34248047 96.37109375 227.45703125 C69.40508586 254.27301962 37.49617936 268.88654495 -0.80908203 269.27734375 C-38.36640596 268.88663037 -71.20687646 252.51741264 -97.4375 226.25 C-100.61698152 222.70842464 -103.57179381 219.04872681 -106.4375 215.25 C-107.34242187 214.05117188 -107.34242187 214.05117188 -108.265625 212.828125 C-117.02632398 200.75256694 -125.17111189 187.11118826 -127.9765625 172.31640625 C-128.44185955 170.23045592 -129.11969847 168.40913042 -129.9375 166.4375 C-139.8575484 141.0024959 -133.82485871 107.72161733 -123.4375 83.25 C-117.19518855 69.22021837 -109.36295985 56.98351326 -99.4375 45.25 C-98.58296643 44.16695606 -97.72872346 43.08368264 -96.875 42 C-73.0180105 15.08442211 -35.40739986 0.04604691 0 0 Z M-45.88867188 75.15917969 C-47.4375 76.25 -47.4375 76.25 -49.6875 77.36328125 C-51.78387597 78.42550747 -52.92763614 79.64453667 -54.4375 81.4375 C-54.911875 81.98792969 -55.38625 82.53835937 -55.875 83.10546875 C-57.9903262 86.00875397 -59.69874129 89.11408305 -61.4375 92.25 C-61.93443359 93.12096313 -61.93443359 93.12096313 -62.44140625 94.00952148 C-73.12814911 112.76632678 -78.09066781 133.03919861 -72.41430664 154.33813477 C-66.21118184 175.10736437 -53.59069962 191.18994971 -34.671875 201.5859375 C-29.31119973 204.41131949 -29.31119973 204.41131949 -23.4375 205.25 C-23.1075 205.91 -22.7775 206.57 -22.4375 207.25 C-2.41068598 213.19202174 20.48082878 209.8946633 38.77490234 200.66601562 C45.71394923 196.90003204 51.12524699 191.91207051 56.5625 186.25 C57.24957031 185.5590625 57.93664063 184.868125 58.64453125 184.15625 C73.27094261 168.60572986 76.20856696 148.89953473 75.87109375 128.47265625 C75.2561198 111.57235553 68.83773281 95.90086035 57.5625 83.25 C56.98113281 82.57582031 56.39976562 81.90164062 55.80078125 81.20703125 C47.392253 72.09338532 36.1407587 66.33098838 24.5625 62.25 C23.25345703 61.77046875 23.25345703 61.77046875 21.91796875 61.28125 C-1.44127879 54.06294175 -26.72051703 60.99376199 -45.88867188 75.15917969 Z M-131.4375 113.25 C-130.4375 115.25 -130.4375 115.25 -130.4375 115.25 Z M-132.4375 120.25 C-131.4375 124.25 -131.4375 124.25 -131.4375 124.25 Z M76.5625 128.25 C76.5625 132.87 76.5625 137.49 76.5625 142.25 C76.8925 142.25 77.2225 142.25 77.5625 142.25 C77.5625 137.63 77.5625 133.01 77.5625 128.25 C77.2325 128.25 76.9025 128.25 76.5625 128.25 Z M-132.4375 146.25 C-131.4375 150.25 -131.4375 150.25 -131.4375 150.25 Z M75.5625 147.25 C76.5625 149.25 76.5625 149.25 76.5625 149.25 Z M-131.4375 155.25 C-130.4375 157.25 -130.4375 157.25 -130.4375 157.25 Z M-3.4375 210.25 C-3.4375 210.58 -3.4375 210.91 -3.4375 211.25 C-0.1375 211.25 3.1625 211.25 6.5625 211.25 C6.5625 210.92 6.5625 210.59 6.5625 210.25 C3.2625 210.25 -0.0375 210.25 -3.4375 210.25 Z " fill="#73EDA6" transform="translate(1131.4375,0.75)"/>
<path d="M0 0 C0.95812088 -0.0159874 1.91624176 -0.03197479 2.90339661 -0.04844666 C4.4472126 -0.05649071 4.4472126 -0.05649071 6.0222168 -0.06469727 C7.08756149 -0.07372574 8.15290619 -0.08275421 9.25053406 -0.09205627 C11.50407095 -0.10655852 13.75764994 -0.11544544 16.01123047 -0.11914062 C19.4485626 -0.13102444 22.88409223 -0.18020208 26.32104492 -0.23071289 C28.51309347 -0.24017886 30.70515303 -0.24741306 32.8972168 -0.25219727 C34.43192375 -0.28149574 34.43192375 -0.28149574 35.99763489 -0.31138611 C37.44900093 -0.30226952 37.44900093 -0.30226952 38.9296875 -0.29296875 C40.19399345 -0.30057472 40.19399345 -0.30057472 41.48384094 -0.30833435 C45.58085969 0.63315151 48.54827104 1.91211332 51.15893555 5.30639648 C52.20195941 9.48108853 52.08114401 13.57697762 52.01367188 17.86083984 C52.02123505 19.13630676 52.02879822 20.41177368 52.03659058 21.72589111 C52.05677714 25.22073297 52.03430534 28.71416758 52.00475907 32.20889354 C51.98161549 35.87928468 51.99970378 39.54946062 52.01383972 43.21986389 C52.03477435 50.18369111 52.02186325 57.14699824 51.99536771 64.11079079 C51.94935418 76.54421033 51.96516501 88.97766522 51.98641795 101.4111262 C51.99259348 105.76524326 51.98571347 110.11908039 51.96719992 114.47316062 C51.95953894 116.54030451 51.95631682 118.6074037 51.95480347 120.67456055 C51.95248155 123.17629408 51.94304162 125.67803766 51.9243927 128.17970276 C51.94280651 148.06572667 55.92488258 168.84987219 70.09643555 183.74389648 C73.81421244 187.19713925 77.69229247 189.91447054 82.15893555 192.30639648 C82.79959961 192.67635742 83.44026367 193.04631836 84.1003418 193.42749023 C98.78063902 201.03227418 119.97597781 199.72958338 135.3425293 195.41186523 C149.30707703 190.66760712 160.8269093 181.08774218 167.9050293 168.10327148 C173.25386095 157.07210789 174.45346471 147.55874262 174.41430664 135.43652344 C174.41706156 134.05578404 174.42074449 132.67504623 174.42527771 131.29431152 C174.43334468 128.33804998 174.43556968 125.38186387 174.43333054 122.42559242 C174.43048213 117.74787413 174.44490412 113.07030496 174.46231079 108.3926239 C174.50919875 95.09722086 174.53328795 81.80182981 174.53979492 68.50634766 C174.54354684 61.15033088 174.56157966 53.79448474 174.59488928 46.43854111 C174.61507627 41.79113577 174.61748803 37.14417122 174.60660911 32.49673998 C174.60399915 29.60538768 174.61801833 26.7142915 174.63669014 23.82300568 C174.64453334 21.84900677 174.63258672 19.87496014 174.62001038 17.90098572 C174.72289504 6.87150486 174.72289504 6.87150486 179.15893555 2.30639648 C182.0567093 0.29380068 184.43868366 0.04491009 187.92407227 0 C189.336064 -0.02398109 189.336064 -0.02398109 190.77658081 -0.04844666 C191.78705475 -0.05380936 192.79752869 -0.05917206 193.83862305 -0.06469727 C194.88414337 -0.07372574 195.9296637 -0.08275421 197.00686646 -0.09205627 C199.21752052 -0.10655625 201.42821748 -0.11544488 203.63891602 -0.11914062 C207.0148168 -0.13103615 210.38888922 -0.18022547 213.7644043 -0.23071289 C215.91413497 -0.24017747 218.06387686 -0.24741234 220.21362305 -0.25219727 C221.72326126 -0.28149574 221.72326126 -0.28149574 223.26339722 -0.31138611 C227.84318389 -0.28201321 231.12725017 -0.23521004 234.78051758 2.71630859 C238.83028975 7.1264947 238.29989959 10.79807649 238.28591919 16.53710938 C238.28747918 17.50617061 238.28903917 18.47523184 238.29064643 19.47365856 C238.29465564 22.74213846 238.29146691 26.01057244 238.28833008 29.27905273 C238.2896843 31.61464465 238.29146434 33.95023635 238.29364014 36.28582764 C238.29821606 42.65035649 238.2964232 49.0148692 238.29326105 55.37939835 C238.29098961 61.3687512 238.29272176 67.35810257 238.29418825 73.34745538 C238.29704385 85.95324834 238.2937566 98.55903403 238.28838788 111.1648258 C238.28393632 121.9496499 238.28468195 132.73446321 238.28930664 143.51928711 C238.29467964 156.05493821 238.29675174 168.59058291 238.29369438 181.12623501 C238.2921209 187.75661361 238.29191024 194.38698623 238.29523087 201.0173645 C238.29814221 207.26848327 238.29607451 213.51958193 238.29033661 219.77069855 C238.28902547 222.05297055 238.28937477 224.33524427 238.29159927 226.61751556 C238.32304031 262.18490704 238.32304031 262.18490704 235.47143555 275.43139648 C235.29845947 276.25776611 235.1254834 277.08413574 234.94726562 277.93554688 C231.56593863 293.21691123 225.27256309 310.95440696 214.15893555 322.30639648 C212.82811788 322.97807094 211.49496787 323.64515534 210.15893555 324.30639648 C209.62268555 325.15202148 209.08643555 325.99764648 208.53393555 326.86889648 C197.25858438 344.64263706 173.03828729 353.77453813 153.50195312 358.15844727 C141.88964116 360.61898463 130.57336565 361.55995221 118.71044922 361.65649414 C117.21224547 361.67315719 115.71412446 361.70058137 114.21630859 361.73852539 C112.02620396 361.79345114 109.83791805 361.81517059 107.6472168 361.82983398 C106.35340088 361.84965332 105.05958496 361.86947266 103.7265625 361.88989258 C99.04770206 361.12465091 97.47929532 359.62394425 94.15893555 356.30639648 C93.01371228 354.01594995 93.01497029 352.68305814 92.98193359 350.13549805 C92.96909836 349.27410217 92.95626312 348.4127063 92.94303894 347.52520752 C92.93565201 346.59190613 92.92826508 345.65860474 92.9206543 344.69702148 C92.90854668 343.25767242 92.90854668 343.25767242 92.89619446 341.78924561 C92.88234814 339.75494191 92.87162844 337.72061493 92.86376953 335.6862793 C92.84658088 332.58263752 92.80270241 329.48006757 92.75854492 326.37670898 C92.74841589 324.40015432 92.73990044 322.42359059 92.7331543 320.44702148 C92.71564621 319.52181702 92.69813812 318.59661255 92.68009949 317.64337158 C92.69881284 312.05281382 93.27958156 308.65304501 97.15893555 304.30639648 C100.18115913 302.17265599 102.7377256 302.05680906 106.38549805 302.03295898 C107.40877197 302.01523437 108.4320459 301.99750977 109.48632812 301.97924805 C110.57453857 301.96345703 111.66274902 301.94766602 112.78393555 301.93139648 C133.49007309 301.35270446 156.22538793 297.17893202 171.15893555 281.43139648 C175.17461422 276.38778092 177.22073121 271.54294434 177.09643555 265.03295898 C176.87658336 252.1441245 183.23688947 244.91178271 191.15893555 235.30639648 C191.95686523 234.30866211 192.75479492 233.31092773 193.5769043 232.28295898 C194.09897461 231.63069336 194.62104492 230.97842773 195.15893555 230.30639648 C194.82893555 229.64639648 194.49893555 228.98639648 194.15893555 228.30639648 C193.61108398 228.77948242 193.06323242 229.25256836 192.4987793 229.73999023 C174.35051064 244.87830214 153.3993588 253.59142795 130.15893555 257.30639648 C129.21920898 257.4572168 128.27948242 257.60803711 127.3112793 257.76342773 C124.91703918 258.06320738 122.57031022 258.21749788 120.15893555 258.30639648 C118.45157227 258.38374023 118.45157227 258.38374023 116.7097168 258.46264648 C83.65552009 259.25200044 52.93108159 247.74771896 28.73706055 225.25170898 C4.62282193 202.18271032 -11.08725396 172.410852 -12.12200928 138.49157715 C-12.26117403 130.95481457 -12.26407291 123.41885184 -12.24404097 115.88114262 C-12.23635022 112.07454375 -12.24351398 108.26796466 -12.24819946 104.46136475 C-12.25362203 98.08707714 -12.24654988 91.71289463 -12.23217773 85.33862305 C-12.21577349 77.97822469 -12.22120972 70.61807469 -12.23765695 63.25768209 C-12.25127189 56.90909682 -12.25319399 50.56058621 -12.24534094 44.21199107 C-12.24067524 40.43211076 -12.24001082 36.65234738 -12.24995041 32.87247467 C-12.26022987 28.67223843 -12.24598299 24.47243221 -12.22924805 20.2722168 C-12.23532074 19.02649902 -12.24139343 17.78078125 -12.24765015 16.49731445 C-12.23919067 15.35385559 -12.2307312 14.21039673 -12.22201538 13.0322876 C-12.2208843 12.04131702 -12.21975323 11.05034645 -12.21858788 10.02934647 C-11.77283367 6.81427074 -10.72164138 4.92901995 -8.84106445 2.30639648 C-5.92017387 0.30222258 -3.49688046 0.04426749 0 0 Z M176.15893555 8.30639648 C176.15893555 53.18639648 176.15893555 98.06639648 176.15893555 144.30639648 C176.48893555 144.30639648 176.81893555 144.30639648 177.15893555 144.30639648 C177.15893555 99.42639648 177.15893555 54.54639648 177.15893555 8.30639648 C176.82893555 8.30639648 176.49893555 8.30639648 176.15893555 8.30639648 Z M-10.84106445 139.30639648 C-10.84106445 141.28639648 -10.84106445 143.26639648 -10.84106445 145.30639648 C-10.51106445 145.30639648 -10.18106445 145.30639648 -9.84106445 145.30639648 C-9.84106445 143.32639648 -9.84106445 141.34639648 -9.84106445 139.30639648 C-10.17106445 139.30639648 -10.50106445 139.30639648 -10.84106445 139.30639648 Z M175.15893555 149.30639648 C176.15893555 151.30639648 176.15893555 151.30639648 176.15893555 151.30639648 Z M-9.84106445 151.30639648 C-8.84106445 153.30639648 -8.84106445 153.30639648 -8.84106445 153.30639648 Z M103.15893555 199.30639648 C107.15893555 200.30639648 107.15893555 200.30639648 107.15893555 200.30639648 Z M178.15893555 268.30639648 C179.15893555 270.30639648 179.15893555 270.30639648 179.15893555 270.30639648 Z " fill="#72ECA5" transform="translate(736.841064453125,5.693603515625)"/>
<path d="M0 0 C1.25683594 0.3403125 1.25683594 0.3403125 2.5390625 0.6875 C4.75230325 1.35064329 6.85573484 2.13805486 9 3 C10.16402344 3.45890625 11.32804688 3.9178125 12.52734375 4.390625 C29.15599931 11.1715011 42.92535833 20.75146957 56 33 C56.50611816 33.47099121 57.01223633 33.94198242 57.53369141 34.42724609 C58.73152939 35.57550677 59.87214151 36.78293236 61 38 C61 38.66 61 39.32 61 40 C62.32 39.67 63.64 39.34 65 39 C63.46976387 31.99409964 59.94074009 27.08562178 55.8125 21.31640625 C52.67168471 16.7215098 51.24135762 13.76138787 52 8 C53.70310674 4.16800983 55.1564011 2.55739298 59 1 C61.22494507 0.71238708 61.22494507 0.71238708 63.67333984 0.66186523 C64.59464691 0.63942245 65.51595398 0.61697968 66.46517944 0.59385681 C67.94807968 0.5764016 67.94807968 0.5764016 69.4609375 0.55859375 C70.48426178 0.54482193 71.50758606 0.53105011 72.56192017 0.51686096 C74.72547003 0.4936033 76.88909131 0.47633059 79.05273438 0.46459961 C82.35679957 0.43764846 85.65767691 0.36272084 88.9609375 0.28710938 C91.06508266 0.27045369 93.16925308 0.2566867 95.2734375 0.24609375 C96.2579892 0.21623886 97.24254089 0.18638397 98.25692749 0.15562439 C99.18453888 0.16155106 100.11215027 0.16747772 101.06787109 0.17358398 C102.28221329 0.15931618 102.28221329 0.15931618 103.52108765 0.14476013 C107.56367986 1.53947908 109.81887087 4.38691412 112 8 C112.83522991 11.39565539 112.80349571 14.66323935 112.7484436 18.14724731 C112.75639242 19.15425434 112.76434123 20.16126137 112.77253091 21.19878376 C112.79174605 24.56555535 112.76816313 27.93063946 112.74462891 31.29736328 C112.74948586 33.71390408 112.7569256 36.13044086 112.76675415 38.54696655 C112.78361006 44.42402044 112.77255923 50.30062627 112.74822827 56.17761721 C112.7209456 63.02324562 112.7242676 69.86875765 112.72849493 76.71442662 C112.7348699 88.92837102 112.71156539 101.14208188 112.67236328 113.35595703 C112.63434015 125.20563872 112.62019306 137.05504683 112.63134766 148.90478516 C112.64346362 161.8139478 112.64310979 174.72299024 112.62037599 187.6321429 C112.61796144 189.00856518 112.61554947 190.38498747 112.61314011 191.76140976 C112.61193303 192.43861241 112.61072595 193.11581506 112.6094823 193.81353901 C112.6017253 198.58474301 112.60251064 203.35590226 112.6063118 208.12710953 C112.61099937 214.54744337 112.5938967 220.96750144 112.56219101 227.38776016 C112.55369357 229.74643498 112.5520121 232.10514546 112.55757141 234.46382904 C112.56399978 237.6785143 112.54589262 240.89214335 112.52139282 244.10671997 C112.52895147 245.04455421 112.53651012 245.98238844 112.54429781 246.9486419 C112.48742173 251.15449279 112.35416949 253.42121226 110.11638355 257.07822704 C107.54864357 259.40985226 106.37583823 259.63562594 102.94360352 259.6628418 C101.93898575 259.68183029 100.93436798 259.70081879 99.89930725 259.72038269 C98.28045876 259.70990654 98.28045876 259.70990654 96.62890625 259.69921875 C95.51442612 259.70637405 94.39994598 259.71352936 93.25169373 259.72090149 C90.89558717 259.72868334 88.53940862 259.72365627 86.18334961 259.70678711 C82.57852988 259.68758539 78.97757592 259.72691714 75.37304688 259.77148438 C73.08333104 259.77177477 70.79361166 259.76863379 68.50390625 259.76171875 C67.42669815 259.77700119 66.34949005 259.79228363 65.23963928 259.80802917 C57.95374193 259.694629 57.95374193 259.694629 55.20599365 257.69338989 C51.9071779 253.85770919 51.02255162 250.82805123 51.23828125 245.92578125 C52.90064346 239.54060536 57.24027458 234.31816083 61 229 C62.90967111 225.97351231 64.34584894 223.53241574 65 220 C61.59402461 220.56400023 60.20050181 221.50463347 58.0625 224.1875 C57.59972656 224.75855469 57.13695312 225.32960937 56.66015625 225.91796875 C55.34427528 227.5682383 54.04427051 229.23116542 52.75 230.8984375 C49.88105687 234.3249775 46.56295575 236.85447335 42.9375 239.4375 C42.27339111 239.91413086 41.60928223 240.39076172 40.92504883 240.88183594 C14.91754109 259.32085619 -16.7397418 267.78269024 -48.54321289 263.28173828 C-84.67553732 257.1220747 -116.34826743 236.15322176 -137.625 206.4375 C-143.1285499 198.44823588 -147.23408724 189.91488197 -151 181 C-151.43054688 180.01902344 -151.86109375 179.03804687 -152.3046875 178.02734375 C-154.90816343 171.87971992 -156.33514001 165.73983742 -157.5 159.1875 C-157.90292375 156.98472517 -157.90292375 156.98472517 -159 155.125 C-166.30748851 139.59658692 -161.45984163 111.90811219 -157 96 C-156.81808105 95.3301709 -156.63616211 94.6603418 -156.44873047 93.97021484 C-153.57917851 83.68444817 -149.04300864 74.35464512 -144 65 C-143.42121094 63.91460937 -142.84242188 62.82921875 -142.24609375 61.7109375 C-138.21549812 54.47269848 -133.42450756 48.24416999 -128 42 C-127.31292969 41.16726562 -126.62585938 40.33453125 -125.91796875 39.4765625 C-96.28398573 4.61952125 -43.89647467 -12.7290417 0 0 Z M-90 78 C-90.68865879 79.32210865 -91.35132073 80.65782362 -92 82 C-93.0345129 83.57717488 -94.07044513 85.15350546 -95.12255859 86.71899414 C-106.81033777 104.21229515 -112.11886524 124.03862658 -108.37890625 145.01953125 C-103.51888489 165.30202037 -92.85962394 183.06038399 -75 194.3125 C-71.03577187 196.60170216 -67.12416496 198.15049256 -62.71484375 199.359375 C-61 200 -61 200 -60 202 C-59.34 201.67 -58.68 201.34 -58 201 C-57.67 201.66 -57.34 202.32 -57 203 C-56.34 202.67 -55.68 202.34 -55 202 C-54.67 202.66 -54.34 203.32 -54 204 C-31.74376191 207.48104632 -9.16326715 205.54431035 10 193 C21.99954834 184.11956089 31.86114903 172.05626883 37 158 C37.391875 157.0203125 37.78375 156.040625 38.1875 155.03125 C42.69364601 141.63798268 41.35185688 126.94571194 41 113 C40.34 113 39.68 113 39 113 C39.33 111.68 39.66 110.36 40 109 C39.34 109 38.68 109 38 109 C37.938125 108.236875 37.87625 107.47375 37.8125 106.6875 C34.21387878 90.35529602 23.09936925 76.37644492 9.375 67.3125 C-21.21846452 47.91798119 -64.33856471 50.88210486 -90 78 Z M-159 109 C-158 111 -158 111 -158 111 Z M-160 116 C-159 120 -159 120 -159 120 Z M41 117 C42 119 42 119 42 119 Z M42 125 C42 128.96 42 132.92 42 137 C42.33 137 42.66 137 43 137 C43 133.04 43 129.08 43 125 C42.67 125 42.34 125 42 125 Z M-160 142 C-159 146 -159 146 -159 146 Z M-159 151 C-158 153 -158 153 -158 153 Z M-38 206 C-38 206.33 -38 206.66 -38 207 C-34.7 207 -31.4 207 -28 207 C-28 206.67 -28 206.34 -28 206 C-31.3 206 -34.6 206 -38 206 Z M66 221 C67 223 67 223 67 223 Z " fill="#73EDA6" transform="translate(585,5)"/>
<path d="M0 0 C14.52 0 29.04 0 44 0 C44 0.33 44 0.66 44 1 C29.48 1 14.96 1 0 1 C0 0.67 0 0.34 0 0 Z " fill="#73EDA6" transform="translate(735,5)"/>
<path d="M0 0 C13.86 0 27.72 0 42 0 C42 0.33 42 0.66 42 1 C28.14 1 14.28 1 0 1 C0 0.67 0 0.34 0 0 Z " fill="#73EDA6" transform="translate(1227,5)"/>
<path d="M0 0 C13.86 0 27.72 0 42 0 C42 0.33 42 0.66 42 1 C28.14 1 14.28 1 0 1 C0 0.67 0 0.34 0 0 Z " fill="#73EDA6" transform="translate(924,5)"/>
<path d="M0 0 C13.86 0 27.72 0 42 0 C42 0.33 42 0.66 42 1 C28.14 1 14.28 1 0 1 C0 0.67 0 0.34 0 0 Z " fill="#73EDA6" transform="translate(647,5)"/>
<path d="M0 0 C0 0.99 0 1.98 0 3 C-1.98 3.99 -1.98 3.99 -4 5 C-2.68 3.35 -1.36 1.7 0 0 Z " fill="#336949" transform="translate(248,74)"/>
<path d="M0 0 C2.97 0 5.94 0 9 0 C9 0.33 9 0.66 9 1 C6.03 1 3.06 1 0 1 C0 0.67 0 0.34 0 0 Z " fill="#73EDA6" transform="translate(283,0)"/>
<path d="M0 0 C0 0.99 0 1.98 0 3 C-0.99 3 -1.98 3 -3 3 C-2.01 2.01 -1.02 1.02 0 0 Z " fill="#316647" transform="translate(643,229)"/>
<path d="M0 0 C0.33 0 0.66 0 1 0 C1 1.98 1 3.96 1 6 C0.67 6 0.34 6 0 6 C0 4.02 0 2.04 0 0 Z " fill="#73EDA6" transform="translate(636,250)"/>
<path d="M0 0 C0.33 0 0.66 0 1 0 C1 1.65 1 3.3 1 5 C0.67 5 0.34 5 0 5 C0 3.35 0 1.7 0 0 Z " fill="#73EDA6" transform="translate(1217,251)"/>
<path d="M0 0 C0.33 0 0.66 0 1 0 C1 1.65 1 3.3 1 5 C0.67 5 0.34 5 0 5 C0 3.35 0 1.7 0 0 Z " fill="#73EDA6" transform="translate(1217,14)"/>
<path d="M0 0 C0.33 0.66 0.66 1.32 1 2 C0.34 1.67 -0.32 1.34 -1 1 C-0.67 0.67 -0.34 0.34 0 0 Z " fill="#264F37" transform="translate(946,331)"/>
<path d="" fill="#000100" transform="translate(0,0)"/>
<path d="" fill="#000100" transform="translate(0,0)"/>
<path d="" fill="#000100" transform="translate(0,0)"/>
<path d="" fill="#000100" transform="translate(0,0)"/>
<path d="" fill="#000100" transform="translate(0,0)"/>
<path d="" fill="#000100" transform="translate(0,0)"/>
<path d="" fill="#000100" transform="translate(0,0)"/>
<path d="" fill="#000100" transform="translate(0,0)"/>
<path d="" fill="#000100" transform="translate(0,0)"/>
<path d="" fill="#000100" transform="translate(0,0)"/>
<path d="" fill="#000100" transform="translate(0,0)"/>
<path d="" fill="#000100" transform="translate(0,0)"/>
<path d="" fill="#000100" transform="translate(0,0)"/>
<path d="" fill="#000100" transform="translate(0,0)"/>
<path d="" fill="#000100" transform="translate(0,0)"/>
<path d="" fill="#000100" transform="translate(0,0)"/>
<path d="" fill="#000100" transform="translate(0,0)"/>
<path d="" fill="#000100" transform="translate(0,0)"/>
<path d="" fill="#000100" transform="translate(0,0)"/>
<path d="" fill="#000100" transform="translate(0,0)"/>
<path d="" fill="#000100" transform="translate(0,0)"/>
<path d="" fill="#000100" transform="translate(0,0)"/>
<path d="" fill="#000100" transform="translate(0,0)"/>
<path d="" fill="#73EDA6" transform="translate(0,0)"/>
</svg>
